%TF.GenerationSoftware,KiCad,Pcbnew,7.0.1*%
%TF.CreationDate,2024-06-21T04:11:25+03:00*%
%TF.ProjectId,_____ GDI,1f3b3042-3020-4474-9449-2e6b69636164,rev?*%
%TF.SameCoordinates,Original*%
%TF.FileFunction,Legend,Top*%
%TF.FilePolarity,Positive*%
%FSLAX46Y46*%
G04 Gerber Fmt 4.6, Leading zero omitted, Abs format (unit mm)*
G04 Created by KiCad (PCBNEW 7.0.1) date 2024-06-21 04:11:25*
%MOMM*%
%LPD*%
G01*
G04 APERTURE LIST*
%ADD10C,0.150000*%
%ADD11C,0.120000*%
%ADD12C,0.099060*%
%ADD13C,0.200000*%
%ADD14C,0.002540*%
%ADD15C,0.203200*%
G04 APERTURE END LIST*
D10*
%TO.C,J9*%
X176666666Y-124148119D02*
X176666666Y-124862404D01*
X176666666Y-124862404D02*
X176619047Y-125005261D01*
X176619047Y-125005261D02*
X176523809Y-125100500D01*
X176523809Y-125100500D02*
X176380952Y-125148119D01*
X176380952Y-125148119D02*
X176285714Y-125148119D01*
X177190476Y-125148119D02*
X177380952Y-125148119D01*
X177380952Y-125148119D02*
X177476190Y-125100500D01*
X177476190Y-125100500D02*
X177523809Y-125052880D01*
X177523809Y-125052880D02*
X177619047Y-124910023D01*
X177619047Y-124910023D02*
X177666666Y-124719547D01*
X177666666Y-124719547D02*
X177666666Y-124338595D01*
X177666666Y-124338595D02*
X177619047Y-124243357D01*
X177619047Y-124243357D02*
X177571428Y-124195738D01*
X177571428Y-124195738D02*
X177476190Y-124148119D01*
X177476190Y-124148119D02*
X177285714Y-124148119D01*
X177285714Y-124148119D02*
X177190476Y-124195738D01*
X177190476Y-124195738D02*
X177142857Y-124243357D01*
X177142857Y-124243357D02*
X177095238Y-124338595D01*
X177095238Y-124338595D02*
X177095238Y-124576690D01*
X177095238Y-124576690D02*
X177142857Y-124671928D01*
X177142857Y-124671928D02*
X177190476Y-124719547D01*
X177190476Y-124719547D02*
X177285714Y-124767166D01*
X177285714Y-124767166D02*
X177476190Y-124767166D01*
X177476190Y-124767166D02*
X177571428Y-124719547D01*
X177571428Y-124719547D02*
X177619047Y-124671928D01*
X177619047Y-124671928D02*
X177666666Y-124576690D01*
%TO.C,J8*%
X108066666Y-126148119D02*
X108066666Y-126862404D01*
X108066666Y-126862404D02*
X108019047Y-127005261D01*
X108019047Y-127005261D02*
X107923809Y-127100500D01*
X107923809Y-127100500D02*
X107780952Y-127148119D01*
X107780952Y-127148119D02*
X107685714Y-127148119D01*
X108685714Y-126576690D02*
X108590476Y-126529071D01*
X108590476Y-126529071D02*
X108542857Y-126481452D01*
X108542857Y-126481452D02*
X108495238Y-126386214D01*
X108495238Y-126386214D02*
X108495238Y-126338595D01*
X108495238Y-126338595D02*
X108542857Y-126243357D01*
X108542857Y-126243357D02*
X108590476Y-126195738D01*
X108590476Y-126195738D02*
X108685714Y-126148119D01*
X108685714Y-126148119D02*
X108876190Y-126148119D01*
X108876190Y-126148119D02*
X108971428Y-126195738D01*
X108971428Y-126195738D02*
X109019047Y-126243357D01*
X109019047Y-126243357D02*
X109066666Y-126338595D01*
X109066666Y-126338595D02*
X109066666Y-126386214D01*
X109066666Y-126386214D02*
X109019047Y-126481452D01*
X109019047Y-126481452D02*
X108971428Y-126529071D01*
X108971428Y-126529071D02*
X108876190Y-126576690D01*
X108876190Y-126576690D02*
X108685714Y-126576690D01*
X108685714Y-126576690D02*
X108590476Y-126624309D01*
X108590476Y-126624309D02*
X108542857Y-126671928D01*
X108542857Y-126671928D02*
X108495238Y-126767166D01*
X108495238Y-126767166D02*
X108495238Y-126957642D01*
X108495238Y-126957642D02*
X108542857Y-127052880D01*
X108542857Y-127052880D02*
X108590476Y-127100500D01*
X108590476Y-127100500D02*
X108685714Y-127148119D01*
X108685714Y-127148119D02*
X108876190Y-127148119D01*
X108876190Y-127148119D02*
X108971428Y-127100500D01*
X108971428Y-127100500D02*
X109019047Y-127052880D01*
X109019047Y-127052880D02*
X109066666Y-126957642D01*
X109066666Y-126957642D02*
X109066666Y-126767166D01*
X109066666Y-126767166D02*
X109019047Y-126671928D01*
X109019047Y-126671928D02*
X108971428Y-126624309D01*
X108971428Y-126624309D02*
X108876190Y-126576690D01*
%TO.C,J4*%
X170566666Y-72848119D02*
X170566666Y-73562404D01*
X170566666Y-73562404D02*
X170519047Y-73705261D01*
X170519047Y-73705261D02*
X170423809Y-73800500D01*
X170423809Y-73800500D02*
X170280952Y-73848119D01*
X170280952Y-73848119D02*
X170185714Y-73848119D01*
X171471428Y-73181452D02*
X171471428Y-73848119D01*
X171233333Y-72800500D02*
X170995238Y-73514785D01*
X170995238Y-73514785D02*
X171614285Y-73514785D01*
%TO.C,J3*%
X120266666Y-50048119D02*
X120266666Y-50762404D01*
X120266666Y-50762404D02*
X120219047Y-50905261D01*
X120219047Y-50905261D02*
X120123809Y-51000500D01*
X120123809Y-51000500D02*
X119980952Y-51048119D01*
X119980952Y-51048119D02*
X119885714Y-51048119D01*
X120647619Y-50048119D02*
X121266666Y-50048119D01*
X121266666Y-50048119D02*
X120933333Y-50429071D01*
X120933333Y-50429071D02*
X121076190Y-50429071D01*
X121076190Y-50429071D02*
X121171428Y-50476690D01*
X121171428Y-50476690D02*
X121219047Y-50524309D01*
X121219047Y-50524309D02*
X121266666Y-50619547D01*
X121266666Y-50619547D02*
X121266666Y-50857642D01*
X121266666Y-50857642D02*
X121219047Y-50952880D01*
X121219047Y-50952880D02*
X121171428Y-51000500D01*
X121171428Y-51000500D02*
X121076190Y-51048119D01*
X121076190Y-51048119D02*
X120790476Y-51048119D01*
X120790476Y-51048119D02*
X120695238Y-51000500D01*
X120695238Y-51000500D02*
X120647619Y-50952880D01*
%TO.C,Q4*%
X102844761Y-57527857D02*
X102749523Y-57480238D01*
X102749523Y-57480238D02*
X102654285Y-57385000D01*
X102654285Y-57385000D02*
X102511428Y-57242142D01*
X102511428Y-57242142D02*
X102416190Y-57194523D01*
X102416190Y-57194523D02*
X102320952Y-57194523D01*
X102368571Y-57432619D02*
X102273333Y-57385000D01*
X102273333Y-57385000D02*
X102178095Y-57289761D01*
X102178095Y-57289761D02*
X102130476Y-57099285D01*
X102130476Y-57099285D02*
X102130476Y-56765952D01*
X102130476Y-56765952D02*
X102178095Y-56575476D01*
X102178095Y-56575476D02*
X102273333Y-56480238D01*
X102273333Y-56480238D02*
X102368571Y-56432619D01*
X102368571Y-56432619D02*
X102559047Y-56432619D01*
X102559047Y-56432619D02*
X102654285Y-56480238D01*
X102654285Y-56480238D02*
X102749523Y-56575476D01*
X102749523Y-56575476D02*
X102797142Y-56765952D01*
X102797142Y-56765952D02*
X102797142Y-57099285D01*
X102797142Y-57099285D02*
X102749523Y-57289761D01*
X102749523Y-57289761D02*
X102654285Y-57385000D01*
X102654285Y-57385000D02*
X102559047Y-57432619D01*
X102559047Y-57432619D02*
X102368571Y-57432619D01*
X103654285Y-56765952D02*
X103654285Y-57432619D01*
X103416190Y-56385000D02*
X103178095Y-57099285D01*
X103178095Y-57099285D02*
X103797142Y-57099285D01*
D11*
%TO.C,C90*%
X178061252Y-51935000D02*
X177538748Y-51935000D01*
X178061252Y-50465000D02*
X177538748Y-50465000D01*
%TO.C,D15*%
X114670000Y-92670000D02*
X114670000Y-92400000D01*
X114670000Y-92400000D02*
X117500000Y-92400000D01*
X114670000Y-86040000D02*
X115770000Y-86040000D01*
X114670000Y-85770000D02*
X114670000Y-86040000D01*
X108250000Y-92670000D02*
X114670000Y-92670000D01*
X108250000Y-85770000D02*
X114670000Y-85770000D01*
%TO.C,P2*%
X176130000Y-80270000D02*
X173470000Y-80270000D01*
X173470000Y-80564462D02*
X173470000Y-80270000D01*
X176130000Y-80575627D02*
X176130000Y-80270000D01*
X173470000Y-82624373D02*
X173470000Y-82930000D01*
X176130000Y-82635538D02*
X176130000Y-82930000D01*
X173470000Y-82930000D02*
X176130000Y-82930000D01*
D12*
%TO.C,R115*%
X158126001Y-98800000D02*
X159142001Y-98800000D01*
X159142001Y-100400000D02*
X158126001Y-100400000D01*
X160158001Y-98800000D02*
X161174001Y-98800000D01*
X161174001Y-100400000D02*
X160158001Y-100400000D01*
D11*
X158075001Y-98800000D02*
G75*
G03*
X158066399Y-100403494I-330000J-800000D01*
G01*
X161229001Y-100401638D02*
G75*
G03*
X161225001Y-98800000I326000J801638D01*
G01*
%TO.C,R120*%
X161037258Y-62722500D02*
X160562742Y-62722500D01*
X161037258Y-61677500D02*
X160562742Y-61677500D01*
D13*
%TO.C,C66*%
X125750014Y-74299980D02*
X126499999Y-74299980D01*
D11*
%TO.C,Q10*%
X105285000Y-116095000D02*
X105555000Y-116095000D01*
X105555000Y-116095000D02*
X105555000Y-118925000D01*
X111915000Y-116095000D02*
X111915000Y-117195000D01*
X112185000Y-116095000D02*
X111915000Y-116095000D01*
X105285000Y-109675000D02*
X105285000Y-116095000D01*
X112185000Y-109675000D02*
X112185000Y-116095000D01*
D13*
%TO.C,R88*%
X124900000Y-73650000D02*
X124902928Y-74950000D01*
X123300000Y-73650000D02*
X123300000Y-74950000D01*
D11*
%TO.C,Q11*%
X97425000Y-115995000D02*
X97695000Y-115995000D01*
X97695000Y-115995000D02*
X97695000Y-118825000D01*
X104055000Y-115995000D02*
X104055000Y-117095000D01*
X104325000Y-115995000D02*
X104055000Y-115995000D01*
X97425000Y-109575000D02*
X97425000Y-115995000D01*
X104325000Y-109575000D02*
X104325000Y-115995000D01*
%TO.C,R126*%
X161610000Y-118772936D02*
X161610000Y-120227064D01*
X159790000Y-118772936D02*
X159790000Y-120227064D01*
%TO.C,R131*%
X161037258Y-64322500D02*
X160562742Y-64322500D01*
X161037258Y-63277500D02*
X160562742Y-63277500D01*
%TO.C,R116*%
X145537258Y-94622500D02*
X145062742Y-94622500D01*
X145537258Y-93577500D02*
X145062742Y-93577500D01*
D13*
%TO.C,C73*%
X174300000Y-94249986D02*
X174300000Y-93500001D01*
D11*
%TO.C,U7*%
X172990000Y-85740000D02*
X172540000Y-85740000D01*
X172540000Y-85740000D02*
X172540000Y-84450000D01*
X165770000Y-85740000D02*
X166220000Y-85740000D01*
X172990000Y-86190000D02*
X172990000Y-85740000D01*
X165770000Y-86190000D02*
X165770000Y-85740000D01*
X172990000Y-92510000D02*
X172990000Y-92960000D01*
X165770000Y-92510000D02*
X165770000Y-92960000D01*
X172990000Y-92960000D02*
X172540000Y-92960000D01*
X165770000Y-92960000D02*
X166220000Y-92960000D01*
D13*
%TO.C,R119*%
X159750000Y-93900000D02*
X158450000Y-93902928D01*
X159750000Y-92300000D02*
X158450000Y-92300000D01*
D11*
%TO.C,C62*%
X125860000Y-95409420D02*
X125860000Y-95690580D01*
X124840000Y-95409420D02*
X124840000Y-95690580D01*
%TO.C,R128*%
X122415000Y-124514564D02*
X122415000Y-124060436D01*
X123885000Y-124514564D02*
X123885000Y-124060436D01*
%TO.C,R123*%
X159177500Y-66587258D02*
X159177500Y-66112742D01*
X160222500Y-66587258D02*
X160222500Y-66112742D01*
%TO.C,R104*%
X106992742Y-119602500D02*
X107467258Y-119602500D01*
X106992742Y-120647500D02*
X107467258Y-120647500D01*
D13*
%TO.C,C74*%
X165500000Y-82800014D02*
X165500000Y-83549999D01*
D10*
%TO.C,L2*%
X151909000Y-50991000D02*
X151909000Y-68209000D01*
X149760000Y-50991000D02*
X151909000Y-50991000D01*
X136840000Y-50991000D02*
X134691000Y-50991000D01*
X134691000Y-50991000D02*
X134691000Y-68209000D01*
X151909000Y-68209000D02*
X149760000Y-68209000D01*
X134691000Y-68209000D02*
X136840000Y-68209000D01*
D11*
%TO.C,R101*%
X121502500Y-76387258D02*
X121502500Y-75912742D01*
X122547500Y-76387258D02*
X122547500Y-75912742D01*
%TO.C,R130*%
X126415000Y-124514564D02*
X126415000Y-124060436D01*
X127885000Y-124514564D02*
X127885000Y-124060436D01*
%TO.C,C67*%
X119840000Y-80865580D02*
X119840000Y-80584420D01*
X120860000Y-80865580D02*
X120860000Y-80584420D01*
%TO.C,D3*%
X184810000Y-75040000D02*
X182590000Y-75040000D01*
X182590000Y-75040000D02*
X182590000Y-79450000D01*
X184810000Y-79450000D02*
X184810000Y-75040000D01*
%TO.C,D14*%
X106245000Y-63025000D02*
X106245000Y-62755000D01*
X106245000Y-62755000D02*
X109075000Y-62755000D01*
X106245000Y-56395000D02*
X107345000Y-56395000D01*
X106245000Y-56125000D02*
X106245000Y-56395000D01*
X99825000Y-63025000D02*
X106245000Y-63025000D01*
X99825000Y-56125000D02*
X106245000Y-56125000D01*
%TO.C,Q6*%
X117895000Y-70625000D02*
X117895000Y-70355000D01*
X117895000Y-70355000D02*
X120725000Y-70355000D01*
X117895000Y-63995000D02*
X118995000Y-63995000D01*
X117895000Y-63725000D02*
X117895000Y-63995000D01*
X111475000Y-70625000D02*
X117895000Y-70625000D01*
X111475000Y-63725000D02*
X117895000Y-63725000D01*
D13*
%TO.C,C75*%
X174429986Y-84500000D02*
X173680001Y-84500000D01*
%TO.C,C71*%
X129050014Y-95500000D02*
X129799999Y-95500000D01*
%TO.C,C45*%
X137450000Y-106475014D02*
X137450000Y-107224999D01*
D11*
%TO.C,C94*%
X158535000Y-66238748D02*
X158535000Y-66761252D01*
X157065000Y-66238748D02*
X157065000Y-66761252D01*
%TO.C,R124*%
X163910000Y-118772936D02*
X163910000Y-120227064D01*
X162090000Y-118772936D02*
X162090000Y-120227064D01*
%TO.C,D16*%
X105150000Y-70910000D02*
X109450000Y-70910000D01*
X105150000Y-70910000D02*
X105150000Y-65100000D01*
X109450000Y-70910000D02*
X109450000Y-65100000D01*
D13*
%TO.C,C93*%
X158700000Y-69669986D02*
X158700000Y-68920001D01*
D11*
%TO.C,R85*%
X174907500Y-87837258D02*
X174907500Y-87362742D01*
X175952500Y-87837258D02*
X175952500Y-87362742D01*
D13*
%TO.C,C4*%
X172000000Y-96049986D02*
X172000000Y-95300001D01*
D11*
%TO.C,C53*%
X113335580Y-55735000D02*
X113054420Y-55735000D01*
X113335580Y-54715000D02*
X113054420Y-54715000D01*
%TO.C,C68*%
X124340580Y-83610000D02*
X124059420Y-83610000D01*
X124340580Y-82590000D02*
X124059420Y-82590000D01*
D13*
%TO.C,R90*%
X128175000Y-95175000D02*
X128177928Y-96475000D01*
X126575000Y-95175000D02*
X126575000Y-96475000D01*
D11*
%TO.C,R135*%
X134465000Y-124514564D02*
X134465000Y-124060436D01*
X135935000Y-124514564D02*
X135935000Y-124060436D01*
%TO.C,C55*%
X122535000Y-72884420D02*
X122535000Y-73165580D01*
X121515000Y-72884420D02*
X121515000Y-73165580D01*
D13*
%TO.C,C39*%
X103750014Y-65400000D02*
X104499999Y-65400000D01*
%TO.C,C44*%
X102800000Y-103049986D02*
X102800000Y-102300001D01*
D11*
%TO.C,Q7*%
X117970000Y-78050000D02*
X117970000Y-77780000D01*
X117970000Y-77780000D02*
X120800000Y-77780000D01*
X117970000Y-71420000D02*
X119070000Y-71420000D01*
X117970000Y-71150000D02*
X117970000Y-71420000D01*
X111550000Y-78050000D02*
X117970000Y-78050000D01*
X111550000Y-71150000D02*
X117970000Y-71150000D01*
%TO.C,G1*%
D14*
X145715440Y-125240460D02*
X145723060Y-125298880D01*
X145862760Y-125344600D01*
X146119300Y-125367460D01*
X146215820Y-125370000D01*
X146487600Y-125357300D01*
X146670480Y-125324280D01*
X146723820Y-125286180D01*
X146655240Y-125209980D01*
X146596820Y-125199820D01*
X146535860Y-125194740D01*
X146497760Y-125164260D01*
X146487600Y-125082980D01*
X146502840Y-124922960D01*
X146546020Y-124661340D01*
X146622220Y-124272720D01*
X146673020Y-124018720D01*
X146777160Y-123536120D01*
X146873680Y-123205920D01*
X146954960Y-123035740D01*
X146985440Y-123012880D01*
X147132760Y-122918900D01*
X147163240Y-122883340D01*
X147226740Y-122875720D01*
X147300400Y-123007800D01*
X147374060Y-123249100D01*
X147435020Y-123566600D01*
X147452800Y-123703760D01*
X147450260Y-124399720D01*
X147295320Y-125090600D01*
X146995600Y-125743380D01*
X146566340Y-126319960D01*
X146413940Y-126477440D01*
X145900860Y-126894000D01*
X145375080Y-127170860D01*
X144788340Y-127325800D01*
X144227000Y-127374060D01*
X143632640Y-127368980D01*
X143172900Y-127300400D01*
X143043360Y-127264840D01*
X142365180Y-126962580D01*
X141778440Y-126518080D01*
X141280600Y-125931340D01*
X140991040Y-125446200D01*
X140912891Y-125286180D01*
X141179000Y-125286180D01*
X141234880Y-125324280D01*
X141450780Y-125352220D01*
X141821620Y-125367460D01*
X142146740Y-125370000D01*
X143167820Y-125370000D01*
X143167820Y-125286180D01*
X143508180Y-125286180D01*
X143584380Y-125329360D01*
X143785040Y-125359840D01*
X144016180Y-125370000D01*
X144285420Y-125357300D01*
X144468300Y-125324280D01*
X144524180Y-125286180D01*
X144453060Y-125212520D01*
X144387020Y-125199820D01*
X144305740Y-125174420D01*
X144280340Y-125067740D01*
X144303200Y-124841680D01*
X144308280Y-124808660D01*
X144354000Y-124547040D01*
X144397180Y-124348920D01*
X144412420Y-124300660D01*
X144508940Y-124229540D01*
X144684200Y-124188900D01*
X144874700Y-124188900D01*
X145006780Y-124227000D01*
X145032180Y-124270180D01*
X145072820Y-124359080D01*
X145166800Y-124341300D01*
X145265860Y-124237160D01*
X145309040Y-124120320D01*
X145329360Y-123906960D01*
X145278560Y-123846000D01*
X145182040Y-123914580D01*
X145032180Y-123983160D01*
X144808660Y-124013640D01*
X144790880Y-124016180D01*
X144501320Y-124016180D01*
X144559740Y-123574220D01*
X144600380Y-123312600D01*
X144641020Y-123122100D01*
X144658800Y-123066220D01*
X144760400Y-123030660D01*
X144978840Y-123005260D01*
X145171880Y-123000180D01*
X145441120Y-123007800D01*
X145573200Y-123038280D01*
X145601140Y-123099240D01*
X145593520Y-123124640D01*
X145603680Y-123236400D01*
X145659560Y-123254180D01*
X145751000Y-123177980D01*
X145809420Y-123002720D01*
X145811960Y-123000180D01*
X145847520Y-122746180D01*
X144889940Y-122746180D01*
X144465760Y-122748720D01*
X144183820Y-122761420D01*
X144018720Y-122786820D01*
X143945060Y-122827460D01*
X143929820Y-122873180D01*
X143998400Y-122984940D01*
X144056820Y-123000180D01*
X144115240Y-122995100D01*
X144153340Y-123002720D01*
X144168580Y-123045900D01*
X144160960Y-123150040D01*
X144125400Y-123345620D01*
X144064440Y-123652960D01*
X143973000Y-124100000D01*
X143891720Y-124496240D01*
X143825680Y-124828980D01*
X143779960Y-125062660D01*
X143762180Y-125166800D01*
X143762180Y-125169340D01*
X143691060Y-125197280D01*
X143635180Y-125199820D01*
X143561520Y-125227760D01*
X143520880Y-125245540D01*
X143508180Y-125286180D01*
X143167820Y-125286180D01*
X143167820Y-125116000D01*
X143129720Y-124912800D01*
X143040820Y-124862000D01*
X142929060Y-124925500D01*
X142913820Y-124981380D01*
X142840160Y-125049960D01*
X142654740Y-125118540D01*
X142421060Y-125171880D01*
X142195000Y-125199820D01*
X142037520Y-125187120D01*
X142009580Y-125169340D01*
X141994340Y-125067740D01*
X142001960Y-124849300D01*
X142022280Y-124653720D01*
X142080700Y-124183820D01*
X142413440Y-124183820D01*
X142621720Y-124204140D01*
X142738560Y-124257480D01*
X142746180Y-124275260D01*
X142779200Y-124359080D01*
X142855400Y-124323520D01*
X142944300Y-124204140D01*
X143007800Y-124031420D01*
X143007800Y-124028880D01*
X143025580Y-123835840D01*
X142969700Y-123762180D01*
X142946840Y-123762180D01*
X142840160Y-123810440D01*
X142830000Y-123846000D01*
X142753800Y-123899340D01*
X142568380Y-123929820D01*
X142504880Y-123929820D01*
X142182300Y-123929820D01*
X142266120Y-123465000D01*
X142349940Y-122997640D01*
X142852860Y-123000180D01*
X143134800Y-123005260D01*
X143279580Y-123033200D01*
X143315140Y-123091620D01*
X143307520Y-123127180D01*
X143317680Y-123236400D01*
X143373560Y-123254180D01*
X143465000Y-123177980D01*
X143523420Y-123002720D01*
X143525960Y-123000180D01*
X143561520Y-122746180D01*
X142603940Y-122746180D01*
X142179760Y-122748720D01*
X141897820Y-122761420D01*
X141732720Y-122786820D01*
X141659060Y-122827460D01*
X141643820Y-122873180D01*
X141712400Y-122982400D01*
X141775900Y-123000180D01*
X141872420Y-123056060D01*
X141867340Y-123147500D01*
X141834320Y-123287200D01*
X141775900Y-123553900D01*
X141704780Y-123904420D01*
X141636200Y-124247320D01*
X141534600Y-124724840D01*
X141443160Y-125039800D01*
X141366960Y-125187120D01*
X141341560Y-125199820D01*
X141201860Y-125258240D01*
X141179000Y-125286180D01*
X140912891Y-125286180D01*
X140884360Y-125227760D01*
X140815780Y-125029640D01*
X140777680Y-124808660D01*
X140759900Y-124519100D01*
X140754820Y-124110160D01*
X140754820Y-124056820D01*
X140759900Y-123632640D01*
X140775140Y-123327840D01*
X140813240Y-123096700D01*
X140879280Y-122888420D01*
X140983420Y-122657280D01*
X140998660Y-122631880D01*
X141331400Y-122103560D01*
X141783520Y-121605720D01*
X142301680Y-121194240D01*
X142624260Y-121006280D01*
X142863020Y-120897060D01*
X143068760Y-120823400D01*
X143294820Y-120782760D01*
X143584380Y-120762440D01*
X143990780Y-120757360D01*
X144059360Y-120757360D01*
X144478460Y-120759900D01*
X144780720Y-120775140D01*
X145009320Y-120810700D01*
X145217600Y-120876740D01*
X145453820Y-120983420D01*
X145540180Y-121026600D01*
X146076120Y-121364420D01*
X146579040Y-121811460D01*
X146987980Y-122316920D01*
X147056560Y-122428680D01*
X147247060Y-122746180D01*
X146739060Y-122746180D01*
X146426640Y-122758880D01*
X146248840Y-122804600D01*
X146185340Y-122870640D01*
X146200580Y-122979860D01*
X146271700Y-122997640D01*
X146363140Y-123040820D01*
X146365680Y-123193220D01*
X146358060Y-123231320D01*
X146322500Y-123414200D01*
X146269160Y-123713920D01*
X146200580Y-124082220D01*
X146162480Y-124303200D01*
X146083740Y-124704520D01*
X146015160Y-124966140D01*
X145946580Y-125116000D01*
X145870380Y-125176960D01*
X145860220Y-125179500D01*
X145847520Y-125184580D01*
X145715440Y-125240460D01*
G36*
X145715440Y-125240460D02*
G01*
X145723060Y-125298880D01*
X145862760Y-125344600D01*
X146119300Y-125367460D01*
X146215820Y-125370000D01*
X146487600Y-125357300D01*
X146670480Y-125324280D01*
X146723820Y-125286180D01*
X146655240Y-125209980D01*
X146596820Y-125199820D01*
X146535860Y-125194740D01*
X146497760Y-125164260D01*
X146487600Y-125082980D01*
X146502840Y-124922960D01*
X146546020Y-124661340D01*
X146622220Y-124272720D01*
X146673020Y-124018720D01*
X146777160Y-123536120D01*
X146873680Y-123205920D01*
X146954960Y-123035740D01*
X146985440Y-123012880D01*
X147132760Y-122918900D01*
X147163240Y-122883340D01*
X147226740Y-122875720D01*
X147300400Y-123007800D01*
X147374060Y-123249100D01*
X147435020Y-123566600D01*
X147452800Y-123703760D01*
X147450260Y-124399720D01*
X147295320Y-125090600D01*
X146995600Y-125743380D01*
X146566340Y-126319960D01*
X146413940Y-126477440D01*
X145900860Y-126894000D01*
X145375080Y-127170860D01*
X144788340Y-127325800D01*
X144227000Y-127374060D01*
X143632640Y-127368980D01*
X143172900Y-127300400D01*
X143043360Y-127264840D01*
X142365180Y-126962580D01*
X141778440Y-126518080D01*
X141280600Y-125931340D01*
X140991040Y-125446200D01*
X140912891Y-125286180D01*
X141179000Y-125286180D01*
X141234880Y-125324280D01*
X141450780Y-125352220D01*
X141821620Y-125367460D01*
X142146740Y-125370000D01*
X143167820Y-125370000D01*
X143167820Y-125286180D01*
X143508180Y-125286180D01*
X143584380Y-125329360D01*
X143785040Y-125359840D01*
X144016180Y-125370000D01*
X144285420Y-125357300D01*
X144468300Y-125324280D01*
X144524180Y-125286180D01*
X144453060Y-125212520D01*
X144387020Y-125199820D01*
X144305740Y-125174420D01*
X144280340Y-125067740D01*
X144303200Y-124841680D01*
X144308280Y-124808660D01*
X144354000Y-124547040D01*
X144397180Y-124348920D01*
X144412420Y-124300660D01*
X144508940Y-124229540D01*
X144684200Y-124188900D01*
X144874700Y-124188900D01*
X145006780Y-124227000D01*
X145032180Y-124270180D01*
X145072820Y-124359080D01*
X145166800Y-124341300D01*
X145265860Y-124237160D01*
X145309040Y-124120320D01*
X145329360Y-123906960D01*
X145278560Y-123846000D01*
X145182040Y-123914580D01*
X145032180Y-123983160D01*
X144808660Y-124013640D01*
X144790880Y-124016180D01*
X144501320Y-124016180D01*
X144559740Y-123574220D01*
X144600380Y-123312600D01*
X144641020Y-123122100D01*
X144658800Y-123066220D01*
X144760400Y-123030660D01*
X144978840Y-123005260D01*
X145171880Y-123000180D01*
X145441120Y-123007800D01*
X145573200Y-123038280D01*
X145601140Y-123099240D01*
X145593520Y-123124640D01*
X145603680Y-123236400D01*
X145659560Y-123254180D01*
X145751000Y-123177980D01*
X145809420Y-123002720D01*
X145811960Y-123000180D01*
X145847520Y-122746180D01*
X144889940Y-122746180D01*
X144465760Y-122748720D01*
X144183820Y-122761420D01*
X144018720Y-122786820D01*
X143945060Y-122827460D01*
X143929820Y-122873180D01*
X143998400Y-122984940D01*
X144056820Y-123000180D01*
X144115240Y-122995100D01*
X144153340Y-123002720D01*
X144168580Y-123045900D01*
X144160960Y-123150040D01*
X144125400Y-123345620D01*
X144064440Y-123652960D01*
X143973000Y-124100000D01*
X143891720Y-124496240D01*
X143825680Y-124828980D01*
X143779960Y-125062660D01*
X143762180Y-125166800D01*
X143762180Y-125169340D01*
X143691060Y-125197280D01*
X143635180Y-125199820D01*
X143561520Y-125227760D01*
X143520880Y-125245540D01*
X143508180Y-125286180D01*
X143167820Y-125286180D01*
X143167820Y-125116000D01*
X143129720Y-124912800D01*
X143040820Y-124862000D01*
X142929060Y-124925500D01*
X142913820Y-124981380D01*
X142840160Y-125049960D01*
X142654740Y-125118540D01*
X142421060Y-125171880D01*
X142195000Y-125199820D01*
X142037520Y-125187120D01*
X142009580Y-125169340D01*
X141994340Y-125067740D01*
X142001960Y-124849300D01*
X142022280Y-124653720D01*
X142080700Y-124183820D01*
X142413440Y-124183820D01*
X142621720Y-124204140D01*
X142738560Y-124257480D01*
X142746180Y-124275260D01*
X142779200Y-124359080D01*
X142855400Y-124323520D01*
X142944300Y-124204140D01*
X143007800Y-124031420D01*
X143007800Y-124028880D01*
X143025580Y-123835840D01*
X142969700Y-123762180D01*
X142946840Y-123762180D01*
X142840160Y-123810440D01*
X142830000Y-123846000D01*
X142753800Y-123899340D01*
X142568380Y-123929820D01*
X142504880Y-123929820D01*
X142182300Y-123929820D01*
X142266120Y-123465000D01*
X142349940Y-122997640D01*
X142852860Y-123000180D01*
X143134800Y-123005260D01*
X143279580Y-123033200D01*
X143315140Y-123091620D01*
X143307520Y-123127180D01*
X143317680Y-123236400D01*
X143373560Y-123254180D01*
X143465000Y-123177980D01*
X143523420Y-123002720D01*
X143525960Y-123000180D01*
X143561520Y-122746180D01*
X142603940Y-122746180D01*
X142179760Y-122748720D01*
X141897820Y-122761420D01*
X141732720Y-122786820D01*
X141659060Y-122827460D01*
X141643820Y-122873180D01*
X141712400Y-122982400D01*
X141775900Y-123000180D01*
X141872420Y-123056060D01*
X141867340Y-123147500D01*
X141834320Y-123287200D01*
X141775900Y-123553900D01*
X141704780Y-123904420D01*
X141636200Y-124247320D01*
X141534600Y-124724840D01*
X141443160Y-125039800D01*
X141366960Y-125187120D01*
X141341560Y-125199820D01*
X141201860Y-125258240D01*
X141179000Y-125286180D01*
X140912891Y-125286180D01*
X140884360Y-125227760D01*
X140815780Y-125029640D01*
X140777680Y-124808660D01*
X140759900Y-124519100D01*
X140754820Y-124110160D01*
X140754820Y-124056820D01*
X140759900Y-123632640D01*
X140775140Y-123327840D01*
X140813240Y-123096700D01*
X140879280Y-122888420D01*
X140983420Y-122657280D01*
X140998660Y-122631880D01*
X141331400Y-122103560D01*
X141783520Y-121605720D01*
X142301680Y-121194240D01*
X142624260Y-121006280D01*
X142863020Y-120897060D01*
X143068760Y-120823400D01*
X143294820Y-120782760D01*
X143584380Y-120762440D01*
X143990780Y-120757360D01*
X144059360Y-120757360D01*
X144478460Y-120759900D01*
X144780720Y-120775140D01*
X145009320Y-120810700D01*
X145217600Y-120876740D01*
X145453820Y-120983420D01*
X145540180Y-121026600D01*
X146076120Y-121364420D01*
X146579040Y-121811460D01*
X146987980Y-122316920D01*
X147056560Y-122428680D01*
X147247060Y-122746180D01*
X146739060Y-122746180D01*
X146426640Y-122758880D01*
X146248840Y-122804600D01*
X146185340Y-122870640D01*
X146200580Y-122979860D01*
X146271700Y-122997640D01*
X146363140Y-123040820D01*
X146365680Y-123193220D01*
X146358060Y-123231320D01*
X146322500Y-123414200D01*
X146269160Y-123713920D01*
X146200580Y-124082220D01*
X146162480Y-124303200D01*
X146083740Y-124704520D01*
X146015160Y-124966140D01*
X145946580Y-125116000D01*
X145870380Y-125176960D01*
X145860220Y-125179500D01*
X145847520Y-125184580D01*
X145715440Y-125240460D01*
G37*
D11*
%TO.C,R129*%
X124365000Y-124514564D02*
X124365000Y-124060436D01*
X125835000Y-124514564D02*
X125835000Y-124060436D01*
%TO.C,D19*%
X104715000Y-107775000D02*
X104715000Y-103475000D01*
X104715000Y-107775000D02*
X98905000Y-107775000D01*
X104715000Y-103475000D02*
X98905000Y-103475000D01*
%TO.C,R134*%
X132415000Y-124514564D02*
X132415000Y-124060436D01*
X133885000Y-124514564D02*
X133885000Y-124060436D01*
%TO.C,C70*%
X140615580Y-107310000D02*
X140334420Y-107310000D01*
X140615580Y-106290000D02*
X140334420Y-106290000D01*
%TO.C,Q9*%
X122830000Y-85770000D02*
X122830000Y-86040000D01*
X122830000Y-86040000D02*
X120000000Y-86040000D01*
X122830000Y-92400000D02*
X121730000Y-92400000D01*
X122830000Y-92670000D02*
X122830000Y-92400000D01*
X129250000Y-85770000D02*
X122830000Y-85770000D01*
X129250000Y-92670000D02*
X122830000Y-92670000D01*
%TO.C,R132*%
X128465000Y-124514564D02*
X128465000Y-124060436D01*
X129935000Y-124514564D02*
X129935000Y-124060436D01*
D13*
%TO.C,C37*%
X99390001Y-70400014D02*
X99390001Y-71149999D01*
%TO.C,C87*%
X159800000Y-91749986D02*
X159800000Y-91000001D01*
D11*
%TO.C,R105*%
X98892742Y-119602500D02*
X99367258Y-119602500D01*
X98892742Y-120647500D02*
X99367258Y-120647500D01*
%TO.C,D1*%
X184110000Y-69640000D02*
X181890000Y-69640000D01*
X181890000Y-69640000D02*
X181890000Y-74050000D01*
X184110000Y-74050000D02*
X184110000Y-69640000D01*
%TO.C,J5*%
X186630000Y-128410000D02*
X185300000Y-128410000D01*
X186630000Y-127080000D02*
X186630000Y-128410000D01*
X186630000Y-125810000D02*
X186630000Y-113050000D01*
X186630000Y-125810000D02*
X183970000Y-125810000D01*
X186630000Y-113050000D02*
X183970000Y-113050000D01*
X183970000Y-125810000D02*
X183970000Y-113050000D01*
D15*
%TO.C,R19*%
X183098944Y-82970840D02*
X183498943Y-82970851D01*
X183100000Y-82225005D02*
X183500000Y-82225015D01*
D11*
%TO.C,D26*%
X167875000Y-60460000D02*
X167875000Y-58650000D01*
X167875000Y-58650000D02*
X173000000Y-58650000D01*
X167875000Y-51870000D02*
X168975000Y-51870000D01*
X167875000Y-50060000D02*
X167875000Y-51870000D01*
X166375000Y-60460000D02*
X167875000Y-60460000D01*
X166375000Y-50060000D02*
X167875000Y-50060000D01*
D13*
%TO.C,C77*%
X163500000Y-74949986D02*
X163500000Y-74200001D01*
D11*
%TO.C,D4*%
X184930000Y-94690000D02*
X184930000Y-103200000D01*
X178430000Y-94690000D02*
X184930000Y-94690000D01*
X178430000Y-94690000D02*
X178430000Y-103200000D01*
%TO.C,Q5*%
X114050000Y-56150000D02*
X114050000Y-56420000D01*
X114050000Y-56420000D02*
X111220000Y-56420000D01*
X114050000Y-62780000D02*
X112950000Y-62780000D01*
X114050000Y-63050000D02*
X114050000Y-62780000D01*
X120470000Y-56150000D02*
X114050000Y-56150000D01*
X120470000Y-63050000D02*
X114050000Y-63050000D01*
%TO.C,R127*%
X120465000Y-124514564D02*
X120465000Y-124060436D01*
X121935000Y-124514564D02*
X121935000Y-124060436D01*
D13*
%TO.C,C40*%
X104749986Y-75900000D02*
X104000001Y-75900000D01*
D11*
%TO.C,R100*%
X121377500Y-69012258D02*
X121377500Y-68537742D01*
X122422500Y-69012258D02*
X122422500Y-68537742D01*
%TO.C,Y3*%
X173380000Y-83300000D02*
X173380000Y-79700000D01*
X173380000Y-79700000D02*
X167630000Y-79700000D01*
X167630000Y-83300000D02*
X173380000Y-83300000D01*
%TO.C,C64*%
X111510000Y-50865580D02*
X111510000Y-50584420D01*
X112530000Y-50865580D02*
X112530000Y-50584420D01*
D12*
%TO.C,R114*%
X158126001Y-97000000D02*
X159142001Y-97000000D01*
X159142001Y-98600000D02*
X158126001Y-98600000D01*
X160158001Y-97000000D02*
X161174001Y-97000000D01*
X161174001Y-98600000D02*
X160158001Y-98600000D01*
D11*
X158075001Y-97000000D02*
G75*
G03*
X158066399Y-98603494I-330000J-800000D01*
G01*
X161229001Y-98601638D02*
G75*
G03*
X161225001Y-97000000I326000J801638D01*
G01*
%TO.C,R98*%
X109877500Y-54137258D02*
X109877500Y-53662742D01*
X110922500Y-54137258D02*
X110922500Y-53662742D01*
%TO.C,R118*%
X176477500Y-87837258D02*
X176477500Y-87362742D01*
X177522500Y-87837258D02*
X177522500Y-87362742D01*
%TO.C,R86*%
X167022500Y-99587742D02*
X167022500Y-100062258D01*
X165977500Y-99587742D02*
X165977500Y-100062258D01*
%TO.C,C60*%
X134590000Y-104315580D02*
X134590000Y-104034420D01*
X135610000Y-104315580D02*
X135610000Y-104034420D01*
%TO.C,C65*%
X116435580Y-55735000D02*
X116154420Y-55735000D01*
X116435580Y-54715000D02*
X116154420Y-54715000D01*
%TO.C,P1*%
X166530000Y-80930000D02*
X166530000Y-78270000D01*
X166235538Y-78270000D02*
X166530000Y-78270000D01*
X166224373Y-80930000D02*
X166530000Y-80930000D01*
X164175627Y-78270000D02*
X163870000Y-78270000D01*
X164164462Y-80930000D02*
X163870000Y-80930000D01*
X163870000Y-78270000D02*
X163870000Y-80930000D01*
D13*
%TO.C,C78*%
X152050000Y-79899986D02*
X152050000Y-79150001D01*
D11*
%TO.C,Q1*%
X185270000Y-86330000D02*
X185000000Y-86330000D01*
X185000000Y-86330000D02*
X185000000Y-83500000D01*
X178640000Y-86330000D02*
X178640000Y-85230000D01*
X178370000Y-86330000D02*
X178640000Y-86330000D01*
X185270000Y-92750000D02*
X185270000Y-86330000D01*
X178370000Y-92750000D02*
X178370000Y-86330000D01*
%TO.C,C54*%
X122410000Y-65534420D02*
X122410000Y-65815580D01*
X121390000Y-65534420D02*
X121390000Y-65815580D01*
D13*
%TO.C,C80*%
X152050000Y-78849986D02*
X152050000Y-78100001D01*
D11*
%TO.C,U8*%
X145990000Y-92310000D02*
X146940000Y-92310000D01*
X146940000Y-92310000D02*
X146940000Y-93650000D01*
X156210000Y-92310000D02*
X155260000Y-92310000D01*
X145990000Y-91360000D02*
X145990000Y-92310000D01*
X156210000Y-91360000D02*
X156210000Y-92310000D01*
X145990000Y-83040000D02*
X145990000Y-82090000D01*
X156210000Y-83040000D02*
X156210000Y-82090000D01*
X145990000Y-82090000D02*
X146940000Y-82090000D01*
X156210000Y-82090000D02*
X155260000Y-82090000D01*
D13*
%TO.C,C43*%
X106100000Y-102350014D02*
X106100000Y-103099999D01*
D11*
%TO.C,R133*%
X130465000Y-124514564D02*
X130465000Y-124060436D01*
X131935000Y-124514564D02*
X131935000Y-124060436D01*
D13*
%TO.C,C76*%
X175100000Y-72070014D02*
X175100000Y-72819999D01*
D11*
%TO.C,D27*%
X160540000Y-68085000D02*
X162460000Y-68085000D01*
X162460000Y-68085000D02*
X162460000Y-65400000D01*
X160540000Y-65400000D02*
X160540000Y-68085000D01*
%TO.C,D20*%
X129750000Y-106410000D02*
X134050000Y-106410000D01*
X129750000Y-106410000D02*
X129750000Y-100600000D01*
X134050000Y-106410000D02*
X134050000Y-100600000D01*
%TO.C,C86*%
X175311252Y-71235000D02*
X174788748Y-71235000D01*
X175311252Y-69765000D02*
X174788748Y-69765000D01*
%TO.C,D2*%
X182510000Y-75040000D02*
X180290000Y-75040000D01*
X180290000Y-75040000D02*
X180290000Y-79450000D01*
X182510000Y-79450000D02*
X182510000Y-75040000D01*
%TO.C,R111*%
X167607500Y-100062258D02*
X167607500Y-99587742D01*
X168652500Y-100062258D02*
X168652500Y-99587742D01*
%TO.C,R106*%
X135622500Y-100737742D02*
X135622500Y-101212258D01*
X134577500Y-100737742D02*
X134577500Y-101212258D01*
D12*
%TO.C,R113*%
X158176000Y-100600000D02*
X159192000Y-100600000D01*
X159192000Y-102200000D02*
X158176000Y-102200000D01*
X160208000Y-100600000D02*
X161224000Y-100600000D01*
X161224000Y-102200000D02*
X160208000Y-102200000D01*
D11*
X158125000Y-100600000D02*
G75*
G03*
X158116398Y-102203494I-330000J-800000D01*
G01*
X161279000Y-102201638D02*
G75*
G03*
X161275000Y-100600000I326000J801638D01*
G01*
%TO.C,Q8*%
X114670000Y-85510000D02*
X114670000Y-85240000D01*
X114670000Y-85240000D02*
X117500000Y-85240000D01*
X114670000Y-78880000D02*
X115770000Y-78880000D01*
X114670000Y-78610000D02*
X114670000Y-78880000D01*
X108250000Y-85510000D02*
X114670000Y-85510000D01*
X108250000Y-78610000D02*
X114670000Y-78610000D01*
%TO.C,D17*%
X109475000Y-71015000D02*
X105175000Y-71015000D01*
X109475000Y-71015000D02*
X109475000Y-76825000D01*
X105175000Y-71015000D02*
X105175000Y-76825000D01*
%TO.C,Y2*%
X134960000Y-97200000D02*
X134960000Y-91500000D01*
X137160000Y-96640000D02*
X137160000Y-97200000D01*
X137160000Y-96640000D02*
X140040000Y-96640000D01*
X142240000Y-96500000D02*
X142240000Y-91500000D01*
X137160000Y-91360000D02*
X140040000Y-91360000D01*
%TO.C,R87*%
X174907500Y-91237258D02*
X174907500Y-90762742D01*
X175952500Y-91237258D02*
X175952500Y-90762742D01*
D13*
%TO.C,C79*%
X175679986Y-84500000D02*
X174930001Y-84500000D01*
D11*
%TO.C,C91*%
X133490000Y-92540580D02*
X133490000Y-92259420D01*
X134510000Y-92540580D02*
X134510000Y-92259420D01*
%TO.C,C59*%
X102420580Y-120635000D02*
X102139420Y-120635000D01*
X102420580Y-119615000D02*
X102139420Y-119615000D01*
D13*
%TO.C,C89*%
X167100000Y-68850014D02*
X167100000Y-69599999D01*
D11*
%TO.C,R103*%
X121337258Y-85122500D02*
X120862742Y-85122500D01*
X121337258Y-84077500D02*
X120862742Y-84077500D01*
D12*
%TO.C,R112*%
X158171000Y-102400000D02*
X159187000Y-102400000D01*
X159187000Y-104000000D02*
X158171000Y-104000000D01*
X160203000Y-102400000D02*
X161219000Y-102400000D01*
X161219000Y-104000000D02*
X160203000Y-104000000D01*
D11*
X158120000Y-102400000D02*
G75*
G03*
X158111398Y-104003494I-330000J-800000D01*
G01*
X161274000Y-104001638D02*
G75*
G03*
X161270000Y-102400000I326000J801638D01*
G01*
%TO.C,R125*%
X118515000Y-124514564D02*
X118515000Y-124060436D01*
X119985000Y-124514564D02*
X119985000Y-124060436D01*
%TO.C,D25*%
X167395000Y-98297500D02*
X168865000Y-98297500D01*
X168865000Y-98297500D02*
X168865000Y-96012500D01*
X167395000Y-96012500D02*
X167395000Y-98297500D01*
D13*
%TO.C,C2*%
X170435000Y-104125014D02*
X170435000Y-104874999D01*
D11*
%TO.C,C57*%
X121240580Y-83610000D02*
X120959420Y-83610000D01*
X121240580Y-82590000D02*
X120959420Y-82590000D01*
D13*
%TO.C,C41*%
X106049986Y-86890001D02*
X105300001Y-86890001D01*
%TO.C,R121*%
X162750000Y-72000000D02*
X164050000Y-71997072D01*
X162750000Y-73600000D02*
X164050000Y-73600000D01*
D11*
%TO.C,Q4*%
X106250000Y-55920000D02*
X106250000Y-55650000D01*
X106250000Y-55650000D02*
X109080000Y-55650000D01*
X106250000Y-49290000D02*
X107350000Y-49290000D01*
X106250000Y-49020000D02*
X106250000Y-49290000D01*
X99830000Y-55920000D02*
X106250000Y-55920000D01*
X99830000Y-49020000D02*
X106250000Y-49020000D01*
D13*
%TO.C,C38*%
X99400000Y-71450014D02*
X99400000Y-72199999D01*
D11*
%TO.C,R117*%
X145537258Y-96122500D02*
X145062742Y-96122500D01*
X145537258Y-95077500D02*
X145062742Y-95077500D01*
%TO.C,U1*%
X174440000Y-100050000D02*
X174440000Y-96600000D01*
X174440000Y-100050000D02*
X174440000Y-102000000D01*
X169320000Y-100050000D02*
X169320000Y-98100000D01*
X169320000Y-100050000D02*
X169320000Y-102000000D01*
D13*
%TO.C,C84*%
X159950014Y-89400000D02*
X160699999Y-89400000D01*
D11*
%TO.C,D22*%
X108600000Y-100710000D02*
X112900000Y-100710000D01*
X108600000Y-100710000D02*
X108600000Y-94900000D01*
X112900000Y-100710000D02*
X112900000Y-94900000D01*
%TO.C,C50*%
X168564420Y-78290000D02*
X168845580Y-78290000D01*
X168564420Y-79310000D02*
X168845580Y-79310000D01*
D13*
%TO.C,C1*%
X173335000Y-104125014D02*
X173335000Y-104874999D01*
%TO.C,C92*%
X167100000Y-70150014D02*
X167100000Y-70899999D01*
D11*
%TO.C,C96*%
X156435000Y-66238748D02*
X156435000Y-66761252D01*
X154965000Y-66238748D02*
X154965000Y-66761252D01*
%TO.C,C56*%
X119310000Y-80584420D02*
X119310000Y-80865580D01*
X118290000Y-80584420D02*
X118290000Y-80865580D01*
%TO.C,Q12*%
X139130000Y-99030000D02*
X139130000Y-99300000D01*
X139130000Y-99300000D02*
X136300000Y-99300000D01*
X139130000Y-105660000D02*
X138030000Y-105660000D01*
X139130000Y-105930000D02*
X139130000Y-105660000D01*
X145550000Y-99030000D02*
X139130000Y-99030000D01*
X145550000Y-105930000D02*
X139130000Y-105930000D01*
D13*
%TO.C,C72*%
X164750014Y-94400000D02*
X165499999Y-94400000D01*
D11*
%TO.C,C52*%
X110910000Y-50599420D02*
X110910000Y-50880580D01*
X109890000Y-50599420D02*
X109890000Y-50880580D01*
%TO.C,R102*%
X118277500Y-84102258D02*
X118277500Y-83627742D01*
X119322500Y-84102258D02*
X119322500Y-83627742D01*
D13*
%TO.C,R89*%
X103305000Y-123125000D02*
X102005000Y-123127928D01*
X103305000Y-121525000D02*
X102005000Y-121525000D01*
D11*
%TO.C,R99*%
X113437258Y-54147500D02*
X112962742Y-54147500D01*
X113437258Y-53102500D02*
X112962742Y-53102500D01*
%TO.C,R108*%
X124827500Y-98887258D02*
X124827500Y-98412742D01*
X125872500Y-98887258D02*
X125872500Y-98412742D01*
D13*
%TO.C,C85*%
X159850000Y-87749986D02*
X159850000Y-87000001D01*
D11*
%TO.C,D24*%
X165765000Y-98297500D02*
X167235000Y-98297500D01*
X167235000Y-98297500D02*
X167235000Y-96012500D01*
X165765000Y-96012500D02*
X165765000Y-98297500D01*
D13*
%TO.C,C47*%
X107325014Y-94875000D02*
X108074999Y-94875000D01*
D11*
%TO.C,D18*%
X104895000Y-103475000D02*
X104895000Y-107775000D01*
X104895000Y-103475000D02*
X110705000Y-103475000D01*
X104895000Y-107775000D02*
X110705000Y-107775000D01*
D13*
%TO.C,C42*%
X104849986Y-86900000D02*
X104100001Y-86900000D01*
D11*
%TO.C,Q16*%
X165930000Y-61550000D02*
X165930000Y-61820000D01*
X165930000Y-61820000D02*
X163100000Y-61820000D01*
X165930000Y-68180000D02*
X164830000Y-68180000D01*
X165930000Y-68450000D02*
X165930000Y-68180000D01*
X172350000Y-61550000D02*
X165930000Y-61550000D01*
X172350000Y-68450000D02*
X165930000Y-68450000D01*
%TO.C,C58*%
X110420580Y-120635000D02*
X110139420Y-120635000D01*
X110420580Y-119615000D02*
X110139420Y-119615000D01*
%TO.C,Q14*%
X121345000Y-100425000D02*
X121345000Y-100155000D01*
X121345000Y-100155000D02*
X124175000Y-100155000D01*
X121345000Y-93795000D02*
X122445000Y-93795000D01*
X121345000Y-93525000D02*
X121345000Y-93795000D01*
X114925000Y-100425000D02*
X121345000Y-100425000D01*
X114925000Y-93525000D02*
X121345000Y-93525000D01*
D13*
%TO.C,C82*%
X158725074Y-89400000D02*
X159475059Y-89400000D01*
D11*
%TO.C,R122*%
X170262742Y-68897500D02*
X170737258Y-68897500D01*
X170262742Y-69942500D02*
X170737258Y-69942500D01*
%TO.C,C49*%
X172120580Y-79310000D02*
X171839420Y-79310000D01*
X172120580Y-78290000D02*
X171839420Y-78290000D01*
%TO.C,L1*%
X174900000Y-67900000D02*
X174900000Y-54900000D01*
X178500000Y-67900000D02*
X174900000Y-67900000D01*
X184300000Y-67900000D02*
X187900000Y-67900000D01*
X187900000Y-67900000D02*
X187900000Y-54900000D01*
X174900000Y-54900000D02*
X178500000Y-54900000D01*
X187900000Y-54900000D02*
X184300000Y-54900000D01*
D13*
%TO.C,C69*%
X102755000Y-123875014D02*
X102755000Y-124624999D01*
D11*
%TO.C,R1*%
X165362742Y-81077500D02*
X165837258Y-81077500D01*
X165362742Y-82122500D02*
X165837258Y-82122500D01*
%TD*%
M02*
