M48
; DRILL file {KiCad 7.0.1} date Fri Jun 21 04:11:31 2024
; FORMAT={-:-/ absolute / inch / decimal}
; #@! TF.CreationDate,2024-06-21T04:11:31+03:00
; #@! TF.GenerationSoftware,Kicad,Pcbnew,7.0.1
; #@! TF.FileFunction,Plated,1,4,PTH
FMAT,2
INCH
; #@! TA.AperFunction,Plated,PTH,ViaDrill
T1C0.0157
; #@! TA.AperFunction,Plated,PTH,ComponentDrill
T2C0.0320
; #@! TA.AperFunction,Plated,PTH,ViaDrill
T3C0.0394
; #@! TA.AperFunction,Plated,PTH,ComponentDrill
T4C0.0394
%
G90
G05
T1
X3.8346Y-2.6339
X3.8346Y-2.6969
X3.8346Y-2.748
X3.8346Y-2.811
X3.8701Y-4.8031
X3.8858Y-4.8386
X3.8858Y-4.8819
X3.9134Y-2.1535
X3.9291Y-2.1181
X3.9528Y-2.1535
X3.9646Y-4.8819
X3.9685Y-2.1181
X3.9921Y-2.1535
X4.0118Y-2.1181
X4.0118Y-4.9449
X4.0315Y-2.1535
X4.0394Y-4.7953
X4.0516Y-4.0079
X4.0551Y-2.1181
X4.0748Y-2.1535
X4.0787Y-4.9449
X4.1063Y-4.0866
X4.1299Y-3.2795
X4.1496Y-2.9567
X4.1526Y-3.0974
X4.1614Y-2.4173
X4.1614Y-2.4606
X4.1693Y-3.2835
X4.1772Y-4.0039
X4.189Y-2.437
X4.1892Y-4.7717
X4.252Y-3.1417
X4.2563Y-4.0791
X4.2756Y-3.185
X4.2835Y-3.7402
X4.2953Y-3.1417
X4.3228Y-3.185
X4.3425Y-3.1378
X4.3465Y-2.1929
X4.3701Y-3.185
X4.3858Y-3.1417
X4.4449Y-1.9665
X4.4488Y-2.0276
X4.5039Y-2.4331
X4.5039Y-2.4843
X4.5276Y-1.9646
X4.5276Y-2.0157
X4.5354Y-2.1102
X4.563Y-2.0591
X4.5748Y-3.6614
X4.5984Y-4.437
X4.6024Y-2.0197
X4.6102Y-3.6614
X4.6457Y-3.6614
X4.6535Y-4.437
X4.6614Y-2.1732
X4.7126Y-4.437
X4.7559Y-3.9399
X4.7795Y-4.437
X4.8425Y-4.437
X4.9173Y-3.6063
X4.9252Y-3.0472
X4.9409Y-3.5669
X4.9606Y-3.6063
X4.9724Y-3.0472
X4.9843Y-3.5669
X5.0039Y-3.6063
X5.0236Y-3.0472
X5.0236Y-3.5669
X5.0472Y-3.6063
X5.0669Y-3.9252
X5.0709Y-3.5669
X5.0748Y-3.8346
X5.0906Y-2.7323
X5.0984Y-3.6063
X5.1142Y-3.8346
X5.1378Y-3.7244
X5.1535Y-3.1811
X5.1535Y-3.8346
X5.1624Y-3.4006
X5.1654Y-2.7323
X5.1695Y-3.751
X5.1765Y-3.5247
X5.1849Y-3.4882
X5.185Y-3.5866
X5.2008Y-3.1811
X5.2043Y-3.2263
X5.2056Y-3.4163
X5.2126Y-2.7323
X5.2173Y-3.4694
X5.2273Y-3.5707
X5.2418Y-3.4321
X5.252Y-3.2588
X5.2559Y-3.2057
X5.2598Y-3.9961
X5.2598Y-4.0315
X5.2638Y-2.7323
X5.2756Y-3.563
X5.2795Y-3.9606
X5.2874Y-3.815
X5.4409Y-2.6181
X5.4409Y-2.6693
X5.4646Y-4.2638
X5.4803Y-1.9961
X5.4803Y-2.0394
X5.5Y-2.6181
X5.5Y-2.6654
X5.5079Y-4.2638
X5.5276Y-1.9961
X5.5276Y-2.0394
X5.5394Y-3.7205
X5.5591Y-2.6181
X5.563Y-2.6654
X5.5748Y-1.9961
X5.5748Y-2.0433
X5.5866Y-3.1427
X5.626Y-2.6181
X5.626Y-2.6654
X5.6417Y-3.7165
X5.6417Y-3.7638
X5.6772Y-1.9961
X5.6772Y-2.0433
X5.685Y-2.6181
X5.685Y-2.6654
X5.7126Y-3.8898
X5.7362Y-1.9961
X5.7402Y-2.0433
X5.748Y-2.6181
X5.752Y-2.6654
X5.7913Y-1.9961
X5.7913Y-2.0472
X5.7962Y-3.6015
X5.8031Y-2.6181
X5.825Y-3.5777
X5.8526Y-3.7149
X5.8569Y-3.1496
X5.8661Y-3.2677
X5.8701Y-3.752
X5.8898Y-3.7885
X5.8963Y-3.1464
X5.9134Y-3.8228
X5.9291Y-3.8622
X5.9467Y-3.2717
X5.9567Y-3.8937
X5.9783Y-3.6109
X5.9885Y-3.2766
X6.0236Y-3.2638
X6.061Y-3.2636
X6.0787Y-3.1575
X6.1043Y-3.4685
X6.1063Y-3.5079
X6.1156Y-3.3726
X6.1177Y-3.3307
X6.1181Y-3.2441
X6.1358Y-3.6077
X6.185Y-3.1457
X6.185Y-3.2008
X6.2087Y-2.2402
X6.2126Y-2.2992
X6.2165Y-2.3543
X6.2441Y-3.3622
X6.252Y-3.0827
X6.2677Y-2.2992
X6.2677Y-2.3543
X6.2677Y-3.3189
X6.2717Y-2.2362
X6.2874Y-2.8031
X6.2874Y-2.8465
X6.2874Y-2.8898
X6.2874Y-2.9331
X6.2874Y-2.9764
X6.3228Y-2.2992
X6.3228Y-2.3543
X6.3268Y-2.2362
X6.3307Y-2.8031
X6.3307Y-2.8504
X6.3307Y-2.8898
X6.3307Y-2.9331
X6.3307Y-2.9764
X6.3504Y-3.5709
X6.3514Y-3.6339
X6.374Y-2.2362
X6.374Y-2.2992
X6.374Y-2.3543
X6.4291Y-2.2362
X6.4291Y-2.2992
X6.4291Y-2.3543
X6.4764Y-3.7913
X6.4764Y-3.8228
X6.4882Y-2.2362
X6.4882Y-2.2992
X6.4882Y-2.3543
X6.4961Y-3.3228
X6.5Y-3.0591
X6.5Y-4.0236
X6.5433Y-3.0591
X6.5472Y-2.8307
X6.5472Y-2.8701
X6.5472Y-2.9094
X6.563Y-3.4961
X6.563Y-3.6063
X6.5945Y-2.8504
X6.5945Y-2.8898
X6.5985Y-3.5079
X6.6142Y-2.4764
X6.6142Y-2.5276
X6.6142Y-2.5748
X6.6142Y-2.6339
X6.6496Y-3.6102
X6.6575Y-3.4213
X6.6654Y-2.4764
X6.6654Y-2.5315
X6.6654Y-2.5787
X6.6654Y-2.6339
X6.6947Y-3.4127
X6.7047Y-3.4528
X6.7165Y-3.626
X6.7205Y-2.5787
X6.7205Y-2.6339
X6.7244Y-2.4764
X6.7244Y-2.5315
X6.7271Y-3.5546
X6.7402Y-4.1457
X6.748Y-3.5236
X6.748Y-4.2205
X6.7795Y-3.4488
X6.7817Y-3.608
X6.7913Y-4.1457
X6.811Y-2.4803
X6.811Y-2.5276
X6.811Y-2.5787
X6.811Y-2.6339
X6.815Y-3.9213
X6.937Y-3.8228
X6.9449Y-3.3189
X6.9803Y-3.7756
X7.0748Y-2.1496
X7.0748Y-2.2008
X7.0748Y-2.2559
X7.1142Y-4.0276
X7.1142Y-4.0787
X7.1339Y-2.2559
X7.1378Y-2.1535
X7.1378Y-2.2008
X7.1378Y-2.5591
X7.1378Y-2.622
X7.1417Y-2.6811
X7.1575Y-4.0276
X7.1575Y-4.0787
X7.1929Y-2.2559
X7.1969Y-2.1496
X7.1969Y-2.2008
X7.1969Y-4.0276
X7.2008Y-4.0787
X7.2087Y-2.5591
X7.2087Y-2.622
X7.2087Y-2.6811
X7.2362Y-2.5906
X7.2362Y-2.6535
X7.2362Y-3.4134
T2
X6.2104Y-3.8504
X6.2104Y-3.9213
X6.2122Y-4.063
X6.2124Y-3.9921
X6.3604Y-3.8504
X6.3604Y-3.9213
X6.3622Y-4.063
X6.3624Y-3.9921
T3
X3.8976Y-2.5394
X3.8976Y-2.622
X3.9134Y-3.9843
X3.9134Y-4.063
X4.1299Y-4.2362
X4.1498Y-2.6497
X4.1811Y-2.2559
X4.248Y-2.0709
X4.2795Y-4.5394
X4.2795Y-4.6299
X4.5236Y-3.4252
X4.5669Y-4.0221
X4.5827Y-3.2126
X4.6732Y-4.022
X4.8504Y-2.3465
X4.9331Y-2.3465
X5.0512Y-4.4449
X5.1339Y-4.4449
X5.2205Y-4.4449
T4
X3.8937Y-2.9583
X3.8937Y-3.0583
X3.8937Y-3.1583
X3.8937Y-3.2583
X3.8937Y-3.3583
X3.8937Y-3.4583
X3.8937Y-3.5583
X3.8937Y-3.6583
X3.8937Y-3.7583
X3.8937Y-3.8583
X3.9937Y-2.9583
X3.9937Y-3.0583
X3.9937Y-3.1583
X3.9937Y-3.2583
X3.9937Y-3.3583
X3.9937Y-3.4583
X3.9937Y-3.5583
X3.9937Y-3.6583
X3.9937Y-3.7583
X3.9937Y-3.8583
X4.537Y-4.2228
X4.537Y-4.3228
X4.637Y-4.2228
X4.637Y-4.3228
X4.6732Y-4.7441
X4.6732Y-5.0394
X4.737Y-4.2228
X4.737Y-4.3228
X4.837Y-4.2228
X4.837Y-4.3228
X4.937Y-4.2228
X4.937Y-4.3228
X5.2386Y-2.8661
X5.2386Y-2.9661
X5.3386Y-2.8661
X5.3386Y-2.9661
X5.3425Y-4.7421
X5.3425Y-5.0374
X5.4386Y-2.8661
X5.4386Y-2.9661
X5.5386Y-2.8661
X5.5386Y-2.9661
X5.6386Y-2.8661
X5.6386Y-2.9661
X5.7386Y-2.8661
X5.7386Y-2.9661
X5.8386Y-2.8661
X5.8386Y-2.9661
X5.8888Y-3.3731
X5.8888Y-3.4331
X5.8888Y-3.4931
X5.9386Y-2.8661
X5.9386Y-2.9661
X5.9488Y-3.3731
X5.9488Y-3.4331
X5.9488Y-3.4931
X6.0088Y-3.3731
X6.0088Y-3.4331
X6.0088Y-3.4931
X6.0157Y-4.7421
X6.0157Y-5.0374
X6.0386Y-2.8661
X6.0386Y-2.9661
X6.0669Y-4.2228
X6.0669Y-4.3228
X6.1386Y-2.8661
X6.1386Y-2.9661
X6.1669Y-4.2228
X6.1669Y-4.3228
X6.2669Y-4.2228
X6.2669Y-4.3228
X6.3669Y-4.2228
X6.3669Y-4.3228
X6.4669Y-4.2228
X6.4669Y-4.3228
X6.5039Y-3.1339
X6.6929Y-4.7441
X6.6929Y-5.0394
X6.8819Y-3.2126
X7.2953Y-4.5031
X7.2953Y-4.6031
X7.2953Y-4.7031
X7.2953Y-4.8031
X7.2953Y-4.9031
X7.2953Y-5.0031
T0
M30
