%TF.GenerationSoftware,KiCad,Pcbnew,7.0.1*%
%TF.CreationDate,2024-06-21T04:11:25+03:00*%
%TF.ProjectId,_____ GDI,1f3b3042-3020-4474-9449-2e6b69636164,rev?*%
%TF.SameCoordinates,Original*%
%TF.FileFunction,Copper,L3,Inr*%
%TF.FilePolarity,Positive*%
%FSLAX46Y46*%
G04 Gerber Fmt 4.6, Leading zero omitted, Abs format (unit mm)*
G04 Created by KiCad (PCBNEW 7.0.1) date 2024-06-21 04:11:25*
%MOMM*%
%LPD*%
G01*
G04 APERTURE LIST*
%TA.AperFunction,ComponentPad*%
%ADD10C,1.700000*%
%TD*%
%TA.AperFunction,ComponentPad*%
%ADD11C,1.524000*%
%TD*%
%TA.AperFunction,ComponentPad*%
%ADD12R,1.700000X1.700000*%
%TD*%
%TA.AperFunction,ComponentPad*%
%ADD13O,1.700000X1.700000*%
%TD*%
%TA.AperFunction,ComponentPad*%
%ADD14C,1.300000*%
%TD*%
%TA.AperFunction,ComponentPad*%
%ADD15C,2.000000*%
%TD*%
%TA.AperFunction,ViaPad*%
%ADD16C,0.800000*%
%TD*%
%TA.AperFunction,ViaPad*%
%ADD17C,2.000000*%
%TD*%
%TA.AperFunction,Conductor*%
%ADD18C,0.250000*%
%TD*%
%TA.AperFunction,Conductor*%
%ADD19C,3.000000*%
%TD*%
%TA.AperFunction,Conductor*%
%ADD20C,1.000000*%
%TD*%
%TA.AperFunction,Conductor*%
%ADD21C,2.000000*%
%TD*%
%TA.AperFunction,Conductor*%
%ADD22C,4.000000*%
%TD*%
%TA.AperFunction,Conductor*%
%ADD23C,5.000000*%
%TD*%
%TA.AperFunction,Conductor*%
%ADD24C,0.800000*%
%TD*%
G04 APERTURE END LIST*
D10*
%TO.N,/Boot0*%
%TO.C,P2*%
X174800000Y-81600000D03*
%TD*%
D11*
%TO.N,Net-(U8-DBG)*%
%TO.C,R115*%
X157745001Y-99600000D03*
%TO.N,/DBG*%
X161555001Y-99600000D03*
%TD*%
D12*
%TO.N,+3.3V*%
%TO.C,J5*%
X185300000Y-127080000D03*
D13*
%TO.N,/SWCLK*%
X185300000Y-124540000D03*
%TO.N,GND*%
X185300000Y-122000000D03*
%TO.N,/SWDIO*%
X185300000Y-119460000D03*
%TO.N,/nRESET*%
X185300000Y-116920000D03*
%TO.N,unconnected-(J5-Pin_6-Pad6)*%
X185300000Y-114380000D03*
%TD*%
D11*
%TO.N,Net-(U8-FLAG2)*%
%TO.C,R114*%
X157745001Y-97800000D03*
%TO.N,/FLAG_2*%
X161555001Y-97800000D03*
%TD*%
D10*
%TO.N,/nRESET*%
%TO.C,P1*%
X165200000Y-79600000D03*
%TD*%
D14*
%TO.N,GND*%
%TO.C,U8*%
X149576000Y-88724000D03*
X151100000Y-88724000D03*
X152624000Y-88724000D03*
X149576000Y-87200000D03*
X151100000Y-87200000D03*
X152624000Y-87200000D03*
X149576000Y-85676000D03*
X151100000Y-85676000D03*
X152624000Y-85676000D03*
%TD*%
D11*
%TO.N,Net-(U8-FLAG1)*%
%TO.C,R113*%
X157795000Y-101400000D03*
%TO.N,/FLAG_1*%
X161605000Y-101400000D03*
%TD*%
%TO.N,Net-(U8-IRQ)*%
%TO.C,R112*%
X157790000Y-103200000D03*
%TO.N,/IRQ*%
X161600000Y-103200000D03*
%TD*%
D15*
%TO.N,Vdrive*%
%TO.C,C97*%
X118700000Y-128000000D03*
%TO.N,/Vdrive_shunt*%
X118700000Y-120500000D03*
%TD*%
%TO.N,/+Batt_filtered*%
%TO.C,C88*%
X170000000Y-120500000D03*
%TO.N,GND*%
X170000000Y-128000000D03*
%TD*%
%TO.N,+BATT*%
%TO.C,C81*%
X152800000Y-120450000D03*
%TO.N,GND*%
X152800000Y-127950000D03*
%TD*%
D12*
%TO.N,unconnected-(J2-Pin_1-Pad1)*%
%TO.C,J2*%
X133060000Y-75340000D03*
D13*
%TO.N,/UART_RX*%
X133060000Y-72800000D03*
%TO.N,unconnected-(J2-Pin_3-Pad3)*%
X135600000Y-75340000D03*
%TO.N,GND*%
X135600000Y-72800000D03*
%TO.N,unconnected-(J2-Pin_5-Pad5)*%
X138140000Y-75340000D03*
%TO.N,/UART_TX*%
X138140000Y-72800000D03*
%TO.N,unconnected-(J2-Pin_7-Pad7)*%
X140680000Y-75340000D03*
%TO.N,GND*%
X140680000Y-72800000D03*
%TO.N,unconnected-(J2-Pin_9-Pad9)*%
X143220000Y-75340000D03*
%TO.N,GND*%
X143220000Y-72800000D03*
%TO.N,unconnected-(J2-Pin_11-Pad11)*%
X145760000Y-75340000D03*
%TO.N,GND*%
X145760000Y-72800000D03*
%TO.N,unconnected-(J2-Pin_13-Pad13)*%
X148300000Y-75340000D03*
%TO.N,GND*%
X148300000Y-72800000D03*
%TO.N,unconnected-(J2-Pin_15-Pad15)*%
X150840000Y-75340000D03*
%TO.N,GND*%
X150840000Y-72800000D03*
%TO.N,unconnected-(J2-Pin_17-Pad17)*%
X153380000Y-75340000D03*
%TO.N,GND*%
X153380000Y-72800000D03*
%TO.N,unconnected-(J2-Pin_19-Pad19)*%
X155920000Y-75340000D03*
%TO.N,/OA_2*%
X155920000Y-72800000D03*
%TD*%
D12*
%TO.N,/START1*%
%TO.C,J6*%
X115240000Y-109800000D03*
D13*
%TO.N,/START2*%
X115240000Y-107260000D03*
%TO.N,GND*%
X117780000Y-109800000D03*
%TO.N,/START3*%
X117780000Y-107260000D03*
%TO.N,/START4*%
X120320000Y-109800000D03*
%TO.N,/START5*%
X120320000Y-107260000D03*
%TO.N,GND*%
X122860000Y-109800000D03*
%TO.N,/START6*%
X122860000Y-107260000D03*
%TO.N,/CAN_H*%
X125400000Y-109800000D03*
%TO.N,/CAN_L*%
X125400000Y-107260000D03*
%TD*%
D12*
%TO.N,/L1*%
%TO.C,J1*%
X98900000Y-75140000D03*
D13*
X101440000Y-75140000D03*
%TO.N,/H1*%
X98900000Y-77680000D03*
X101440000Y-77680000D03*
%TO.N,/L2*%
X98900000Y-80220000D03*
X101440000Y-80220000D03*
%TO.N,/H1*%
X98900000Y-82760000D03*
X101440000Y-82760000D03*
%TO.N,/L3*%
X98900000Y-85300000D03*
X101440000Y-85300000D03*
%TO.N,/H3*%
X98900000Y-87840000D03*
X101440000Y-87840000D03*
%TO.N,/L4*%
X98900000Y-90380000D03*
X101440000Y-90380000D03*
%TO.N,/H3*%
X98900000Y-92920000D03*
X101440000Y-92920000D03*
%TO.N,/L6PUMP*%
X98900000Y-95460000D03*
X101440000Y-95460000D03*
%TO.N,/H5PUMP*%
X98900000Y-98000000D03*
X101440000Y-98000000D03*
%TD*%
D12*
%TO.N,+5V*%
%TO.C,J7*%
X154100000Y-109800000D03*
D13*
%TO.N,GND*%
X154100000Y-107260000D03*
%TO.N,+3.3V*%
X156640000Y-109800000D03*
%TO.N,GND*%
X156640000Y-107260000D03*
%TO.N,Net-(D4-A1)*%
X159180000Y-109800000D03*
%TO.N,GND*%
X159180000Y-107260000D03*
%TO.N,Net-(D4-A1)*%
X161720000Y-109800000D03*
%TO.N,GND*%
X161720000Y-107260000D03*
%TO.N,Net-(D4-A1)*%
X164260000Y-109800000D03*
%TO.N,GND*%
X164260000Y-107260000D03*
%TD*%
D15*
%TO.N,Vdrive*%
%TO.C,C95*%
X135700000Y-127950000D03*
%TO.N,/Vdrive_shunt*%
X135700000Y-120450000D03*
%TD*%
D16*
%TO.N,GND*%
X97400000Y-71400000D03*
X119700000Y-112700000D03*
X143300000Y-94400000D03*
X139900000Y-108300000D03*
X133600000Y-102400000D03*
X117100000Y-93000000D03*
X115000000Y-49900000D03*
X106100000Y-101700000D03*
X134300000Y-96900000D03*
X97400000Y-69800000D03*
X104300000Y-103800000D03*
X183800000Y-86700000D03*
X97400000Y-66900000D03*
X176400000Y-84300000D03*
X176200000Y-97100000D03*
X161300000Y-90700000D03*
X97400000Y-68500000D03*
X132400000Y-69400000D03*
X129900000Y-97400000D03*
X98700000Y-122900000D03*
X131200000Y-69400000D03*
X182900000Y-103600000D03*
X180700000Y-102300000D03*
X116900000Y-51300000D03*
X143300000Y-95600000D03*
X118000000Y-93000000D03*
X127600000Y-77400000D03*
X181800000Y-102300000D03*
X104900000Y-83300000D03*
X105700000Y-61400000D03*
X102600000Y-121800000D03*
X166700000Y-91600000D03*
X167500000Y-73400000D03*
X169100000Y-86900000D03*
X115000000Y-51200000D03*
X116800000Y-112700000D03*
X138800000Y-108300000D03*
X166300000Y-71900000D03*
X105900000Y-83400000D03*
X180700000Y-103600000D03*
X132100000Y-80800000D03*
X105700000Y-62500000D03*
X118200000Y-112700000D03*
X105400000Y-75100000D03*
X121400000Y-112700000D03*
X130900000Y-97400000D03*
X134100000Y-100600000D03*
X126300000Y-77400000D03*
X158800000Y-78300000D03*
X167500000Y-72400000D03*
X128900000Y-97400000D03*
X98700000Y-124000000D03*
X157100000Y-81300000D03*
X130900000Y-80800000D03*
X100700000Y-124000000D03*
X129300000Y-69400000D03*
X157100000Y-79900000D03*
X165100000Y-77700000D03*
X166300000Y-72900000D03*
X165100000Y-102200000D03*
X166200000Y-77700000D03*
X171400000Y-107200000D03*
X106400000Y-61900000D03*
X116200000Y-93000000D03*
X133600000Y-101500000D03*
X114400000Y-63100000D03*
X123000000Y-112700000D03*
X114400000Y-61800000D03*
X173100000Y-99600000D03*
X108800000Y-95000000D03*
X182800000Y-102300000D03*
X181800000Y-103600000D03*
X177300000Y-95900000D03*
X125100000Y-77400000D03*
X133700000Y-69400000D03*
X166300000Y-73900000D03*
X140700000Y-94500000D03*
D17*
%TO.N,+BATT*%
X116000000Y-102160500D03*
X128300000Y-112900000D03*
D16*
X183100000Y-66600000D03*
X111400000Y-79800000D03*
X99400000Y-54700000D03*
X111000000Y-80900000D03*
X110300000Y-79700000D03*
X101900000Y-53800000D03*
X183100000Y-68100000D03*
D17*
X118700000Y-102160000D03*
D16*
X108600000Y-80900000D03*
X100800000Y-53800000D03*
X103500000Y-54700000D03*
X181300000Y-65000000D03*
X103000000Y-53800000D03*
X109800000Y-80900000D03*
X102400000Y-54700000D03*
D17*
X132600000Y-112900000D03*
D16*
X183800000Y-65800000D03*
X181300000Y-66600000D03*
X145100000Y-98800000D03*
D17*
X130400000Y-112900000D03*
D16*
X109100000Y-79800000D03*
X101400000Y-54700000D03*
X151044975Y-83100000D03*
X108000000Y-79800000D03*
X183800000Y-67400000D03*
X183100000Y-65000000D03*
X100400000Y-54700000D03*
X181400000Y-68100000D03*
X99800000Y-53800000D03*
%TO.N,+5V*%
X164500000Y-96300000D03*
X165000000Y-84400000D03*
X164500000Y-97100000D03*
%TO.N,+3.3V*%
X161325500Y-92300000D03*
X170300000Y-87700000D03*
%TO.N,Net-(Q4-S)*%
X112900000Y-49950000D03*
X131483419Y-89526542D03*
D17*
X106200000Y-57300000D03*
X107900000Y-52600000D03*
%TO.N,/H1*%
X99000000Y-66600000D03*
D16*
X115900000Y-52300000D03*
D17*
X99000000Y-64500000D03*
D16*
X133140862Y-87174500D03*
D17*
%TO.N,Net-(Q8-S)*%
X114900000Y-87000000D03*
X116400000Y-81600000D03*
D16*
%TO.N,/H5PUMP*%
X133400000Y-82774500D03*
X132774500Y-90695300D03*
%TO.N,Net-(U8-B_HS1)*%
X113000000Y-51500000D03*
X132518168Y-88124000D03*
%TO.N,Net-(U8-B_HS2)*%
X131125230Y-86374499D03*
X118400000Y-55200000D03*
%TO.N,Net-(U8-B_HS5)*%
X134000000Y-90500000D03*
X133500000Y-81425500D03*
%TO.N,/+Batt_filtered*%
X145700000Y-50700000D03*
X139200000Y-51800000D03*
X145800000Y-51900000D03*
X139200000Y-50700000D03*
X144200000Y-50700000D03*
X144200000Y-51900000D03*
X182800000Y-54600000D03*
X182800000Y-55900000D03*
X179700000Y-54600000D03*
X140400000Y-50700000D03*
X182700000Y-57300000D03*
X179700000Y-57300000D03*
X181300000Y-54700000D03*
X140400000Y-51800000D03*
X181200000Y-57300000D03*
X141600000Y-51900000D03*
X147100000Y-50700000D03*
X141600000Y-50700000D03*
X181300000Y-55900000D03*
X179700000Y-55900000D03*
X147100000Y-52000000D03*
%TO.N,Vdrive*%
X157900000Y-59800000D03*
X157700000Y-56900000D03*
X126000000Y-91600000D03*
X164800000Y-58400000D03*
X159200000Y-58400000D03*
D17*
X104900000Y-107600000D03*
D16*
X157800000Y-58400000D03*
X161900000Y-59800000D03*
X161900000Y-56800000D03*
X159300000Y-56800000D03*
X163300000Y-58400000D03*
X125500000Y-90600000D03*
X127100000Y-91600000D03*
X160600000Y-58400000D03*
X141900000Y-79825500D03*
X128800000Y-90600000D03*
X160600000Y-59800000D03*
X159200000Y-59800000D03*
D17*
X123200000Y-59600000D03*
D16*
X160700000Y-56800000D03*
X128200000Y-91600000D03*
X126600000Y-90600000D03*
X163300000Y-56800000D03*
X164800000Y-59800000D03*
X164800000Y-56800000D03*
X127600000Y-90600000D03*
X129500000Y-91600000D03*
D17*
X125300000Y-59600000D03*
D16*
X161900000Y-58400000D03*
X124900000Y-91600000D03*
D17*
X105403984Y-67301187D03*
D16*
X163300000Y-59800000D03*
%TO.N,/Vdrive_shunt*%
X160800000Y-73400000D03*
X159700000Y-72300000D03*
X159700000Y-75600000D03*
X159700000Y-73400000D03*
X159700000Y-74500000D03*
X160800000Y-75600000D03*
X159700000Y-71200000D03*
X160800000Y-72400000D03*
X160800000Y-71200000D03*
X160800000Y-74500000D03*
%TO.N,/L1*%
X152108035Y-83225500D03*
%TO.N,/L2*%
X105475000Y-78675000D03*
X153000000Y-82900000D03*
D17*
%TO.N,/L3*%
X108700000Y-117600000D03*
X108700000Y-115300000D03*
D16*
X108109787Y-103609787D03*
X153949494Y-82896617D03*
D17*
%TO.N,/L4*%
X99400000Y-101200000D03*
D16*
X102909999Y-101800000D03*
D17*
X99400000Y-103200000D03*
D16*
X154400000Y-80200000D03*
%TO.N,/L6PUMP*%
X155400000Y-82400000D03*
X120800000Y-100074500D03*
%TO.N,/Vdrive_coil*%
X144400000Y-66500000D03*
X170700000Y-66900000D03*
X139700000Y-66500000D03*
X146000000Y-66500000D03*
X169300000Y-64300000D03*
X168000000Y-64200000D03*
X146100000Y-67700000D03*
X142900000Y-66500000D03*
X173000000Y-63000000D03*
X173000000Y-66900000D03*
X169300000Y-66900000D03*
X139700000Y-67700000D03*
X138200000Y-67800000D03*
X173000000Y-65500000D03*
X141200000Y-66500000D03*
X168000000Y-66900000D03*
X144400000Y-67700000D03*
X168000000Y-62900000D03*
X170700000Y-65500000D03*
X141300000Y-67700000D03*
X147400000Y-66500000D03*
X142900000Y-67700000D03*
X169300000Y-65500000D03*
X170800000Y-64300000D03*
X170800000Y-62900000D03*
X168000000Y-65400000D03*
X173000000Y-64200000D03*
X169300000Y-62900000D03*
X138200000Y-66500000D03*
%TO.N,/SWDIO*%
X170600000Y-92100000D03*
%TO.N,/SWCLK*%
X172255500Y-91643793D03*
%TO.N,/nRESET*%
X170045459Y-86681835D03*
%TO.N,Net-(U8-G_HS1)*%
X110400000Y-55700000D03*
X131697456Y-88601480D03*
%TO.N,Net-(U8-G_HS2)*%
X115200000Y-53600000D03*
X132221152Y-86774500D03*
%TO.N,Net-(U8-G_LS3)*%
X106405000Y-121200000D03*
X148765144Y-79999500D03*
%TO.N,Net-(U8-G_LS4)*%
X98300000Y-122000000D03*
X149765805Y-79919693D03*
%TO.N,Net-(U8-G_HS5)*%
X131700000Y-91100000D03*
X132188312Y-81948895D03*
%TO.N,Net-(U8-G_LS6)*%
X149000000Y-83000000D03*
X128700000Y-99700500D03*
%TO.N,/DRVEN*%
X170868375Y-90286220D03*
X147222488Y-91477512D03*
%TO.N,/RESETB*%
X171400000Y-89499500D03*
X147954246Y-90872463D03*
%TO.N,/FLAG_0*%
X168900000Y-91700000D03*
X151849497Y-91716957D03*
%TO.N,/START1*%
X148657275Y-94357275D03*
%TO.N,/START2*%
X149100000Y-95300000D03*
%TO.N,/START3*%
X149600000Y-96226892D03*
%TO.N,/START4*%
X150200000Y-97100000D03*
%TO.N,/START5*%
X150600000Y-98100000D03*
%TO.N,/START6*%
X151300000Y-98900000D03*
%TO.N,/CAN_L*%
X171200000Y-105300000D03*
%TO.N,/CAN_H*%
X172500000Y-105300000D03*
%TO.N,/OA_1*%
X166700000Y-88800000D03*
X155100000Y-89100000D03*
%TO.N,/OA_2*%
X167600777Y-89100259D03*
X155049500Y-88100000D03*
%TO.N,/IRQ*%
X172200000Y-87600000D03*
%TO.N,Net-(U8-VSENSEN2)*%
X155335924Y-85664076D03*
X101900000Y-125600000D03*
%TO.N,Net-(U8-VSENSEP2)*%
X155389059Y-84600000D03*
X103600000Y-125600000D03*
%TO.N,Net-(U8-VSENSEN3)*%
X158600000Y-85400000D03*
X131305176Y-95274500D03*
%TO.N,Net-(U8-VSENSEP3)*%
X159200000Y-84300000D03*
X130500000Y-94600000D03*
%TO.N,Net-(U8-DBG)*%
X155849156Y-91636104D03*
%TD*%
D18*
%TO.N,GND*%
X132400000Y-69400000D02*
X132300000Y-69000000D01*
X132300000Y-69500000D02*
X132400000Y-69400000D01*
X135600000Y-72800000D02*
X135600000Y-70200000D01*
X135600000Y-70200000D02*
X134900000Y-69500000D01*
X135600000Y-72800000D02*
X137000000Y-71400000D01*
X135600000Y-72800000D02*
X132300000Y-69500000D01*
X136100000Y-70500000D02*
X136100000Y-69700000D01*
X137000000Y-71400000D02*
X136100000Y-70500000D01*
D19*
%TO.N,+BATT*%
X132600000Y-112900000D02*
X127900000Y-112900000D01*
X123806089Y-102160500D02*
X116000000Y-102160500D01*
X102253984Y-68605960D02*
X102253984Y-55946016D01*
X126576034Y-104900500D02*
X126546089Y-104900500D01*
X112100000Y-92800000D02*
X112100000Y-82200000D01*
X103500000Y-54700000D02*
X99800000Y-54700000D01*
X112100000Y-82200000D02*
X112100000Y-78451976D01*
X127900000Y-112900000D02*
X127900000Y-106224466D01*
X102253984Y-55946016D02*
X103500000Y-54700000D01*
D18*
X150843852Y-83100000D02*
X151044975Y-83100000D01*
X145100000Y-98800000D02*
X145100000Y-88843852D01*
D19*
X118750000Y-100923638D02*
X118750000Y-99450000D01*
X123806089Y-102160500D02*
X119986862Y-102160500D01*
D18*
X145100000Y-88843852D02*
X150843852Y-83100000D01*
D19*
X112100000Y-78451976D02*
X102253984Y-68605960D01*
X119986862Y-102160500D02*
X118750000Y-100923638D01*
X126546089Y-104900500D02*
X123806089Y-102160500D01*
X118750000Y-99450000D02*
X112100000Y-92800000D01*
X127900000Y-106224466D02*
X126576034Y-104900500D01*
X110100000Y-80200000D02*
X107600000Y-80200000D01*
X112100000Y-82200000D02*
X110100000Y-80200000D01*
D20*
%TO.N,+5V*%
X165000000Y-84400000D02*
X164600000Y-84800000D01*
X164600000Y-96200000D02*
X164500000Y-96300000D01*
X164600000Y-84800000D02*
X164600000Y-96200000D01*
X164500000Y-97100000D02*
X164500000Y-96300000D01*
%TO.N,+3.3V*%
X168650777Y-89349223D02*
X170300000Y-87700000D01*
X152600000Y-113000000D02*
X152600000Y-106600000D01*
X153000000Y-113400000D02*
X152600000Y-113000000D01*
X162988000Y-104612000D02*
X163017000Y-104583000D01*
X163507538Y-97755667D02*
X161325500Y-95573629D01*
X156640000Y-111960000D02*
X155200000Y-113400000D01*
X163507538Y-100007538D02*
X167850000Y-95665075D01*
X163017000Y-100498075D02*
X163507538Y-100007538D01*
X167850000Y-91265075D02*
X168650777Y-90464298D01*
X152600000Y-106600000D02*
X154588000Y-104612000D01*
X168650777Y-90464298D02*
X168650777Y-89349223D01*
X156640000Y-109800000D02*
X156640000Y-111960000D01*
X154588000Y-104612000D02*
X162988000Y-104612000D01*
X155200000Y-113400000D02*
X153000000Y-113400000D01*
X163507538Y-100007538D02*
X163507538Y-97755667D01*
X161325500Y-95573629D02*
X161325500Y-92300000D01*
X163017000Y-104583000D02*
X163017000Y-100498075D01*
X167850000Y-95665075D02*
X167850000Y-91265075D01*
D21*
%TO.N,/H1*%
X101540000Y-73140000D02*
X102268428Y-73140000D01*
X104000000Y-79592032D02*
X104000000Y-81402081D01*
X101728428Y-77680000D02*
X101440000Y-77680000D01*
X102087968Y-77680000D02*
X104000000Y-79592032D01*
X104000000Y-81402081D02*
X102642081Y-82760000D01*
X103700000Y-74571572D02*
X103700000Y-75708428D01*
X102268428Y-73140000D02*
X103700000Y-74571572D01*
X99000000Y-64500000D02*
X99000000Y-66600000D01*
X103700000Y-75708428D02*
X101728428Y-77680000D01*
X101440000Y-77680000D02*
X102087968Y-77680000D01*
X101440000Y-77680000D02*
X98900000Y-77680000D01*
X99000000Y-70600000D02*
X101540000Y-73140000D01*
X99000000Y-66600000D02*
X99000000Y-70600000D01*
X101440000Y-82760000D02*
X98900000Y-82760000D01*
X102642081Y-82760000D02*
X101440000Y-82760000D01*
D22*
%TO.N,/+Batt_filtered*%
X177700000Y-115100000D02*
X172300000Y-120500000D01*
X178100000Y-55900000D02*
X183700000Y-55900000D01*
X177700000Y-101200000D02*
X177700000Y-115100000D01*
X137300000Y-51300000D02*
X173500000Y-51300000D01*
X187400000Y-59600000D02*
X187400000Y-91500000D01*
X173500000Y-51300000D02*
X178100000Y-55900000D01*
X187400000Y-91500000D02*
X177700000Y-101200000D01*
X183700000Y-55900000D02*
X187400000Y-59600000D01*
X172300000Y-120500000D02*
X170000000Y-120500000D01*
D18*
%TO.N,Vdrive*%
X127500000Y-79700000D02*
X125600000Y-81600000D01*
D19*
X131050000Y-119050000D02*
X131050000Y-123300000D01*
D23*
X168150000Y-112950000D02*
X168150000Y-100063352D01*
D19*
X125600000Y-91200000D02*
X125600000Y-92700000D01*
D21*
X110800000Y-128000000D02*
X118700000Y-128000000D01*
D18*
X141900000Y-79825500D02*
X141774500Y-79700000D01*
D23*
X177700000Y-71300000D02*
X177700000Y-62900000D01*
D19*
X125600000Y-81600000D02*
X125600000Y-91200000D01*
X131050000Y-123300000D02*
X135700000Y-127950000D01*
D21*
X113080000Y-59600000D02*
X125300000Y-59600000D01*
D19*
X136100000Y-114000000D02*
X131050000Y-119050000D01*
X127850862Y-101750500D02*
X129650500Y-101750500D01*
D23*
X155283200Y-59116800D02*
X155000000Y-59400000D01*
X173916800Y-59116800D02*
X155283200Y-59116800D01*
X155283200Y-56483200D02*
X165383200Y-56483200D01*
X156800000Y-124300000D02*
X168150000Y-112950000D01*
D19*
X136100000Y-108200000D02*
X136100000Y-114000000D01*
X105403984Y-67301187D02*
X111301187Y-67301187D01*
D23*
X180000000Y-88213352D02*
X180000000Y-73600000D01*
D19*
X125600000Y-92700000D02*
X126650000Y-93750000D01*
X125600000Y-91200000D02*
X129400000Y-91200000D01*
D21*
X104855000Y-122055000D02*
X110800000Y-128000000D01*
X104900000Y-107600000D02*
X104855000Y-107645000D01*
D23*
X155283200Y-59116800D02*
X155283200Y-56483200D01*
D19*
X126650000Y-93750000D02*
X126650000Y-100549638D01*
D23*
X177700000Y-62900000D02*
X173916800Y-59116800D01*
D19*
X126650000Y-100549638D02*
X127850862Y-101750500D01*
D21*
X105403984Y-67276016D02*
X113080000Y-59600000D01*
D19*
X129650500Y-101750500D02*
X136100000Y-108200000D01*
D23*
X135700000Y-127950000D02*
X118750000Y-127950000D01*
X168150000Y-100063352D02*
X180000000Y-88213352D01*
X180000000Y-73600000D02*
X177700000Y-71300000D01*
D21*
X105403984Y-67301187D02*
X105403984Y-67276016D01*
D19*
X111301187Y-67301187D02*
X125600000Y-81600000D01*
D23*
X135700000Y-127950000D02*
X139350000Y-124300000D01*
X118750000Y-127950000D02*
X118700000Y-128000000D01*
D18*
X141774500Y-79700000D02*
X127500000Y-79700000D01*
D21*
X104855000Y-107645000D02*
X104855000Y-122055000D01*
D23*
X139350000Y-124300000D02*
X156800000Y-124300000D01*
D22*
%TO.N,/Vdrive_shunt*%
X141400000Y-114750000D02*
X141400000Y-112700000D01*
X141400000Y-112700000D02*
X154200000Y-99900000D01*
X158399156Y-92700844D02*
X158399156Y-89300844D01*
X154200000Y-96900000D02*
X158399156Y-92700844D01*
X158399156Y-89300844D02*
X161900000Y-85800000D01*
X135700000Y-120450000D02*
X141400000Y-114750000D01*
X161900000Y-85800000D02*
X161900000Y-72900000D01*
X161900000Y-72900000D02*
X160800000Y-71800000D01*
X154200000Y-99900000D02*
X154200000Y-96900000D01*
D21*
%TO.N,/L3*%
X101440000Y-85300000D02*
X98900000Y-85300000D01*
X108700000Y-115300000D02*
X108700000Y-100800000D01*
X108700000Y-100800000D02*
X106900000Y-99000000D01*
X108700000Y-117600000D02*
X108700000Y-115300000D01*
X106900000Y-90471572D02*
X101728428Y-85300000D01*
X106900000Y-99000000D02*
X106900000Y-90471572D01*
X101728428Y-85300000D02*
X101440000Y-85300000D01*
%TO.N,/L4*%
X104200000Y-98068428D02*
X104200000Y-91937919D01*
X99400000Y-103200000D02*
X99400000Y-101200000D01*
X104200000Y-91937919D02*
X102642081Y-90380000D01*
X99400000Y-101200000D02*
X101068428Y-101200000D01*
X101440000Y-90380000D02*
X98900000Y-90380000D01*
X102642081Y-90380000D02*
X101440000Y-90380000D01*
X101068428Y-101200000D02*
X104200000Y-98068428D01*
D23*
%TO.N,/Vdrive_coil*%
X147400000Y-66500000D02*
X165100000Y-66500000D01*
X166700000Y-64900000D02*
X172400000Y-64900000D01*
X147400000Y-66500000D02*
X147000000Y-66900000D01*
X165100000Y-66500000D02*
X166700000Y-64900000D01*
X147000000Y-66900000D02*
X137500000Y-66900000D01*
D24*
%TO.N,Net-(U8-DBG)*%
X157745001Y-99600000D02*
X157600000Y-99600000D01*
%TD*%
%TA.AperFunction,Conductor*%
%TO.N,GND*%
G36*
X136676846Y-48659803D02*
G01*
X136722602Y-48711703D01*
X136733426Y-48780041D01*
X136705948Y-48843540D01*
X136648722Y-48882431D01*
X136377689Y-48970495D01*
X136092992Y-49104463D01*
X135827336Y-49273053D01*
X135584902Y-49473612D01*
X135369519Y-49702971D01*
X135184583Y-49957515D01*
X135033005Y-50233235D01*
X134917180Y-50525774D01*
X134838934Y-50830525D01*
X134799500Y-51142680D01*
X134799500Y-51457320D01*
X134838934Y-51769474D01*
X134917180Y-52074225D01*
X135033005Y-52366764D01*
X135184583Y-52642484D01*
X135369519Y-52897028D01*
X135584902Y-53126387D01*
X135712222Y-53231715D01*
X135827337Y-53326947D01*
X136092993Y-53495537D01*
X136377685Y-53629503D01*
X136456280Y-53655040D01*
X136676917Y-53726730D01*
X136676919Y-53726730D01*
X136676921Y-53726731D01*
X136985985Y-53785688D01*
X137090621Y-53792271D01*
X137221412Y-53800500D01*
X137221417Y-53800500D01*
X153487527Y-53800500D01*
X153548273Y-53816399D01*
X153593442Y-53860017D01*
X153611451Y-53920171D01*
X153597683Y-53981435D01*
X153555668Y-54028099D01*
X153488390Y-54072349D01*
X153424166Y-54126239D01*
X153418510Y-54130711D01*
X153351246Y-54180787D01*
X153290244Y-54238339D01*
X153284859Y-54243132D01*
X153220637Y-54297021D01*
X153163102Y-54358004D01*
X153158004Y-54363102D01*
X153097021Y-54420637D01*
X153043132Y-54484859D01*
X153038339Y-54490244D01*
X152980787Y-54551246D01*
X152930711Y-54618510D01*
X152926239Y-54624166D01*
X152872349Y-54688390D01*
X152826279Y-54758434D01*
X152822145Y-54764338D01*
X152772071Y-54831602D01*
X152730144Y-54904219D01*
X152726360Y-54910354D01*
X152680284Y-54980411D01*
X152642655Y-55055334D01*
X152639235Y-55061678D01*
X152597311Y-55134296D01*
X152564102Y-55211280D01*
X152561055Y-55217813D01*
X152523425Y-55292742D01*
X152494746Y-55371537D01*
X152492087Y-55378228D01*
X152458874Y-55455229D01*
X152458873Y-55455232D01*
X152434824Y-55535556D01*
X152432557Y-55542398D01*
X152403880Y-55621191D01*
X152384545Y-55702768D01*
X152382679Y-55709732D01*
X152358631Y-55790061D01*
X152344069Y-55872642D01*
X152342611Y-55879702D01*
X152323276Y-55961289D01*
X152313543Y-56044558D01*
X152312498Y-56051693D01*
X152297938Y-56134270D01*
X152293063Y-56217964D01*
X152292435Y-56225147D01*
X152282700Y-56308443D01*
X152282700Y-58089227D01*
X152273939Y-58135008D01*
X152146972Y-58454603D01*
X152087859Y-58675215D01*
X152056508Y-58792218D01*
X152005852Y-59138046D01*
X152001547Y-59285985D01*
X151995685Y-59487422D01*
X152026148Y-59835605D01*
X152096826Y-60177899D01*
X152206767Y-60509681D01*
X152354481Y-60826455D01*
X152476368Y-61024063D01*
X152537969Y-61123933D01*
X152754753Y-61398101D01*
X153001899Y-61645247D01*
X153276067Y-61862031D01*
X153368381Y-61918971D01*
X153573544Y-62045518D01*
X153573547Y-62045519D01*
X153573548Y-62045520D01*
X153890319Y-62193233D01*
X154222098Y-62303173D01*
X154417360Y-62343491D01*
X154564394Y-62373851D01*
X154912577Y-62404314D01*
X154912582Y-62404313D01*
X154912584Y-62404314D01*
X155261954Y-62394148D01*
X155607782Y-62343492D01*
X155945391Y-62253029D01*
X156043354Y-62214111D01*
X156264992Y-62126061D01*
X156310773Y-62117300D01*
X165049617Y-62117300D01*
X165109734Y-62132847D01*
X165154776Y-62175591D01*
X165173447Y-62234812D01*
X165161066Y-62295660D01*
X165120738Y-62342877D01*
X165090731Y-62363887D01*
X165081612Y-62369696D01*
X165048404Y-62388869D01*
X164944694Y-62466079D01*
X164941771Y-62468190D01*
X164835826Y-62542374D01*
X164807195Y-62567853D01*
X164798816Y-62574679D01*
X164768052Y-62597584D01*
X164768047Y-62597588D01*
X164699700Y-62662068D01*
X164673983Y-62686331D01*
X164671330Y-62688762D01*
X164640050Y-62716601D01*
X164610462Y-62746187D01*
X164607880Y-62748695D01*
X164513816Y-62837441D01*
X164489170Y-62866813D01*
X164481863Y-62874787D01*
X163893471Y-63463181D01*
X163853243Y-63490061D01*
X163805790Y-63499500D01*
X147536412Y-63499500D01*
X147525603Y-63499028D01*
X147487419Y-63495686D01*
X147358151Y-63499448D01*
X147354545Y-63499500D01*
X147312688Y-63499500D01*
X147270931Y-63501931D01*
X147267332Y-63502088D01*
X147138049Y-63505851D01*
X147100100Y-63511410D01*
X147089341Y-63512509D01*
X147051070Y-63514738D01*
X146923742Y-63537188D01*
X146920184Y-63537762D01*
X146792223Y-63556507D01*
X146755188Y-63566430D01*
X146744634Y-63568769D01*
X146706869Y-63575429D01*
X146582976Y-63612520D01*
X146579507Y-63613504D01*
X146454605Y-63646971D01*
X146418973Y-63661127D01*
X146408759Y-63664677D01*
X146372029Y-63675673D01*
X146253288Y-63726892D01*
X146249958Y-63728272D01*
X146129783Y-63776015D01*
X146096041Y-63794209D01*
X146086308Y-63798921D01*
X146051097Y-63814110D01*
X145939093Y-63878775D01*
X145935949Y-63880529D01*
X145928322Y-63884642D01*
X145869467Y-63899500D01*
X137412692Y-63899500D01*
X137151072Y-63914738D01*
X136806869Y-63975429D01*
X136687664Y-64011117D01*
X136472029Y-64075674D01*
X136325559Y-64138855D01*
X136151093Y-64214112D01*
X135848404Y-64388869D01*
X135568045Y-64597589D01*
X135341057Y-64811742D01*
X135313817Y-64837442D01*
X135234066Y-64932486D01*
X135089145Y-65105196D01*
X134897086Y-65397206D01*
X134740223Y-65709545D01*
X134638782Y-65988256D01*
X134620681Y-66037989D01*
X134540077Y-66378086D01*
X134499500Y-66725241D01*
X134499500Y-67074759D01*
X134521973Y-67267026D01*
X134540077Y-67421915D01*
X134565954Y-67531097D01*
X134609082Y-67713072D01*
X134620682Y-67762014D01*
X134740223Y-68090454D01*
X134897086Y-68402793D01*
X135089145Y-68694803D01*
X135089148Y-68694807D01*
X135089151Y-68694811D01*
X135313817Y-68962558D01*
X135568047Y-69202412D01*
X135848404Y-69411130D01*
X136151096Y-69585889D01*
X136472029Y-69724326D01*
X136806864Y-69824569D01*
X136806868Y-69824569D01*
X136806869Y-69824570D01*
X136844601Y-69831223D01*
X137151073Y-69885262D01*
X137368227Y-69897910D01*
X137412692Y-69900500D01*
X137412695Y-69900500D01*
X146863577Y-69900500D01*
X146874383Y-69900971D01*
X146882282Y-69901662D01*
X146912580Y-69904314D01*
X146912583Y-69904313D01*
X146912584Y-69904314D01*
X147041870Y-69900552D01*
X147045478Y-69900500D01*
X147087307Y-69900500D01*
X147099026Y-69899817D01*
X147129074Y-69898067D01*
X147132642Y-69897910D01*
X147261954Y-69894148D01*
X147299898Y-69888589D01*
X147310653Y-69887490D01*
X147348927Y-69885262D01*
X147476296Y-69862802D01*
X147479770Y-69862242D01*
X147607782Y-69843492D01*
X147644836Y-69833563D01*
X147655358Y-69831230D01*
X147693136Y-69824569D01*
X147817050Y-69787471D01*
X147820465Y-69786502D01*
X147945391Y-69753029D01*
X147981028Y-69738870D01*
X147991224Y-69735326D01*
X148027971Y-69724326D01*
X148146732Y-69673097D01*
X148150040Y-69671726D01*
X148270215Y-69623985D01*
X148303965Y-69605786D01*
X148313690Y-69601078D01*
X148348904Y-69585889D01*
X148460961Y-69521192D01*
X148464004Y-69519494D01*
X148471689Y-69515350D01*
X148530531Y-69500500D01*
X159322800Y-69500500D01*
X159384579Y-69516985D01*
X159429931Y-69562058D01*
X159446798Y-69623734D01*
X159430694Y-69685613D01*
X159396167Y-69720785D01*
X159397896Y-69723014D01*
X159143116Y-69920641D01*
X158920641Y-70143116D01*
X158727794Y-70391732D01*
X158567634Y-70662549D01*
X158442674Y-70951315D01*
X158354894Y-71253454D01*
X158305675Y-71564213D01*
X158295793Y-71878697D01*
X158325401Y-72191937D01*
X158394039Y-72499001D01*
X158500614Y-72795027D01*
X158643460Y-73075377D01*
X158778347Y-73273857D01*
X158796053Y-73313346D01*
X158799110Y-73356515D01*
X158794540Y-73400000D01*
X158799431Y-73446539D01*
X158814326Y-73588257D01*
X158872819Y-73768281D01*
X158872821Y-73768284D01*
X158941940Y-73888001D01*
X158958552Y-73949999D01*
X158941939Y-74011999D01*
X158872820Y-74131715D01*
X158814326Y-74311742D01*
X158794540Y-74499999D01*
X158814326Y-74688257D01*
X158872820Y-74868284D01*
X158941939Y-74988000D01*
X158958552Y-75050000D01*
X158941939Y-75112000D01*
X158872820Y-75231715D01*
X158814326Y-75411742D01*
X158794540Y-75600000D01*
X158814326Y-75788257D01*
X158872820Y-75968284D01*
X158967466Y-76132216D01*
X159094129Y-76272889D01*
X159247267Y-76384150D01*
X159274972Y-76396485D01*
X159325936Y-76419175D01*
X159364698Y-76446317D01*
X159390471Y-76486004D01*
X159399500Y-76532455D01*
X159399500Y-83275500D01*
X159382887Y-83337500D01*
X159337500Y-83382887D01*
X159275500Y-83399500D01*
X159105352Y-83399500D01*
X158920197Y-83438855D01*
X158747269Y-83515848D01*
X158594129Y-83627110D01*
X158467466Y-83767783D01*
X158372820Y-83931715D01*
X158314326Y-84111742D01*
X158294540Y-84300000D01*
X158310252Y-84449494D01*
X158304862Y-84500773D01*
X158279081Y-84545427D01*
X158237367Y-84575734D01*
X158147269Y-84615848D01*
X157994129Y-84727110D01*
X157867466Y-84867783D01*
X157772820Y-85031715D01*
X157714326Y-85211742D01*
X157694540Y-85399999D01*
X157714326Y-85588257D01*
X157772820Y-85768284D01*
X157867466Y-85932216D01*
X157961226Y-86036347D01*
X157989898Y-86091425D01*
X157988272Y-86153498D01*
X157956757Y-86207000D01*
X156660192Y-87503565D01*
X156657396Y-87506275D01*
X156572769Y-87585746D01*
X156572766Y-87585750D01*
X156498745Y-87675224D01*
X156496244Y-87678152D01*
X156419468Y-87765237D01*
X156400604Y-87792993D01*
X156393595Y-87802328D01*
X156372206Y-87828183D01*
X156310009Y-87926190D01*
X156307872Y-87929444D01*
X156242613Y-88025470D01*
X156227383Y-88055362D01*
X156221598Y-88065506D01*
X156203616Y-88093841D01*
X156188924Y-88125063D01*
X156147919Y-88173790D01*
X156088136Y-88195737D01*
X156025343Y-88185115D01*
X155976104Y-88144727D01*
X155953407Y-88085227D01*
X155935174Y-87911744D01*
X155896589Y-87792993D01*
X155876679Y-87731715D01*
X155782033Y-87567783D01*
X155655370Y-87427110D01*
X155502230Y-87315848D01*
X155329302Y-87238855D01*
X155144148Y-87199500D01*
X155144146Y-87199500D01*
X154954854Y-87199500D01*
X154954852Y-87199500D01*
X154769697Y-87238855D01*
X154596769Y-87315848D01*
X154443629Y-87427110D01*
X154316966Y-87567783D01*
X154222320Y-87731715D01*
X154163826Y-87911742D01*
X154146625Y-88075407D01*
X154144040Y-88100000D01*
X154146766Y-88125936D01*
X154163826Y-88288257D01*
X154222320Y-88468284D01*
X154287820Y-88581733D01*
X154304433Y-88643731D01*
X154287822Y-88705729D01*
X154272821Y-88731712D01*
X154214326Y-88911742D01*
X154194540Y-89100000D01*
X154214326Y-89288257D01*
X154272820Y-89468284D01*
X154367466Y-89632216D01*
X154494129Y-89772889D01*
X154647269Y-89884151D01*
X154820197Y-89961144D01*
X155005352Y-90000500D01*
X155005354Y-90000500D01*
X155194646Y-90000500D01*
X155194648Y-90000500D01*
X155344231Y-89968705D01*
X155379803Y-89961144D01*
X155552730Y-89884151D01*
X155701771Y-89775866D01*
X155764927Y-89752567D01*
X155830951Y-89765700D01*
X155880383Y-89811395D01*
X155898656Y-89876185D01*
X155898656Y-90611604D01*
X155882043Y-90673604D01*
X155836656Y-90718991D01*
X155774656Y-90735604D01*
X155754508Y-90735604D01*
X155569353Y-90774959D01*
X155396425Y-90851952D01*
X155243285Y-90963214D01*
X155116622Y-91103887D01*
X155021976Y-91267819D01*
X154963482Y-91447846D01*
X154943696Y-91636104D01*
X154963482Y-91824361D01*
X155021976Y-92004388D01*
X155116622Y-92168319D01*
X155169986Y-92227585D01*
X155198659Y-92282663D01*
X155197034Y-92344737D01*
X155165518Y-92398239D01*
X152461036Y-95102721D01*
X152458240Y-95105431D01*
X152373613Y-95184902D01*
X152361709Y-95199292D01*
X152299589Y-95274380D01*
X152297088Y-95277308D01*
X152220312Y-95364393D01*
X152201448Y-95392149D01*
X152194439Y-95401484D01*
X152173050Y-95427339D01*
X152110853Y-95525346D01*
X152108716Y-95528600D01*
X152043457Y-95624626D01*
X152028227Y-95654518D01*
X152022442Y-95664662D01*
X152004459Y-95692999D01*
X151955041Y-95798018D01*
X151953328Y-95801515D01*
X151900616Y-95904969D01*
X151889246Y-95936547D01*
X151884780Y-95947330D01*
X151870495Y-95977688D01*
X151834614Y-96088115D01*
X151833353Y-96091798D01*
X151794037Y-96201003D01*
X151786720Y-96233738D01*
X151783639Y-96245002D01*
X151773268Y-96276922D01*
X151751511Y-96390969D01*
X151750722Y-96394780D01*
X151725401Y-96508063D01*
X151722242Y-96541473D01*
X151720598Y-96553028D01*
X151714311Y-96585988D01*
X151707022Y-96701846D01*
X151706717Y-96705727D01*
X151695793Y-96821302D01*
X151699439Y-96937331D01*
X151699500Y-96941226D01*
X151699500Y-97786928D01*
X151680197Y-97853371D01*
X151628297Y-97899127D01*
X151559959Y-97909950D01*
X151496459Y-97882472D01*
X151457569Y-97825246D01*
X151427179Y-97731715D01*
X151332533Y-97567783D01*
X151205870Y-97427110D01*
X151138561Y-97378208D01*
X151098166Y-97328325D01*
X151088125Y-97264931D01*
X151105460Y-97100000D01*
X151085674Y-96911744D01*
X151055332Y-96818363D01*
X151027179Y-96731715D01*
X150932533Y-96567783D01*
X150805870Y-96427111D01*
X150652730Y-96315849D01*
X150622793Y-96302520D01*
X150573438Y-96280545D01*
X150523556Y-96240152D01*
X150500556Y-96180233D01*
X150485674Y-96038636D01*
X150448317Y-95923663D01*
X150427179Y-95858607D01*
X150332533Y-95694675D01*
X150205870Y-95554002D01*
X150052794Y-95442787D01*
X150012399Y-95392904D01*
X150002358Y-95329509D01*
X150005460Y-95300000D01*
X149985674Y-95111744D01*
X149948176Y-94996337D01*
X149927179Y-94931715D01*
X149832533Y-94767783D01*
X149705870Y-94627110D01*
X149604460Y-94553432D01*
X149564065Y-94503549D01*
X149554024Y-94440153D01*
X149562735Y-94357275D01*
X149542949Y-94169019D01*
X149492384Y-94013396D01*
X149484454Y-93988990D01*
X149389808Y-93825058D01*
X149263145Y-93684385D01*
X149110005Y-93573123D01*
X148937077Y-93496130D01*
X148751923Y-93456775D01*
X148751921Y-93456775D01*
X148562629Y-93456775D01*
X148562627Y-93456775D01*
X148377472Y-93496130D01*
X148204544Y-93573123D01*
X148051404Y-93684385D01*
X147924741Y-93825058D01*
X147830095Y-93988990D01*
X147771601Y-94169017D01*
X147751815Y-94357275D01*
X147771601Y-94545532D01*
X147830095Y-94725559D01*
X147924741Y-94889491D01*
X148051404Y-95030164D01*
X148152814Y-95103842D01*
X148193208Y-95153724D01*
X148203250Y-95217120D01*
X148194540Y-95299998D01*
X148214326Y-95488257D01*
X148272820Y-95668284D01*
X148367466Y-95832216D01*
X148494129Y-95972889D01*
X148647205Y-96084105D01*
X148687599Y-96133987D01*
X148697641Y-96197383D01*
X148694540Y-96226890D01*
X148694540Y-96226892D01*
X148698225Y-96261955D01*
X148714326Y-96415149D01*
X148772820Y-96595176D01*
X148867466Y-96759108D01*
X148994129Y-96899781D01*
X149147267Y-97011041D01*
X149147270Y-97011043D01*
X149226559Y-97046345D01*
X149276441Y-97086738D01*
X149299444Y-97146662D01*
X149314326Y-97288257D01*
X149372820Y-97468284D01*
X149467466Y-97632216D01*
X149594129Y-97772888D01*
X149661438Y-97821791D01*
X149701832Y-97871673D01*
X149711874Y-97935070D01*
X149694540Y-98099999D01*
X149714326Y-98288257D01*
X149772820Y-98468284D01*
X149867466Y-98632216D01*
X149994129Y-98772889D01*
X150147269Y-98884151D01*
X150332104Y-98966446D01*
X150331627Y-98967516D01*
X150361785Y-98980939D01*
X150396292Y-99019258D01*
X150412228Y-99068297D01*
X150413763Y-99082902D01*
X150414326Y-99088258D01*
X150472820Y-99268284D01*
X150567466Y-99432216D01*
X150694129Y-99572889D01*
X150748541Y-99612421D01*
X150783845Y-99652150D01*
X150799274Y-99703010D01*
X150791992Y-99755657D01*
X150763337Y-99800420D01*
X139661036Y-110902721D01*
X139658240Y-110905431D01*
X139573613Y-110984902D01*
X139554881Y-111007545D01*
X139499589Y-111074380D01*
X139497088Y-111077308D01*
X139420312Y-111164393D01*
X139401448Y-111192149D01*
X139394439Y-111201484D01*
X139373050Y-111227339D01*
X139310853Y-111325346D01*
X139308716Y-111328600D01*
X139243457Y-111424626D01*
X139228227Y-111454518D01*
X139222442Y-111464662D01*
X139204459Y-111492999D01*
X139155041Y-111598018D01*
X139153328Y-111601515D01*
X139100616Y-111704969D01*
X139089246Y-111736547D01*
X139084780Y-111747330D01*
X139070495Y-111777688D01*
X139034614Y-111888115D01*
X139033353Y-111891798D01*
X138994037Y-112001003D01*
X138986720Y-112033738D01*
X138983639Y-112045002D01*
X138973268Y-112076922D01*
X138951511Y-112190969D01*
X138950722Y-112194780D01*
X138925401Y-112308063D01*
X138922242Y-112341473D01*
X138920598Y-112353028D01*
X138914311Y-112385988D01*
X138907022Y-112501846D01*
X138906717Y-112505727D01*
X138895793Y-112621302D01*
X138899439Y-112737331D01*
X138899500Y-112741226D01*
X138899500Y-113662897D01*
X138890061Y-113710350D01*
X138863181Y-113750578D01*
X138301776Y-114311981D01*
X138249029Y-114343277D01*
X138187736Y-114345466D01*
X138132891Y-114318012D01*
X138097913Y-114267632D01*
X138091357Y-114206653D01*
X138100499Y-114143079D01*
X138100499Y-114075885D01*
X138100500Y-114075857D01*
X138100500Y-108056924D01*
X138100500Y-108056921D01*
X138090931Y-107990375D01*
X138089991Y-107981620D01*
X138085196Y-107914572D01*
X138070908Y-107848891D01*
X138069338Y-107840190D01*
X138059775Y-107773677D01*
X138040843Y-107709202D01*
X138038656Y-107700630D01*
X138024370Y-107634958D01*
X138024369Y-107634954D01*
X138000874Y-107571963D01*
X137998090Y-107563597D01*
X137979156Y-107499111D01*
X137977464Y-107495407D01*
X137951235Y-107437975D01*
X137947855Y-107429817D01*
X137932990Y-107389960D01*
X137924368Y-107366840D01*
X137912115Y-107344401D01*
X137892150Y-107307839D01*
X137888205Y-107299956D01*
X137860282Y-107238813D01*
X137845226Y-107215386D01*
X137823946Y-107182273D01*
X137819429Y-107174660D01*
X137787227Y-107115686D01*
X137746948Y-107061880D01*
X137741899Y-107054607D01*
X137740664Y-107052686D01*
X137722610Y-107024592D01*
X137705575Y-106998084D01*
X137661564Y-106947293D01*
X137656010Y-106940401D01*
X137647020Y-106928392D01*
X137615739Y-106886605D01*
X137413395Y-106684261D01*
X137413394Y-106684260D01*
X131014546Y-100285412D01*
X131014545Y-100285411D01*
X130963895Y-100234761D01*
X130910096Y-100194487D01*
X130903205Y-100188934D01*
X130881940Y-100170508D01*
X130852417Y-100144926D01*
X130795867Y-100108584D01*
X130788603Y-100103539D01*
X130734817Y-100063274D01*
X130675839Y-100031070D01*
X130668227Y-100026554D01*
X130623301Y-99997682D01*
X130611687Y-99990218D01*
X130577541Y-99974624D01*
X130550558Y-99962301D01*
X130542644Y-99958340D01*
X130483659Y-99926132D01*
X130420690Y-99902645D01*
X130412517Y-99899260D01*
X130393724Y-99890678D01*
X130351388Y-99871344D01*
X130286905Y-99852409D01*
X130278518Y-99849618D01*
X130275177Y-99848372D01*
X130270214Y-99846521D01*
X130215545Y-99826130D01*
X130149867Y-99811843D01*
X130141292Y-99809654D01*
X130076826Y-99790725D01*
X130010306Y-99781161D01*
X130001596Y-99779589D01*
X129935929Y-99765304D01*
X129868890Y-99760508D01*
X129860094Y-99759562D01*
X129793581Y-99750000D01*
X129793579Y-99750000D01*
X129722313Y-99750000D01*
X129664099Y-99735486D01*
X129619512Y-99695340D01*
X129598992Y-99638962D01*
X129585674Y-99512244D01*
X129527179Y-99332216D01*
X129527179Y-99332215D01*
X129432533Y-99168283D01*
X129305870Y-99027610D01*
X129152730Y-98916348D01*
X128979802Y-98839355D01*
X128794648Y-98800000D01*
X144194540Y-98800000D01*
X144214326Y-98988257D01*
X144272820Y-99168284D01*
X144367466Y-99332216D01*
X144494129Y-99472889D01*
X144647269Y-99584151D01*
X144820197Y-99661144D01*
X145005352Y-99700500D01*
X145005354Y-99700500D01*
X145194646Y-99700500D01*
X145194648Y-99700500D01*
X145323516Y-99673108D01*
X145379803Y-99661144D01*
X145552730Y-99584151D01*
X145651705Y-99512242D01*
X145705870Y-99472889D01*
X145832533Y-99332216D01*
X145927179Y-99168284D01*
X145946931Y-99107494D01*
X145985674Y-98988256D01*
X146005460Y-98800000D01*
X145985674Y-98611744D01*
X145945731Y-98488813D01*
X145927179Y-98431715D01*
X145832535Y-98267786D01*
X145803381Y-98235408D01*
X145757347Y-98184282D01*
X145733736Y-98145751D01*
X145725500Y-98101313D01*
X145725500Y-91477512D01*
X146317028Y-91477512D01*
X146336814Y-91665769D01*
X146395308Y-91845796D01*
X146489954Y-92009728D01*
X146616617Y-92150401D01*
X146769757Y-92261663D01*
X146942685Y-92338656D01*
X147127840Y-92378012D01*
X147127842Y-92378012D01*
X147317134Y-92378012D01*
X147317136Y-92378012D01*
X147440572Y-92351774D01*
X147502291Y-92338656D01*
X147675218Y-92261663D01*
X147713074Y-92234159D01*
X147828358Y-92150401D01*
X147955021Y-92009728D01*
X147979426Y-91967457D01*
X148049667Y-91845796D01*
X148053021Y-91835472D01*
X148087980Y-91781638D01*
X148145169Y-91752498D01*
X148234049Y-91733607D01*
X148234050Y-91733606D01*
X148234052Y-91733606D01*
X148271448Y-91716956D01*
X150944037Y-91716956D01*
X150963823Y-91905214D01*
X151022317Y-92085241D01*
X151116963Y-92249173D01*
X151243626Y-92389846D01*
X151396766Y-92501108D01*
X151569694Y-92578101D01*
X151754849Y-92617457D01*
X151754851Y-92617457D01*
X151944143Y-92617457D01*
X151944145Y-92617457D01*
X152067581Y-92591219D01*
X152129300Y-92578101D01*
X152302227Y-92501108D01*
X152455368Y-92389845D01*
X152582030Y-92249173D01*
X152676676Y-92085241D01*
X152735171Y-91905213D01*
X152754957Y-91716957D01*
X152735171Y-91528701D01*
X152676676Y-91348673D01*
X152676676Y-91348672D01*
X152582030Y-91184740D01*
X152455367Y-91044067D01*
X152302227Y-90932805D01*
X152129299Y-90855812D01*
X151944145Y-90816457D01*
X151944143Y-90816457D01*
X151754851Y-90816457D01*
X151754849Y-90816457D01*
X151569694Y-90855812D01*
X151396766Y-90932805D01*
X151243626Y-91044067D01*
X151116963Y-91184740D01*
X151022317Y-91348672D01*
X150963823Y-91528699D01*
X150944037Y-91716956D01*
X148271448Y-91716956D01*
X148406976Y-91656614D01*
X148560116Y-91545352D01*
X148575111Y-91528699D01*
X148686779Y-91404679D01*
X148781425Y-91240747D01*
X148839920Y-91060719D01*
X148859706Y-90872463D01*
X148839920Y-90684207D01*
X148796215Y-90549698D01*
X148781425Y-90504178D01*
X148686779Y-90340246D01*
X148560116Y-90199573D01*
X148406976Y-90088311D01*
X148234048Y-90011318D01*
X148048894Y-89971963D01*
X148048892Y-89971963D01*
X147859600Y-89971963D01*
X147859598Y-89971963D01*
X147674443Y-90011318D01*
X147501515Y-90088311D01*
X147348375Y-90199573D01*
X147221712Y-90340246D01*
X147127066Y-90504179D01*
X147123709Y-90514511D01*
X147088750Y-90568338D01*
X147031561Y-90597476D01*
X146942685Y-90616367D01*
X146769757Y-90693360D01*
X146616617Y-90804622D01*
X146489954Y-90945295D01*
X146395308Y-91109227D01*
X146336814Y-91289254D01*
X146317028Y-91477512D01*
X145725500Y-91477512D01*
X145725500Y-89694560D01*
X148958991Y-89694560D01*
X148958992Y-89694561D01*
X149061201Y-89757846D01*
X149259939Y-89834837D01*
X149469439Y-89874000D01*
X149682561Y-89874000D01*
X149892060Y-89834837D01*
X150090795Y-89757847D01*
X150193007Y-89694560D01*
X150482991Y-89694560D01*
X150482992Y-89694561D01*
X150585201Y-89757846D01*
X150783939Y-89834837D01*
X150993439Y-89874000D01*
X151206561Y-89874000D01*
X151416060Y-89834837D01*
X151614795Y-89757847D01*
X151717007Y-89694560D01*
X152006991Y-89694560D01*
X152006992Y-89694561D01*
X152109201Y-89757846D01*
X152307939Y-89834837D01*
X152517439Y-89874000D01*
X152730561Y-89874000D01*
X152940060Y-89834837D01*
X153138795Y-89757847D01*
X153241007Y-89694560D01*
X152624001Y-89077553D01*
X152624000Y-89077553D01*
X152006991Y-89694560D01*
X151717007Y-89694560D01*
X151100001Y-89077553D01*
X151100000Y-89077553D01*
X150482991Y-89694560D01*
X150193007Y-89694560D01*
X149576001Y-89077553D01*
X149576000Y-89077553D01*
X148958991Y-89694560D01*
X145725500Y-89694560D01*
X145725500Y-89154304D01*
X145734939Y-89106851D01*
X145761819Y-89066623D01*
X146104443Y-88723999D01*
X148421073Y-88723999D01*
X148440737Y-88936219D01*
X148499062Y-89141208D01*
X148594060Y-89331990D01*
X148602834Y-89343609D01*
X148602835Y-89343609D01*
X149222446Y-88724001D01*
X149929553Y-88724001D01*
X150338000Y-89132446D01*
X150338001Y-89132446D01*
X150746446Y-88724001D01*
X151453553Y-88724001D01*
X151862000Y-89132446D01*
X151862001Y-89132446D01*
X152270446Y-88724001D01*
X152977553Y-88724001D01*
X153597163Y-89343610D01*
X153605940Y-89331988D01*
X153700937Y-89141208D01*
X153759262Y-88936219D01*
X153778926Y-88723999D01*
X153759262Y-88511780D01*
X153700937Y-88306791D01*
X153605941Y-88116011D01*
X153597163Y-88104388D01*
X152977553Y-88724000D01*
X152977553Y-88724001D01*
X152270446Y-88724001D01*
X152270446Y-88724000D01*
X151862001Y-88315553D01*
X151862000Y-88315553D01*
X151453553Y-88724000D01*
X151453553Y-88724001D01*
X150746446Y-88724001D01*
X150746446Y-88724000D01*
X150338001Y-88315553D01*
X150338000Y-88315553D01*
X149929553Y-88724000D01*
X149929553Y-88724001D01*
X149222446Y-88724001D01*
X149222446Y-88724000D01*
X148602835Y-88104389D01*
X148594058Y-88116013D01*
X148499062Y-88306791D01*
X148440737Y-88511780D01*
X148421073Y-88723999D01*
X146104443Y-88723999D01*
X146421665Y-88406777D01*
X146866441Y-87962001D01*
X149167553Y-87962001D01*
X149576000Y-88370446D01*
X149576001Y-88370446D01*
X149984446Y-87962001D01*
X150691553Y-87962001D01*
X151100000Y-88370446D01*
X151100001Y-88370446D01*
X151508446Y-87962001D01*
X152215553Y-87962001D01*
X152624000Y-88370446D01*
X152624001Y-88370446D01*
X153032446Y-87962001D01*
X153032446Y-87962000D01*
X152624001Y-87553553D01*
X152624000Y-87553553D01*
X152215553Y-87962000D01*
X152215553Y-87962001D01*
X151508446Y-87962001D01*
X151508446Y-87962000D01*
X151100001Y-87553553D01*
X151100000Y-87553553D01*
X150691553Y-87962000D01*
X150691553Y-87962001D01*
X149984446Y-87962001D01*
X149984446Y-87962000D01*
X149576001Y-87553553D01*
X149576000Y-87553553D01*
X149167553Y-87962000D01*
X149167553Y-87962001D01*
X146866441Y-87962001D01*
X147628442Y-87199999D01*
X148421073Y-87199999D01*
X148440737Y-87412219D01*
X148499062Y-87617208D01*
X148594060Y-87807990D01*
X148602834Y-87819609D01*
X148602835Y-87819609D01*
X149222446Y-87200001D01*
X149929553Y-87200001D01*
X150338000Y-87608446D01*
X150338001Y-87608446D01*
X150746446Y-87200001D01*
X151453553Y-87200001D01*
X151862000Y-87608446D01*
X151862001Y-87608446D01*
X152270446Y-87200001D01*
X152977553Y-87200001D01*
X153597163Y-87819610D01*
X153605940Y-87807988D01*
X153700937Y-87617208D01*
X153759262Y-87412219D01*
X153778926Y-87199999D01*
X153759262Y-86987780D01*
X153700937Y-86782791D01*
X153605941Y-86592011D01*
X153597163Y-86580388D01*
X152977553Y-87200000D01*
X152977553Y-87200001D01*
X152270446Y-87200001D01*
X152270446Y-87200000D01*
X151862001Y-86791553D01*
X151862000Y-86791553D01*
X151453553Y-87200000D01*
X151453553Y-87200001D01*
X150746446Y-87200001D01*
X150746446Y-87200000D01*
X150338001Y-86791553D01*
X150338000Y-86791553D01*
X149929553Y-87200000D01*
X149929553Y-87200001D01*
X149222446Y-87200001D01*
X149222446Y-87200000D01*
X148602834Y-86580388D01*
X148594060Y-86592009D01*
X148499062Y-86782791D01*
X148440737Y-86987780D01*
X148421073Y-87199999D01*
X147628442Y-87199999D01*
X148390440Y-86438001D01*
X149167553Y-86438001D01*
X149576000Y-86846446D01*
X149576001Y-86846446D01*
X149984446Y-86438001D01*
X150691553Y-86438001D01*
X151100000Y-86846446D01*
X151100001Y-86846446D01*
X151508446Y-86438001D01*
X152215553Y-86438001D01*
X152624000Y-86846446D01*
X152624001Y-86846446D01*
X153032446Y-86438001D01*
X153032446Y-86438000D01*
X152624001Y-86029553D01*
X152624000Y-86029553D01*
X152215553Y-86438000D01*
X152215553Y-86438001D01*
X151508446Y-86438001D01*
X151508446Y-86438000D01*
X151100001Y-86029553D01*
X151100000Y-86029553D01*
X150691553Y-86438000D01*
X150691553Y-86438001D01*
X149984446Y-86438001D01*
X149984446Y-86438000D01*
X149576001Y-86029553D01*
X149576000Y-86029553D01*
X149167553Y-86438000D01*
X149167553Y-86438001D01*
X148390440Y-86438001D01*
X148433900Y-86394541D01*
X148447496Y-86386480D01*
X148455914Y-86372527D01*
X148497448Y-86330993D01*
X148541670Y-86302541D01*
X148593713Y-86294976D01*
X148602835Y-86295609D01*
X149222445Y-85676001D01*
X149929553Y-85676001D01*
X150338000Y-86084446D01*
X150338001Y-86084446D01*
X150746446Y-85676001D01*
X151453553Y-85676001D01*
X151862000Y-86084446D01*
X151862001Y-86084446D01*
X152270446Y-85676001D01*
X152977553Y-85676001D01*
X153597163Y-86295610D01*
X153605940Y-86283988D01*
X153700937Y-86093208D01*
X153759262Y-85888219D01*
X153778926Y-85675999D01*
X153777821Y-85664076D01*
X154430464Y-85664076D01*
X154450250Y-85852333D01*
X154508744Y-86032360D01*
X154603390Y-86196292D01*
X154730053Y-86336965D01*
X154883193Y-86448227D01*
X155056121Y-86525220D01*
X155241276Y-86564576D01*
X155241278Y-86564576D01*
X155430570Y-86564576D01*
X155430572Y-86564576D01*
X155554008Y-86538338D01*
X155615727Y-86525220D01*
X155788654Y-86448227D01*
X155873642Y-86386480D01*
X155941794Y-86336965D01*
X156068457Y-86196292D01*
X156163103Y-86032360D01*
X156176753Y-85990349D01*
X156221598Y-85852332D01*
X156241384Y-85664076D01*
X156221598Y-85475820D01*
X156171764Y-85322447D01*
X156163103Y-85295791D01*
X156130923Y-85240054D01*
X156114310Y-85178054D01*
X156130923Y-85116054D01*
X156156600Y-85071581D01*
X156216238Y-84968284D01*
X156274733Y-84788256D01*
X156294519Y-84600000D01*
X156274733Y-84411744D01*
X156232010Y-84280256D01*
X156216238Y-84231715D01*
X156121592Y-84067783D01*
X155994929Y-83927110D01*
X155841789Y-83815848D01*
X155668861Y-83738855D01*
X155483707Y-83699500D01*
X155483705Y-83699500D01*
X155294413Y-83699500D01*
X155294411Y-83699500D01*
X155109256Y-83738855D01*
X154936328Y-83815848D01*
X154783188Y-83927110D01*
X154656525Y-84067783D01*
X154561879Y-84231715D01*
X154503385Y-84411742D01*
X154483599Y-84599999D01*
X154503385Y-84788257D01*
X154561879Y-84968284D01*
X154594059Y-85024021D01*
X154610672Y-85086021D01*
X154594059Y-85148020D01*
X154508745Y-85295789D01*
X154450250Y-85475818D01*
X154430464Y-85664076D01*
X153777821Y-85664076D01*
X153759262Y-85463780D01*
X153700937Y-85258791D01*
X153605941Y-85068011D01*
X153597163Y-85056388D01*
X152977553Y-85676000D01*
X152977553Y-85676001D01*
X152270446Y-85676001D01*
X152270446Y-85676000D01*
X151862001Y-85267553D01*
X151862000Y-85267553D01*
X151453553Y-85676000D01*
X151453553Y-85676001D01*
X150746446Y-85676001D01*
X150746446Y-85676000D01*
X150338001Y-85267553D01*
X150338000Y-85267553D01*
X149929553Y-85676000D01*
X149929553Y-85676001D01*
X149222445Y-85676001D01*
X149576000Y-85322447D01*
X150193006Y-84705438D01*
X150482991Y-84705438D01*
X151100000Y-85322446D01*
X151100001Y-85322446D01*
X151717007Y-84705438D01*
X152006991Y-84705438D01*
X152624000Y-85322446D01*
X152624001Y-85322446D01*
X153241007Y-84705438D01*
X153241006Y-84705437D01*
X153138798Y-84642153D01*
X152940060Y-84565162D01*
X152730561Y-84526000D01*
X152517439Y-84526000D01*
X152307939Y-84565162D01*
X152109203Y-84642153D01*
X152006991Y-84705438D01*
X151717007Y-84705438D01*
X151717006Y-84705437D01*
X151614798Y-84642153D01*
X151416060Y-84565162D01*
X151206561Y-84526000D01*
X150993439Y-84526000D01*
X150783939Y-84565162D01*
X150585203Y-84642153D01*
X150482991Y-84705438D01*
X150193006Y-84705438D01*
X150192640Y-84702279D01*
X150198705Y-84647227D01*
X150228129Y-84600312D01*
X150278330Y-84550111D01*
X150287720Y-84544504D01*
X150293475Y-84534966D01*
X150801790Y-84026651D01*
X150854251Y-83995440D01*
X150915250Y-83993044D01*
X150950328Y-84000500D01*
X150950329Y-84000500D01*
X151139621Y-84000500D01*
X151139623Y-84000500D01*
X151324775Y-83961145D01*
X151324776Y-83961144D01*
X151324778Y-83961144D01*
X151422917Y-83917448D01*
X151486314Y-83907407D01*
X151546238Y-83930409D01*
X151655305Y-84009651D01*
X151655306Y-84009651D01*
X151655307Y-84009652D01*
X151828232Y-84086644D01*
X152013387Y-84126000D01*
X152013389Y-84126000D01*
X152202681Y-84126000D01*
X152202683Y-84126000D01*
X152355131Y-84093596D01*
X152387838Y-84086644D01*
X152560765Y-84009651D01*
X152713906Y-83898388D01*
X152770737Y-83835269D01*
X152824567Y-83800312D01*
X152888667Y-83796953D01*
X152905354Y-83800500D01*
X153094646Y-83800500D01*
X153094648Y-83800500D01*
X153279800Y-83761145D01*
X153279801Y-83761144D01*
X153279803Y-83761144D01*
X153428113Y-83695110D01*
X153478546Y-83684391D01*
X153528978Y-83695111D01*
X153651570Y-83749693D01*
X153669693Y-83757762D01*
X153854846Y-83797117D01*
X153854848Y-83797117D01*
X154044140Y-83797117D01*
X154044142Y-83797117D01*
X154213376Y-83761145D01*
X154229297Y-83757761D01*
X154402224Y-83680768D01*
X154439360Y-83653787D01*
X154555364Y-83569506D01*
X154610184Y-83508623D01*
X154682027Y-83428833D01*
X154776673Y-83264901D01*
X154778597Y-83258978D01*
X154816822Y-83202306D01*
X154879271Y-83174501D01*
X154946965Y-83184015D01*
X154947269Y-83184150D01*
X154947270Y-83184151D01*
X155115334Y-83258979D01*
X155120197Y-83261144D01*
X155305352Y-83300500D01*
X155305354Y-83300500D01*
X155494646Y-83300500D01*
X155494648Y-83300500D01*
X155618083Y-83274262D01*
X155679803Y-83261144D01*
X155852730Y-83184151D01*
X156005871Y-83072888D01*
X156132533Y-82932216D01*
X156227179Y-82768284D01*
X156285674Y-82588256D01*
X156305460Y-82400000D01*
X156285674Y-82211744D01*
X156249855Y-82101504D01*
X156227179Y-82031715D01*
X156132533Y-81867783D01*
X156005870Y-81727110D01*
X155852730Y-81615848D01*
X155679802Y-81538855D01*
X155494648Y-81499500D01*
X155494646Y-81499500D01*
X155305354Y-81499500D01*
X155305352Y-81499500D01*
X155120197Y-81538855D01*
X154947269Y-81615848D01*
X154794129Y-81727110D01*
X154667466Y-81867783D01*
X154572819Y-82031717D01*
X154570893Y-82037646D01*
X154532666Y-82094313D01*
X154470219Y-82122115D01*
X154402529Y-82112601D01*
X154229294Y-82035471D01*
X154044142Y-81996117D01*
X154044140Y-81996117D01*
X153854848Y-81996117D01*
X153854846Y-81996117D01*
X153669691Y-82035472D01*
X153521384Y-82101504D01*
X153470948Y-82112225D01*
X153420512Y-82101504D01*
X153279802Y-82038855D01*
X153094648Y-81999500D01*
X153094646Y-81999500D01*
X152905354Y-81999500D01*
X152905352Y-81999500D01*
X152720197Y-82038855D01*
X152547269Y-82115848D01*
X152394128Y-82227111D01*
X152337296Y-82290229D01*
X152283465Y-82325187D01*
X152219367Y-82328546D01*
X152202684Y-82325000D01*
X152202681Y-82325000D01*
X152013389Y-82325000D01*
X152013387Y-82325000D01*
X151828231Y-82364355D01*
X151730089Y-82408050D01*
X151666693Y-82418091D01*
X151606770Y-82395088D01*
X151497705Y-82315848D01*
X151324777Y-82238855D01*
X151139623Y-82199500D01*
X151139621Y-82199500D01*
X150950329Y-82199500D01*
X150950327Y-82199500D01*
X150765172Y-82238855D01*
X150592244Y-82315848D01*
X150439104Y-82427110D01*
X150312440Y-82567785D01*
X150217796Y-82731715D01*
X150174170Y-82865977D01*
X150143921Y-82915338D01*
X150103915Y-82955344D01*
X150043601Y-82988605D01*
X149974842Y-82984551D01*
X149918855Y-82944431D01*
X149892913Y-82880626D01*
X149885674Y-82811744D01*
X149829382Y-82638495D01*
X149827179Y-82631715D01*
X149732533Y-82467783D01*
X149605870Y-82327110D01*
X149452730Y-82215848D01*
X149279802Y-82138855D01*
X149094648Y-82099500D01*
X149094646Y-82099500D01*
X148905354Y-82099500D01*
X148905352Y-82099500D01*
X148720197Y-82138855D01*
X148547269Y-82215848D01*
X148394129Y-82327110D01*
X148267466Y-82467783D01*
X148172820Y-82631715D01*
X148114326Y-82811742D01*
X148105650Y-82894288D01*
X148094540Y-83000000D01*
X148097960Y-83032543D01*
X148114326Y-83188257D01*
X148172820Y-83368284D01*
X148267466Y-83532216D01*
X148394129Y-83672889D01*
X148547269Y-83784151D01*
X148662088Y-83835272D01*
X148720197Y-83861144D01*
X148890949Y-83897438D01*
X148949340Y-83927672D01*
X148984063Y-83983510D01*
X148985354Y-84049251D01*
X148952850Y-84106409D01*
X144716208Y-88343051D01*
X144700110Y-88355948D01*
X144652096Y-88407077D01*
X144649391Y-88409869D01*
X144629874Y-88429386D01*
X144627415Y-88432557D01*
X144619842Y-88441424D01*
X144589935Y-88473272D01*
X144580285Y-88490826D01*
X144569609Y-88507080D01*
X144557326Y-88522915D01*
X144539975Y-88563010D01*
X144534838Y-88573496D01*
X144513802Y-88611759D01*
X144508821Y-88631161D01*
X144502520Y-88649563D01*
X144494561Y-88667954D01*
X144487728Y-88711094D01*
X144485360Y-88722526D01*
X144474500Y-88764830D01*
X144474500Y-88784868D01*
X144472973Y-88804267D01*
X144470119Y-88822288D01*
X144469840Y-88824048D01*
X144472226Y-88849286D01*
X144473950Y-88867527D01*
X144474500Y-88879196D01*
X144474500Y-98101313D01*
X144466264Y-98145751D01*
X144442652Y-98184282D01*
X144409545Y-98221051D01*
X144367464Y-98267786D01*
X144272820Y-98431715D01*
X144214326Y-98611742D01*
X144194540Y-98800000D01*
X128794648Y-98800000D01*
X128794646Y-98800000D01*
X128774500Y-98800000D01*
X128712500Y-98783387D01*
X128667113Y-98738000D01*
X128650500Y-98676000D01*
X128650500Y-94600000D01*
X129594540Y-94600000D01*
X129595654Y-94610602D01*
X129614326Y-94788257D01*
X129672820Y-94968284D01*
X129767466Y-95132216D01*
X129894129Y-95272889D01*
X130047269Y-95384151D01*
X130220197Y-95461145D01*
X130363697Y-95491646D01*
X130420889Y-95520786D01*
X130455848Y-95574618D01*
X130477996Y-95642784D01*
X130572642Y-95806716D01*
X130699305Y-95947389D01*
X130852445Y-96058651D01*
X131025373Y-96135644D01*
X131210528Y-96175000D01*
X131210530Y-96175000D01*
X131399822Y-96175000D01*
X131399824Y-96175000D01*
X131526236Y-96148130D01*
X131584979Y-96135644D01*
X131757906Y-96058651D01*
X131840089Y-95998942D01*
X131911046Y-95947389D01*
X132037709Y-95806716D01*
X132132355Y-95642784D01*
X132138255Y-95624625D01*
X132190850Y-95462756D01*
X132210636Y-95274500D01*
X132190850Y-95086244D01*
X132152522Y-94968284D01*
X132132355Y-94906215D01*
X132037709Y-94742283D01*
X131911046Y-94601610D01*
X131757906Y-94490348D01*
X131584978Y-94413355D01*
X131441477Y-94382853D01*
X131384286Y-94353713D01*
X131349327Y-94299880D01*
X131327179Y-94231716D01*
X131232533Y-94067783D01*
X131105870Y-93927110D01*
X130952730Y-93815848D01*
X130779802Y-93738855D01*
X130594648Y-93699500D01*
X130594646Y-93699500D01*
X130405354Y-93699500D01*
X130405352Y-93699500D01*
X130220197Y-93738855D01*
X130047269Y-93815848D01*
X129894129Y-93927110D01*
X129767466Y-94067783D01*
X129672820Y-94231715D01*
X129614326Y-94411742D01*
X129596375Y-94582543D01*
X129594540Y-94600000D01*
X128650500Y-94600000D01*
X128650500Y-93606924D01*
X128650500Y-93606921D01*
X128640931Y-93540375D01*
X128639991Y-93531620D01*
X128635196Y-93464572D01*
X128620908Y-93398891D01*
X128619338Y-93390189D01*
X128612431Y-93342146D01*
X128622375Y-93272988D01*
X128668130Y-93220184D01*
X128735169Y-93200500D01*
X129471449Y-93200500D01*
X129487290Y-93199367D01*
X129685428Y-93185196D01*
X129965046Y-93124369D01*
X130233161Y-93024367D01*
X130484315Y-92887226D01*
X130713395Y-92715739D01*
X130915739Y-92513395D01*
X131087226Y-92284315D01*
X131224367Y-92033161D01*
X131229188Y-92020233D01*
X131268408Y-91966339D01*
X131329868Y-91940537D01*
X131395808Y-91950285D01*
X131420199Y-91961145D01*
X131605352Y-92000500D01*
X131605354Y-92000500D01*
X131794646Y-92000500D01*
X131794648Y-92000500D01*
X131955362Y-91966339D01*
X131979803Y-91961144D01*
X132152730Y-91884151D01*
X132188707Y-91858012D01*
X132305870Y-91772889D01*
X132324232Y-91752496D01*
X132432533Y-91632216D01*
X132433245Y-91630982D01*
X132467743Y-91592664D01*
X132514850Y-91571688D01*
X132566415Y-91571688D01*
X132679853Y-91595800D01*
X132679854Y-91595800D01*
X132869146Y-91595800D01*
X132869148Y-91595800D01*
X133000952Y-91567784D01*
X133054303Y-91556444D01*
X133227230Y-91479451D01*
X133380371Y-91368188D01*
X133421865Y-91322102D01*
X133463575Y-91291799D01*
X133514011Y-91281078D01*
X133564447Y-91291799D01*
X133720197Y-91361144D01*
X133905352Y-91400500D01*
X133905354Y-91400500D01*
X134094646Y-91400500D01*
X134094648Y-91400500D01*
X134254167Y-91366593D01*
X134279803Y-91361144D01*
X134452730Y-91284151D01*
X134464625Y-91275509D01*
X134605870Y-91172889D01*
X134610468Y-91167783D01*
X134732533Y-91032216D01*
X134827179Y-90868284D01*
X134885674Y-90688256D01*
X134905460Y-90500000D01*
X134885674Y-90311744D01*
X134840394Y-90172388D01*
X134827179Y-90131715D01*
X134732533Y-89967783D01*
X134605870Y-89827110D01*
X134452730Y-89715848D01*
X134279802Y-89638855D01*
X134094648Y-89599500D01*
X134094646Y-89599500D01*
X133905354Y-89599500D01*
X133905352Y-89599500D01*
X133720197Y-89638855D01*
X133547269Y-89715848D01*
X133394128Y-89827111D01*
X133352636Y-89873193D01*
X133310922Y-89903500D01*
X133260486Y-89914220D01*
X133210052Y-89903500D01*
X133054300Y-89834154D01*
X132869148Y-89794800D01*
X132869146Y-89794800D01*
X132679854Y-89794800D01*
X132679851Y-89794800D01*
X132520331Y-89828706D01*
X132462457Y-89827191D01*
X132411578Y-89799566D01*
X132378787Y-89751853D01*
X132371230Y-89694459D01*
X132388879Y-89526542D01*
X132369093Y-89338286D01*
X132358514Y-89305730D01*
X132355156Y-89241632D01*
X132384295Y-89184443D01*
X132429989Y-89133696D01*
X132447745Y-89102942D01*
X132457238Y-89086500D01*
X132502625Y-89041113D01*
X132564625Y-89024500D01*
X132612816Y-89024500D01*
X132736251Y-88998262D01*
X132797971Y-88985144D01*
X132970898Y-88908151D01*
X133001498Y-88885919D01*
X133124038Y-88796889D01*
X133152902Y-88764833D01*
X133250701Y-88656216D01*
X133345347Y-88492284D01*
X133403842Y-88312256D01*
X133423628Y-88124000D01*
X133423627Y-88123998D01*
X133424990Y-88111038D01*
X133425808Y-88111124D01*
X133429428Y-88076658D01*
X133455209Y-88031999D01*
X133496922Y-88001691D01*
X133593592Y-87958651D01*
X133746733Y-87847388D01*
X133873395Y-87706716D01*
X133968041Y-87542784D01*
X134026536Y-87362756D01*
X134046322Y-87174500D01*
X134026536Y-86986244D01*
X133987870Y-86867243D01*
X133968041Y-86806215D01*
X133873395Y-86642283D01*
X133746732Y-86501610D01*
X133593592Y-86390348D01*
X133420664Y-86313355D01*
X133235510Y-86274000D01*
X133235508Y-86274000D01*
X133046216Y-86274000D01*
X133037450Y-86274000D01*
X132987015Y-86263280D01*
X132945300Y-86232972D01*
X132827022Y-86101610D01*
X132673882Y-85990348D01*
X132500954Y-85913355D01*
X132315800Y-85874000D01*
X132315798Y-85874000D01*
X132126506Y-85874000D01*
X132064528Y-85887173D01*
X131991569Y-85902681D01*
X131940006Y-85902680D01*
X131892901Y-85881706D01*
X131858401Y-85843388D01*
X131857763Y-85842283D01*
X131857759Y-85842279D01*
X131857759Y-85842278D01*
X131731100Y-85701609D01*
X131577960Y-85590347D01*
X131405032Y-85513354D01*
X131219878Y-85473999D01*
X131219876Y-85473999D01*
X131030584Y-85473999D01*
X131030582Y-85473999D01*
X130845427Y-85513354D01*
X130672499Y-85590347D01*
X130519359Y-85701609D01*
X130392696Y-85842282D01*
X130298050Y-86006214D01*
X130239556Y-86186241D01*
X130219770Y-86374498D01*
X130239556Y-86562756D01*
X130298050Y-86742783D01*
X130392696Y-86906715D01*
X130519359Y-87047388D01*
X130672499Y-87158650D01*
X130845427Y-87235643D01*
X131030582Y-87274999D01*
X131030584Y-87274999D01*
X131219876Y-87274999D01*
X131219877Y-87274999D01*
X131320650Y-87253579D01*
X131354810Y-87246317D01*
X131406370Y-87246317D01*
X131453473Y-87267288D01*
X131487975Y-87305603D01*
X131488616Y-87306713D01*
X131597024Y-87427112D01*
X131615281Y-87447388D01*
X131657176Y-87477827D01*
X131694181Y-87520695D01*
X131708265Y-87575547D01*
X131696491Y-87630941D01*
X131661315Y-87675323D01*
X131610073Y-87699435D01*
X131417653Y-87740335D01*
X131244725Y-87817328D01*
X131091585Y-87928590D01*
X130964922Y-88069263D01*
X130870276Y-88233195D01*
X130811782Y-88413222D01*
X130791996Y-88601480D01*
X130811782Y-88789737D01*
X130822359Y-88822288D01*
X130825718Y-88886387D01*
X130796579Y-88943577D01*
X130750885Y-88994325D01*
X130656239Y-89158257D01*
X130597745Y-89338284D01*
X130593693Y-89376841D01*
X130572979Y-89433504D01*
X130527977Y-89473685D01*
X130469339Y-89487874D01*
X130410945Y-89472710D01*
X130235373Y-89376841D01*
X130233161Y-89375633D01*
X129965046Y-89275631D01*
X129965041Y-89275629D01*
X129685429Y-89214804D01*
X129471449Y-89199500D01*
X129471448Y-89199500D01*
X127724500Y-89199500D01*
X127662500Y-89182887D01*
X127617113Y-89137500D01*
X127600500Y-89075500D01*
X127600500Y-81456924D01*
X127600500Y-81456921D01*
X127590931Y-81390375D01*
X127589991Y-81381620D01*
X127585196Y-81314572D01*
X127570908Y-81248891D01*
X127569338Y-81240190D01*
X127559775Y-81173677D01*
X127540843Y-81109202D01*
X127538656Y-81100630D01*
X127524370Y-81034958D01*
X127524369Y-81034954D01*
X127500874Y-80971963D01*
X127498090Y-80963597D01*
X127479156Y-80899111D01*
X127476494Y-80893283D01*
X127451235Y-80837975D01*
X127447855Y-80829817D01*
X127424367Y-80766839D01*
X127423251Y-80763846D01*
X127418268Y-80694156D01*
X127451750Y-80632838D01*
X127722773Y-80361816D01*
X127762999Y-80334939D01*
X127810452Y-80325500D01*
X133173302Y-80325500D01*
X133237537Y-80343435D01*
X133283191Y-80392051D01*
X133297057Y-80457286D01*
X133275125Y-80520268D01*
X133223738Y-80562780D01*
X133220199Y-80564355D01*
X133220197Y-80564356D01*
X133167467Y-80587832D01*
X133047265Y-80641350D01*
X132894129Y-80752610D01*
X132767466Y-80893284D01*
X132672761Y-81057318D01*
X132631084Y-81100476D01*
X132574024Y-81119016D01*
X132514939Y-81108598D01*
X132468112Y-81087749D01*
X132282960Y-81048395D01*
X132282958Y-81048395D01*
X132093666Y-81048395D01*
X132093664Y-81048395D01*
X131908509Y-81087750D01*
X131735581Y-81164743D01*
X131582441Y-81276005D01*
X131455778Y-81416678D01*
X131361132Y-81580610D01*
X131302638Y-81760637D01*
X131282852Y-81948895D01*
X131302638Y-82137152D01*
X131361132Y-82317179D01*
X131455778Y-82481111D01*
X131582441Y-82621784D01*
X131735581Y-82733046D01*
X131908509Y-82810039D01*
X132093664Y-82849395D01*
X132093666Y-82849395D01*
X132282958Y-82849395D01*
X132282959Y-82849395D01*
X132362909Y-82832401D01*
X132431100Y-82837169D01*
X132486402Y-82877348D01*
X132512010Y-82940727D01*
X132514325Y-82962753D01*
X132572820Y-83142784D01*
X132667466Y-83306716D01*
X132794129Y-83447389D01*
X132947269Y-83558651D01*
X133120197Y-83635644D01*
X133305352Y-83675000D01*
X133305354Y-83675000D01*
X133494646Y-83675000D01*
X133494648Y-83675000D01*
X133618084Y-83648762D01*
X133679803Y-83635644D01*
X133852730Y-83558651D01*
X133941444Y-83494197D01*
X134005870Y-83447389D01*
X134132533Y-83306716D01*
X134227179Y-83142784D01*
X134240918Y-83100500D01*
X134285674Y-82962756D01*
X134305460Y-82774500D01*
X134285674Y-82586244D01*
X134247184Y-82467784D01*
X134227179Y-82406215D01*
X134132533Y-82242284D01*
X134129129Y-82238503D01*
X134100961Y-82185529D01*
X134100961Y-82125532D01*
X134129129Y-82072557D01*
X134137138Y-82063663D01*
X134232533Y-81957716D01*
X134327179Y-81793784D01*
X134385674Y-81613756D01*
X134405460Y-81425500D01*
X134385674Y-81237244D01*
X134341235Y-81100476D01*
X134327179Y-81057215D01*
X134232533Y-80893283D01*
X134105870Y-80752610D01*
X133952734Y-80641350D01*
X133843199Y-80592582D01*
X133779803Y-80564356D01*
X133779800Y-80564355D01*
X133776262Y-80562780D01*
X133724875Y-80520268D01*
X133702943Y-80457286D01*
X133716809Y-80392051D01*
X133762463Y-80343435D01*
X133826698Y-80325500D01*
X141083251Y-80325500D01*
X141133686Y-80336220D01*
X141175401Y-80366528D01*
X141294129Y-80498389D01*
X141447269Y-80609651D01*
X141620197Y-80686644D01*
X141805352Y-80726000D01*
X141805354Y-80726000D01*
X141994646Y-80726000D01*
X141994648Y-80726000D01*
X142128710Y-80697504D01*
X142179803Y-80686644D01*
X142352730Y-80609651D01*
X142409667Y-80568284D01*
X142505870Y-80498389D01*
X142511390Y-80492259D01*
X142632533Y-80357716D01*
X142727179Y-80193784D01*
X142785674Y-80013756D01*
X142787172Y-79999500D01*
X147859684Y-79999500D01*
X147866428Y-80063662D01*
X147879470Y-80187757D01*
X147937964Y-80367784D01*
X148032610Y-80531716D01*
X148159273Y-80672389D01*
X148312413Y-80783651D01*
X148485341Y-80860644D01*
X148670496Y-80900000D01*
X148670498Y-80900000D01*
X148859790Y-80900000D01*
X148859792Y-80900000D01*
X148993831Y-80871509D01*
X149044947Y-80860644D01*
X149217874Y-80783651D01*
X149264237Y-80749965D01*
X149324158Y-80726963D01*
X149387554Y-80737004D01*
X149470725Y-80774035D01*
X149486004Y-80780838D01*
X149671157Y-80820193D01*
X149671159Y-80820193D01*
X149860451Y-80820193D01*
X149860453Y-80820193D01*
X150032364Y-80783652D01*
X150045608Y-80780837D01*
X150218535Y-80703844D01*
X150304551Y-80641350D01*
X150371675Y-80592582D01*
X150498338Y-80451909D01*
X150592984Y-80287977D01*
X150600470Y-80264937D01*
X150621570Y-80200000D01*
X153494540Y-80200000D01*
X153514326Y-80388257D01*
X153572820Y-80568284D01*
X153667466Y-80732216D01*
X153794129Y-80872889D01*
X153947269Y-80984151D01*
X154120197Y-81061144D01*
X154305352Y-81100500D01*
X154305354Y-81100500D01*
X154494646Y-81100500D01*
X154494648Y-81100500D01*
X154618083Y-81074262D01*
X154679803Y-81061144D01*
X154852730Y-80984151D01*
X154920294Y-80935063D01*
X155005870Y-80872889D01*
X155016896Y-80860644D01*
X155132533Y-80732216D01*
X155227179Y-80568284D01*
X155285674Y-80388256D01*
X155305460Y-80200000D01*
X155285674Y-80011744D01*
X155228379Y-79835408D01*
X155227179Y-79831715D01*
X155132533Y-79667783D01*
X155005870Y-79527110D01*
X154852730Y-79415848D01*
X154679802Y-79338855D01*
X154494648Y-79299500D01*
X154494646Y-79299500D01*
X154305354Y-79299500D01*
X154305352Y-79299500D01*
X154120197Y-79338855D01*
X153947269Y-79415848D01*
X153794129Y-79527110D01*
X153667466Y-79667783D01*
X153572820Y-79831715D01*
X153514326Y-80011742D01*
X153494540Y-80200000D01*
X150621570Y-80200000D01*
X150651479Y-80107949D01*
X150671265Y-79919693D01*
X150651479Y-79731437D01*
X150592984Y-79551409D01*
X150592984Y-79551408D01*
X150498338Y-79387476D01*
X150371675Y-79246803D01*
X150218535Y-79135541D01*
X150045607Y-79058548D01*
X149860453Y-79019193D01*
X149860451Y-79019193D01*
X149671159Y-79019193D01*
X149671157Y-79019193D01*
X149486002Y-79058548D01*
X149313077Y-79135539D01*
X149266712Y-79169226D01*
X149206788Y-79192228D01*
X149143391Y-79182186D01*
X149044946Y-79138355D01*
X148859792Y-79099000D01*
X148859790Y-79099000D01*
X148670498Y-79099000D01*
X148670496Y-79099000D01*
X148485341Y-79138355D01*
X148312413Y-79215348D01*
X148159273Y-79326610D01*
X148032610Y-79467283D01*
X147937964Y-79631215D01*
X147879470Y-79811242D01*
X147877318Y-79831715D01*
X147859684Y-79999500D01*
X142787172Y-79999500D01*
X142805460Y-79825500D01*
X142785674Y-79637244D01*
X142749889Y-79527110D01*
X142727179Y-79457215D01*
X142632533Y-79293283D01*
X142505870Y-79152610D01*
X142352730Y-79041348D01*
X142179802Y-78964355D01*
X141994648Y-78925000D01*
X141994646Y-78925000D01*
X141805354Y-78925000D01*
X141805352Y-78925000D01*
X141620197Y-78964355D01*
X141447270Y-79041348D01*
X141434235Y-79050819D01*
X141399668Y-79068431D01*
X141361351Y-79074500D01*
X127582744Y-79074500D01*
X127562236Y-79072235D01*
X127492113Y-79074439D01*
X127488219Y-79074500D01*
X127460650Y-79074500D01*
X127456671Y-79075002D01*
X127445041Y-79075917D01*
X127401372Y-79077289D01*
X127382128Y-79082880D01*
X127363084Y-79086824D01*
X127343208Y-79089335D01*
X127302600Y-79105413D01*
X127291554Y-79109194D01*
X127249610Y-79121382D01*
X127249607Y-79121383D01*
X127232365Y-79131579D01*
X127214904Y-79140133D01*
X127196267Y-79147512D01*
X127160931Y-79173185D01*
X127151174Y-79179595D01*
X127113580Y-79201829D01*
X127099413Y-79215996D01*
X127084624Y-79228626D01*
X127068413Y-79240404D01*
X127040572Y-79274058D01*
X127032711Y-79282697D01*
X126659952Y-79655456D01*
X126604365Y-79687550D01*
X126540177Y-79687550D01*
X126484590Y-79655456D01*
X119629133Y-72799999D01*
X131704340Y-72799999D01*
X131724936Y-73035407D01*
X131748130Y-73121968D01*
X131786097Y-73263663D01*
X131885965Y-73477830D01*
X132021505Y-73671401D01*
X132021508Y-73671404D01*
X132143430Y-73793326D01*
X132174726Y-73846072D01*
X132176915Y-73907365D01*
X132149462Y-73962209D01*
X132099083Y-73997189D01*
X131967669Y-74046204D01*
X131852454Y-74132454D01*
X131766204Y-74247668D01*
X131715909Y-74382516D01*
X131709500Y-74442130D01*
X131709500Y-76237869D01*
X131715909Y-76297484D01*
X131734581Y-76347545D01*
X131766204Y-76432331D01*
X131852454Y-76547546D01*
X131967669Y-76633796D01*
X132102517Y-76684091D01*
X132162127Y-76690500D01*
X133957872Y-76690499D01*
X134017483Y-76684091D01*
X134152331Y-76633796D01*
X134267546Y-76547546D01*
X134353796Y-76432331D01*
X134402810Y-76300916D01*
X134437789Y-76250537D01*
X134492634Y-76223084D01*
X134553927Y-76225273D01*
X134606673Y-76256569D01*
X134728599Y-76378495D01*
X134922170Y-76514035D01*
X135136337Y-76613903D01*
X135364592Y-76675063D01*
X135600000Y-76695659D01*
X135835408Y-76675063D01*
X136063663Y-76613903D01*
X136277830Y-76514035D01*
X136471401Y-76378495D01*
X136638495Y-76211401D01*
X136768426Y-76025839D01*
X136812743Y-75986975D01*
X136870000Y-75972964D01*
X136927257Y-75986975D01*
X136971573Y-76025839D01*
X137101505Y-76211401D01*
X137268599Y-76378495D01*
X137462170Y-76514035D01*
X137676337Y-76613903D01*
X137904592Y-76675063D01*
X138140000Y-76695659D01*
X138375408Y-76675063D01*
X138603663Y-76613903D01*
X138817830Y-76514035D01*
X139011401Y-76378495D01*
X139178495Y-76211401D01*
X139308426Y-76025839D01*
X139352743Y-75986975D01*
X139410000Y-75972964D01*
X139467257Y-75986975D01*
X139511573Y-76025839D01*
X139641505Y-76211401D01*
X139808599Y-76378495D01*
X140002170Y-76514035D01*
X140216337Y-76613903D01*
X140444592Y-76675063D01*
X140680000Y-76695659D01*
X140915408Y-76675063D01*
X141143663Y-76613903D01*
X141357830Y-76514035D01*
X141551401Y-76378495D01*
X141718495Y-76211401D01*
X141848426Y-76025839D01*
X141892743Y-75986975D01*
X141950000Y-75972964D01*
X142007257Y-75986975D01*
X142051573Y-76025839D01*
X142181505Y-76211401D01*
X142348599Y-76378495D01*
X142542170Y-76514035D01*
X142756337Y-76613903D01*
X142984592Y-76675063D01*
X143220000Y-76695659D01*
X143455408Y-76675063D01*
X143683663Y-76613903D01*
X143897830Y-76514035D01*
X144091401Y-76378495D01*
X144258495Y-76211401D01*
X144388426Y-76025839D01*
X144432743Y-75986975D01*
X144490000Y-75972964D01*
X144547257Y-75986975D01*
X144591573Y-76025839D01*
X144721505Y-76211401D01*
X144888599Y-76378495D01*
X145082170Y-76514035D01*
X145296337Y-76613903D01*
X145524592Y-76675063D01*
X145760000Y-76695659D01*
X145995408Y-76675063D01*
X146223663Y-76613903D01*
X146437830Y-76514035D01*
X146631401Y-76378495D01*
X146798495Y-76211401D01*
X146928426Y-76025839D01*
X146972743Y-75986975D01*
X147030000Y-75972964D01*
X147087257Y-75986975D01*
X147131573Y-76025839D01*
X147261505Y-76211401D01*
X147428599Y-76378495D01*
X147622170Y-76514035D01*
X147836337Y-76613903D01*
X148064592Y-76675063D01*
X148300000Y-76695659D01*
X148535408Y-76675063D01*
X148763663Y-76613903D01*
X148977830Y-76514035D01*
X149171401Y-76378495D01*
X149338495Y-76211401D01*
X149468426Y-76025839D01*
X149512743Y-75986975D01*
X149570000Y-75972964D01*
X149627257Y-75986975D01*
X149671573Y-76025839D01*
X149801505Y-76211401D01*
X149968599Y-76378495D01*
X150162170Y-76514035D01*
X150376337Y-76613903D01*
X150604592Y-76675063D01*
X150840000Y-76695659D01*
X151075408Y-76675063D01*
X151303663Y-76613903D01*
X151517830Y-76514035D01*
X151711401Y-76378495D01*
X151878495Y-76211401D01*
X152008426Y-76025839D01*
X152052743Y-75986975D01*
X152110000Y-75972964D01*
X152167257Y-75986975D01*
X152211573Y-76025839D01*
X152341505Y-76211401D01*
X152508599Y-76378495D01*
X152702170Y-76514035D01*
X152916337Y-76613903D01*
X153144592Y-76675063D01*
X153380000Y-76695659D01*
X153615408Y-76675063D01*
X153843663Y-76613903D01*
X154057830Y-76514035D01*
X154251401Y-76378495D01*
X154418495Y-76211401D01*
X154548426Y-76025839D01*
X154592743Y-75986975D01*
X154650000Y-75972964D01*
X154707257Y-75986975D01*
X154751573Y-76025839D01*
X154881505Y-76211401D01*
X155048599Y-76378495D01*
X155242170Y-76514035D01*
X155456337Y-76613903D01*
X155684592Y-76675063D01*
X155920000Y-76695659D01*
X156155408Y-76675063D01*
X156383663Y-76613903D01*
X156597830Y-76514035D01*
X156791401Y-76378495D01*
X156958495Y-76211401D01*
X157094035Y-76017830D01*
X157193903Y-75803663D01*
X157255063Y-75575408D01*
X157275659Y-75340000D01*
X157255063Y-75104592D01*
X157193903Y-74876337D01*
X157094035Y-74662171D01*
X156958495Y-74468599D01*
X156791401Y-74301505D01*
X156605839Y-74171573D01*
X156566975Y-74127257D01*
X156552964Y-74070000D01*
X156566975Y-74012743D01*
X156605839Y-73968426D01*
X156791401Y-73838495D01*
X156958495Y-73671401D01*
X157094035Y-73477830D01*
X157193903Y-73263663D01*
X157255063Y-73035408D01*
X157275659Y-72800000D01*
X157267410Y-72705721D01*
X157255063Y-72564592D01*
X157224794Y-72451626D01*
X157193903Y-72336337D01*
X157094035Y-72122171D01*
X156958495Y-71928599D01*
X156791401Y-71761505D01*
X156597830Y-71625965D01*
X156383663Y-71526097D01*
X156315672Y-71507879D01*
X156155407Y-71464936D01*
X155920000Y-71444340D01*
X155684592Y-71464936D01*
X155456336Y-71526097D01*
X155242170Y-71625965D01*
X155048598Y-71761505D01*
X154881508Y-71928595D01*
X154881505Y-71928598D01*
X154881505Y-71928599D01*
X154836320Y-71993130D01*
X154751269Y-72114596D01*
X154706951Y-72153461D01*
X154649694Y-72167472D01*
X154592437Y-72153461D01*
X154548119Y-72114595D01*
X154418109Y-71928921D01*
X154251081Y-71761893D01*
X154057576Y-71626399D01*
X153843492Y-71526569D01*
X153630000Y-71469364D01*
X153630000Y-72926000D01*
X153613387Y-72988000D01*
X153568000Y-73033387D01*
X153506000Y-73050000D01*
X140554000Y-73050000D01*
X140492000Y-73033387D01*
X140446613Y-72988000D01*
X140430000Y-72926000D01*
X140430000Y-72550000D01*
X140930000Y-72550000D01*
X142970000Y-72550000D01*
X143470000Y-72550000D01*
X145510000Y-72550000D01*
X146010000Y-72550000D01*
X148050000Y-72550000D01*
X148550000Y-72550000D01*
X150590000Y-72550000D01*
X151090000Y-72550000D01*
X153130000Y-72550000D01*
X153130000Y-71469364D01*
X152916507Y-71526569D01*
X152702421Y-71626400D01*
X152508921Y-71761890D01*
X152341893Y-71928918D01*
X152211575Y-72115032D01*
X152167257Y-72153897D01*
X152110000Y-72167908D01*
X152052743Y-72153897D01*
X152008425Y-72115032D01*
X151878106Y-71928918D01*
X151711081Y-71761893D01*
X151517576Y-71626399D01*
X151303492Y-71526569D01*
X151090000Y-71469364D01*
X151090000Y-72550000D01*
X150590000Y-72550000D01*
X150590000Y-71469364D01*
X150376507Y-71526569D01*
X150162421Y-71626400D01*
X149968921Y-71761890D01*
X149801893Y-71928918D01*
X149671575Y-72115032D01*
X149627257Y-72153897D01*
X149570000Y-72167908D01*
X149512743Y-72153897D01*
X149468425Y-72115032D01*
X149338106Y-71928918D01*
X149171081Y-71761893D01*
X148977576Y-71626399D01*
X148763492Y-71526569D01*
X148550000Y-71469364D01*
X148550000Y-72550000D01*
X148050000Y-72550000D01*
X148050000Y-71469364D01*
X147836507Y-71526569D01*
X147622421Y-71626400D01*
X147428921Y-71761890D01*
X147261893Y-71928918D01*
X147131575Y-72115032D01*
X147087257Y-72153897D01*
X147030000Y-72167908D01*
X146972743Y-72153897D01*
X146928425Y-72115032D01*
X146798106Y-71928918D01*
X146631081Y-71761893D01*
X146437576Y-71626399D01*
X146223492Y-71526569D01*
X146010000Y-71469364D01*
X146010000Y-72550000D01*
X145510000Y-72550000D01*
X145510000Y-71469364D01*
X145509999Y-71469364D01*
X145296507Y-71526569D01*
X145082421Y-71626400D01*
X144888921Y-71761890D01*
X144721893Y-71928918D01*
X144591575Y-72115032D01*
X144547257Y-72153897D01*
X144490000Y-72167908D01*
X144432743Y-72153897D01*
X144388425Y-72115032D01*
X144258106Y-71928918D01*
X144091081Y-71761893D01*
X143897576Y-71626399D01*
X143683492Y-71526569D01*
X143470000Y-71469364D01*
X143470000Y-72550000D01*
X142970000Y-72550000D01*
X142970000Y-71469364D01*
X142969999Y-71469364D01*
X142756507Y-71526569D01*
X142542421Y-71626400D01*
X142348921Y-71761890D01*
X142181893Y-71928918D01*
X142051575Y-72115032D01*
X142007257Y-72153897D01*
X141950000Y-72167908D01*
X141892743Y-72153897D01*
X141848425Y-72115032D01*
X141718106Y-71928918D01*
X141551081Y-71761893D01*
X141357576Y-71626399D01*
X141143492Y-71526569D01*
X140930000Y-71469364D01*
X140930000Y-72550000D01*
X140430000Y-72550000D01*
X140430000Y-71469364D01*
X140429999Y-71469364D01*
X140216507Y-71526569D01*
X140002421Y-71626400D01*
X139808921Y-71761890D01*
X139641893Y-71928918D01*
X139511880Y-72114596D01*
X139467562Y-72153461D01*
X139410305Y-72167472D01*
X139353048Y-72153461D01*
X139308730Y-72114595D01*
X139223680Y-71993130D01*
X139178495Y-71928599D01*
X139011401Y-71761505D01*
X138817830Y-71625965D01*
X138603663Y-71526097D01*
X138535672Y-71507879D01*
X138375407Y-71464936D01*
X138140000Y-71444340D01*
X137904592Y-71464936D01*
X137676336Y-71526097D01*
X137462170Y-71625965D01*
X137268598Y-71761505D01*
X137101508Y-71928595D01*
X137101505Y-71928598D01*
X137101505Y-71928599D01*
X137056320Y-71993130D01*
X136971269Y-72114596D01*
X136926951Y-72153461D01*
X136869694Y-72167472D01*
X136812437Y-72153461D01*
X136768119Y-72114595D01*
X136638109Y-71928921D01*
X136471081Y-71761893D01*
X136277576Y-71626399D01*
X136063492Y-71526569D01*
X135850000Y-71469364D01*
X135850000Y-72926000D01*
X135833387Y-72988000D01*
X135788000Y-73033387D01*
X135726000Y-73050000D01*
X135474000Y-73050000D01*
X135412000Y-73033387D01*
X135366613Y-72988000D01*
X135350000Y-72926000D01*
X135350000Y-71469364D01*
X135349999Y-71469364D01*
X135136507Y-71526569D01*
X134922421Y-71626400D01*
X134728921Y-71761890D01*
X134561893Y-71928918D01*
X134431880Y-72114596D01*
X134387562Y-72153461D01*
X134330305Y-72167472D01*
X134273048Y-72153461D01*
X134228730Y-72114595D01*
X134143680Y-71993130D01*
X134098495Y-71928599D01*
X133931401Y-71761505D01*
X133737830Y-71625965D01*
X133523663Y-71526097D01*
X133455672Y-71507879D01*
X133295407Y-71464936D01*
X133060000Y-71444340D01*
X132824592Y-71464936D01*
X132596336Y-71526097D01*
X132382170Y-71625965D01*
X132188598Y-71761505D01*
X132021505Y-71928598D01*
X131885965Y-72122170D01*
X131786097Y-72336336D01*
X131724936Y-72564592D01*
X131704340Y-72799999D01*
X119629133Y-72799999D01*
X112614583Y-65785449D01*
X112560783Y-65745174D01*
X112553892Y-65739621D01*
X112503104Y-65695613D01*
X112446554Y-65659271D01*
X112439290Y-65654226D01*
X112385504Y-65613961D01*
X112326526Y-65581757D01*
X112318914Y-65577241D01*
X112275586Y-65549396D01*
X112262374Y-65540905D01*
X112228086Y-65525246D01*
X112201245Y-65512988D01*
X112193331Y-65509027D01*
X112134346Y-65476819D01*
X112071377Y-65453332D01*
X112063204Y-65449947D01*
X112042657Y-65440564D01*
X112002075Y-65422031D01*
X111937592Y-65403096D01*
X111929205Y-65400305D01*
X111866232Y-65376817D01*
X111800554Y-65362530D01*
X111791979Y-65360341D01*
X111727513Y-65341412D01*
X111660993Y-65331848D01*
X111652283Y-65330276D01*
X111586616Y-65315991D01*
X111519577Y-65311195D01*
X111510781Y-65310249D01*
X111444268Y-65300687D01*
X111444266Y-65300687D01*
X111372635Y-65300687D01*
X109800703Y-65300687D01*
X109744408Y-65287172D01*
X109700385Y-65249572D01*
X109678230Y-65196085D01*
X109682772Y-65138369D01*
X109713022Y-65089006D01*
X113665209Y-61136819D01*
X113705437Y-61109939D01*
X113752890Y-61100500D01*
X125424333Y-61100500D01*
X125424335Y-61100500D01*
X125480705Y-61091092D01*
X125490859Y-61089827D01*
X125547821Y-61085108D01*
X125603221Y-61071078D01*
X125613237Y-61068978D01*
X125669614Y-61059571D01*
X125723668Y-61041013D01*
X125733482Y-61038091D01*
X125788881Y-61024063D01*
X125841220Y-61001103D01*
X125850745Y-60997387D01*
X125904810Y-60978828D01*
X125955089Y-60951617D01*
X125964275Y-60947126D01*
X126016607Y-60924173D01*
X126064455Y-60892911D01*
X126073225Y-60887685D01*
X126123509Y-60860474D01*
X126168615Y-60825365D01*
X126176941Y-60819420D01*
X126224785Y-60788164D01*
X126266846Y-60749442D01*
X126274625Y-60742854D01*
X126319744Y-60707738D01*
X126358468Y-60665671D01*
X126365671Y-60658468D01*
X126407738Y-60619744D01*
X126442854Y-60574625D01*
X126449442Y-60566846D01*
X126488164Y-60524785D01*
X126519420Y-60476941D01*
X126525365Y-60468616D01*
X126525929Y-60467890D01*
X126560474Y-60423509D01*
X126587685Y-60373225D01*
X126592911Y-60364455D01*
X126624173Y-60316607D01*
X126647126Y-60264275D01*
X126651617Y-60255089D01*
X126678828Y-60204810D01*
X126697387Y-60150745D01*
X126701103Y-60141220D01*
X126724063Y-60088881D01*
X126738091Y-60033482D01*
X126741014Y-60023666D01*
X126759571Y-59969614D01*
X126759570Y-59969614D01*
X126768978Y-59913237D01*
X126771079Y-59903219D01*
X126785107Y-59847825D01*
X126785107Y-59847824D01*
X126785108Y-59847821D01*
X126789827Y-59790859D01*
X126791094Y-59780696D01*
X126800500Y-59724333D01*
X126800500Y-59667190D01*
X126800924Y-59656949D01*
X126805643Y-59600000D01*
X126800924Y-59543051D01*
X126800500Y-59532810D01*
X126800500Y-59475667D01*
X126791094Y-59419301D01*
X126789826Y-59409130D01*
X126789385Y-59403803D01*
X126785108Y-59352179D01*
X126771077Y-59296773D01*
X126768976Y-59286749D01*
X126768849Y-59285985D01*
X126759571Y-59230386D01*
X126741008Y-59176315D01*
X126738088Y-59166506D01*
X126724063Y-59111119D01*
X126701105Y-59058782D01*
X126697389Y-59049261D01*
X126678828Y-58995190D01*
X126651623Y-58944920D01*
X126647126Y-58935723D01*
X126624173Y-58883393D01*
X126592911Y-58835544D01*
X126587676Y-58826757D01*
X126560474Y-58776491D01*
X126525369Y-58731388D01*
X126519416Y-58723050D01*
X126488165Y-58675216D01*
X126484510Y-58671246D01*
X126449458Y-58633169D01*
X126442843Y-58625358D01*
X126407739Y-58580257D01*
X126386245Y-58560470D01*
X126365685Y-58541543D01*
X126358455Y-58534313D01*
X126319744Y-58492262D01*
X126274646Y-58457160D01*
X126266826Y-58450537D01*
X126224782Y-58411833D01*
X126176943Y-58380578D01*
X126168604Y-58374624D01*
X126123511Y-58339527D01*
X126073238Y-58312320D01*
X126064436Y-58307075D01*
X126016606Y-58275826D01*
X125964286Y-58252877D01*
X125955079Y-58248376D01*
X125904808Y-58221171D01*
X125850762Y-58202617D01*
X125841216Y-58198893D01*
X125808956Y-58184743D01*
X125788881Y-58175937D01*
X125788879Y-58175936D01*
X125788878Y-58175936D01*
X125733479Y-58161906D01*
X125723661Y-58158983D01*
X125669611Y-58140428D01*
X125613238Y-58131020D01*
X125603213Y-58128918D01*
X125547819Y-58114891D01*
X125490871Y-58110172D01*
X125480704Y-58108905D01*
X125424337Y-58099500D01*
X125424335Y-58099500D01*
X125362067Y-58099500D01*
X113180865Y-58099500D01*
X113165527Y-58098548D01*
X113142219Y-58095642D01*
X113055160Y-58099243D01*
X113051526Y-58099394D01*
X113046404Y-58099500D01*
X113017933Y-58099500D01*
X113013774Y-58099844D01*
X112989550Y-58101851D01*
X112984440Y-58102168D01*
X112893762Y-58105919D01*
X112870777Y-58110738D01*
X112855578Y-58112952D01*
X112832180Y-58114891D01*
X112744200Y-58137170D01*
X112739211Y-58138324D01*
X112650388Y-58156950D01*
X112645178Y-58158983D01*
X112628512Y-58165485D01*
X112613889Y-58170170D01*
X112591118Y-58175936D01*
X112508000Y-58212396D01*
X112503265Y-58214357D01*
X112418726Y-58247343D01*
X112398547Y-58259367D01*
X112384895Y-58266394D01*
X112363396Y-58275825D01*
X112287410Y-58325468D01*
X112283065Y-58328180D01*
X112205104Y-58374635D01*
X112187183Y-58389813D01*
X112174868Y-58398995D01*
X112155218Y-58411833D01*
X112088447Y-58473299D01*
X112084610Y-58476687D01*
X112062878Y-58495093D01*
X112042739Y-58515232D01*
X112039045Y-58518775D01*
X111972262Y-58580254D01*
X111957832Y-58598793D01*
X111947664Y-58610306D01*
X105284191Y-65273779D01*
X105248022Y-65298892D01*
X105205358Y-65309782D01*
X105118554Y-65315991D01*
X104838942Y-65376816D01*
X104570820Y-65476821D01*
X104482138Y-65525246D01*
X104441922Y-65547206D01*
X104437911Y-65549396D01*
X104376271Y-65564544D01*
X104315211Y-65547206D01*
X104270730Y-65501924D01*
X104254484Y-65440564D01*
X104254484Y-57300000D01*
X104694356Y-57300000D01*
X104714891Y-57547816D01*
X104714891Y-57547819D01*
X104714892Y-57547821D01*
X104775937Y-57788881D01*
X104783197Y-57805431D01*
X104875825Y-58016604D01*
X104875827Y-58016607D01*
X105011836Y-58224785D01*
X105180256Y-58407738D01*
X105240468Y-58454603D01*
X105376485Y-58560470D01*
X105376487Y-58560471D01*
X105376491Y-58560474D01*
X105595190Y-58678828D01*
X105830386Y-58759571D01*
X106075665Y-58800500D01*
X106324335Y-58800500D01*
X106569614Y-58759571D01*
X106804810Y-58678828D01*
X107023509Y-58560474D01*
X107219744Y-58407738D01*
X107388164Y-58224785D01*
X107524173Y-58016607D01*
X107624063Y-57788881D01*
X107685108Y-57547821D01*
X107705643Y-57300000D01*
X107685108Y-57052179D01*
X107624063Y-56811119D01*
X107524173Y-56583393D01*
X107388164Y-56375215D01*
X107219744Y-56192262D01*
X107141726Y-56131538D01*
X107023514Y-56039529D01*
X107023510Y-56039526D01*
X107023509Y-56039526D01*
X106804810Y-55921172D01*
X106804806Y-55921170D01*
X106804805Y-55921170D01*
X106569615Y-55840429D01*
X106324335Y-55799500D01*
X106075665Y-55799500D01*
X105830384Y-55840429D01*
X105595194Y-55921170D01*
X105595190Y-55921171D01*
X105595190Y-55921172D01*
X105478815Y-55984151D01*
X105376489Y-56039527D01*
X105194379Y-56181269D01*
X105140692Y-56205361D01*
X105125793Y-56204506D01*
X105126484Y-56226771D01*
X105096905Y-56282804D01*
X105011839Y-56375210D01*
X104875825Y-56583395D01*
X104824459Y-56700500D01*
X104775937Y-56811119D01*
X104772166Y-56826012D01*
X104714891Y-57052183D01*
X104694356Y-57300000D01*
X104254484Y-57300000D01*
X104254484Y-56826012D01*
X104263923Y-56778559D01*
X104290803Y-56738331D01*
X104917994Y-56111141D01*
X104972757Y-56079271D01*
X104997073Y-56079019D01*
X104995870Y-56063238D01*
X105018946Y-56009109D01*
X105056024Y-55959578D01*
X105061545Y-55952726D01*
X105105574Y-55901917D01*
X105141917Y-55845364D01*
X105146957Y-55838107D01*
X105187226Y-55784315D01*
X105219435Y-55725326D01*
X105223952Y-55717715D01*
X105231301Y-55706281D01*
X105235338Y-55699999D01*
X109494540Y-55699999D01*
X109514326Y-55888257D01*
X109572820Y-56068284D01*
X109667466Y-56232216D01*
X109794129Y-56372889D01*
X109947269Y-56484151D01*
X110120197Y-56561144D01*
X110305352Y-56600500D01*
X110305354Y-56600500D01*
X110494646Y-56600500D01*
X110494648Y-56600500D01*
X110618084Y-56574262D01*
X110679803Y-56561144D01*
X110852730Y-56484151D01*
X110852729Y-56484151D01*
X111005870Y-56372889D01*
X111063900Y-56308441D01*
X111132533Y-56232216D01*
X111227179Y-56068284D01*
X111285674Y-55888256D01*
X111305460Y-55700000D01*
X111285674Y-55511744D01*
X111249655Y-55400889D01*
X111227179Y-55331715D01*
X111151133Y-55200000D01*
X117494540Y-55200000D01*
X117514326Y-55388257D01*
X117572820Y-55568284D01*
X117667466Y-55732216D01*
X117794129Y-55872889D01*
X117947269Y-55984151D01*
X118120197Y-56061144D01*
X118305352Y-56100500D01*
X118305354Y-56100500D01*
X118494646Y-56100500D01*
X118494648Y-56100500D01*
X118618084Y-56074262D01*
X118679803Y-56061144D01*
X118852730Y-55984151D01*
X118884201Y-55961286D01*
X119005870Y-55872889D01*
X119006093Y-55872642D01*
X119132533Y-55732216D01*
X119227179Y-55568284D01*
X119285674Y-55388256D01*
X119305460Y-55200000D01*
X119285674Y-55011744D01*
X119227179Y-54831716D01*
X119227179Y-54831715D01*
X119132533Y-54667783D01*
X119005870Y-54527110D01*
X118852730Y-54415848D01*
X118679802Y-54338855D01*
X118494648Y-54299500D01*
X118494646Y-54299500D01*
X118305354Y-54299500D01*
X118305352Y-54299500D01*
X118120197Y-54338855D01*
X117947269Y-54415848D01*
X117794129Y-54527110D01*
X117667466Y-54667783D01*
X117572820Y-54831715D01*
X117514326Y-55011742D01*
X117494540Y-55200000D01*
X111151133Y-55200000D01*
X111132533Y-55167783D01*
X111005870Y-55027110D01*
X110852730Y-54915848D01*
X110679802Y-54838855D01*
X110494648Y-54799500D01*
X110494646Y-54799500D01*
X110305354Y-54799500D01*
X110305352Y-54799500D01*
X110120197Y-54838855D01*
X109947269Y-54915848D01*
X109794129Y-55027110D01*
X109667466Y-55167783D01*
X109572820Y-55331715D01*
X109514326Y-55511742D01*
X109494540Y-55699999D01*
X105235338Y-55699999D01*
X105260282Y-55661186D01*
X105288197Y-55600057D01*
X105292158Y-55592145D01*
X105324367Y-55533161D01*
X105347858Y-55470178D01*
X105351234Y-55462028D01*
X105379156Y-55400888D01*
X105398095Y-55336384D01*
X105400871Y-55328043D01*
X105424369Y-55265046D01*
X105426267Y-55256319D01*
X105438655Y-55199373D01*
X105440839Y-55190812D01*
X105459776Y-55126322D01*
X105469340Y-55059792D01*
X105470910Y-55051094D01*
X105476128Y-55027112D01*
X105485196Y-54985428D01*
X105489988Y-54918400D01*
X105490932Y-54909616D01*
X105500500Y-54843079D01*
X105500500Y-54775876D01*
X105500816Y-54767030D01*
X105505610Y-54699999D01*
X105500816Y-54632970D01*
X105500500Y-54624124D01*
X105500500Y-54556924D01*
X105499684Y-54551246D01*
X105490932Y-54490379D01*
X105489988Y-54481592D01*
X105485629Y-54420637D01*
X105485196Y-54414572D01*
X105470908Y-54348892D01*
X105469340Y-54340200D01*
X105463488Y-54299500D01*
X105459776Y-54273677D01*
X105440842Y-54209196D01*
X105438654Y-54200622D01*
X105429434Y-54158240D01*
X105424369Y-54134954D01*
X105400878Y-54071974D01*
X105398085Y-54063579D01*
X105379156Y-53999111D01*
X105351235Y-53937973D01*
X105347846Y-53929792D01*
X105347305Y-53928342D01*
X105324367Y-53866839D01*
X105292150Y-53807839D01*
X105288205Y-53799956D01*
X105260282Y-53738813D01*
X105223937Y-53682259D01*
X105219438Y-53674678D01*
X105187226Y-53615685D01*
X105187225Y-53615683D01*
X105187223Y-53615680D01*
X105146960Y-53561895D01*
X105141911Y-53554624D01*
X105129054Y-53534618D01*
X105105574Y-53498082D01*
X105061552Y-53447278D01*
X105055998Y-53440385D01*
X105030931Y-53406899D01*
X105015739Y-53386605D01*
X104968232Y-53339098D01*
X104962201Y-53332621D01*
X104957350Y-53327023D01*
X104918181Y-53281819D01*
X104918178Y-53281817D01*
X104918177Y-53281815D01*
X104867377Y-53237796D01*
X104860899Y-53231765D01*
X104813397Y-53184263D01*
X104813395Y-53184261D01*
X104759603Y-53143992D01*
X104752721Y-53138446D01*
X104701917Y-53094424D01*
X104645367Y-53058082D01*
X104638095Y-53053033D01*
X104584317Y-53012775D01*
X104525344Y-52980573D01*
X104517732Y-52976057D01*
X104461185Y-52939717D01*
X104400047Y-52911796D01*
X104392158Y-52907847D01*
X104333161Y-52875633D01*
X104333162Y-52875633D01*
X104333156Y-52875630D01*
X104270195Y-52852148D01*
X104262023Y-52848763D01*
X104200889Y-52820844D01*
X104136399Y-52801907D01*
X104128012Y-52799116D01*
X104065045Y-52775630D01*
X103999381Y-52761346D01*
X103990805Y-52759157D01*
X103926326Y-52740224D01*
X103859790Y-52730657D01*
X103851088Y-52729086D01*
X103785428Y-52714804D01*
X103735577Y-52711238D01*
X103718399Y-52710010D01*
X103709599Y-52709064D01*
X103643079Y-52699500D01*
X103571448Y-52699500D01*
X99728552Y-52699500D01*
X99728551Y-52699500D01*
X99514570Y-52714804D01*
X99234958Y-52775629D01*
X98966836Y-52875634D01*
X98715686Y-53012772D01*
X98486602Y-53184263D01*
X98284263Y-53386602D01*
X98112772Y-53615686D01*
X97975634Y-53866836D01*
X97875629Y-54134958D01*
X97814804Y-54414570D01*
X97794389Y-54699999D01*
X97814804Y-54985429D01*
X97875629Y-55265041D01*
X97875631Y-55265046D01*
X97975632Y-55533159D01*
X97975634Y-55533163D01*
X98112772Y-55784313D01*
X98181554Y-55876194D01*
X98284261Y-56013395D01*
X98486605Y-56215739D01*
X98610443Y-56308443D01*
X98715686Y-56387227D01*
X98855435Y-56463535D01*
X98966839Y-56524367D01*
X99234954Y-56624369D01*
X99234957Y-56624369D01*
X99234958Y-56624370D01*
X99287217Y-56635738D01*
X99514572Y-56685196D01*
X99712068Y-56699321D01*
X99728551Y-56700500D01*
X99728552Y-56700500D01*
X100129484Y-56700500D01*
X100191484Y-56717113D01*
X100236871Y-56762500D01*
X100253484Y-56824500D01*
X100253484Y-63328387D01*
X100239500Y-63385593D01*
X100200701Y-63429897D01*
X100145838Y-63451304D01*
X100087287Y-63444986D01*
X100038254Y-63412369D01*
X100019743Y-63392261D01*
X99823514Y-63239529D01*
X99823510Y-63239526D01*
X99823509Y-63239526D01*
X99604810Y-63121172D01*
X99604806Y-63121170D01*
X99604805Y-63121170D01*
X99369615Y-63040429D01*
X99124335Y-62999500D01*
X98875665Y-62999500D01*
X98630384Y-63040429D01*
X98395194Y-63121170D01*
X98176485Y-63239529D01*
X97980259Y-63392259D01*
X97980256Y-63392261D01*
X97980256Y-63392262D01*
X97811836Y-63575215D01*
X97786821Y-63613504D01*
X97675825Y-63783395D01*
X97591592Y-63975429D01*
X97575937Y-64011119D01*
X97524532Y-64214111D01*
X97514891Y-64252183D01*
X97494356Y-64499999D01*
X97499076Y-64556949D01*
X97499500Y-64567190D01*
X97499500Y-66532810D01*
X97499076Y-66543051D01*
X97494356Y-66600000D01*
X97499076Y-66656949D01*
X97499500Y-66667190D01*
X97499500Y-70499135D01*
X97498548Y-70514473D01*
X97495642Y-70537780D01*
X97499394Y-70628471D01*
X97499500Y-70633596D01*
X97499500Y-70662066D01*
X97501851Y-70690448D01*
X97502168Y-70695559D01*
X97505919Y-70786235D01*
X97510738Y-70809220D01*
X97512952Y-70824421D01*
X97514891Y-70847819D01*
X97537171Y-70935803D01*
X97538325Y-70940793D01*
X97556950Y-71029614D01*
X97565484Y-71051485D01*
X97570171Y-71066114D01*
X97575936Y-71088880D01*
X97612393Y-71171993D01*
X97614354Y-71176728D01*
X97647344Y-71261275D01*
X97659364Y-71281448D01*
X97666395Y-71295107D01*
X97675824Y-71316603D01*
X97675827Y-71316607D01*
X97725481Y-71392609D01*
X97728153Y-71396890D01*
X97774634Y-71474894D01*
X97789808Y-71492811D01*
X97798991Y-71505125D01*
X97811837Y-71524787D01*
X97873294Y-71591547D01*
X97876686Y-71595388D01*
X97895095Y-71617123D01*
X97915227Y-71637255D01*
X97918776Y-71640953D01*
X97980258Y-71707740D01*
X97998787Y-71722162D01*
X98010307Y-71732335D01*
X99855791Y-73577819D01*
X99886041Y-73627182D01*
X99890583Y-73684898D01*
X99868428Y-73738385D01*
X99824405Y-73775985D01*
X99768110Y-73789500D01*
X98002130Y-73789500D01*
X97942515Y-73795909D01*
X97807669Y-73846204D01*
X97692454Y-73932454D01*
X97606204Y-74047668D01*
X97555909Y-74182516D01*
X97549500Y-74242130D01*
X97549500Y-76037869D01*
X97555909Y-76097484D01*
X97579193Y-76159912D01*
X97606204Y-76232331D01*
X97692454Y-76347546D01*
X97807669Y-76433796D01*
X97807670Y-76433796D01*
X97815383Y-76439570D01*
X97850512Y-76480538D01*
X97864912Y-76532548D01*
X97855855Y-76585750D01*
X97825057Y-76630065D01*
X97792260Y-76660257D01*
X97639529Y-76856485D01*
X97521170Y-77075194D01*
X97440429Y-77310384D01*
X97399500Y-77555665D01*
X97399500Y-77804335D01*
X97440429Y-78049615D01*
X97518020Y-78275629D01*
X97521172Y-78284810D01*
X97639526Y-78503509D01*
X97639529Y-78503514D01*
X97684666Y-78561505D01*
X97792262Y-78699744D01*
X97975215Y-78868164D01*
X98080883Y-78937200D01*
X98121637Y-78981115D01*
X98137045Y-79039014D01*
X98123508Y-79097378D01*
X98084186Y-79142582D01*
X98028597Y-79181506D01*
X97861505Y-79348598D01*
X97725965Y-79542170D01*
X97626097Y-79756336D01*
X97564936Y-79984592D01*
X97544340Y-80220000D01*
X97564936Y-80455407D01*
X97601692Y-80592581D01*
X97626097Y-80683663D01*
X97725965Y-80897830D01*
X97861505Y-81091401D01*
X98028599Y-81258495D01*
X98084186Y-81297417D01*
X98123507Y-81342620D01*
X98137045Y-81400984D01*
X98121638Y-81458883D01*
X98080883Y-81502799D01*
X97975215Y-81571836D01*
X97806543Y-81727110D01*
X97792259Y-81740259D01*
X97639529Y-81936485D01*
X97616619Y-81978820D01*
X97537852Y-82124369D01*
X97521170Y-82155194D01*
X97440429Y-82390384D01*
X97399500Y-82635665D01*
X97399500Y-82884335D01*
X97440429Y-83129615D01*
X97499094Y-83300500D01*
X97521172Y-83364810D01*
X97631948Y-83569506D01*
X97639529Y-83583514D01*
X97768872Y-83749693D01*
X97792262Y-83779744D01*
X97884776Y-83864909D01*
X97965010Y-83938770D01*
X98000348Y-83996259D01*
X98000348Y-84063741D01*
X97965010Y-84121230D01*
X97890497Y-84189824D01*
X97819812Y-84254895D01*
X97792259Y-84280259D01*
X97639529Y-84476485D01*
X97521170Y-84695194D01*
X97440429Y-84930384D01*
X97399500Y-85175665D01*
X97399500Y-85424335D01*
X97440429Y-85669615D01*
X97520441Y-85902681D01*
X97521172Y-85904810D01*
X97622163Y-86091425D01*
X97639529Y-86123514D01*
X97731972Y-86242284D01*
X97792262Y-86319744D01*
X97975215Y-86488164D01*
X98080883Y-86557200D01*
X98121637Y-86601115D01*
X98137045Y-86659014D01*
X98123508Y-86717378D01*
X98084186Y-86762582D01*
X98028597Y-86801506D01*
X97861505Y-86968598D01*
X97725965Y-87162170D01*
X97626097Y-87376336D01*
X97564936Y-87604592D01*
X97544340Y-87840000D01*
X97564936Y-88075407D01*
X97598256Y-88199759D01*
X97626097Y-88303663D01*
X97725965Y-88517830D01*
X97861505Y-88711401D01*
X98028599Y-88878495D01*
X98084186Y-88917417D01*
X98123507Y-88962620D01*
X98137045Y-89020984D01*
X98121638Y-89078883D01*
X98080883Y-89122799D01*
X97975215Y-89191836D01*
X97810345Y-89343610D01*
X97792259Y-89360259D01*
X97639529Y-89556485D01*
X97617778Y-89596678D01*
X97527421Y-89763644D01*
X97521170Y-89775194D01*
X97440429Y-90010384D01*
X97399500Y-90255665D01*
X97399500Y-90504335D01*
X97440429Y-90749615D01*
X97520971Y-90984224D01*
X97521172Y-90984810D01*
X97637627Y-91200000D01*
X97639529Y-91203514D01*
X97767700Y-91368187D01*
X97792262Y-91399744D01*
X97975215Y-91568164D01*
X98080883Y-91637200D01*
X98121637Y-91681115D01*
X98137045Y-91739014D01*
X98123508Y-91797378D01*
X98084186Y-91842582D01*
X98028597Y-91881506D01*
X97861505Y-92048598D01*
X97725965Y-92242170D01*
X97626097Y-92456336D01*
X97564936Y-92684592D01*
X97544340Y-92920000D01*
X97564936Y-93155407D01*
X97602579Y-93295893D01*
X97626097Y-93383663D01*
X97725965Y-93597830D01*
X97861505Y-93791401D01*
X98028599Y-93958495D01*
X98214160Y-94088426D01*
X98253024Y-94132743D01*
X98267035Y-94190000D01*
X98253024Y-94247257D01*
X98214158Y-94291575D01*
X98040239Y-94413355D01*
X98028595Y-94421508D01*
X97861505Y-94588598D01*
X97725965Y-94782170D01*
X97626097Y-94996336D01*
X97564936Y-95224592D01*
X97544340Y-95459999D01*
X97564936Y-95695407D01*
X97608666Y-95858608D01*
X97626097Y-95923663D01*
X97725965Y-96137830D01*
X97861505Y-96331401D01*
X98028599Y-96498495D01*
X98214160Y-96628426D01*
X98253024Y-96672743D01*
X98267035Y-96730000D01*
X98253024Y-96787257D01*
X98214158Y-96831575D01*
X98099666Y-96911744D01*
X98028595Y-96961508D01*
X97861505Y-97128598D01*
X97725965Y-97322170D01*
X97626097Y-97536336D01*
X97564936Y-97764592D01*
X97544340Y-98000000D01*
X97564936Y-98235407D01*
X97585427Y-98311880D01*
X97626097Y-98463663D01*
X97725965Y-98677830D01*
X97861505Y-98871401D01*
X98028599Y-99038495D01*
X98222170Y-99174035D01*
X98436337Y-99273903D01*
X98664592Y-99335063D01*
X98900000Y-99355659D01*
X99135408Y-99335063D01*
X99363663Y-99273903D01*
X99577830Y-99174035D01*
X99771401Y-99038495D01*
X99938495Y-98871401D01*
X100068428Y-98685837D01*
X100112742Y-98646975D01*
X100169999Y-98632964D01*
X100227255Y-98646974D01*
X100271573Y-98685839D01*
X100401505Y-98871401D01*
X100568599Y-99038495D01*
X100762170Y-99174035D01*
X100762173Y-99174036D01*
X100764746Y-99175838D01*
X100801010Y-99215413D01*
X100817151Y-99266605D01*
X100810145Y-99319823D01*
X100781304Y-99365094D01*
X100483216Y-99663183D01*
X100442991Y-99690061D01*
X100395538Y-99699500D01*
X99275663Y-99699500D01*
X99219293Y-99708905D01*
X99209127Y-99710172D01*
X99152180Y-99714891D01*
X99096787Y-99728918D01*
X99086762Y-99731020D01*
X99030388Y-99740428D01*
X98976318Y-99758989D01*
X98966502Y-99761911D01*
X98911119Y-99775937D01*
X98858791Y-99798890D01*
X98849244Y-99802615D01*
X98795190Y-99821171D01*
X98744928Y-99848372D01*
X98735722Y-99852872D01*
X98683393Y-99875825D01*
X98635561Y-99907075D01*
X98626763Y-99912318D01*
X98576489Y-99939526D01*
X98531395Y-99974624D01*
X98523059Y-99980576D01*
X98475217Y-100011834D01*
X98433176Y-100050535D01*
X98425358Y-100057156D01*
X98380258Y-100092259D01*
X98369874Y-100103539D01*
X98341544Y-100134312D01*
X98334312Y-100141544D01*
X98324290Y-100150771D01*
X98292259Y-100180258D01*
X98257156Y-100225358D01*
X98250535Y-100233176D01*
X98211834Y-100275217D01*
X98180576Y-100323059D01*
X98174624Y-100331395D01*
X98139526Y-100376489D01*
X98112318Y-100426763D01*
X98107075Y-100435561D01*
X98075825Y-100483393D01*
X98052872Y-100535722D01*
X98048372Y-100544928D01*
X98021171Y-100595190D01*
X98002615Y-100649244D01*
X97998890Y-100658791D01*
X97975937Y-100711119D01*
X97961911Y-100766502D01*
X97958989Y-100776318D01*
X97940428Y-100830388D01*
X97931020Y-100886762D01*
X97928918Y-100896787D01*
X97914891Y-100952180D01*
X97910172Y-101009127D01*
X97908905Y-101019293D01*
X97899500Y-101075663D01*
X97899500Y-101132810D01*
X97899076Y-101143051D01*
X97894356Y-101199999D01*
X97899076Y-101256949D01*
X97899500Y-101267190D01*
X97899500Y-103132810D01*
X97899076Y-103143051D01*
X97894356Y-103200000D01*
X97898070Y-103244813D01*
X97899500Y-103262067D01*
X97912592Y-103420064D01*
X97913880Y-103435614D01*
X97914892Y-103447821D01*
X97975937Y-103688881D01*
X97983629Y-103706417D01*
X98075825Y-103916604D01*
X98075827Y-103916607D01*
X98211836Y-104124785D01*
X98380256Y-104307738D01*
X98380259Y-104307740D01*
X98576485Y-104460470D01*
X98576487Y-104460471D01*
X98576491Y-104460474D01*
X98795190Y-104578828D01*
X99030386Y-104659571D01*
X99275665Y-104700500D01*
X99524335Y-104700500D01*
X99769614Y-104659571D01*
X100004810Y-104578828D01*
X100223509Y-104460474D01*
X100419744Y-104307738D01*
X100588164Y-104124785D01*
X100724173Y-103916607D01*
X100824063Y-103688881D01*
X100885108Y-103447821D01*
X100900500Y-103262067D01*
X100905643Y-103200000D01*
X100900923Y-103143048D01*
X100900500Y-103132810D01*
X100900500Y-102827707D01*
X100916269Y-102767193D01*
X100959564Y-102722069D01*
X101019375Y-102703813D01*
X101091625Y-102700824D01*
X101096901Y-102700605D01*
X101102024Y-102700500D01*
X101130496Y-102700500D01*
X101135964Y-102700046D01*
X101158872Y-102698147D01*
X101163971Y-102697831D01*
X101254665Y-102694081D01*
X101277637Y-102689263D01*
X101292841Y-102687047D01*
X101316249Y-102685108D01*
X101404266Y-102662818D01*
X101409182Y-102661680D01*
X101498042Y-102643049D01*
X101519924Y-102634510D01*
X101534544Y-102629827D01*
X101557309Y-102624063D01*
X101640436Y-102587599D01*
X101645127Y-102585656D01*
X101729702Y-102552656D01*
X101749884Y-102540628D01*
X101763529Y-102533605D01*
X101785035Y-102524173D01*
X101861021Y-102474528D01*
X101865344Y-102471830D01*
X101943322Y-102425366D01*
X101961241Y-102410188D01*
X101973554Y-102401006D01*
X101993213Y-102388164D01*
X102029261Y-102354978D01*
X102086571Y-102325110D01*
X102151128Y-102328136D01*
X102205395Y-102363235D01*
X102304128Y-102472889D01*
X102457268Y-102584151D01*
X102630196Y-102661144D01*
X102815351Y-102700500D01*
X102815353Y-102700500D01*
X103004645Y-102700500D01*
X103004647Y-102700500D01*
X103128082Y-102674262D01*
X103189802Y-102661144D01*
X103362729Y-102584151D01*
X103515870Y-102472888D01*
X103642532Y-102332216D01*
X103737178Y-102168284D01*
X103795673Y-101988256D01*
X103815459Y-101800000D01*
X103795673Y-101611744D01*
X103750556Y-101472889D01*
X103737178Y-101431715D01*
X103642532Y-101267783D01*
X103515870Y-101127112D01*
X103507873Y-101121302D01*
X103487065Y-101106184D01*
X103451761Y-101066456D01*
X103436332Y-101015596D01*
X103443614Y-100962948D01*
X103472267Y-100918187D01*
X105189697Y-99200756D01*
X105201194Y-99190603D01*
X105217832Y-99177653D01*
X105273580Y-99153201D01*
X105334252Y-99158229D01*
X105385219Y-99191527D01*
X105414195Y-99245070D01*
X105437171Y-99335802D01*
X105438325Y-99340793D01*
X105456950Y-99429614D01*
X105465484Y-99451485D01*
X105470171Y-99466114D01*
X105475936Y-99488880D01*
X105512393Y-99571993D01*
X105514354Y-99576728D01*
X105547344Y-99661275D01*
X105559364Y-99681448D01*
X105566395Y-99695107D01*
X105575824Y-99716603D01*
X105575827Y-99716607D01*
X105625481Y-99792609D01*
X105628153Y-99796890D01*
X105674634Y-99874894D01*
X105689808Y-99892811D01*
X105698991Y-99905125D01*
X105711837Y-99924787D01*
X105773294Y-99991547D01*
X105776686Y-99995388D01*
X105795095Y-100017123D01*
X105815227Y-100037255D01*
X105818776Y-100040953D01*
X105878836Y-100106196D01*
X105880258Y-100107740D01*
X105898787Y-100122162D01*
X105910307Y-100132335D01*
X106549508Y-100771536D01*
X107163181Y-101385208D01*
X107190061Y-101425436D01*
X107199500Y-101472889D01*
X107199500Y-115232810D01*
X107199076Y-115243051D01*
X107194356Y-115299999D01*
X107199076Y-115356949D01*
X107199500Y-115367190D01*
X107199500Y-117532810D01*
X107199076Y-117543051D01*
X107194356Y-117600000D01*
X107214891Y-117847816D01*
X107214891Y-117847819D01*
X107214892Y-117847821D01*
X107275937Y-118088881D01*
X107304489Y-118153973D01*
X107375825Y-118316604D01*
X107375827Y-118316607D01*
X107511836Y-118524785D01*
X107680256Y-118707738D01*
X107680259Y-118707740D01*
X107876485Y-118860470D01*
X107876487Y-118860471D01*
X107876491Y-118860474D01*
X108095190Y-118978828D01*
X108330386Y-119059571D01*
X108575665Y-119100500D01*
X108824335Y-119100500D01*
X109069614Y-119059571D01*
X109304810Y-118978828D01*
X109523509Y-118860474D01*
X109719744Y-118707738D01*
X109888164Y-118524785D01*
X110024173Y-118316607D01*
X110124063Y-118088881D01*
X110185108Y-117847821D01*
X110205643Y-117600000D01*
X110200923Y-117543048D01*
X110200500Y-117532810D01*
X110200500Y-115367190D01*
X110200924Y-115356949D01*
X110205643Y-115299999D01*
X110200924Y-115243051D01*
X110200500Y-115232810D01*
X110200500Y-100900864D01*
X110201452Y-100885526D01*
X110204357Y-100862219D01*
X110200606Y-100771536D01*
X110200500Y-100766411D01*
X110200500Y-100737932D01*
X110199255Y-100722914D01*
X110198146Y-100709537D01*
X110197830Y-100704438D01*
X110194080Y-100613763D01*
X110189262Y-100590790D01*
X110187046Y-100575581D01*
X110185801Y-100560551D01*
X110185108Y-100552179D01*
X110162821Y-100464170D01*
X110161669Y-100459190D01*
X110160490Y-100453567D01*
X110143049Y-100370386D01*
X110134512Y-100348508D01*
X110129829Y-100333889D01*
X110124063Y-100311119D01*
X110091169Y-100236129D01*
X110087596Y-100227983D01*
X110085650Y-100223286D01*
X110052655Y-100138726D01*
X110050021Y-100134306D01*
X110040635Y-100118553D01*
X110033609Y-100104905D01*
X110024173Y-100083393D01*
X109980877Y-100017123D01*
X109974527Y-100007404D01*
X109971825Y-100003075D01*
X109925366Y-99925106D01*
X109910185Y-99907182D01*
X109901003Y-99894867D01*
X109888164Y-99875215D01*
X109826689Y-99808435D01*
X109823300Y-99804598D01*
X109804901Y-99782874D01*
X109784781Y-99762754D01*
X109781233Y-99759057D01*
X109719744Y-99692262D01*
X109714345Y-99688060D01*
X109701202Y-99677830D01*
X109689692Y-99667665D01*
X108436819Y-98414791D01*
X108409939Y-98374563D01*
X108400500Y-98327110D01*
X108400500Y-90572436D01*
X108401452Y-90557098D01*
X108402374Y-90549698D01*
X108404357Y-90533793D01*
X108403559Y-90514511D01*
X108400606Y-90443108D01*
X108400500Y-90437983D01*
X108400500Y-90409504D01*
X108399673Y-90399531D01*
X108398146Y-90381109D01*
X108397830Y-90376010D01*
X108396351Y-90340246D01*
X108394080Y-90285335D01*
X108389262Y-90262362D01*
X108387046Y-90247153D01*
X108386510Y-90240681D01*
X108385108Y-90223751D01*
X108362821Y-90135742D01*
X108361669Y-90130762D01*
X108358269Y-90114546D01*
X108343049Y-90041958D01*
X108334512Y-90020080D01*
X108329829Y-90005461D01*
X108324063Y-89982691D01*
X108287596Y-89899555D01*
X108285650Y-89894858D01*
X108252655Y-89810298D01*
X108246260Y-89799566D01*
X108240635Y-89790125D01*
X108233609Y-89776477D01*
X108224173Y-89754965D01*
X108184709Y-89694561D01*
X108174527Y-89678976D01*
X108171825Y-89674647D01*
X108125366Y-89596678D01*
X108110185Y-89578754D01*
X108101003Y-89566439D01*
X108098270Y-89562256D01*
X108088164Y-89546787D01*
X108026694Y-89480013D01*
X108023319Y-89476192D01*
X108004902Y-89454446D01*
X107984770Y-89434314D01*
X107981222Y-89430617D01*
X107919743Y-89363833D01*
X107901211Y-89349409D01*
X107889693Y-89339237D01*
X102970678Y-84420222D01*
X102938153Y-84362981D01*
X102939514Y-84297159D01*
X102974377Y-84241310D01*
X103032912Y-84211180D01*
X103071695Y-84203049D01*
X103093577Y-84194510D01*
X103108197Y-84189827D01*
X103130962Y-84184063D01*
X103214089Y-84147599D01*
X103218780Y-84145656D01*
X103303355Y-84112656D01*
X103323537Y-84100628D01*
X103337182Y-84093605D01*
X103358688Y-84084173D01*
X103434674Y-84034528D01*
X103438997Y-84031830D01*
X103516975Y-83985366D01*
X103534894Y-83970188D01*
X103547207Y-83961006D01*
X103566866Y-83948164D01*
X103633665Y-83886669D01*
X103637461Y-83883318D01*
X103659207Y-83864902D01*
X103679395Y-83844713D01*
X103683020Y-83841235D01*
X103749819Y-83779744D01*
X103764248Y-83761203D01*
X103774406Y-83749701D01*
X104989697Y-82534409D01*
X105001199Y-82524252D01*
X105019744Y-82509819D01*
X105081247Y-82443007D01*
X105084725Y-82439382D01*
X105104901Y-82419207D01*
X105123315Y-82397463D01*
X105126700Y-82393633D01*
X105164198Y-82352898D01*
X105188164Y-82326866D01*
X105201006Y-82307207D01*
X105210188Y-82294894D01*
X105225366Y-82276975D01*
X105271838Y-82198982D01*
X105274539Y-82194657D01*
X105280503Y-82185529D01*
X105324173Y-82118688D01*
X105333604Y-82097185D01*
X105340637Y-82083524D01*
X105352471Y-82063663D01*
X105352655Y-82063355D01*
X105385656Y-81978776D01*
X105387593Y-81974102D01*
X105424063Y-81890962D01*
X105429827Y-81868197D01*
X105434510Y-81853577D01*
X105443049Y-81831695D01*
X105461669Y-81742890D01*
X105462822Y-81737906D01*
X105465556Y-81727110D01*
X105485108Y-81649902D01*
X105487046Y-81626494D01*
X105489263Y-81611286D01*
X105494080Y-81588318D01*
X105497830Y-81497625D01*
X105498146Y-81492548D01*
X105500500Y-81464148D01*
X105500500Y-81435670D01*
X105500606Y-81430545D01*
X105504357Y-81339861D01*
X105501452Y-81316555D01*
X105500500Y-81301217D01*
X105500500Y-80982786D01*
X105519238Y-80917243D01*
X105569788Y-80871509D01*
X105636874Y-80859405D01*
X105700220Y-80884590D01*
X105740680Y-80939449D01*
X105775633Y-81033161D01*
X105775634Y-81033163D01*
X105912772Y-81284313D01*
X105985601Y-81381600D01*
X106084261Y-81513395D01*
X106286605Y-81715739D01*
X106390861Y-81793784D01*
X106515686Y-81887227D01*
X106628623Y-81948895D01*
X106766839Y-82024367D01*
X107034954Y-82124369D01*
X107034957Y-82124369D01*
X107034958Y-82124370D01*
X107087217Y-82135738D01*
X107314572Y-82185196D01*
X107507677Y-82199007D01*
X107528551Y-82200500D01*
X107528552Y-82200500D01*
X109220004Y-82200500D01*
X109267457Y-82209939D01*
X109307685Y-82236819D01*
X110063181Y-82992315D01*
X110090061Y-83032543D01*
X110099500Y-83079996D01*
X110099500Y-92943081D01*
X110109062Y-93009594D01*
X110110008Y-93018390D01*
X110114804Y-93085429D01*
X110129089Y-93151096D01*
X110130661Y-93159806D01*
X110140225Y-93226326D01*
X110159154Y-93290792D01*
X110161343Y-93299367D01*
X110175630Y-93365045D01*
X110199118Y-93428018D01*
X110201909Y-93436405D01*
X110220844Y-93500888D01*
X110236889Y-93536022D01*
X110248760Y-93562017D01*
X110252145Y-93570190D01*
X110275632Y-93633159D01*
X110307840Y-93692144D01*
X110311801Y-93700058D01*
X110323347Y-93725339D01*
X110339718Y-93761187D01*
X110359135Y-93791401D01*
X110376054Y-93817727D01*
X110380570Y-93825339D01*
X110412774Y-93884317D01*
X110453039Y-93938103D01*
X110458084Y-93945367D01*
X110494426Y-94001917D01*
X110504372Y-94013395D01*
X110538434Y-94052705D01*
X110543987Y-94059596D01*
X110584262Y-94113396D01*
X116419185Y-99948319D01*
X116449435Y-99997682D01*
X116453977Y-100055398D01*
X116431822Y-100108885D01*
X116387799Y-100146485D01*
X116331504Y-100160000D01*
X115928551Y-100160000D01*
X115714570Y-100175304D01*
X115434958Y-100236129D01*
X115166836Y-100336134D01*
X114915686Y-100473272D01*
X114686602Y-100644763D01*
X114484263Y-100847102D01*
X114312772Y-101076186D01*
X114175634Y-101327336D01*
X114075629Y-101595458D01*
X114014804Y-101875070D01*
X113994389Y-102160500D01*
X114014804Y-102445929D01*
X114075629Y-102725541D01*
X114110347Y-102818623D01*
X114170512Y-102979932D01*
X114175634Y-102993663D01*
X114312772Y-103244813D01*
X114398517Y-103359354D01*
X114484261Y-103473895D01*
X114686605Y-103676239D01*
X114799083Y-103760439D01*
X114915686Y-103847727D01*
X115035807Y-103913318D01*
X115166839Y-103984867D01*
X115434954Y-104084869D01*
X115434957Y-104084869D01*
X115434958Y-104084870D01*
X115487217Y-104096238D01*
X115714572Y-104145696D01*
X115912068Y-104159821D01*
X115928551Y-104161000D01*
X115928552Y-104161000D01*
X119843783Y-104161000D01*
X119915414Y-104161000D01*
X122926093Y-104161000D01*
X122973546Y-104170439D01*
X123013774Y-104197319D01*
X124723692Y-105907237D01*
X124752533Y-105952507D01*
X124759539Y-106005725D01*
X124743398Y-106056918D01*
X124707135Y-106096493D01*
X124651716Y-106135298D01*
X124534872Y-106217113D01*
X124528595Y-106221508D01*
X124361508Y-106388595D01*
X124361507Y-106388597D01*
X124361505Y-106388599D01*
X124354687Y-106398336D01*
X124231574Y-106574160D01*
X124187255Y-106613026D01*
X124129999Y-106627036D01*
X124072742Y-106613025D01*
X124028426Y-106574161D01*
X123898495Y-106388599D01*
X123731401Y-106221505D01*
X123537830Y-106085965D01*
X123323663Y-105986097D01*
X123262501Y-105969709D01*
X123095407Y-105924936D01*
X122860000Y-105904340D01*
X122624592Y-105924936D01*
X122396336Y-105986097D01*
X122182170Y-106085965D01*
X121988598Y-106221505D01*
X121821508Y-106388595D01*
X121821507Y-106388597D01*
X121821505Y-106388599D01*
X121814687Y-106398336D01*
X121691574Y-106574160D01*
X121647255Y-106613026D01*
X121589999Y-106627036D01*
X121532742Y-106613025D01*
X121488426Y-106574161D01*
X121358495Y-106388599D01*
X121191401Y-106221505D01*
X120997830Y-106085965D01*
X120783663Y-105986097D01*
X120722501Y-105969709D01*
X120555407Y-105924936D01*
X120320000Y-105904340D01*
X120084592Y-105924936D01*
X119856336Y-105986097D01*
X119642170Y-106085965D01*
X119448598Y-106221505D01*
X119281508Y-106388595D01*
X119281507Y-106388597D01*
X119281505Y-106388599D01*
X119274687Y-106398336D01*
X119151574Y-106574160D01*
X119107255Y-106613026D01*
X119049999Y-106627036D01*
X118992742Y-106613025D01*
X118948426Y-106574161D01*
X118818495Y-106388599D01*
X118651401Y-106221505D01*
X118457830Y-106085965D01*
X118243663Y-105986097D01*
X118182501Y-105969709D01*
X118015407Y-105924936D01*
X117780000Y-105904340D01*
X117544592Y-105924936D01*
X117316336Y-105986097D01*
X117102170Y-106085965D01*
X116908598Y-106221505D01*
X116741508Y-106388595D01*
X116741507Y-106388597D01*
X116741505Y-106388599D01*
X116734687Y-106398336D01*
X116611574Y-106574160D01*
X116567255Y-106613026D01*
X116509999Y-106627036D01*
X116452742Y-106613025D01*
X116408426Y-106574161D01*
X116278495Y-106388599D01*
X116111401Y-106221505D01*
X115917830Y-106085965D01*
X115703663Y-105986097D01*
X115642501Y-105969709D01*
X115475407Y-105924936D01*
X115240000Y-105904340D01*
X115004592Y-105924936D01*
X114776336Y-105986097D01*
X114562170Y-106085965D01*
X114368598Y-106221505D01*
X114201505Y-106388598D01*
X114065965Y-106582170D01*
X113966097Y-106796336D01*
X113904936Y-107024592D01*
X113884340Y-107259999D01*
X113904936Y-107495407D01*
X113936704Y-107613965D01*
X113966097Y-107723663D01*
X114065965Y-107937830D01*
X114201505Y-108131401D01*
X114201507Y-108131403D01*
X114201508Y-108131404D01*
X114323430Y-108253326D01*
X114354726Y-108306072D01*
X114356915Y-108367365D01*
X114329462Y-108422209D01*
X114279083Y-108457189D01*
X114147669Y-108506204D01*
X114032454Y-108592454D01*
X113946204Y-108707668D01*
X113895909Y-108842516D01*
X113889500Y-108902130D01*
X113889500Y-110697869D01*
X113891455Y-110716053D01*
X113895909Y-110757483D01*
X113946204Y-110892331D01*
X114032454Y-111007546D01*
X114147669Y-111093796D01*
X114282517Y-111144091D01*
X114342127Y-111150500D01*
X116137872Y-111150499D01*
X116197483Y-111144091D01*
X116332331Y-111093796D01*
X116447546Y-111007546D01*
X116533796Y-110892331D01*
X116583003Y-110760398D01*
X116617981Y-110710021D01*
X116672826Y-110682568D01*
X116734119Y-110684757D01*
X116786865Y-110716053D01*
X116908918Y-110838106D01*
X117102423Y-110973600D01*
X117316507Y-111073430D01*
X117529999Y-111130635D01*
X117530000Y-111130636D01*
X117530000Y-109674000D01*
X117546613Y-109612000D01*
X117592000Y-109566613D01*
X117654000Y-109550000D01*
X117906000Y-109550000D01*
X117968000Y-109566613D01*
X118013387Y-109612000D01*
X118030000Y-109674000D01*
X118030000Y-111130635D01*
X118243492Y-111073430D01*
X118457576Y-110973600D01*
X118651081Y-110838106D01*
X118818109Y-110671078D01*
X118948119Y-110485405D01*
X118992437Y-110446539D01*
X119049694Y-110432528D01*
X119106951Y-110446539D01*
X119151267Y-110485402D01*
X119281505Y-110671401D01*
X119448599Y-110838495D01*
X119642170Y-110974035D01*
X119856337Y-111073903D01*
X120084592Y-111135063D01*
X120320000Y-111155659D01*
X120555408Y-111135063D01*
X120783663Y-111073903D01*
X120997830Y-110974035D01*
X121191401Y-110838495D01*
X121358495Y-110671401D01*
X121488732Y-110485402D01*
X121533048Y-110446539D01*
X121590305Y-110432528D01*
X121647562Y-110446539D01*
X121691880Y-110485404D01*
X121821893Y-110671081D01*
X121988918Y-110838106D01*
X122182423Y-110973600D01*
X122396507Y-111073430D01*
X122609999Y-111130635D01*
X122610000Y-111130636D01*
X122610000Y-109674000D01*
X122626613Y-109612000D01*
X122672000Y-109566613D01*
X122734000Y-109550000D01*
X122986000Y-109550000D01*
X123048000Y-109566613D01*
X123093387Y-109612000D01*
X123110000Y-109674000D01*
X123110000Y-111130635D01*
X123323492Y-111073430D01*
X123537576Y-110973600D01*
X123731081Y-110838106D01*
X123898109Y-110671078D01*
X124028119Y-110485405D01*
X124072437Y-110446539D01*
X124129694Y-110432528D01*
X124186951Y-110446539D01*
X124231267Y-110485402D01*
X124361505Y-110671401D01*
X124528599Y-110838495D01*
X124722170Y-110974035D01*
X124936337Y-111073903D01*
X125164592Y-111135063D01*
X125400000Y-111155659D01*
X125635408Y-111135063D01*
X125743407Y-111106124D01*
X125799691Y-111104283D01*
X125850986Y-111127524D01*
X125886712Y-111171056D01*
X125899500Y-111225900D01*
X125899500Y-112824124D01*
X125899184Y-112832970D01*
X125894389Y-112899999D01*
X125899500Y-112971448D01*
X125914804Y-113185429D01*
X125975629Y-113465041D01*
X125975631Y-113465046D01*
X126074040Y-113728891D01*
X126075634Y-113733163D01*
X126212772Y-113984313D01*
X126234170Y-114012897D01*
X126384261Y-114213395D01*
X126586605Y-114415739D01*
X126692543Y-114495043D01*
X126815686Y-114587227D01*
X126867294Y-114615407D01*
X127066839Y-114724367D01*
X127334954Y-114824369D01*
X127334957Y-114824369D01*
X127334958Y-114824370D01*
X127354845Y-114828696D01*
X127614572Y-114885196D01*
X127878012Y-114904037D01*
X127899999Y-114905610D01*
X127899999Y-114905609D01*
X127900000Y-114905610D01*
X127967029Y-114900816D01*
X127975876Y-114900500D01*
X132071004Y-114900500D01*
X132127299Y-114914015D01*
X132171322Y-114951615D01*
X132193477Y-115005102D01*
X132188935Y-115062818D01*
X132158685Y-115112181D01*
X129736605Y-117534261D01*
X129534260Y-117736604D01*
X129493988Y-117790400D01*
X129488438Y-117797287D01*
X129444427Y-117848080D01*
X129408092Y-117904617D01*
X129403047Y-117911883D01*
X129362771Y-117965687D01*
X129330568Y-118024662D01*
X129326053Y-118032272D01*
X129289720Y-118088808D01*
X129261801Y-118149941D01*
X129257841Y-118157852D01*
X129225634Y-118216837D01*
X129202146Y-118279807D01*
X129198761Y-118287978D01*
X129170843Y-118349113D01*
X129151909Y-118413593D01*
X129149115Y-118421987D01*
X129125631Y-118484952D01*
X129111343Y-118550634D01*
X129109154Y-118559211D01*
X129090225Y-118623675D01*
X129080660Y-118690196D01*
X129079089Y-118698903D01*
X129064804Y-118764574D01*
X129060008Y-118831608D01*
X129059062Y-118840403D01*
X129049500Y-118906918D01*
X129049500Y-123443081D01*
X129059062Y-123509594D01*
X129060008Y-123518390D01*
X129064804Y-123585429D01*
X129079089Y-123651096D01*
X129080661Y-123659806D01*
X129090225Y-123726326D01*
X129109154Y-123790792D01*
X129111343Y-123799367D01*
X129125630Y-123865045D01*
X129149118Y-123928018D01*
X129151909Y-123936405D01*
X129170844Y-124000888D01*
X129190178Y-124043224D01*
X129198760Y-124062017D01*
X129202145Y-124070190D01*
X129225632Y-124133159D01*
X129257840Y-124192144D01*
X129261801Y-124200058D01*
X129289717Y-124261185D01*
X129326054Y-124317727D01*
X129330570Y-124325339D01*
X129362774Y-124384317D01*
X129403039Y-124438103D01*
X129408084Y-124445367D01*
X129444426Y-124501917D01*
X129477424Y-124539999D01*
X129488434Y-124552705D01*
X129493987Y-124559596D01*
X129534262Y-124613396D01*
X129658685Y-124737819D01*
X129688935Y-124787182D01*
X129693477Y-124844898D01*
X129671322Y-124898385D01*
X129627299Y-124935985D01*
X129571004Y-124949500D01*
X118886423Y-124949500D01*
X118875616Y-124949028D01*
X118873040Y-124948802D01*
X118837419Y-124945685D01*
X118708129Y-124949448D01*
X118704522Y-124949500D01*
X118662688Y-124949500D01*
X118620947Y-124951930D01*
X118617349Y-124952087D01*
X118488044Y-124955851D01*
X118450097Y-124961409D01*
X118439343Y-124962508D01*
X118401070Y-124964738D01*
X118273760Y-124987185D01*
X118270202Y-124987760D01*
X118161647Y-125003662D01*
X118142218Y-125006508D01*
X118142217Y-125006508D01*
X118142212Y-125006509D01*
X118105175Y-125016433D01*
X118094616Y-125018774D01*
X118056862Y-125025431D01*
X117933003Y-125062511D01*
X117929536Y-125063495D01*
X117804603Y-125096971D01*
X117768963Y-125111130D01*
X117758749Y-125114680D01*
X117722029Y-125125673D01*
X117603305Y-125176885D01*
X117599974Y-125178265D01*
X117479786Y-125226013D01*
X117446028Y-125244215D01*
X117436295Y-125248927D01*
X117401096Y-125264110D01*
X117289138Y-125328749D01*
X117285991Y-125330505D01*
X117172136Y-125391896D01*
X117140731Y-125413886D01*
X117131612Y-125419696D01*
X117098404Y-125438869D01*
X116994694Y-125516079D01*
X116991771Y-125518190D01*
X116885826Y-125592374D01*
X116857195Y-125617853D01*
X116848816Y-125624679D01*
X116818052Y-125647584D01*
X116818047Y-125647588D01*
X116760151Y-125702209D01*
X116723983Y-125736331D01*
X116721330Y-125738762D01*
X116690050Y-125766601D01*
X116660462Y-125796187D01*
X116657880Y-125798695D01*
X116563816Y-125887441D01*
X116539174Y-125916808D01*
X116531872Y-125924777D01*
X116516599Y-125940051D01*
X116416300Y-126052757D01*
X116342372Y-126135830D01*
X116141896Y-126422139D01*
X116135311Y-126434350D01*
X116089723Y-126481974D01*
X116026167Y-126499500D01*
X111472889Y-126499500D01*
X111425436Y-126490061D01*
X111385208Y-126463181D01*
X106988453Y-122066425D01*
X106959798Y-122021662D01*
X106952516Y-121969014D01*
X106967945Y-121918154D01*
X107003250Y-121878425D01*
X107003792Y-121878030D01*
X107010871Y-121872888D01*
X107137533Y-121732216D01*
X107232179Y-121568284D01*
X107290674Y-121388256D01*
X107310460Y-121200000D01*
X107290674Y-121011744D01*
X107260332Y-120918363D01*
X107232179Y-120831715D01*
X107137533Y-120667783D01*
X107010870Y-120527110D01*
X106973556Y-120500000D01*
X117194356Y-120500000D01*
X117214891Y-120747816D01*
X117214891Y-120747819D01*
X117214892Y-120747821D01*
X117275937Y-120988881D01*
X117320960Y-121091523D01*
X117375825Y-121216604D01*
X117375827Y-121216607D01*
X117511836Y-121424785D01*
X117680256Y-121607738D01*
X117680259Y-121607740D01*
X117876485Y-121760470D01*
X117876487Y-121760471D01*
X117876491Y-121760474D01*
X118095190Y-121878828D01*
X118330386Y-121959571D01*
X118575665Y-122000500D01*
X118824335Y-122000500D01*
X119069614Y-121959571D01*
X119304810Y-121878828D01*
X119523509Y-121760474D01*
X119719744Y-121607738D01*
X119888164Y-121424785D01*
X120024173Y-121216607D01*
X120124063Y-120988881D01*
X120185108Y-120747821D01*
X120205643Y-120500000D01*
X120185108Y-120252179D01*
X120124063Y-120011119D01*
X120024173Y-119783393D01*
X119888164Y-119575215D01*
X119719744Y-119392262D01*
X119655500Y-119342259D01*
X119523514Y-119239529D01*
X119523510Y-119239526D01*
X119523509Y-119239526D01*
X119304810Y-119121172D01*
X119304806Y-119121170D01*
X119304805Y-119121170D01*
X119069615Y-119040429D01*
X118824335Y-118999500D01*
X118575665Y-118999500D01*
X118330384Y-119040429D01*
X118095194Y-119121170D01*
X117876485Y-119239529D01*
X117680259Y-119392259D01*
X117511837Y-119575214D01*
X117375825Y-119783395D01*
X117297870Y-119961117D01*
X117275937Y-120011119D01*
X117243850Y-120137827D01*
X117214891Y-120252183D01*
X117194356Y-120500000D01*
X106973556Y-120500000D01*
X106857730Y-120415848D01*
X106684802Y-120338855D01*
X106499648Y-120299500D01*
X106499646Y-120299500D01*
X106479500Y-120299500D01*
X106417500Y-120282887D01*
X106372113Y-120237500D01*
X106355500Y-120175500D01*
X106355500Y-107983098D01*
X106358138Y-107957654D01*
X106360798Y-107944968D01*
X106361683Y-107940748D01*
X106362824Y-107935816D01*
X106385108Y-107847821D01*
X106385905Y-107838199D01*
X106387047Y-107824426D01*
X106389263Y-107809217D01*
X106394081Y-107786238D01*
X106396069Y-107738164D01*
X106397831Y-107695531D01*
X106398149Y-107690427D01*
X106405643Y-107599999D01*
X106405274Y-107595551D01*
X106403703Y-107576603D01*
X106403386Y-107561237D01*
X106403874Y-107549440D01*
X106404357Y-107537779D01*
X106393122Y-107447646D01*
X106392606Y-107442675D01*
X106385108Y-107352179D01*
X106379344Y-107329422D01*
X106376502Y-107314315D01*
X106375697Y-107307856D01*
X106373599Y-107291019D01*
X106347685Y-107203979D01*
X106346349Y-107199125D01*
X106324063Y-107111119D01*
X106314629Y-107089613D01*
X106309345Y-107075194D01*
X106302644Y-107052687D01*
X106289897Y-107026613D01*
X106262769Y-106971122D01*
X106260620Y-106966485D01*
X106259330Y-106963545D01*
X106224173Y-106883393D01*
X106211334Y-106863741D01*
X106203742Y-106850379D01*
X106193430Y-106829287D01*
X106193429Y-106829284D01*
X106140688Y-106755417D01*
X106137796Y-106751184D01*
X106117563Y-106720215D01*
X106088164Y-106675215D01*
X106072259Y-106657938D01*
X106062577Y-106646015D01*
X106049627Y-106627878D01*
X106048932Y-106626904D01*
X105984770Y-106562742D01*
X105981222Y-106559045D01*
X105961169Y-106537262D01*
X105919744Y-106492262D01*
X105901210Y-106477836D01*
X105889692Y-106467664D01*
X105873096Y-106451068D01*
X105799242Y-106398336D01*
X105795135Y-106395273D01*
X105723510Y-106339527D01*
X105723509Y-106339526D01*
X105714435Y-106334615D01*
X105702855Y-106328348D01*
X105689822Y-106320212D01*
X105670714Y-106306569D01*
X105589182Y-106266710D01*
X105584627Y-106264365D01*
X105504812Y-106221172D01*
X105482602Y-106213547D01*
X105468413Y-106207670D01*
X105453745Y-106200500D01*
X105447314Y-106197356D01*
X105447311Y-106197355D01*
X105360323Y-106171456D01*
X105355445Y-106169894D01*
X105269612Y-106140428D01*
X105246459Y-106136565D01*
X105231486Y-106133101D01*
X105208981Y-106126401D01*
X105118899Y-106115172D01*
X105113828Y-106114433D01*
X105024335Y-106099500D01*
X105000865Y-106099500D01*
X104985527Y-106098548D01*
X104962219Y-106095642D01*
X104875160Y-106099243D01*
X104871526Y-106099394D01*
X104866404Y-106099500D01*
X104775664Y-106099500D01*
X104752512Y-106103363D01*
X104737231Y-106104948D01*
X104713763Y-106105919D01*
X104624929Y-106124545D01*
X104619893Y-106125493D01*
X104530384Y-106140429D01*
X104508168Y-106148055D01*
X104493363Y-106152131D01*
X104470385Y-106156949D01*
X104385846Y-106189937D01*
X104381035Y-106191701D01*
X104295185Y-106221173D01*
X104274531Y-106232350D01*
X104260602Y-106238807D01*
X104238728Y-106247343D01*
X104160763Y-106293799D01*
X104156310Y-106296329D01*
X104076490Y-106339526D01*
X104057960Y-106353948D01*
X104045281Y-106362611D01*
X104025105Y-106374634D01*
X103955849Y-106433289D01*
X103951874Y-106436517D01*
X103880256Y-106492261D01*
X103854818Y-106519893D01*
X103839766Y-106533751D01*
X103835258Y-106537260D01*
X103773773Y-106604048D01*
X103770230Y-106607741D01*
X103750093Y-106627878D01*
X103731687Y-106649610D01*
X103728299Y-106653447D01*
X103666833Y-106720218D01*
X103653995Y-106739868D01*
X103644813Y-106752183D01*
X103629636Y-106770102D01*
X103583174Y-106848074D01*
X103580462Y-106852417D01*
X103530826Y-106928392D01*
X103521396Y-106949891D01*
X103514368Y-106963545D01*
X103502343Y-106983726D01*
X103469346Y-107068288D01*
X103467386Y-107073020D01*
X103430936Y-107156120D01*
X103425169Y-107178890D01*
X103420484Y-107193515D01*
X103411951Y-107215385D01*
X103393324Y-107304211D01*
X103392170Y-107309200D01*
X103369891Y-107397180D01*
X103367952Y-107420578D01*
X103365738Y-107435777D01*
X103360919Y-107458762D01*
X103357168Y-107549440D01*
X103356851Y-107554550D01*
X103354500Y-107582934D01*
X103354500Y-107611404D01*
X103354394Y-107616529D01*
X103350642Y-107707219D01*
X103353548Y-107730527D01*
X103354500Y-107745865D01*
X103354500Y-121954135D01*
X103353548Y-121969473D01*
X103350642Y-121992780D01*
X103354394Y-122083471D01*
X103354500Y-122088596D01*
X103354500Y-122117066D01*
X103356851Y-122145448D01*
X103357168Y-122150559D01*
X103360019Y-122219488D01*
X103360919Y-122241237D01*
X103365738Y-122264220D01*
X103367952Y-122279421D01*
X103369891Y-122302819D01*
X103392171Y-122390803D01*
X103393325Y-122395793D01*
X103411950Y-122484614D01*
X103420484Y-122506485D01*
X103425171Y-122521114D01*
X103430936Y-122543880D01*
X103467393Y-122626993D01*
X103469354Y-122631728D01*
X103502344Y-122716275D01*
X103514364Y-122736448D01*
X103521395Y-122750107D01*
X103530824Y-122771603D01*
X103530827Y-122771607D01*
X103580481Y-122847609D01*
X103583153Y-122851890D01*
X103629634Y-122929894D01*
X103644808Y-122947811D01*
X103653991Y-122960125D01*
X103666837Y-122979787D01*
X103728294Y-123046547D01*
X103731686Y-123050388D01*
X103750095Y-123072123D01*
X103770227Y-123092255D01*
X103773776Y-123095953D01*
X103835258Y-123162740D01*
X103853787Y-123177162D01*
X103865307Y-123187335D01*
X109667665Y-128989692D01*
X109677830Y-129001202D01*
X109692261Y-129019743D01*
X109692262Y-129019744D01*
X109759056Y-129081232D01*
X109762756Y-129084783D01*
X109782869Y-129104897D01*
X109804600Y-129123302D01*
X109808441Y-129126694D01*
X109875215Y-129188164D01*
X109894873Y-129201006D01*
X109907184Y-129210187D01*
X109925106Y-129225366D01*
X110003078Y-129271827D01*
X110007407Y-129274529D01*
X110083393Y-129324173D01*
X110104906Y-129333609D01*
X110118549Y-129340633D01*
X110138727Y-129352656D01*
X110223302Y-129385657D01*
X110227985Y-129387596D01*
X110311119Y-129424063D01*
X110333876Y-129429825D01*
X110348511Y-129434514D01*
X110370383Y-129443049D01*
X110370386Y-129443050D01*
X110459226Y-129461678D01*
X110464193Y-129462827D01*
X110552179Y-129485108D01*
X110560633Y-129485808D01*
X110575573Y-129487047D01*
X110590781Y-129489262D01*
X110613763Y-129494081D01*
X110704452Y-129497831D01*
X110709557Y-129498148D01*
X110731020Y-129499927D01*
X110737932Y-129500500D01*
X110737933Y-129500500D01*
X110766404Y-129500500D01*
X110771526Y-129500605D01*
X110791983Y-129501452D01*
X110862219Y-129504357D01*
X110862219Y-129504356D01*
X110862221Y-129504357D01*
X110885526Y-129501452D01*
X110900865Y-129500500D01*
X116030947Y-129500500D01*
X116091379Y-129516223D01*
X116136483Y-129559400D01*
X116237969Y-129723933D01*
X116237973Y-129723939D01*
X116454751Y-129998099D01*
X116701900Y-130245248D01*
X116710967Y-130252417D01*
X116976067Y-130462031D01*
X117050763Y-130508104D01*
X117273544Y-130645518D01*
X117273547Y-130645519D01*
X117273548Y-130645520D01*
X117590319Y-130793233D01*
X117922098Y-130903173D01*
X118139013Y-130947962D01*
X118264394Y-130973851D01*
X118612577Y-131004314D01*
X118612582Y-131004313D01*
X118612584Y-131004314D01*
X118961954Y-130994148D01*
X119251001Y-130951808D01*
X119268972Y-130950500D01*
X135563577Y-130950500D01*
X135574383Y-130950971D01*
X135582282Y-130951662D01*
X135612580Y-130954314D01*
X135612583Y-130954313D01*
X135612584Y-130954314D01*
X135741870Y-130950552D01*
X135745478Y-130950500D01*
X135787307Y-130950500D01*
X135799026Y-130949817D01*
X135829074Y-130948067D01*
X135832642Y-130947910D01*
X135961954Y-130944148D01*
X135999898Y-130938589D01*
X136010653Y-130937490D01*
X136048927Y-130935262D01*
X136176296Y-130912802D01*
X136179770Y-130912242D01*
X136307782Y-130893492D01*
X136344836Y-130883563D01*
X136355358Y-130881230D01*
X136393136Y-130874569D01*
X136517050Y-130837471D01*
X136520465Y-130836502D01*
X136645391Y-130803029D01*
X136681028Y-130788870D01*
X136691224Y-130785326D01*
X136727971Y-130774326D01*
X136825622Y-130732203D01*
X136846732Y-130723097D01*
X136850040Y-130721726D01*
X136970215Y-130673985D01*
X137003965Y-130655786D01*
X137013690Y-130651078D01*
X137048904Y-130635889D01*
X137160910Y-130571221D01*
X137164047Y-130569471D01*
X137277861Y-130508104D01*
X137277861Y-130508103D01*
X137309272Y-130486108D01*
X137318369Y-130480312D01*
X137351596Y-130461130D01*
X137455370Y-130383871D01*
X137458214Y-130381817D01*
X137564170Y-130307628D01*
X137592814Y-130282136D01*
X137601194Y-130275311D01*
X137631946Y-130252417D01*
X137631953Y-130252412D01*
X137726083Y-130163604D01*
X137728620Y-130161279D01*
X137759940Y-130133408D01*
X137789565Y-130103781D01*
X137792120Y-130101301D01*
X137886179Y-130012562D01*
X137886179Y-130012560D01*
X137886183Y-130012558D01*
X137910841Y-129983170D01*
X137918128Y-129975218D01*
X138719736Y-129173610D01*
X151929942Y-129173610D01*
X151976766Y-129210055D01*
X152195393Y-129328368D01*
X152430506Y-129409083D01*
X152675707Y-129450000D01*
X152924293Y-129450000D01*
X153169493Y-129409083D01*
X153404606Y-129328368D01*
X153598182Y-129223610D01*
X169129942Y-129223610D01*
X169176766Y-129260055D01*
X169395393Y-129378368D01*
X169630506Y-129459083D01*
X169875707Y-129500000D01*
X170124293Y-129500000D01*
X170369493Y-129459083D01*
X170604606Y-129378368D01*
X170823233Y-129260053D01*
X170870056Y-129223609D01*
X170000000Y-128353553D01*
X169129942Y-129223609D01*
X169129942Y-129223610D01*
X153598182Y-129223610D01*
X153623233Y-129210053D01*
X153670056Y-129173609D01*
X152800000Y-128303553D01*
X151929942Y-129173609D01*
X151929942Y-129173610D01*
X138719736Y-129173610D01*
X140556528Y-127336819D01*
X140596757Y-127309939D01*
X140644210Y-127300500D01*
X151257813Y-127300500D01*
X151312274Y-127313100D01*
X151355667Y-127348338D01*
X151379174Y-127399054D01*
X151378018Y-127454941D01*
X151315386Y-127702262D01*
X151294858Y-127950000D01*
X151315386Y-128197732D01*
X151376413Y-128438721D01*
X151476268Y-128666370D01*
X151576563Y-128819882D01*
X151576564Y-128819882D01*
X152712318Y-127684128D01*
X152767905Y-127652034D01*
X152832093Y-127652034D01*
X152887680Y-127684128D01*
X154023434Y-128819882D01*
X154123730Y-128666369D01*
X154223586Y-128438721D01*
X154284613Y-128197732D01*
X154300998Y-128000000D01*
X168494858Y-128000000D01*
X168515386Y-128247732D01*
X168576413Y-128488721D01*
X168676268Y-128716370D01*
X168776563Y-128869882D01*
X168776564Y-128869882D01*
X169646447Y-128000001D01*
X170353553Y-128000001D01*
X171223434Y-128869882D01*
X171323730Y-128716369D01*
X171423586Y-128488721D01*
X171484613Y-128247732D01*
X171505141Y-128000000D01*
X171484613Y-127752267D01*
X171423586Y-127511278D01*
X171323730Y-127283630D01*
X171223434Y-127130116D01*
X170353553Y-128000000D01*
X170353553Y-128000001D01*
X169646447Y-128000001D01*
X169646447Y-127999999D01*
X168776564Y-127130116D01*
X168676266Y-127283634D01*
X168576413Y-127511278D01*
X168515386Y-127752267D01*
X168494858Y-128000000D01*
X154300998Y-128000000D01*
X154305141Y-127950000D01*
X154284613Y-127702262D01*
X154221982Y-127454941D01*
X154220826Y-127399054D01*
X154244333Y-127348338D01*
X154287726Y-127313100D01*
X154342187Y-127300500D01*
X156663577Y-127300500D01*
X156674383Y-127300971D01*
X156682282Y-127301662D01*
X156712580Y-127304314D01*
X156712583Y-127304313D01*
X156712584Y-127304314D01*
X156841870Y-127300552D01*
X156845478Y-127300500D01*
X156887307Y-127300500D01*
X156899026Y-127299817D01*
X156929074Y-127298067D01*
X156932642Y-127297910D01*
X157061954Y-127294148D01*
X157099898Y-127288589D01*
X157110653Y-127287490D01*
X157148927Y-127285262D01*
X157276296Y-127262802D01*
X157279770Y-127262242D01*
X157407782Y-127243492D01*
X157444836Y-127233563D01*
X157455358Y-127231230D01*
X157493136Y-127224569D01*
X157617050Y-127187471D01*
X157620465Y-127186502D01*
X157745391Y-127153029D01*
X157781028Y-127138870D01*
X157791224Y-127135326D01*
X157827971Y-127124326D01*
X157946732Y-127073097D01*
X157950040Y-127071726D01*
X158070215Y-127023985D01*
X158103965Y-127005786D01*
X158113690Y-127001078D01*
X158148904Y-126985889D01*
X158260910Y-126921221D01*
X158264047Y-126919471D01*
X158377861Y-126858104D01*
X158377861Y-126858103D01*
X158409272Y-126836108D01*
X158418369Y-126830312D01*
X158451596Y-126811130D01*
X158498259Y-126776390D01*
X169129942Y-126776390D01*
X170000000Y-127646447D01*
X170000001Y-127646447D01*
X170870057Y-126776390D01*
X170870056Y-126776388D01*
X170823235Y-126739947D01*
X170604606Y-126621631D01*
X170369493Y-126540916D01*
X170124293Y-126500000D01*
X169875707Y-126500000D01*
X169630506Y-126540916D01*
X169395393Y-126621631D01*
X169176764Y-126739946D01*
X169129942Y-126776388D01*
X169129942Y-126776390D01*
X158498259Y-126776390D01*
X158555370Y-126733871D01*
X158558214Y-126731817D01*
X158664170Y-126657628D01*
X158692814Y-126632136D01*
X158701194Y-126625311D01*
X158731946Y-126602417D01*
X158731953Y-126602412D01*
X158826083Y-126513604D01*
X158828620Y-126511279D01*
X158859940Y-126483408D01*
X158889565Y-126453781D01*
X158892120Y-126451301D01*
X158986179Y-126362562D01*
X158986179Y-126362560D01*
X158986183Y-126362558D01*
X159010841Y-126333170D01*
X159018128Y-126325218D01*
X160803347Y-124539999D01*
X183944340Y-124539999D01*
X183964936Y-124775407D01*
X183997888Y-124898385D01*
X184026097Y-125003663D01*
X184125965Y-125217830D01*
X184261505Y-125411401D01*
X184261508Y-125411404D01*
X184383430Y-125533326D01*
X184414726Y-125586072D01*
X184416915Y-125647365D01*
X184389462Y-125702209D01*
X184339083Y-125737189D01*
X184207669Y-125786204D01*
X184092454Y-125872454D01*
X184006204Y-125987668D01*
X183955909Y-126122516D01*
X183949500Y-126182130D01*
X183949500Y-127977869D01*
X183955909Y-128037483D01*
X184006204Y-128172331D01*
X184092454Y-128287546D01*
X184207669Y-128373796D01*
X184342517Y-128424091D01*
X184402127Y-128430500D01*
X186197872Y-128430499D01*
X186257483Y-128424091D01*
X186392331Y-128373796D01*
X186507546Y-128287546D01*
X186593796Y-128172331D01*
X186644091Y-128037483D01*
X186650500Y-127977873D01*
X186650499Y-126182128D01*
X186644091Y-126122517D01*
X186593796Y-125987669D01*
X186507546Y-125872454D01*
X186392331Y-125786204D01*
X186330898Y-125763291D01*
X186260916Y-125737189D01*
X186210537Y-125702209D01*
X186183084Y-125647365D01*
X186185273Y-125586072D01*
X186216566Y-125533329D01*
X186338495Y-125411401D01*
X186474035Y-125217830D01*
X186573903Y-125003663D01*
X186635063Y-124775408D01*
X186655659Y-124540000D01*
X186647054Y-124441652D01*
X186635063Y-124304592D01*
X186623432Y-124261185D01*
X186573903Y-124076337D01*
X186474035Y-123862171D01*
X186338495Y-123668599D01*
X186171401Y-123501505D01*
X185985402Y-123371267D01*
X185946539Y-123326951D01*
X185932528Y-123269694D01*
X185946539Y-123212437D01*
X185985405Y-123168119D01*
X186171078Y-123038109D01*
X186338106Y-122871081D01*
X186473600Y-122677576D01*
X186573430Y-122463492D01*
X186630636Y-122250000D01*
X183969364Y-122250000D01*
X184026569Y-122463492D01*
X184126399Y-122677576D01*
X184261893Y-122871081D01*
X184428918Y-123038106D01*
X184614595Y-123168119D01*
X184653460Y-123212437D01*
X184667471Y-123269694D01*
X184653460Y-123326951D01*
X184614595Y-123371269D01*
X184428595Y-123501508D01*
X184261505Y-123668598D01*
X184125965Y-123862170D01*
X184026097Y-124076336D01*
X183964936Y-124304592D01*
X183944340Y-124539999D01*
X160803347Y-124539999D01*
X170175218Y-115168128D01*
X170183170Y-115160841D01*
X170212558Y-115136183D01*
X170301302Y-115042118D01*
X170303781Y-115039565D01*
X170333408Y-115009940D01*
X170361279Y-114978620D01*
X170363604Y-114976083D01*
X170452412Y-114881953D01*
X170475311Y-114851194D01*
X170482136Y-114842814D01*
X170507628Y-114814170D01*
X170581817Y-114708214D01*
X170583884Y-114705353D01*
X170661130Y-114601596D01*
X170680312Y-114568369D01*
X170686108Y-114559272D01*
X170708104Y-114527861D01*
X170769477Y-114414034D01*
X170771229Y-114410897D01*
X170780768Y-114394375D01*
X170835889Y-114298904D01*
X170851078Y-114263690D01*
X170855790Y-114253958D01*
X170855885Y-114253782D01*
X170873985Y-114220215D01*
X170921731Y-114100030D01*
X170923101Y-114096722D01*
X170974326Y-113977971D01*
X170985323Y-113941235D01*
X170988867Y-113931037D01*
X171003030Y-113895391D01*
X171036516Y-113770416D01*
X171037463Y-113767076D01*
X171074569Y-113643136D01*
X171081228Y-113605361D01*
X171083562Y-113594836D01*
X171093492Y-113557782D01*
X171112242Y-113429770D01*
X171112802Y-113426296D01*
X171135262Y-113298927D01*
X171137490Y-113260653D01*
X171138590Y-113249890D01*
X171141289Y-113231467D01*
X171144148Y-113211954D01*
X171147910Y-113082642D01*
X171148068Y-113079054D01*
X171150500Y-113037307D01*
X171150500Y-112995478D01*
X171150552Y-112991871D01*
X171154314Y-112862580D01*
X171150972Y-112824386D01*
X171150500Y-112813577D01*
X171150500Y-106324500D01*
X171167113Y-106262500D01*
X171212500Y-106217113D01*
X171274500Y-106200500D01*
X171294648Y-106200500D01*
X171438637Y-106169894D01*
X171479803Y-106161144D01*
X171557836Y-106126401D01*
X171652727Y-106084153D01*
X171652730Y-106084151D01*
X171777117Y-105993778D01*
X171824219Y-105972808D01*
X171875781Y-105972808D01*
X171922882Y-105993778D01*
X171993577Y-106045141D01*
X172047272Y-106084153D01*
X172220197Y-106161144D01*
X172405352Y-106200500D01*
X172405354Y-106200500D01*
X172594646Y-106200500D01*
X172594648Y-106200500D01*
X172738637Y-106169894D01*
X172779803Y-106161144D01*
X172952730Y-106084151D01*
X173060675Y-106005725D01*
X173105870Y-105972889D01*
X173232533Y-105832216D01*
X173327179Y-105668284D01*
X173345304Y-105612500D01*
X173385674Y-105488256D01*
X173405460Y-105300000D01*
X173385674Y-105111744D01*
X173340190Y-104971758D01*
X173327179Y-104931715D01*
X173232533Y-104767783D01*
X173105870Y-104627110D01*
X172952730Y-104515848D01*
X172779802Y-104438855D01*
X172594648Y-104399500D01*
X172594646Y-104399500D01*
X172405354Y-104399500D01*
X172405352Y-104399500D01*
X172220197Y-104438855D01*
X172047272Y-104515846D01*
X171922884Y-104606219D01*
X171875779Y-104627190D01*
X171824218Y-104627190D01*
X171777114Y-104606218D01*
X171652730Y-104515848D01*
X171479802Y-104438855D01*
X171294648Y-104399500D01*
X171294646Y-104399500D01*
X171274500Y-104399500D01*
X171212500Y-104382887D01*
X171167113Y-104337500D01*
X171150500Y-104275500D01*
X171150500Y-101357562D01*
X171159939Y-101310109D01*
X171186819Y-101269881D01*
X173844958Y-98611742D01*
X182025218Y-90431480D01*
X182033170Y-90424193D01*
X182062558Y-90399535D01*
X182084753Y-90376010D01*
X182151301Y-90305472D01*
X182153781Y-90302917D01*
X182183408Y-90273292D01*
X182211279Y-90241972D01*
X182213604Y-90239435D01*
X182302412Y-90145305D01*
X182325311Y-90114546D01*
X182332136Y-90106166D01*
X182357628Y-90077522D01*
X182431817Y-89971566D01*
X182433884Y-89968705D01*
X182434570Y-89967784D01*
X182511130Y-89864948D01*
X182530312Y-89831721D01*
X182536108Y-89822624D01*
X182558104Y-89791213D01*
X182619513Y-89677321D01*
X182621191Y-89674314D01*
X182685889Y-89562256D01*
X182701082Y-89527030D01*
X182705773Y-89517342D01*
X182723986Y-89483567D01*
X182771766Y-89363292D01*
X182773085Y-89360108D01*
X182824326Y-89241323D01*
X182835323Y-89204586D01*
X182838867Y-89194391D01*
X182853030Y-89158743D01*
X182886516Y-89033768D01*
X182887463Y-89030428D01*
X182924569Y-88906488D01*
X182931228Y-88868713D01*
X182933562Y-88858188D01*
X182943492Y-88821134D01*
X182962242Y-88693122D01*
X182962802Y-88689648D01*
X182985262Y-88562279D01*
X182987490Y-88524005D01*
X182988590Y-88513242D01*
X182994148Y-88475306D01*
X182997910Y-88345994D01*
X182998068Y-88342406D01*
X183000500Y-88300659D01*
X183000500Y-88258830D01*
X183000552Y-88255223D01*
X183002592Y-88185115D01*
X183004314Y-88125936D01*
X183000971Y-88087735D01*
X183000500Y-88076929D01*
X183000500Y-73736413D01*
X183000972Y-73725605D01*
X183004313Y-73687420D01*
X183000552Y-73558151D01*
X183000500Y-73554545D01*
X183000500Y-73512693D01*
X182998067Y-73470928D01*
X182997909Y-73467324D01*
X182997304Y-73446539D01*
X182994148Y-73338046D01*
X182988589Y-73300103D01*
X182987490Y-73289341D01*
X182986588Y-73273857D01*
X182985262Y-73251073D01*
X182962806Y-73123724D01*
X182962236Y-73120189D01*
X182943492Y-72992218D01*
X182933561Y-72955156D01*
X182931229Y-72944640D01*
X182924569Y-72906864D01*
X182887479Y-72782974D01*
X182886495Y-72779505D01*
X182881505Y-72760883D01*
X182853029Y-72654609D01*
X182838871Y-72618972D01*
X182835328Y-72608779D01*
X182824326Y-72572029D01*
X182773096Y-72453265D01*
X182771716Y-72449932D01*
X182723987Y-72329790D01*
X182723986Y-72329789D01*
X182723985Y-72329785D01*
X182705775Y-72296013D01*
X182701078Y-72286310D01*
X182685889Y-72251096D01*
X182621197Y-72139046D01*
X182619495Y-72135995D01*
X182558104Y-72022138D01*
X182536108Y-71990725D01*
X182530302Y-71981611D01*
X182512080Y-71950050D01*
X182511130Y-71948404D01*
X182433906Y-71844675D01*
X182431801Y-71841760D01*
X182388413Y-71779796D01*
X182357628Y-71735830D01*
X182332138Y-71707187D01*
X182325309Y-71698803D01*
X182320983Y-71692992D01*
X182302412Y-71668047D01*
X182276850Y-71640953D01*
X182213654Y-71573968D01*
X182211219Y-71571310D01*
X182183411Y-71540063D01*
X182153814Y-71510466D01*
X182151301Y-71507879D01*
X182062558Y-71413817D01*
X182033185Y-71389170D01*
X182025210Y-71381862D01*
X180736819Y-70093471D01*
X180709939Y-70053243D01*
X180700500Y-70005790D01*
X180700500Y-68948227D01*
X180718773Y-68883437D01*
X180768205Y-68837742D01*
X180834228Y-68824609D01*
X180897385Y-68847908D01*
X180947272Y-68884153D01*
X181120197Y-68961144D01*
X181305352Y-69000500D01*
X181305354Y-69000500D01*
X181494646Y-69000500D01*
X181494648Y-69000500D01*
X181618084Y-68974262D01*
X181679803Y-68961144D01*
X181852730Y-68884151D01*
X181889237Y-68857627D01*
X182005870Y-68772889D01*
X182005871Y-68772888D01*
X182132533Y-68632216D01*
X182142612Y-68614757D01*
X182187999Y-68569370D01*
X182250000Y-68552757D01*
X182312001Y-68569370D01*
X182357388Y-68614758D01*
X182367468Y-68632217D01*
X182494129Y-68772889D01*
X182647269Y-68884151D01*
X182820197Y-68961144D01*
X183005352Y-69000500D01*
X183005354Y-69000500D01*
X183194646Y-69000500D01*
X183194648Y-69000500D01*
X183318084Y-68974262D01*
X183379803Y-68961144D01*
X183552730Y-68884151D01*
X183589237Y-68857627D01*
X183705870Y-68772889D01*
X183832533Y-68632216D01*
X183927179Y-68468284D01*
X183950000Y-68398048D01*
X183966031Y-68348710D01*
X184000990Y-68294879D01*
X184058181Y-68265739D01*
X184079803Y-68261144D01*
X184252730Y-68184151D01*
X184252729Y-68184151D01*
X184405870Y-68072889D01*
X184532533Y-67932216D01*
X184627179Y-67768284D01*
X184657569Y-67674754D01*
X184696459Y-67617528D01*
X184759959Y-67590050D01*
X184828297Y-67600873D01*
X184880197Y-67646629D01*
X184899500Y-67713072D01*
X184899500Y-90412897D01*
X184890061Y-90460350D01*
X184863181Y-90500578D01*
X175961036Y-99402721D01*
X175958240Y-99405431D01*
X175873613Y-99484902D01*
X175854768Y-99507681D01*
X175799589Y-99574380D01*
X175797088Y-99577308D01*
X175720312Y-99664393D01*
X175701448Y-99692149D01*
X175694439Y-99701484D01*
X175673050Y-99727339D01*
X175610853Y-99825346D01*
X175608716Y-99828600D01*
X175543457Y-99924626D01*
X175528227Y-99954518D01*
X175522442Y-99964662D01*
X175504459Y-99992999D01*
X175455041Y-100098018D01*
X175453328Y-100101515D01*
X175400616Y-100204969D01*
X175389246Y-100236547D01*
X175384780Y-100247330D01*
X175370495Y-100277688D01*
X175334614Y-100388115D01*
X175333353Y-100391798D01*
X175294037Y-100501003D01*
X175286720Y-100533738D01*
X175283639Y-100545002D01*
X175273268Y-100576922D01*
X175251511Y-100690969D01*
X175250722Y-100694780D01*
X175225401Y-100808063D01*
X175222242Y-100841473D01*
X175220598Y-100853028D01*
X175214311Y-100885988D01*
X175207022Y-101001846D01*
X175206717Y-101005727D01*
X175195793Y-101121302D01*
X175199439Y-101237331D01*
X175199500Y-101241226D01*
X175199500Y-114012897D01*
X175190061Y-114060350D01*
X175163181Y-114100578D01*
X171300578Y-117963181D01*
X171260350Y-117990061D01*
X171212897Y-117999500D01*
X169921412Y-117999500D01*
X169685989Y-118014311D01*
X169376917Y-118073269D01*
X169077689Y-118170495D01*
X168792992Y-118304463D01*
X168527336Y-118473053D01*
X168284902Y-118673612D01*
X168069519Y-118902971D01*
X167884583Y-119157515D01*
X167733005Y-119433235D01*
X167617180Y-119725774D01*
X167538934Y-120030525D01*
X167499500Y-120342680D01*
X167499500Y-120657320D01*
X167538934Y-120969474D01*
X167617180Y-121274225D01*
X167733005Y-121566764D01*
X167884583Y-121842484D01*
X168069519Y-122097028D01*
X168284902Y-122326387D01*
X168440427Y-122455049D01*
X168527337Y-122526947D01*
X168792993Y-122695537D01*
X169077685Y-122829503D01*
X169227303Y-122878117D01*
X169376917Y-122926730D01*
X169376919Y-122926730D01*
X169376921Y-122926731D01*
X169685985Y-122985688D01*
X169790621Y-122992271D01*
X169921412Y-123000500D01*
X169921417Y-123000500D01*
X172258774Y-123000500D01*
X172262669Y-123000561D01*
X172378698Y-123004207D01*
X172494292Y-122993279D01*
X172498151Y-122992976D01*
X172614015Y-122985688D01*
X172646967Y-122979401D01*
X172658535Y-122977755D01*
X172660847Y-122977536D01*
X172691938Y-122974598D01*
X172756685Y-122960125D01*
X172805234Y-122949273D01*
X172809028Y-122948486D01*
X172923079Y-122926731D01*
X172954993Y-122916360D01*
X172966255Y-122913279D01*
X172998996Y-122905962D01*
X173108285Y-122866614D01*
X173111817Y-122865404D01*
X173222315Y-122829503D01*
X173252687Y-122815210D01*
X173263452Y-122810751D01*
X173295032Y-122799383D01*
X173398507Y-122746658D01*
X173401929Y-122744981D01*
X173507007Y-122695537D01*
X173535334Y-122677558D01*
X173545469Y-122671777D01*
X173575375Y-122656541D01*
X173671403Y-122591280D01*
X173674661Y-122589140D01*
X173772663Y-122526947D01*
X173798518Y-122505556D01*
X173807837Y-122498558D01*
X173835605Y-122479689D01*
X173922700Y-122402902D01*
X173925626Y-122400402D01*
X174015094Y-122326390D01*
X174094597Y-122241726D01*
X174097248Y-122238991D01*
X176876240Y-119459999D01*
X183944340Y-119459999D01*
X183964936Y-119695407D01*
X184009709Y-119862502D01*
X184026097Y-119923663D01*
X184125965Y-120137830D01*
X184261505Y-120331401D01*
X184428599Y-120498495D01*
X184614597Y-120628732D01*
X184653460Y-120673048D01*
X184667471Y-120730305D01*
X184653461Y-120787561D01*
X184614595Y-120831880D01*
X184428919Y-120961892D01*
X184261890Y-121128921D01*
X184126400Y-121322421D01*
X184026569Y-121536507D01*
X183969364Y-121749999D01*
X183969364Y-121750000D01*
X186630636Y-121750000D01*
X186630635Y-121749999D01*
X186573430Y-121536507D01*
X186473599Y-121322421D01*
X186338109Y-121128921D01*
X186171081Y-120961893D01*
X185985404Y-120831880D01*
X185946539Y-120787562D01*
X185932528Y-120730305D01*
X185946539Y-120673048D01*
X185985402Y-120628732D01*
X186171401Y-120498495D01*
X186338495Y-120331401D01*
X186474035Y-120137830D01*
X186573903Y-119923663D01*
X186635063Y-119695408D01*
X186655659Y-119460000D01*
X186635063Y-119224592D01*
X186573903Y-118996337D01*
X186474035Y-118782171D01*
X186338495Y-118588599D01*
X186171401Y-118421505D01*
X185985839Y-118291573D01*
X185946975Y-118247257D01*
X185932964Y-118190000D01*
X185946975Y-118132743D01*
X185985839Y-118088426D01*
X186171401Y-117958495D01*
X186338495Y-117791401D01*
X186474035Y-117597830D01*
X186573903Y-117383663D01*
X186635063Y-117155408D01*
X186655659Y-116920000D01*
X186635063Y-116684592D01*
X186573903Y-116456337D01*
X186474035Y-116242171D01*
X186338495Y-116048599D01*
X186171401Y-115881505D01*
X185985839Y-115751573D01*
X185946975Y-115707257D01*
X185932964Y-115650000D01*
X185946975Y-115592743D01*
X185985839Y-115548426D01*
X186171401Y-115418495D01*
X186338495Y-115251401D01*
X186474035Y-115057830D01*
X186573903Y-114843663D01*
X186635063Y-114615408D01*
X186655659Y-114380000D01*
X186651626Y-114333909D01*
X186635063Y-114144592D01*
X186631498Y-114131287D01*
X186573903Y-113916337D01*
X186474035Y-113702171D01*
X186338495Y-113508599D01*
X186171401Y-113341505D01*
X185977830Y-113205965D01*
X185763663Y-113106097D01*
X185702501Y-113089709D01*
X185535407Y-113044936D01*
X185300000Y-113024340D01*
X185064592Y-113044936D01*
X184836336Y-113106097D01*
X184622170Y-113205965D01*
X184428598Y-113341505D01*
X184261505Y-113508598D01*
X184125965Y-113702170D01*
X184026097Y-113916336D01*
X183964936Y-114144592D01*
X183944340Y-114379999D01*
X183964936Y-114615407D01*
X183994132Y-114724367D01*
X184026097Y-114843663D01*
X184125965Y-115057830D01*
X184261505Y-115251401D01*
X184428599Y-115418495D01*
X184614160Y-115548426D01*
X184653024Y-115592743D01*
X184667035Y-115650000D01*
X184653024Y-115707257D01*
X184614159Y-115751575D01*
X184428595Y-115881508D01*
X184261505Y-116048598D01*
X184125965Y-116242170D01*
X184026097Y-116456336D01*
X183964936Y-116684592D01*
X183944340Y-116919999D01*
X183964936Y-117155407D01*
X184009709Y-117322501D01*
X184026097Y-117383663D01*
X184125965Y-117597830D01*
X184261505Y-117791401D01*
X184428599Y-117958495D01*
X184614160Y-118088426D01*
X184653024Y-118132743D01*
X184667035Y-118190000D01*
X184653024Y-118247257D01*
X184614159Y-118291575D01*
X184428595Y-118421508D01*
X184261505Y-118588598D01*
X184125965Y-118782170D01*
X184026097Y-118996336D01*
X183964936Y-119224592D01*
X183944340Y-119459999D01*
X176876240Y-119459999D01*
X179438991Y-116897248D01*
X179441726Y-116894597D01*
X179526390Y-116815094D01*
X179600402Y-116725626D01*
X179602903Y-116722700D01*
X179636500Y-116684592D01*
X179679689Y-116635605D01*
X179698558Y-116607837D01*
X179705556Y-116598518D01*
X179726947Y-116572663D01*
X179789142Y-116474657D01*
X179791258Y-116471434D01*
X179856541Y-116375375D01*
X179871775Y-116345474D01*
X179877551Y-116335347D01*
X179895537Y-116307007D01*
X179944978Y-116201937D01*
X179946667Y-116198490D01*
X179999382Y-116095032D01*
X180010744Y-116063471D01*
X180015218Y-116052670D01*
X180029503Y-116022315D01*
X180041521Y-115985327D01*
X180065398Y-115911840D01*
X180066610Y-115908298D01*
X180105962Y-115798996D01*
X180113279Y-115766255D01*
X180116360Y-115754993D01*
X180126731Y-115723079D01*
X180148486Y-115609028D01*
X180149273Y-115605234D01*
X180174597Y-115491941D01*
X180174598Y-115491938D01*
X180177755Y-115458535D01*
X180179402Y-115446964D01*
X180185688Y-115414015D01*
X180192976Y-115298151D01*
X180193281Y-115294279D01*
X180196611Y-115259051D01*
X180204207Y-115178698D01*
X180200561Y-115062669D01*
X180200500Y-115058774D01*
X180200500Y-102287103D01*
X180209939Y-102239650D01*
X180236819Y-102199422D01*
X182461617Y-99974624D01*
X189138991Y-93297248D01*
X189141726Y-93294597D01*
X189226390Y-93215094D01*
X189257260Y-93177777D01*
X189305711Y-93142108D01*
X189365249Y-93133443D01*
X189421857Y-93153823D01*
X189462209Y-93198449D01*
X189476805Y-93256817D01*
X189476805Y-129804097D01*
X189476610Y-129811053D01*
X189459584Y-130114071D01*
X189458027Y-130127888D01*
X189407767Y-130423664D01*
X189404672Y-130437221D01*
X189321614Y-130725496D01*
X189317022Y-130738620D01*
X189202206Y-131015802D01*
X189196172Y-131028330D01*
X189051053Y-131290898D01*
X189043655Y-131302672D01*
X188870046Y-131547348D01*
X188861377Y-131558219D01*
X188661460Y-131781926D01*
X188651628Y-131791758D01*
X188554107Y-131878908D01*
X188427932Y-131991666D01*
X188417065Y-132000333D01*
X188172388Y-132173944D01*
X188160615Y-132181342D01*
X187898036Y-132326470D01*
X187885508Y-132332503D01*
X187608340Y-132447315D01*
X187595216Y-132451908D01*
X187306929Y-132534970D01*
X187293372Y-132538064D01*
X186997612Y-132588324D01*
X186983795Y-132589882D01*
X186681071Y-132606893D01*
X186674114Y-132607088D01*
X99586176Y-132607088D01*
X99579223Y-132606893D01*
X99276204Y-132589875D01*
X99262386Y-132588318D01*
X98966618Y-132538064D01*
X98953061Y-132534970D01*
X98716527Y-132466826D01*
X98664766Y-132451913D01*
X98651649Y-132447323D01*
X98374476Y-132332514D01*
X98361947Y-132326480D01*
X98099369Y-132181357D01*
X98087596Y-132173959D01*
X97842918Y-132000350D01*
X97832050Y-131991683D01*
X97705155Y-131878282D01*
X97608354Y-131791775D01*
X97598521Y-131781943D01*
X97551532Y-131729362D01*
X97398599Y-131558229D01*
X97389943Y-131547375D01*
X97216330Y-131302688D01*
X97208932Y-131290914D01*
X97063810Y-131028334D01*
X97057777Y-131015805D01*
X96942973Y-130738639D01*
X96938380Y-130725514D01*
X96912901Y-130637073D01*
X96855324Y-130437219D01*
X96852232Y-130423669D01*
X96852231Y-130423664D01*
X96801978Y-130127888D01*
X96800423Y-130114087D01*
X96783390Y-129810758D01*
X96783195Y-129803806D01*
X96783195Y-125600000D01*
X100994540Y-125600000D01*
X101014326Y-125788257D01*
X101072820Y-125968284D01*
X101167466Y-126132216D01*
X101294129Y-126272889D01*
X101447269Y-126384151D01*
X101620197Y-126461144D01*
X101805352Y-126500500D01*
X101805354Y-126500500D01*
X101994646Y-126500500D01*
X101994648Y-126500500D01*
X102118084Y-126474262D01*
X102179803Y-126461144D01*
X102352730Y-126384151D01*
X102505871Y-126272888D01*
X102632533Y-126132216D01*
X102642614Y-126114756D01*
X102687995Y-126069372D01*
X102749996Y-126052757D01*
X102811997Y-126069369D01*
X102857385Y-126114756D01*
X102867464Y-126132214D01*
X102994129Y-126272889D01*
X103147269Y-126384151D01*
X103320197Y-126461144D01*
X103505352Y-126500500D01*
X103505354Y-126500500D01*
X103694646Y-126500500D01*
X103694648Y-126500500D01*
X103818084Y-126474262D01*
X103879803Y-126461144D01*
X104052730Y-126384151D01*
X104205871Y-126272888D01*
X104332533Y-126132216D01*
X104427179Y-125968284D01*
X104485674Y-125788256D01*
X104505460Y-125600000D01*
X104485674Y-125411744D01*
X104427179Y-125231716D01*
X104427179Y-125231715D01*
X104332533Y-125067783D01*
X104205870Y-124927110D01*
X104052730Y-124815848D01*
X103879802Y-124738855D01*
X103694648Y-124699500D01*
X103694646Y-124699500D01*
X103505354Y-124699500D01*
X103505352Y-124699500D01*
X103320197Y-124738855D01*
X103147269Y-124815848D01*
X102994129Y-124927110D01*
X102867466Y-125067784D01*
X102857387Y-125085242D01*
X102812000Y-125130629D01*
X102750000Y-125147242D01*
X102688000Y-125130629D01*
X102642613Y-125085242D01*
X102632533Y-125067784D01*
X102505870Y-124927110D01*
X102352730Y-124815848D01*
X102179802Y-124738855D01*
X101994648Y-124699500D01*
X101994646Y-124699500D01*
X101805354Y-124699500D01*
X101805352Y-124699500D01*
X101620197Y-124738855D01*
X101447269Y-124815848D01*
X101294129Y-124927110D01*
X101167466Y-125067783D01*
X101072820Y-125231715D01*
X101014326Y-125411742D01*
X100994540Y-125600000D01*
X96783195Y-125600000D01*
X96783195Y-122000000D01*
X97394540Y-122000000D01*
X97414326Y-122188257D01*
X97472820Y-122368284D01*
X97567466Y-122532216D01*
X97694129Y-122672889D01*
X97847269Y-122784151D01*
X98020197Y-122861144D01*
X98205352Y-122900500D01*
X98205354Y-122900500D01*
X98394646Y-122900500D01*
X98394648Y-122900500D01*
X98518084Y-122874262D01*
X98579803Y-122861144D01*
X98752730Y-122784151D01*
X98874700Y-122695535D01*
X98905870Y-122672889D01*
X99032533Y-122532216D01*
X99127179Y-122368284D01*
X99148450Y-122302819D01*
X99185674Y-122188256D01*
X99205460Y-122000000D01*
X99185674Y-121811744D01*
X99127179Y-121631716D01*
X99127179Y-121631715D01*
X99032533Y-121467783D01*
X98905870Y-121327110D01*
X98752730Y-121215848D01*
X98579802Y-121138855D01*
X98394648Y-121099500D01*
X98394646Y-121099500D01*
X98205354Y-121099500D01*
X98205352Y-121099500D01*
X98020197Y-121138855D01*
X97847269Y-121215848D01*
X97694129Y-121327110D01*
X97567466Y-121467783D01*
X97472820Y-121631715D01*
X97414326Y-121811742D01*
X97394540Y-122000000D01*
X96783195Y-122000000D01*
X96783195Y-52599999D01*
X106394356Y-52599999D01*
X106414891Y-52847816D01*
X106414891Y-52847819D01*
X106414892Y-52847821D01*
X106475937Y-53088881D01*
X106520960Y-53191523D01*
X106575825Y-53316604D01*
X106575827Y-53316607D01*
X106711836Y-53524785D01*
X106880256Y-53707738D01*
X106880259Y-53707740D01*
X107076485Y-53860470D01*
X107076487Y-53860471D01*
X107076491Y-53860474D01*
X107295190Y-53978828D01*
X107530386Y-54059571D01*
X107775665Y-54100500D01*
X108024335Y-54100500D01*
X108269614Y-54059571D01*
X108504810Y-53978828D01*
X108723509Y-53860474D01*
X108919744Y-53707738D01*
X109018925Y-53599999D01*
X114294540Y-53599999D01*
X114314326Y-53788257D01*
X114372820Y-53968284D01*
X114467466Y-54132216D01*
X114594129Y-54272889D01*
X114747269Y-54384151D01*
X114920197Y-54461144D01*
X115105352Y-54500500D01*
X115105354Y-54500500D01*
X115294646Y-54500500D01*
X115294648Y-54500500D01*
X115418084Y-54474262D01*
X115479803Y-54461144D01*
X115652730Y-54384151D01*
X115713224Y-54340200D01*
X115805870Y-54272889D01*
X115932533Y-54132216D01*
X116027179Y-53968284D01*
X116048895Y-53901450D01*
X116085674Y-53788256D01*
X116105460Y-53600000D01*
X116085674Y-53411744D01*
X116058145Y-53327021D01*
X116055761Y-53258705D01*
X116089941Y-53199505D01*
X116150297Y-53167415D01*
X116179803Y-53161144D01*
X116352730Y-53084151D01*
X116391899Y-53055693D01*
X116505870Y-52972889D01*
X116632533Y-52832216D01*
X116727179Y-52668284D01*
X116758147Y-52572975D01*
X116785674Y-52488256D01*
X116805460Y-52300000D01*
X116785674Y-52111744D01*
X116727179Y-51931716D01*
X116727179Y-51931715D01*
X116632533Y-51767783D01*
X116505870Y-51627110D01*
X116352730Y-51515848D01*
X116179802Y-51438855D01*
X115994648Y-51399500D01*
X115994646Y-51399500D01*
X115805354Y-51399500D01*
X115805352Y-51399500D01*
X115620197Y-51438855D01*
X115447269Y-51515848D01*
X115294129Y-51627110D01*
X115167466Y-51767783D01*
X115072820Y-51931715D01*
X115014326Y-52111742D01*
X114994540Y-52300000D01*
X115014326Y-52488257D01*
X115041853Y-52572975D01*
X115044239Y-52641291D01*
X115010060Y-52700490D01*
X114949705Y-52732583D01*
X114920196Y-52738855D01*
X114747269Y-52815848D01*
X114594129Y-52927110D01*
X114467466Y-53067783D01*
X114372820Y-53231715D01*
X114314326Y-53411742D01*
X114294540Y-53599999D01*
X109018925Y-53599999D01*
X109088164Y-53524785D01*
X109224173Y-53316607D01*
X109324063Y-53088881D01*
X109385108Y-52847821D01*
X109405643Y-52600000D01*
X109385108Y-52352179D01*
X109324063Y-52111119D01*
X109224173Y-51883393D01*
X109088164Y-51675215D01*
X108919744Y-51492262D01*
X108874848Y-51457318D01*
X108723514Y-51339529D01*
X108723510Y-51339526D01*
X108723509Y-51339526D01*
X108504810Y-51221172D01*
X108504806Y-51221170D01*
X108504805Y-51221170D01*
X108269615Y-51140429D01*
X108024335Y-51099500D01*
X107775665Y-51099500D01*
X107530384Y-51140429D01*
X107295194Y-51221170D01*
X107076485Y-51339529D01*
X106880259Y-51492259D01*
X106880256Y-51492261D01*
X106880256Y-51492262D01*
X106711836Y-51675215D01*
X106666499Y-51744607D01*
X106575825Y-51883395D01*
X106510547Y-52032216D01*
X106475937Y-52111119D01*
X106475779Y-52111744D01*
X106414891Y-52352183D01*
X106394356Y-52599999D01*
X96783195Y-52599999D01*
X96783195Y-51443487D01*
X96783390Y-51436531D01*
X96788840Y-51339529D01*
X96800417Y-51133498D01*
X96801972Y-51119706D01*
X96852237Y-50823917D01*
X96855324Y-50810392D01*
X96938391Y-50522082D01*
X96942978Y-50508974D01*
X97057799Y-50231784D01*
X97063823Y-50219276D01*
X97208956Y-49956684D01*
X97213156Y-49950000D01*
X111994540Y-49950000D01*
X112014326Y-50138257D01*
X112072820Y-50318284D01*
X112167466Y-50482216D01*
X112294129Y-50622889D01*
X112354330Y-50666627D01*
X112396416Y-50720494D01*
X112403561Y-50788478D01*
X112373595Y-50849917D01*
X112267466Y-50967783D01*
X112172820Y-51131715D01*
X112114326Y-51311742D01*
X112094540Y-51500000D01*
X112114326Y-51688257D01*
X112172820Y-51868284D01*
X112267466Y-52032216D01*
X112394129Y-52172889D01*
X112547269Y-52284151D01*
X112720197Y-52361144D01*
X112905352Y-52400500D01*
X112905354Y-52400500D01*
X113094646Y-52400500D01*
X113094648Y-52400500D01*
X113253353Y-52366766D01*
X113279803Y-52361144D01*
X113452730Y-52284151D01*
X113605871Y-52172888D01*
X113732533Y-52032216D01*
X113827179Y-51868284D01*
X113885674Y-51688256D01*
X113905460Y-51500000D01*
X113885674Y-51311744D01*
X113830742Y-51142682D01*
X113827179Y-51131715D01*
X113732533Y-50967783D01*
X113605870Y-50827110D01*
X113545670Y-50783373D01*
X113503584Y-50729506D01*
X113496439Y-50661522D01*
X113526405Y-50600083D01*
X113632533Y-50482216D01*
X113727179Y-50318284D01*
X113754813Y-50233235D01*
X113785674Y-50138256D01*
X113805460Y-49950000D01*
X113785674Y-49761744D01*
X113727179Y-49581716D01*
X113727179Y-49581715D01*
X113632533Y-49417783D01*
X113505870Y-49277110D01*
X113352730Y-49165848D01*
X113179802Y-49088855D01*
X112994648Y-49049500D01*
X112994646Y-49049500D01*
X112805354Y-49049500D01*
X112805352Y-49049500D01*
X112620197Y-49088855D01*
X112447269Y-49165848D01*
X112294129Y-49277110D01*
X112167466Y-49417783D01*
X112072820Y-49581715D01*
X112014326Y-49761742D01*
X111994540Y-49950000D01*
X97213156Y-49950000D01*
X97216341Y-49944931D01*
X97389975Y-49700222D01*
X97398618Y-49689385D01*
X97598548Y-49465663D01*
X97608360Y-49455851D01*
X97832081Y-49255920D01*
X97842922Y-49247274D01*
X98087627Y-49073643D01*
X98099380Y-49066258D01*
X98361972Y-48921125D01*
X98374480Y-48915101D01*
X98651669Y-48800279D01*
X98664777Y-48795692D01*
X98953087Y-48712625D01*
X98966612Y-48709538D01*
X99262401Y-48659273D01*
X99276191Y-48657718D01*
X99579142Y-48640695D01*
X99586100Y-48640500D01*
X136610404Y-48640500D01*
X136676846Y-48659803D01*
G37*
%TD.AperFunction*%
%TA.AperFunction,Conductor*%
G36*
X165098267Y-99982684D02*
G01*
X165135407Y-100028006D01*
X165147590Y-100085321D01*
X165145685Y-100150771D01*
X165149028Y-100188966D01*
X165149500Y-100199775D01*
X165149500Y-105996587D01*
X165131509Y-106060915D01*
X165082757Y-106106576D01*
X165017390Y-106120322D01*
X164954377Y-106098162D01*
X164937580Y-106086400D01*
X164723492Y-105986569D01*
X164510000Y-105929364D01*
X164510000Y-107386000D01*
X164493387Y-107448000D01*
X164448000Y-107493387D01*
X164386000Y-107510000D01*
X153974000Y-107510000D01*
X153912000Y-107493387D01*
X153866613Y-107448000D01*
X153850000Y-107386000D01*
X153850000Y-107134000D01*
X153866613Y-107072000D01*
X153912000Y-107026613D01*
X153974000Y-107010000D01*
X156390000Y-107010000D01*
X156890000Y-107010000D01*
X158930000Y-107010000D01*
X159430000Y-107010000D01*
X161470000Y-107010000D01*
X161970000Y-107010000D01*
X164010000Y-107010000D01*
X164010000Y-105929364D01*
X164009999Y-105929364D01*
X163796507Y-105986569D01*
X163582421Y-106086400D01*
X163388921Y-106221890D01*
X163221893Y-106388918D01*
X163091575Y-106575032D01*
X163047257Y-106613897D01*
X162990000Y-106627908D01*
X162932743Y-106613897D01*
X162888425Y-106575032D01*
X162758106Y-106388918D01*
X162591081Y-106221893D01*
X162397576Y-106086399D01*
X162183492Y-105986569D01*
X161970000Y-105929364D01*
X161970000Y-107010000D01*
X161470000Y-107010000D01*
X161470000Y-105929364D01*
X161469999Y-105929364D01*
X161256507Y-105986569D01*
X161042421Y-106086400D01*
X160848921Y-106221890D01*
X160681893Y-106388918D01*
X160551575Y-106575032D01*
X160507257Y-106613897D01*
X160450000Y-106627908D01*
X160392743Y-106613897D01*
X160348425Y-106575032D01*
X160218106Y-106388918D01*
X160051081Y-106221893D01*
X159857576Y-106086399D01*
X159643492Y-105986569D01*
X159430000Y-105929364D01*
X159430000Y-107010000D01*
X158930000Y-107010000D01*
X158930000Y-105929364D01*
X158929999Y-105929364D01*
X158716507Y-105986569D01*
X158502421Y-106086400D01*
X158308921Y-106221890D01*
X158141893Y-106388918D01*
X158011575Y-106575032D01*
X157967257Y-106613897D01*
X157910000Y-106627908D01*
X157852743Y-106613897D01*
X157808425Y-106575032D01*
X157678106Y-106388918D01*
X157511081Y-106221893D01*
X157317576Y-106086399D01*
X157103492Y-105986569D01*
X156890000Y-105929364D01*
X156890000Y-107010000D01*
X156390000Y-107010000D01*
X156390000Y-105929364D01*
X156389999Y-105929364D01*
X156176507Y-105986569D01*
X155962421Y-106086400D01*
X155768921Y-106221890D01*
X155601893Y-106388918D01*
X155471575Y-106575032D01*
X155427257Y-106613897D01*
X155370000Y-106627908D01*
X155312743Y-106613897D01*
X155268425Y-106575032D01*
X155138106Y-106388918D01*
X154971081Y-106221893D01*
X154777576Y-106086399D01*
X154768222Y-106082037D01*
X154722251Y-106045141D01*
X154698511Y-105991187D01*
X154702366Y-105932367D01*
X154732944Y-105881976D01*
X154966101Y-105648819D01*
X155006330Y-105621939D01*
X155053783Y-105612500D01*
X162973721Y-105612500D01*
X162976862Y-105612539D01*
X163064363Y-105614757D01*
X163122432Y-105604348D01*
X163131736Y-105603043D01*
X163190438Y-105597074D01*
X163219467Y-105587965D01*
X163234700Y-105584226D01*
X163264653Y-105578858D01*
X163319426Y-105556978D01*
X163328301Y-105553819D01*
X163345675Y-105548367D01*
X163384588Y-105536159D01*
X163411194Y-105521390D01*
X163425362Y-105514662D01*
X163453617Y-105503377D01*
X163502879Y-105470909D01*
X163510910Y-105466043D01*
X163562502Y-105437409D01*
X163585587Y-105417589D01*
X163598114Y-105408144D01*
X163623519Y-105391402D01*
X163665236Y-105349682D01*
X163672136Y-105343289D01*
X163716895Y-105304866D01*
X163730953Y-105286702D01*
X163743573Y-105272734D01*
X163780053Y-105238059D01*
X163813759Y-105189630D01*
X163819428Y-105182113D01*
X163856698Y-105136407D01*
X163870783Y-105109439D01*
X163878918Y-105096015D01*
X163890704Y-105079081D01*
X163896295Y-105071049D01*
X163919568Y-105016815D01*
X163923588Y-105008350D01*
X163950909Y-104956049D01*
X163959275Y-104926808D01*
X163964539Y-104912019D01*
X163976540Y-104884058D01*
X163988417Y-104826256D01*
X163990652Y-104817148D01*
X164006886Y-104760418D01*
X164009196Y-104730078D01*
X164011376Y-104714540D01*
X164017500Y-104684742D01*
X164017500Y-104625756D01*
X164017858Y-104616341D01*
X164018629Y-104606218D01*
X164022337Y-104557524D01*
X164018494Y-104527348D01*
X164017500Y-104511683D01*
X164017500Y-100963859D01*
X164026939Y-100916407D01*
X164053816Y-100876180D01*
X164204965Y-100725030D01*
X164207137Y-100722914D01*
X164220669Y-100710051D01*
X164270591Y-100662597D01*
X164271601Y-100661145D01*
X164285689Y-100644306D01*
X164935963Y-99994032D01*
X164986011Y-99963563D01*
X165044463Y-99959476D01*
X165098267Y-99982684D01*
G37*
%TD.AperFunction*%
%TA.AperFunction,Conductor*%
G36*
X110468644Y-69311126D02*
G01*
X110508872Y-69338006D01*
X123563181Y-82392315D01*
X123590061Y-82432543D01*
X123599500Y-82479996D01*
X123599500Y-91124124D01*
X123599184Y-91132970D01*
X123594389Y-91199999D01*
X123599184Y-91267030D01*
X123599500Y-91275876D01*
X123599500Y-92843081D01*
X123609062Y-92909594D01*
X123610008Y-92918390D01*
X123614804Y-92985429D01*
X123629089Y-93051096D01*
X123630661Y-93059806D01*
X123640225Y-93126326D01*
X123659154Y-93190792D01*
X123661343Y-93199367D01*
X123675630Y-93265045D01*
X123699118Y-93328018D01*
X123701909Y-93336405D01*
X123720844Y-93400888D01*
X123740178Y-93443224D01*
X123748760Y-93462017D01*
X123752145Y-93470190D01*
X123775632Y-93533159D01*
X123807840Y-93592144D01*
X123811801Y-93600058D01*
X123814937Y-93606924D01*
X123839718Y-93661187D01*
X123854628Y-93684387D01*
X123876054Y-93717727D01*
X123880570Y-93725339D01*
X123912774Y-93784317D01*
X123953039Y-93838103D01*
X123958084Y-93845367D01*
X123994426Y-93901917D01*
X124038434Y-93952705D01*
X124043987Y-93959596D01*
X124084262Y-94013396D01*
X124613181Y-94542315D01*
X124640061Y-94582543D01*
X124649500Y-94629996D01*
X124649500Y-100157548D01*
X124636384Y-100213053D01*
X124599810Y-100256815D01*
X124547516Y-100279578D01*
X124490565Y-100276525D01*
X124442494Y-100262409D01*
X124434107Y-100259618D01*
X124371134Y-100236130D01*
X124305456Y-100221843D01*
X124296881Y-100219654D01*
X124232415Y-100200725D01*
X124165895Y-100191161D01*
X124157185Y-100189589D01*
X124091518Y-100175304D01*
X124024479Y-100170508D01*
X124015683Y-100169562D01*
X123949170Y-100160000D01*
X123949168Y-100160000D01*
X123877537Y-100160000D01*
X121826097Y-100160000D01*
X121767883Y-100145486D01*
X121723296Y-100105340D01*
X121702776Y-100048962D01*
X121696893Y-99992993D01*
X121685674Y-99886244D01*
X121651326Y-99780532D01*
X121627179Y-99706215D01*
X121532533Y-99542283D01*
X121405870Y-99401610D01*
X121252730Y-99290348D01*
X121079802Y-99213355D01*
X120894648Y-99174000D01*
X120894646Y-99174000D01*
X120838835Y-99174000D01*
X120782015Y-99160216D01*
X120737828Y-99121927D01*
X120716097Y-99067647D01*
X120715267Y-99061873D01*
X120709775Y-99023677D01*
X120690843Y-98959202D01*
X120688656Y-98950630D01*
X120674370Y-98884958D01*
X120669314Y-98871402D01*
X120650874Y-98821963D01*
X120648090Y-98813597D01*
X120629156Y-98749111D01*
X120621384Y-98732094D01*
X120601235Y-98687975D01*
X120597855Y-98679817D01*
X120576854Y-98623507D01*
X120574368Y-98616840D01*
X120562115Y-98594401D01*
X120542150Y-98557839D01*
X120538205Y-98549956D01*
X120510282Y-98488813D01*
X120499497Y-98472032D01*
X120473946Y-98432273D01*
X120469429Y-98424660D01*
X120437227Y-98365686D01*
X120396948Y-98311880D01*
X120391899Y-98304607D01*
X120355575Y-98248084D01*
X120311564Y-98197293D01*
X120306010Y-98190401D01*
X120265739Y-98136605D01*
X120063395Y-97934261D01*
X114136819Y-92007685D01*
X114109939Y-91967457D01*
X114100500Y-91920004D01*
X114100500Y-88481566D01*
X114116688Y-88420307D01*
X114161026Y-88375043D01*
X114221937Y-88357592D01*
X114283517Y-88372511D01*
X114288196Y-88375043D01*
X114295190Y-88378828D01*
X114530386Y-88459571D01*
X114775665Y-88500500D01*
X115024335Y-88500500D01*
X115269614Y-88459571D01*
X115504810Y-88378828D01*
X115723509Y-88260474D01*
X115919744Y-88107738D01*
X116088164Y-87924785D01*
X116224173Y-87716607D01*
X116324063Y-87488881D01*
X116385108Y-87247821D01*
X116405643Y-87000000D01*
X116385108Y-86752179D01*
X116324063Y-86511119D01*
X116224173Y-86283393D01*
X116088164Y-86075215D01*
X115919744Y-85892262D01*
X115827790Y-85820691D01*
X115723514Y-85739529D01*
X115723510Y-85739526D01*
X115723509Y-85739526D01*
X115504810Y-85621172D01*
X115504806Y-85621170D01*
X115504805Y-85621170D01*
X115269615Y-85540429D01*
X115024335Y-85499500D01*
X114775665Y-85499500D01*
X114530384Y-85540429D01*
X114295190Y-85621171D01*
X114283517Y-85627489D01*
X114221937Y-85642408D01*
X114161026Y-85624957D01*
X114116688Y-85579693D01*
X114100500Y-85518434D01*
X114100500Y-81600000D01*
X114894356Y-81600000D01*
X114914891Y-81847816D01*
X114914891Y-81847819D01*
X114914892Y-81847821D01*
X114975937Y-82088881D01*
X114997111Y-82137152D01*
X115075825Y-82316604D01*
X115075827Y-82316607D01*
X115211836Y-82524785D01*
X115380256Y-82707738D01*
X115380259Y-82707740D01*
X115576485Y-82860470D01*
X115576487Y-82860471D01*
X115576491Y-82860474D01*
X115795190Y-82978828D01*
X116030386Y-83059571D01*
X116275665Y-83100500D01*
X116524335Y-83100500D01*
X116769614Y-83059571D01*
X117004810Y-82978828D01*
X117223509Y-82860474D01*
X117419744Y-82707738D01*
X117588164Y-82524785D01*
X117724173Y-82316607D01*
X117824063Y-82088881D01*
X117885108Y-81847821D01*
X117905643Y-81600000D01*
X117885108Y-81352179D01*
X117824063Y-81111119D01*
X117724173Y-80883393D01*
X117588164Y-80675215D01*
X117419744Y-80492262D01*
X117334566Y-80425965D01*
X117223514Y-80339529D01*
X117223510Y-80339526D01*
X117223509Y-80339526D01*
X117004810Y-80221172D01*
X117004806Y-80221170D01*
X117004805Y-80221170D01*
X116769615Y-80140429D01*
X116524335Y-80099500D01*
X116275665Y-80099500D01*
X116030384Y-80140429D01*
X115795194Y-80221170D01*
X115795190Y-80221171D01*
X115795190Y-80221172D01*
X115714321Y-80264936D01*
X115576485Y-80339529D01*
X115380259Y-80492259D01*
X115380256Y-80492261D01*
X115380256Y-80492262D01*
X115211836Y-80675215D01*
X115176959Y-80728598D01*
X115075825Y-80883395D01*
X114999581Y-81057216D01*
X114975937Y-81111119D01*
X114923913Y-81316555D01*
X114914891Y-81352183D01*
X114894356Y-81600000D01*
X114100500Y-81600000D01*
X114100500Y-78308900D01*
X114100186Y-78306714D01*
X114090931Y-78242351D01*
X114089991Y-78233596D01*
X114085196Y-78166548D01*
X114070908Y-78100867D01*
X114069338Y-78092166D01*
X114059775Y-78025653D01*
X114040843Y-77961178D01*
X114038656Y-77952606D01*
X114024370Y-77886934D01*
X114024369Y-77886930D01*
X114000874Y-77823939D01*
X113998090Y-77815573D01*
X113979156Y-77751087D01*
X113951232Y-77689944D01*
X113947855Y-77681793D01*
X113932990Y-77641936D01*
X113924368Y-77618816D01*
X113907492Y-77587911D01*
X113892150Y-77559815D01*
X113888205Y-77551932D01*
X113860282Y-77490789D01*
X113845724Y-77468137D01*
X113823946Y-77434249D01*
X113819429Y-77426636D01*
X113787227Y-77367662D01*
X113746948Y-77313856D01*
X113741899Y-77306583D01*
X113705575Y-77250060D01*
X113661564Y-77199269D01*
X113656010Y-77192377D01*
X113615739Y-77138581D01*
X113413395Y-76936237D01*
X105990526Y-69513368D01*
X105960276Y-69464005D01*
X105955734Y-69406289D01*
X105977889Y-69352802D01*
X106021912Y-69315202D01*
X106078207Y-69301687D01*
X110421191Y-69301687D01*
X110468644Y-69311126D01*
G37*
%TD.AperFunction*%
%TA.AperFunction,Conductor*%
G36*
X165803541Y-89017528D02*
G01*
X165842431Y-89074754D01*
X165872820Y-89168284D01*
X165967466Y-89332216D01*
X166094129Y-89472889D01*
X166247269Y-89584151D01*
X166420197Y-89661144D01*
X166605352Y-89700500D01*
X166605354Y-89700500D01*
X166794645Y-89700500D01*
X166794646Y-89700500D01*
X166837804Y-89691326D01*
X166901902Y-89694685D01*
X166955734Y-89729642D01*
X166994906Y-89773147D01*
X166998650Y-89775867D01*
X167148046Y-89884410D01*
X167320974Y-89961403D01*
X167442127Y-89987155D01*
X167500518Y-90017389D01*
X167535241Y-90073227D01*
X167536532Y-90138968D01*
X167504028Y-90196126D01*
X167152646Y-90547507D01*
X167150399Y-90549698D01*
X167086948Y-90610014D01*
X167053244Y-90658437D01*
X167047573Y-90665957D01*
X167010301Y-90711668D01*
X166996210Y-90738641D01*
X166988082Y-90752058D01*
X166970705Y-90777025D01*
X166947439Y-90831240D01*
X166943399Y-90839746D01*
X166916090Y-90892027D01*
X166907720Y-90921276D01*
X166902459Y-90936053D01*
X166890460Y-90964017D01*
X166878587Y-91021788D01*
X166876342Y-91030935D01*
X166860113Y-91087655D01*
X166857802Y-91118000D01*
X166855622Y-91133541D01*
X166849500Y-91163334D01*
X166849500Y-91222317D01*
X166849141Y-91231731D01*
X166845781Y-91275876D01*
X166844663Y-91290552D01*
X166848506Y-91320726D01*
X166849500Y-91336392D01*
X166849500Y-95199292D01*
X166840061Y-95246745D01*
X166813181Y-95286973D01*
X165815681Y-96284472D01*
X165764521Y-96315291D01*
X165704888Y-96318618D01*
X165650617Y-96293682D01*
X165614299Y-96246268D01*
X165604358Y-96187376D01*
X165605337Y-96174524D01*
X165601684Y-96145841D01*
X165601494Y-96144348D01*
X165600500Y-96128683D01*
X165600500Y-89113072D01*
X165619803Y-89046629D01*
X165671703Y-89000873D01*
X165740041Y-88990050D01*
X165803541Y-89017528D01*
G37*
%TD.AperFunction*%
%TA.AperFunction,Conductor*%
G36*
X163548385Y-87835785D02*
G01*
X163585985Y-87879808D01*
X163599500Y-87936103D01*
X163599500Y-95832558D01*
X163585409Y-95889968D01*
X163566091Y-95926951D01*
X163557720Y-95956201D01*
X163552459Y-95970978D01*
X163540460Y-95998942D01*
X163528587Y-96056713D01*
X163526342Y-96065860D01*
X163518951Y-96091692D01*
X163486300Y-96146366D01*
X163430817Y-96177623D01*
X163367136Y-96177220D01*
X163312054Y-96145263D01*
X162362319Y-95195528D01*
X162335439Y-95155300D01*
X162326000Y-95107847D01*
X162326000Y-92249260D01*
X162325279Y-92242170D01*
X162310574Y-92097562D01*
X162249659Y-91903412D01*
X162150909Y-91725498D01*
X162018366Y-91571105D01*
X161869066Y-91455537D01*
X161857457Y-91446551D01*
X161674772Y-91356940D01*
X161609109Y-91339939D01*
X161477785Y-91305937D01*
X161457170Y-91304891D01*
X161274562Y-91295630D01*
X161073430Y-91326443D01*
X161066725Y-91328927D01*
X161007992Y-91335654D01*
X160952820Y-91314423D01*
X160913748Y-91270059D01*
X160899656Y-91212647D01*
X160899656Y-90387947D01*
X160909095Y-90340494D01*
X160935975Y-90300266D01*
X163387819Y-87848422D01*
X163437182Y-87818172D01*
X163494898Y-87813630D01*
X163548385Y-87835785D01*
G37*
%TD.AperFunction*%
%TA.AperFunction,Conductor*%
G36*
X174649548Y-67043650D02*
G01*
X174686310Y-67087462D01*
X174699500Y-67143113D01*
X174699500Y-71163577D01*
X174699028Y-71174386D01*
X174695685Y-71212580D01*
X174699448Y-71341871D01*
X174699500Y-71345478D01*
X174699500Y-71387312D01*
X174701930Y-71429051D01*
X174702087Y-71432649D01*
X174705851Y-71561949D01*
X174711410Y-71599899D01*
X174712509Y-71610658D01*
X174714738Y-71648929D01*
X174737185Y-71776238D01*
X174737760Y-71779796D01*
X174747265Y-71844684D01*
X174756508Y-71907782D01*
X174762085Y-71928598D01*
X174766431Y-71944817D01*
X174768770Y-71955372D01*
X174775429Y-71993130D01*
X174812514Y-72117006D01*
X174813497Y-72120474D01*
X174846968Y-72245386D01*
X174861124Y-72281017D01*
X174864675Y-72291234D01*
X174875673Y-72327970D01*
X174926897Y-72446722D01*
X174928277Y-72450053D01*
X174976015Y-72570216D01*
X174994210Y-72603961D01*
X174998923Y-72613696D01*
X175014110Y-72648902D01*
X175078762Y-72760883D01*
X175080511Y-72764016D01*
X175141896Y-72877861D01*
X175162201Y-72906859D01*
X175163884Y-72909263D01*
X175169696Y-72918386D01*
X175188869Y-72951595D01*
X175266102Y-73055336D01*
X175268214Y-73058261D01*
X175342373Y-73164172D01*
X175367853Y-73192804D01*
X175374684Y-73201188D01*
X175397590Y-73231956D01*
X175486344Y-73326030D01*
X175488763Y-73328669D01*
X175497108Y-73338046D01*
X175516596Y-73359944D01*
X175546184Y-73389532D01*
X175548697Y-73392119D01*
X175637441Y-73486182D01*
X175666814Y-73510829D01*
X175674789Y-73518137D01*
X176963181Y-74806529D01*
X176990061Y-74846757D01*
X176999500Y-74894210D01*
X176999500Y-86919142D01*
X176990061Y-86966595D01*
X176963181Y-87006823D01*
X173016028Y-90953974D01*
X172966665Y-90984224D01*
X172908949Y-90988766D01*
X172855462Y-90966611D01*
X172708230Y-90859641D01*
X172535302Y-90782648D01*
X172350148Y-90743293D01*
X172350146Y-90743293D01*
X172160854Y-90743293D01*
X172160852Y-90743293D01*
X171975699Y-90782647D01*
X171847683Y-90839644D01*
X171786871Y-90849929D01*
X171728626Y-90829645D01*
X171687358Y-90783811D01*
X171673275Y-90723764D01*
X171689863Y-90664361D01*
X171693283Y-90658437D01*
X171695554Y-90654504D01*
X171754049Y-90474476D01*
X171762762Y-90391571D01*
X171785765Y-90331649D01*
X171835651Y-90291255D01*
X171852730Y-90283651D01*
X171968454Y-90199573D01*
X172005870Y-90172389D01*
X172041090Y-90133274D01*
X172132533Y-90031716D01*
X172227179Y-89867784D01*
X172285674Y-89687756D01*
X172305460Y-89499500D01*
X172285674Y-89311244D01*
X172227179Y-89131216D01*
X172227179Y-89131215D01*
X172132533Y-88967283D01*
X172005870Y-88826610D01*
X171852730Y-88715348D01*
X171679802Y-88638355D01*
X171494648Y-88599000D01*
X171494646Y-88599000D01*
X171305354Y-88599000D01*
X171305352Y-88599000D01*
X171120196Y-88638355D01*
X171111983Y-88642012D01*
X171044719Y-88651583D01*
X170982509Y-88624273D01*
X170944027Y-88568280D01*
X170940828Y-88500414D01*
X170973867Y-88441053D01*
X171043341Y-88371580D01*
X171139698Y-88253407D01*
X171224149Y-88091732D01*
X171268687Y-88043775D01*
X171331438Y-88025173D01*
X171394919Y-88041109D01*
X171441444Y-88087144D01*
X171467467Y-88132217D01*
X171594129Y-88272889D01*
X171747269Y-88384151D01*
X171920197Y-88461144D01*
X172105352Y-88500500D01*
X172105354Y-88500500D01*
X172294646Y-88500500D01*
X172294648Y-88500500D01*
X172438825Y-88469854D01*
X172479803Y-88461144D01*
X172652730Y-88384151D01*
X172688633Y-88358066D01*
X172805870Y-88272889D01*
X172810468Y-88267783D01*
X172932533Y-88132216D01*
X173027179Y-87968284D01*
X173085674Y-87788256D01*
X173105460Y-87600000D01*
X173085674Y-87411744D01*
X173051547Y-87306713D01*
X173027179Y-87231715D01*
X172932533Y-87067783D01*
X172805870Y-86927110D01*
X172652730Y-86815848D01*
X172479802Y-86738855D01*
X172294648Y-86699500D01*
X172294646Y-86699500D01*
X172105354Y-86699500D01*
X172105352Y-86699500D01*
X171920197Y-86738855D01*
X171747269Y-86815848D01*
X171594129Y-86927110D01*
X171467466Y-87067784D01*
X171386326Y-87208323D01*
X171341165Y-87253579D01*
X171279462Y-87270322D01*
X171217620Y-87254101D01*
X171172080Y-87209228D01*
X171110591Y-87104773D01*
X170974179Y-86953786D01*
X170974175Y-86953783D01*
X170965725Y-86944430D01*
X170968463Y-86941956D01*
X170943407Y-86910781D01*
X170933489Y-86847666D01*
X170950919Y-86681835D01*
X170931133Y-86493579D01*
X170880246Y-86336965D01*
X170872638Y-86313550D01*
X170777992Y-86149618D01*
X170651329Y-86008945D01*
X170498189Y-85897683D01*
X170325261Y-85820690D01*
X170140107Y-85781335D01*
X170140105Y-85781335D01*
X169950813Y-85781335D01*
X169950811Y-85781335D01*
X169765656Y-85820690D01*
X169592728Y-85897683D01*
X169439588Y-86008945D01*
X169312925Y-86149618D01*
X169218279Y-86313550D01*
X169159785Y-86493577D01*
X169139999Y-86681835D01*
X169159785Y-86870092D01*
X169218279Y-87050119D01*
X169286618Y-87168485D01*
X169302759Y-87219678D01*
X169295753Y-87272896D01*
X169266912Y-87318166D01*
X168253188Y-88331890D01*
X168203825Y-88362140D01*
X168146109Y-88366682D01*
X168092624Y-88344528D01*
X168053507Y-88316108D01*
X168053506Y-88316107D01*
X168053504Y-88316106D01*
X167880579Y-88239114D01*
X167695425Y-88199759D01*
X167695423Y-88199759D01*
X167506131Y-88199759D01*
X167506128Y-88199759D01*
X167462971Y-88208932D01*
X167398873Y-88205573D01*
X167345041Y-88170614D01*
X167305870Y-88127110D01*
X167152730Y-88015848D01*
X166979802Y-87938855D01*
X166794648Y-87899500D01*
X166794646Y-87899500D01*
X166605354Y-87899500D01*
X166605352Y-87899500D01*
X166420197Y-87938855D01*
X166247269Y-88015848D01*
X166094129Y-88127110D01*
X165967466Y-88267783D01*
X165872820Y-88431715D01*
X165842431Y-88525246D01*
X165803541Y-88582472D01*
X165740041Y-88609950D01*
X165671703Y-88599127D01*
X165619803Y-88553371D01*
X165600500Y-88486928D01*
X165600500Y-85265783D01*
X165609939Y-85218330D01*
X165636819Y-85178102D01*
X165683061Y-85131860D01*
X165743340Y-85071581D01*
X165839697Y-84953408D01*
X165933909Y-84773049D01*
X165989886Y-84577418D01*
X166005337Y-84374524D01*
X165979630Y-84172673D01*
X165913816Y-83980128D01*
X165810590Y-83804773D01*
X165674179Y-83653787D01*
X165674178Y-83653786D01*
X165674176Y-83653784D01*
X165510166Y-83533350D01*
X165325268Y-83448394D01*
X165127054Y-83402397D01*
X164923637Y-83397243D01*
X164723347Y-83433141D01*
X164570498Y-83494197D01*
X164511174Y-83502326D01*
X164454958Y-83481708D01*
X164414957Y-83437151D01*
X164400500Y-83379044D01*
X164400500Y-81599999D01*
X173444340Y-81599999D01*
X173464936Y-81835407D01*
X173495345Y-81948895D01*
X173526097Y-82063663D01*
X173625965Y-82277830D01*
X173761505Y-82471401D01*
X173928599Y-82638495D01*
X174122170Y-82774035D01*
X174336337Y-82873903D01*
X174564592Y-82935063D01*
X174800000Y-82955659D01*
X175035408Y-82935063D01*
X175263663Y-82873903D01*
X175477830Y-82774035D01*
X175671401Y-82638495D01*
X175838495Y-82471401D01*
X175974035Y-82277830D01*
X176073903Y-82063663D01*
X176135063Y-81835408D01*
X176155659Y-81600000D01*
X176150309Y-81538856D01*
X176135063Y-81364592D01*
X176113553Y-81284315D01*
X176073903Y-81136337D01*
X175974035Y-80922171D01*
X175838495Y-80728599D01*
X175671401Y-80561505D01*
X175477830Y-80425965D01*
X175263663Y-80326097D01*
X175202502Y-80309709D01*
X175035407Y-80264936D01*
X174800000Y-80244340D01*
X174564592Y-80264936D01*
X174336336Y-80326097D01*
X174122170Y-80425965D01*
X173928598Y-80561505D01*
X173761505Y-80728598D01*
X173625965Y-80922170D01*
X173526097Y-81136336D01*
X173464936Y-81364592D01*
X173444340Y-81599999D01*
X164400500Y-81599999D01*
X164400500Y-80911940D01*
X164415786Y-80852297D01*
X164457875Y-80807359D01*
X164516390Y-80788205D01*
X164576903Y-80799557D01*
X164736337Y-80873903D01*
X164964592Y-80935063D01*
X165200000Y-80955659D01*
X165435408Y-80935063D01*
X165663663Y-80873903D01*
X165877830Y-80774035D01*
X166071401Y-80638495D01*
X166238495Y-80471401D01*
X166374035Y-80277830D01*
X166473903Y-80063663D01*
X166535063Y-79835408D01*
X166555659Y-79600000D01*
X166553515Y-79575500D01*
X166535063Y-79364592D01*
X166524886Y-79326610D01*
X166473903Y-79136337D01*
X166374035Y-78922171D01*
X166238495Y-78728599D01*
X166071401Y-78561505D01*
X165877830Y-78425965D01*
X165663663Y-78326097D01*
X165591324Y-78306714D01*
X165435407Y-78264936D01*
X165200000Y-78244340D01*
X164964592Y-78264936D01*
X164736336Y-78326097D01*
X164576905Y-78400442D01*
X164516390Y-78411795D01*
X164457875Y-78392641D01*
X164415786Y-78347703D01*
X164400500Y-78288060D01*
X164400500Y-72941226D01*
X164400561Y-72937331D01*
X164401156Y-72918386D01*
X164404207Y-72821302D01*
X164393279Y-72705701D01*
X164392976Y-72701836D01*
X164390005Y-72654609D01*
X164385688Y-72585985D01*
X164379400Y-72553026D01*
X164377755Y-72541466D01*
X164374598Y-72508062D01*
X164349274Y-72394770D01*
X164348483Y-72390953D01*
X164338065Y-72336337D01*
X164326731Y-72276921D01*
X164316360Y-72245005D01*
X164313278Y-72233736D01*
X164305963Y-72201008D01*
X164305962Y-72201004D01*
X164266613Y-72091709D01*
X164265388Y-72088129D01*
X164229503Y-71977685D01*
X164215216Y-71947325D01*
X164210749Y-71936540D01*
X164207889Y-71928595D01*
X164199383Y-71904968D01*
X164146661Y-71801496D01*
X164144963Y-71798029D01*
X164127957Y-71761890D01*
X164095537Y-71692993D01*
X164077558Y-71664663D01*
X164071772Y-71654519D01*
X164068923Y-71648927D01*
X164056541Y-71624625D01*
X163991282Y-71528599D01*
X163989150Y-71525354D01*
X163976312Y-71505125D01*
X163926947Y-71427337D01*
X163915762Y-71413817D01*
X163905563Y-71401488D01*
X163898548Y-71392145D01*
X163879691Y-71364398D01*
X163879689Y-71364395D01*
X163802887Y-71277281D01*
X163800398Y-71274366D01*
X163726390Y-71184906D01*
X163641758Y-71105431D01*
X163638961Y-71102720D01*
X162512562Y-69976320D01*
X162430887Y-69904314D01*
X162335605Y-69820311D01*
X162317309Y-69807877D01*
X162198388Y-69727058D01*
X162157250Y-69680100D01*
X162144206Y-69619048D01*
X162162563Y-69559378D01*
X162207667Y-69516215D01*
X162268086Y-69500500D01*
X164963577Y-69500500D01*
X164974383Y-69500971D01*
X164982282Y-69501662D01*
X165012580Y-69504314D01*
X165012583Y-69504313D01*
X165012584Y-69504314D01*
X165141870Y-69500552D01*
X165145478Y-69500500D01*
X165187307Y-69500500D01*
X165199026Y-69499817D01*
X165229074Y-69498067D01*
X165232642Y-69497910D01*
X165361954Y-69494148D01*
X165399898Y-69488589D01*
X165410653Y-69487490D01*
X165448927Y-69485262D01*
X165576296Y-69462802D01*
X165579770Y-69462242D01*
X165707782Y-69443492D01*
X165744836Y-69433563D01*
X165755358Y-69431230D01*
X165793136Y-69424569D01*
X165917050Y-69387471D01*
X165920465Y-69386502D01*
X166045391Y-69353029D01*
X166081028Y-69338870D01*
X166091224Y-69335326D01*
X166127971Y-69324326D01*
X166246732Y-69273097D01*
X166250040Y-69271726D01*
X166370215Y-69223985D01*
X166403965Y-69205786D01*
X166413690Y-69201078D01*
X166448904Y-69185889D01*
X166560910Y-69121221D01*
X166564047Y-69119471D01*
X166677861Y-69058104D01*
X166677861Y-69058103D01*
X166709272Y-69036108D01*
X166718369Y-69030312D01*
X166751596Y-69011130D01*
X166855370Y-68933871D01*
X166858214Y-68931817D01*
X166964170Y-68857628D01*
X166992814Y-68832136D01*
X167001194Y-68825311D01*
X167031946Y-68802417D01*
X167031953Y-68802412D01*
X167126083Y-68713604D01*
X167128620Y-68711279D01*
X167159940Y-68683408D01*
X167189565Y-68653781D01*
X167192120Y-68651301D01*
X167286179Y-68562562D01*
X167286179Y-68562560D01*
X167286183Y-68562558D01*
X167310841Y-68533170D01*
X167318127Y-68525219D01*
X167906528Y-67936819D01*
X167946757Y-67909939D01*
X167994210Y-67900500D01*
X172487308Y-67900500D01*
X172526221Y-67898233D01*
X172748927Y-67885262D01*
X173093136Y-67824569D01*
X173427971Y-67724326D01*
X173748904Y-67585889D01*
X174051596Y-67411130D01*
X174331953Y-67202412D01*
X174490406Y-67052918D01*
X174539936Y-67024322D01*
X174597032Y-67020997D01*
X174649548Y-67043650D01*
G37*
%TD.AperFunction*%
%TA.AperFunction,Conductor*%
G36*
X105362818Y-74563041D02*
G01*
X105412181Y-74593291D01*
X108806709Y-77987819D01*
X108836959Y-78037182D01*
X108841501Y-78094898D01*
X108819346Y-78148385D01*
X108775323Y-78185985D01*
X108719028Y-78199500D01*
X107528551Y-78199500D01*
X107314570Y-78214804D01*
X107034958Y-78275629D01*
X106899650Y-78326097D01*
X106766839Y-78375633D01*
X106766836Y-78375634D01*
X106766832Y-78375636D01*
X106522388Y-78509112D01*
X106470483Y-78524052D01*
X106417150Y-78515507D01*
X106372509Y-78485099D01*
X106345031Y-78438599D01*
X106323480Y-78372275D01*
X106302179Y-78306716D01*
X106278058Y-78264937D01*
X106207533Y-78142783D01*
X106080870Y-78002110D01*
X105927730Y-77890848D01*
X105754802Y-77813855D01*
X105569648Y-77774500D01*
X105569646Y-77774500D01*
X105380354Y-77774500D01*
X105380352Y-77774500D01*
X105195197Y-77813855D01*
X105022269Y-77890848D01*
X104869132Y-78002109D01*
X104869129Y-78002111D01*
X104869129Y-78002112D01*
X104847933Y-78025653D01*
X104796883Y-78082349D01*
X104740987Y-78117958D01*
X104674734Y-78119693D01*
X104617052Y-78087057D01*
X104117906Y-77587911D01*
X104085812Y-77532324D01*
X104085812Y-77468137D01*
X104117906Y-77412549D01*
X104391877Y-77138578D01*
X104689701Y-76840753D01*
X104701203Y-76830595D01*
X104719744Y-76816166D01*
X104781235Y-76749367D01*
X104784713Y-76745742D01*
X104804902Y-76725554D01*
X104823318Y-76703808D01*
X104826669Y-76700012D01*
X104888164Y-76633213D01*
X104901006Y-76613554D01*
X104910188Y-76601241D01*
X104925366Y-76583322D01*
X104971848Y-76505312D01*
X104974505Y-76501055D01*
X105024173Y-76425035D01*
X105033607Y-76403527D01*
X105040631Y-76389880D01*
X105052656Y-76369701D01*
X105085667Y-76285097D01*
X105087587Y-76280462D01*
X105117880Y-76211404D01*
X105124062Y-76197312D01*
X105124063Y-76197309D01*
X105129827Y-76174545D01*
X105134515Y-76159912D01*
X105135428Y-76157571D01*
X105143049Y-76138042D01*
X105161680Y-76049182D01*
X105162818Y-76044266D01*
X105185108Y-75956249D01*
X105187047Y-75932841D01*
X105189264Y-75917635D01*
X105194081Y-75894665D01*
X105197831Y-75803978D01*
X105198149Y-75798856D01*
X105199326Y-75784664D01*
X105200500Y-75770495D01*
X105200500Y-75742024D01*
X105200606Y-75736899D01*
X105204357Y-75646208D01*
X105201452Y-75622901D01*
X105200500Y-75607563D01*
X105200500Y-74680972D01*
X105214015Y-74624677D01*
X105251615Y-74580654D01*
X105305102Y-74558499D01*
X105362818Y-74563041D01*
G37*
%TD.AperFunction*%
%TD*%
M02*
