%TF.GenerationSoftware,KiCad,Pcbnew,7.0.1*%
%TF.CreationDate,2024-06-21T04:11:25+03:00*%
%TF.ProjectId,_____ GDI,1f3b3042-3020-4474-9449-2e6b69636164,rev?*%
%TF.SameCoordinates,Original*%
%TF.FileFunction,Legend,Bot*%
%TF.FilePolarity,Positive*%
%FSLAX46Y46*%
G04 Gerber Fmt 4.6, Leading zero omitted, Abs format (unit mm)*
G04 Created by KiCad (PCBNEW 7.0.1) date 2024-06-21 04:11:25*
%MOMM*%
%LPD*%
G01*
G04 APERTURE LIST*
%ADD10C,0.120000*%
%ADD11C,0.099060*%
G04 APERTURE END LIST*
D10*
%TO.C,P2*%
X173470000Y-80270000D02*
X176130000Y-80270000D01*
X176130000Y-80564462D02*
X176130000Y-80270000D01*
X173470000Y-80575627D02*
X173470000Y-80270000D01*
X176130000Y-82624373D02*
X176130000Y-82930000D01*
X173470000Y-82635538D02*
X173470000Y-82930000D01*
X176130000Y-82930000D02*
X173470000Y-82930000D01*
D11*
%TO.C,R115*%
X158126001Y-100400000D02*
X159142001Y-100400000D01*
X159142001Y-98800000D02*
X158126001Y-98800000D01*
X160158001Y-100400000D02*
X161174001Y-100400000D01*
X161174001Y-98800000D02*
X160158001Y-98800000D01*
D10*
X158075001Y-98800001D02*
G75*
G03*
X158071001Y-100401637I-330000J-799999D01*
G01*
X161233603Y-100403494D02*
G75*
G03*
X161225001Y-98800000I321398J803494D01*
G01*
D11*
%TO.C,R114*%
X158126001Y-98600000D02*
X159142001Y-98600000D01*
X159142001Y-97000000D02*
X158126001Y-97000000D01*
X160158001Y-98600000D02*
X161174001Y-98600000D01*
X161174001Y-97000000D02*
X160158001Y-97000000D01*
D10*
X158075001Y-97000001D02*
G75*
G03*
X158071001Y-98601637I-330000J-799999D01*
G01*
X161233603Y-98603494D02*
G75*
G03*
X161225001Y-97000000I321398J803494D01*
G01*
%TO.C,P1*%
X166530000Y-78270000D02*
X166530000Y-80930000D01*
X166235538Y-80930000D02*
X166530000Y-80930000D01*
X166224373Y-78270000D02*
X166530000Y-78270000D01*
X164175627Y-80930000D02*
X163870000Y-80930000D01*
X164164462Y-78270000D02*
X163870000Y-78270000D01*
X163870000Y-80930000D02*
X163870000Y-78270000D01*
D11*
%TO.C,R113*%
X158176000Y-102200000D02*
X159192000Y-102200000D01*
X159192000Y-100600000D02*
X158176000Y-100600000D01*
X160208000Y-102200000D02*
X161224000Y-102200000D01*
X161224000Y-100600000D02*
X160208000Y-100600000D01*
D10*
X158125000Y-100600001D02*
G75*
G03*
X158121000Y-102201637I-330000J-799999D01*
G01*
X161283602Y-102203494D02*
G75*
G03*
X161275000Y-100600000I321398J803494D01*
G01*
D11*
%TO.C,R112*%
X158171000Y-104000000D02*
X159187000Y-104000000D01*
X159187000Y-102400000D02*
X158171000Y-102400000D01*
X160203000Y-104000000D02*
X161219000Y-104000000D01*
X161219000Y-102400000D02*
X160203000Y-102400000D01*
D10*
X158120000Y-102400001D02*
G75*
G03*
X158116000Y-104001637I-330000J-799999D01*
G01*
X161278602Y-104003494D02*
G75*
G03*
X161270000Y-102400000I321398J803494D01*
G01*
%TO.C,C97*%
X126820000Y-124250000D02*
G75*
G03*
X126820000Y-124250000I-8120000J0D01*
G01*
%TO.C,C88*%
X178120000Y-124250000D02*
G75*
G03*
X178120000Y-124250000I-8120000J0D01*
G01*
%TO.C,C81*%
X160920000Y-124200000D02*
G75*
G03*
X160920000Y-124200000I-8120000J0D01*
G01*
%TO.C,J2*%
X157250000Y-71470000D02*
X157250000Y-76670000D01*
X131730000Y-71470000D02*
X157250000Y-71470000D01*
X131730000Y-71470000D02*
X131730000Y-74070000D01*
X134330000Y-74070000D02*
X134330000Y-76670000D01*
X131730000Y-74070000D02*
X134330000Y-74070000D01*
X131730000Y-75340000D02*
X131730000Y-76670000D01*
X134330000Y-76670000D02*
X157250000Y-76670000D01*
X131730000Y-76670000D02*
X133060000Y-76670000D01*
%TO.C,J6*%
X126730000Y-105930000D02*
X126730000Y-111130000D01*
X113910000Y-105930000D02*
X126730000Y-105930000D01*
X113910000Y-105930000D02*
X113910000Y-108530000D01*
X116510000Y-108530000D02*
X116510000Y-111130000D01*
X113910000Y-108530000D02*
X116510000Y-108530000D01*
X113910000Y-109800000D02*
X113910000Y-111130000D01*
X116510000Y-111130000D02*
X126730000Y-111130000D01*
X113910000Y-111130000D02*
X115240000Y-111130000D01*
%TO.C,J1*%
X102770000Y-99330000D02*
X97570000Y-99330000D01*
X102770000Y-73810000D02*
X102770000Y-99330000D01*
X102770000Y-73810000D02*
X100170000Y-73810000D01*
X100170000Y-76410000D02*
X97570000Y-76410000D01*
X100170000Y-73810000D02*
X100170000Y-76410000D01*
X98900000Y-73810000D02*
X97570000Y-73810000D01*
X97570000Y-76410000D02*
X97570000Y-99330000D01*
X97570000Y-73810000D02*
X97570000Y-75140000D01*
%TO.C,J7*%
X165590000Y-105930000D02*
X165590000Y-111130000D01*
X152770000Y-105930000D02*
X165590000Y-105930000D01*
X152770000Y-105930000D02*
X152770000Y-108530000D01*
X155370000Y-108530000D02*
X155370000Y-111130000D01*
X152770000Y-108530000D02*
X155370000Y-108530000D01*
X152770000Y-109800000D02*
X152770000Y-111130000D01*
X155370000Y-111130000D02*
X165590000Y-111130000D01*
X152770000Y-111130000D02*
X154100000Y-111130000D01*
%TO.C,C95*%
X143820000Y-124200000D02*
G75*
G03*
X143820000Y-124200000I-8120000J0D01*
G01*
%TD*%
M02*
