%TF.GenerationSoftware,KiCad,Pcbnew,7.0.1*%
%TF.CreationDate,2024-06-21T04:11:25+03:00*%
%TF.ProjectId,_____ GDI,1f3b3042-3020-4474-9449-2e6b69636164,rev?*%
%TF.SameCoordinates,Original*%
%TF.FileFunction,Soldermask,Bot*%
%TF.FilePolarity,Negative*%
%FSLAX46Y46*%
G04 Gerber Fmt 4.6, Leading zero omitted, Abs format (unit mm)*
G04 Created by KiCad (PCBNEW 7.0.1) date 2024-06-21 04:11:25*
%MOMM*%
%LPD*%
G01*
G04 APERTURE LIST*
%ADD10C,1.700000*%
%ADD11C,1.524000*%
%ADD12R,1.700000X1.700000*%
%ADD13O,1.700000X1.700000*%
%ADD14C,1.300000*%
%ADD15C,2.000000*%
G04 APERTURE END LIST*
D10*
%TO.C,P2*%
X174800000Y-81600000D03*
%TD*%
D11*
%TO.C,R115*%
X157745001Y-99600000D03*
X161555001Y-99600000D03*
%TD*%
D12*
%TO.C,J5*%
X185300000Y-127080000D03*
D13*
X185300000Y-124540000D03*
X185300000Y-122000000D03*
X185300000Y-119460000D03*
X185300000Y-116920000D03*
X185300000Y-114380000D03*
%TD*%
D11*
%TO.C,R114*%
X157745001Y-97800000D03*
X161555001Y-97800000D03*
%TD*%
D10*
%TO.C,P1*%
X165200000Y-79600000D03*
%TD*%
D14*
%TO.C,U8*%
X149576000Y-88724000D03*
X151100000Y-88724000D03*
X152624000Y-88724000D03*
X149576000Y-87200000D03*
X151100000Y-87200000D03*
X152624000Y-87200000D03*
X149576000Y-85676000D03*
X151100000Y-85676000D03*
X152624000Y-85676000D03*
%TD*%
D11*
%TO.C,R113*%
X157795000Y-101400000D03*
X161605000Y-101400000D03*
%TD*%
%TO.C,R112*%
X157790000Y-103200000D03*
X161600000Y-103200000D03*
%TD*%
D15*
%TO.C,C97*%
X118700000Y-128000000D03*
X118700000Y-120500000D03*
%TD*%
%TO.C,C88*%
X170000000Y-120500000D03*
X170000000Y-128000000D03*
%TD*%
%TO.C,C81*%
X152800000Y-120450000D03*
X152800000Y-127950000D03*
%TD*%
D12*
%TO.C,J2*%
X133060000Y-75340000D03*
D13*
X133060000Y-72800000D03*
X135600000Y-75340000D03*
X135600000Y-72800000D03*
X138140000Y-75340000D03*
X138140000Y-72800000D03*
X140680000Y-75340000D03*
X140680000Y-72800000D03*
X143220000Y-75340000D03*
X143220000Y-72800000D03*
X145760000Y-75340000D03*
X145760000Y-72800000D03*
X148300000Y-75340000D03*
X148300000Y-72800000D03*
X150840000Y-75340000D03*
X150840000Y-72800000D03*
X153380000Y-75340000D03*
X153380000Y-72800000D03*
X155920000Y-75340000D03*
X155920000Y-72800000D03*
%TD*%
D12*
%TO.C,J6*%
X115240000Y-109800000D03*
D13*
X115240000Y-107260000D03*
X117780000Y-109800000D03*
X117780000Y-107260000D03*
X120320000Y-109800000D03*
X120320000Y-107260000D03*
X122860000Y-109800000D03*
X122860000Y-107260000D03*
X125400000Y-109800000D03*
X125400000Y-107260000D03*
%TD*%
D12*
%TO.C,J1*%
X98900000Y-75140000D03*
D13*
X101440000Y-75140000D03*
X98900000Y-77680000D03*
X101440000Y-77680000D03*
X98900000Y-80220000D03*
X101440000Y-80220000D03*
X98900000Y-82760000D03*
X101440000Y-82760000D03*
X98900000Y-85300000D03*
X101440000Y-85300000D03*
X98900000Y-87840000D03*
X101440000Y-87840000D03*
X98900000Y-90380000D03*
X101440000Y-90380000D03*
X98900000Y-92920000D03*
X101440000Y-92920000D03*
X98900000Y-95460000D03*
X101440000Y-95460000D03*
X98900000Y-98000000D03*
X101440000Y-98000000D03*
%TD*%
D12*
%TO.C,J7*%
X154100000Y-109800000D03*
D13*
X154100000Y-107260000D03*
X156640000Y-109800000D03*
X156640000Y-107260000D03*
X159180000Y-109800000D03*
X159180000Y-107260000D03*
X161720000Y-109800000D03*
X161720000Y-107260000D03*
X164260000Y-109800000D03*
X164260000Y-107260000D03*
%TD*%
D15*
%TO.C,C95*%
X135700000Y-127950000D03*
X135700000Y-120450000D03*
%TD*%
M02*
