%TF.GenerationSoftware,KiCad,Pcbnew,8.0.5*%
%TF.CreationDate,2024-10-18T05:49:16+03:00*%
%TF.ProjectId,ECUGDI,45435547-4449-42e6-9b69-6361645f7063,rev?*%
%TF.SameCoordinates,Original*%
%TF.FileFunction,Soldermask,Bot*%
%TF.FilePolarity,Negative*%
%FSLAX46Y46*%
G04 Gerber Fmt 4.6, Leading zero omitted, Abs format (unit mm)*
G04 Created by KiCad (PCBNEW 8.0.5) date 2024-10-18 05:49:16*
%MOMM*%
%LPD*%
G01*
G04 APERTURE LIST*
%ADD10R,1.700000X1.700000*%
%ADD11O,1.700000X1.700000*%
%ADD12R,1.600000X1.600000*%
%ADD13C,1.600000*%
%ADD14C,2.000000*%
%ADD15C,2.400000*%
%ADD16R,2.600000X3.600000*%
%ADD17R,3.200000X1.000000*%
%ADD18R,2.400000X0.740000*%
G04 APERTURE END LIST*
D10*
%TO.C,J13*%
X94310000Y-70450000D03*
D11*
X96850000Y-70450000D03*
X94310000Y-72990000D03*
X96850000Y-72990000D03*
X94310000Y-75530000D03*
X96850000Y-75530000D03*
X94310000Y-78070000D03*
X96850000Y-78070000D03*
X94310000Y-80610000D03*
X96850000Y-80610000D03*
X94310000Y-83150000D03*
X96850000Y-83150000D03*
X94310000Y-85690000D03*
X96850000Y-85690000D03*
X94310000Y-88230000D03*
X96850000Y-88230000D03*
X94310000Y-90770000D03*
X96850000Y-90770000D03*
X94310000Y-93310000D03*
X96850000Y-93310000D03*
%TD*%
D10*
%TO.C,J8*%
X128510000Y-70650000D03*
D11*
X128510000Y-68110000D03*
X131050000Y-70650000D03*
X131050000Y-68110000D03*
X133590000Y-70650000D03*
X133590000Y-68110000D03*
X136130000Y-70650000D03*
X136130000Y-68110000D03*
X138670000Y-70650000D03*
X138670000Y-68110000D03*
X141210000Y-70650000D03*
X141210000Y-68110000D03*
X143750000Y-70650000D03*
X143750000Y-68110000D03*
X146290000Y-70650000D03*
X146290000Y-68110000D03*
X148830000Y-70650000D03*
X148830000Y-68110000D03*
X151370000Y-70650000D03*
X151370000Y-68110000D03*
%TD*%
D12*
%TO.C,J12*%
X114550000Y-79450000D03*
D13*
X112050000Y-79450000D03*
X109550000Y-79450000D03*
X107050000Y-79450000D03*
X104550000Y-79450000D03*
%TD*%
D10*
%TO.C,J16*%
X110630000Y-105040000D03*
D11*
X110630000Y-102500000D03*
X113170000Y-105040000D03*
X113170000Y-102500000D03*
X115710000Y-105040000D03*
X115710000Y-102500000D03*
X118250000Y-105040000D03*
X118250000Y-102500000D03*
X120790000Y-105040000D03*
X120790000Y-102500000D03*
%TD*%
D10*
%TO.C,J17*%
X149560000Y-105090000D03*
D11*
X149560000Y-102550000D03*
X152100000Y-105090000D03*
X152100000Y-102550000D03*
X154640000Y-105090000D03*
X154640000Y-102550000D03*
X157180000Y-105090000D03*
X157180000Y-102550000D03*
X159720000Y-105090000D03*
X159720000Y-102550000D03*
%TD*%
D14*
%TO.C,J6*%
X114300000Y-53000000D03*
X115800000Y-71100000D03*
X163200000Y-71100000D03*
X164700000Y-53000000D03*
D15*
X125500000Y-64300000D03*
X129500000Y-64300000D03*
X133500000Y-64300000D03*
X137500000Y-64300000D03*
X141500000Y-64300000D03*
X145500000Y-64300000D03*
X149500000Y-64300000D03*
X153500000Y-64300000D03*
X127500000Y-60300000D03*
X131500000Y-60300000D03*
X135500000Y-60300000D03*
X139500000Y-60300000D03*
X143500000Y-60300000D03*
X147500000Y-60300000D03*
X151500000Y-60300000D03*
X125500000Y-56300000D03*
X129500000Y-56300000D03*
X133500000Y-56300000D03*
X137500000Y-56300000D03*
X141500000Y-56300000D03*
X145500000Y-56300000D03*
X149500000Y-56300000D03*
X153500000Y-56300000D03*
%TD*%
D16*
%TO.C,BT1*%
X145700000Y-88100000D03*
X175000000Y-88100000D03*
%TD*%
D17*
%TO.C,SW2*%
X133500000Y-89700000D03*
X126700000Y-89700000D03*
X133500000Y-93700000D03*
X126700000Y-93700000D03*
%TD*%
D12*
%TO.C,C55*%
X105900000Y-50350000D03*
D13*
X105900000Y-46850000D03*
%TD*%
D14*
%TO.C,J4*%
X92300000Y-52800000D03*
X74200000Y-54300000D03*
X74200000Y-117700000D03*
X92300000Y-119200000D03*
D15*
X81000000Y-64000000D03*
X81000000Y-68000000D03*
X81000000Y-72000000D03*
X81000000Y-76000000D03*
X81000000Y-80000000D03*
X81000000Y-84000000D03*
X81000000Y-88000000D03*
X81000000Y-92000000D03*
X81000000Y-96000000D03*
X81000000Y-100000000D03*
X81000000Y-104000000D03*
X81000000Y-108000000D03*
X85000000Y-66000000D03*
X85000000Y-70000000D03*
X85000000Y-74000000D03*
X85000000Y-78000000D03*
X85000000Y-82000000D03*
X85000000Y-86000000D03*
X85000000Y-90000000D03*
X85000000Y-94000000D03*
X85000000Y-98000000D03*
X85000000Y-102000000D03*
X85000000Y-106000000D03*
X89000000Y-64000000D03*
X89000000Y-68000000D03*
X89000000Y-72000000D03*
X89000000Y-76000000D03*
X89000000Y-80000000D03*
X89000000Y-84000000D03*
X89000000Y-88000000D03*
X89000000Y-92000000D03*
X89000000Y-96000000D03*
X89000000Y-100000000D03*
X89000000Y-104000000D03*
X89000000Y-108000000D03*
%TD*%
D12*
%TO.C,C105*%
X106700000Y-69600000D03*
D13*
X103200000Y-69600000D03*
%TD*%
D14*
%TO.C,J5*%
X186700000Y-119200000D03*
X204800000Y-117700000D03*
X204800000Y-54300000D03*
X186700000Y-52800000D03*
D15*
X198000000Y-108000000D03*
X198000000Y-104000000D03*
X198000000Y-100000000D03*
X198000000Y-96000000D03*
X198000000Y-92000000D03*
X198000000Y-88000000D03*
X198000000Y-84000000D03*
X198000000Y-80000000D03*
X198000000Y-76000000D03*
X198000000Y-72000000D03*
X198000000Y-68000000D03*
X198000000Y-64000000D03*
X194000000Y-106000000D03*
X194000000Y-102000000D03*
X194000000Y-98000000D03*
X194000000Y-94000000D03*
X194000000Y-90000000D03*
X194000000Y-86000000D03*
X194000000Y-82000000D03*
X194000000Y-78000000D03*
X194000000Y-74000000D03*
X194000000Y-70000000D03*
X194000000Y-66000000D03*
X190000000Y-108000000D03*
X190000000Y-104000000D03*
X190000000Y-100000000D03*
X190000000Y-96000000D03*
X190000000Y-92000000D03*
X190000000Y-88000000D03*
X190000000Y-84000000D03*
X190000000Y-80000000D03*
X190000000Y-76000000D03*
X190000000Y-72000000D03*
X190000000Y-68000000D03*
X190000000Y-64000000D03*
%TD*%
D18*
%TO.C,J7*%
X134350000Y-82060000D03*
X130450000Y-82060000D03*
X134350000Y-83330000D03*
X130450000Y-83330000D03*
X134350000Y-84600000D03*
X130450000Y-84600000D03*
X134350000Y-85870000D03*
X130450000Y-85870000D03*
X134350000Y-87140000D03*
X130450000Y-87140000D03*
%TD*%
M02*
