%TF.GenerationSoftware,KiCad,Pcbnew,8.0.5*%
%TF.CreationDate,2024-10-18T05:49:16+03:00*%
%TF.ProjectId,ECUGDI,45435547-4449-42e6-9b69-6361645f7063,rev?*%
%TF.SameCoordinates,Original*%
%TF.FileFunction,Legend,Bot*%
%TF.FilePolarity,Positive*%
%FSLAX46Y46*%
G04 Gerber Fmt 4.6, Leading zero omitted, Abs format (unit mm)*
G04 Created by KiCad (PCBNEW 8.0.5) date 2024-10-18 05:49:16*
%MOMM*%
%LPD*%
G01*
G04 APERTURE LIST*
%ADD10C,0.150000*%
%ADD11C,0.500000*%
%ADD12C,0.120000*%
G04 APERTURE END LIST*
D10*
X147010714Y-93331009D02*
X146867857Y-93378628D01*
X146867857Y-93378628D02*
X146820238Y-93426247D01*
X146820238Y-93426247D02*
X146772619Y-93521485D01*
X146772619Y-93521485D02*
X146772619Y-93664342D01*
X146772619Y-93664342D02*
X146820238Y-93759580D01*
X146820238Y-93759580D02*
X146867857Y-93807200D01*
X146867857Y-93807200D02*
X146963095Y-93854819D01*
X146963095Y-93854819D02*
X147344047Y-93854819D01*
X147344047Y-93854819D02*
X147344047Y-92854819D01*
X147344047Y-92854819D02*
X147010714Y-92854819D01*
X147010714Y-92854819D02*
X146915476Y-92902438D01*
X146915476Y-92902438D02*
X146867857Y-92950057D01*
X146867857Y-92950057D02*
X146820238Y-93045295D01*
X146820238Y-93045295D02*
X146820238Y-93140533D01*
X146820238Y-93140533D02*
X146867857Y-93235771D01*
X146867857Y-93235771D02*
X146915476Y-93283390D01*
X146915476Y-93283390D02*
X147010714Y-93331009D01*
X147010714Y-93331009D02*
X147344047Y-93331009D01*
X146486904Y-92854819D02*
X145915476Y-92854819D01*
X146201190Y-93854819D02*
X146201190Y-92854819D01*
X145058333Y-93854819D02*
X145629761Y-93854819D01*
X145344047Y-93854819D02*
X145344047Y-92854819D01*
X145344047Y-92854819D02*
X145439285Y-92997676D01*
X145439285Y-92997676D02*
X145534523Y-93092914D01*
X145534523Y-93092914D02*
X145629761Y-93140533D01*
X126733332Y-87857200D02*
X126590475Y-87904819D01*
X126590475Y-87904819D02*
X126352380Y-87904819D01*
X126352380Y-87904819D02*
X126257142Y-87857200D01*
X126257142Y-87857200D02*
X126209523Y-87809580D01*
X126209523Y-87809580D02*
X126161904Y-87714342D01*
X126161904Y-87714342D02*
X126161904Y-87619104D01*
X126161904Y-87619104D02*
X126209523Y-87523866D01*
X126209523Y-87523866D02*
X126257142Y-87476247D01*
X126257142Y-87476247D02*
X126352380Y-87428628D01*
X126352380Y-87428628D02*
X126542856Y-87381009D01*
X126542856Y-87381009D02*
X126638094Y-87333390D01*
X126638094Y-87333390D02*
X126685713Y-87285771D01*
X126685713Y-87285771D02*
X126733332Y-87190533D01*
X126733332Y-87190533D02*
X126733332Y-87095295D01*
X126733332Y-87095295D02*
X126685713Y-87000057D01*
X126685713Y-87000057D02*
X126638094Y-86952438D01*
X126638094Y-86952438D02*
X126542856Y-86904819D01*
X126542856Y-86904819D02*
X126304761Y-86904819D01*
X126304761Y-86904819D02*
X126161904Y-86952438D01*
X125828570Y-86904819D02*
X125590475Y-87904819D01*
X125590475Y-87904819D02*
X125399999Y-87190533D01*
X125399999Y-87190533D02*
X125209523Y-87904819D01*
X125209523Y-87904819D02*
X124971428Y-86904819D01*
X124638094Y-87000057D02*
X124590475Y-86952438D01*
X124590475Y-86952438D02*
X124495237Y-86904819D01*
X124495237Y-86904819D02*
X124257142Y-86904819D01*
X124257142Y-86904819D02*
X124161904Y-86952438D01*
X124161904Y-86952438D02*
X124114285Y-87000057D01*
X124114285Y-87000057D02*
X124066666Y-87095295D01*
X124066666Y-87095295D02*
X124066666Y-87190533D01*
X124066666Y-87190533D02*
X124114285Y-87333390D01*
X124114285Y-87333390D02*
X124685713Y-87904819D01*
X124685713Y-87904819D02*
X124066666Y-87904819D01*
X107959580Y-53907142D02*
X108007200Y-53859523D01*
X108007200Y-53859523D02*
X108054819Y-53716666D01*
X108054819Y-53716666D02*
X108054819Y-53621428D01*
X108054819Y-53621428D02*
X108007200Y-53478571D01*
X108007200Y-53478571D02*
X107911961Y-53383333D01*
X107911961Y-53383333D02*
X107816723Y-53335714D01*
X107816723Y-53335714D02*
X107626247Y-53288095D01*
X107626247Y-53288095D02*
X107483390Y-53288095D01*
X107483390Y-53288095D02*
X107292914Y-53335714D01*
X107292914Y-53335714D02*
X107197676Y-53383333D01*
X107197676Y-53383333D02*
X107102438Y-53478571D01*
X107102438Y-53478571D02*
X107054819Y-53621428D01*
X107054819Y-53621428D02*
X107054819Y-53716666D01*
X107054819Y-53716666D02*
X107102438Y-53859523D01*
X107102438Y-53859523D02*
X107150057Y-53907142D01*
X107054819Y-54811904D02*
X107054819Y-54335714D01*
X107054819Y-54335714D02*
X107531009Y-54288095D01*
X107531009Y-54288095D02*
X107483390Y-54335714D01*
X107483390Y-54335714D02*
X107435771Y-54430952D01*
X107435771Y-54430952D02*
X107435771Y-54669047D01*
X107435771Y-54669047D02*
X107483390Y-54764285D01*
X107483390Y-54764285D02*
X107531009Y-54811904D01*
X107531009Y-54811904D02*
X107626247Y-54859523D01*
X107626247Y-54859523D02*
X107864342Y-54859523D01*
X107864342Y-54859523D02*
X107959580Y-54811904D01*
X107959580Y-54811904D02*
X108007200Y-54764285D01*
X108007200Y-54764285D02*
X108054819Y-54669047D01*
X108054819Y-54669047D02*
X108054819Y-54430952D01*
X108054819Y-54430952D02*
X108007200Y-54335714D01*
X108007200Y-54335714D02*
X107959580Y-54288095D01*
X107054819Y-55764285D02*
X107054819Y-55288095D01*
X107054819Y-55288095D02*
X107531009Y-55240476D01*
X107531009Y-55240476D02*
X107483390Y-55288095D01*
X107483390Y-55288095D02*
X107435771Y-55383333D01*
X107435771Y-55383333D02*
X107435771Y-55621428D01*
X107435771Y-55621428D02*
X107483390Y-55716666D01*
X107483390Y-55716666D02*
X107531009Y-55764285D01*
X107531009Y-55764285D02*
X107626247Y-55811904D01*
X107626247Y-55811904D02*
X107864342Y-55811904D01*
X107864342Y-55811904D02*
X107959580Y-55764285D01*
X107959580Y-55764285D02*
X108007200Y-55716666D01*
X108007200Y-55716666D02*
X108054819Y-55621428D01*
X108054819Y-55621428D02*
X108054819Y-55383333D01*
X108054819Y-55383333D02*
X108007200Y-55288095D01*
X108007200Y-55288095D02*
X107959580Y-55240476D01*
X92454819Y-85666666D02*
X93169104Y-85666666D01*
X93169104Y-85666666D02*
X93311961Y-85619047D01*
X93311961Y-85619047D02*
X93407200Y-85523809D01*
X93407200Y-85523809D02*
X93454819Y-85380952D01*
X93454819Y-85380952D02*
X93454819Y-85285714D01*
X92788152Y-86571428D02*
X93454819Y-86571428D01*
X92407200Y-86333333D02*
X93121485Y-86095238D01*
X93121485Y-86095238D02*
X93121485Y-86714285D01*
X106069047Y-64709580D02*
X106116666Y-64757200D01*
X106116666Y-64757200D02*
X106259523Y-64804819D01*
X106259523Y-64804819D02*
X106354761Y-64804819D01*
X106354761Y-64804819D02*
X106497618Y-64757200D01*
X106497618Y-64757200D02*
X106592856Y-64661961D01*
X106592856Y-64661961D02*
X106640475Y-64566723D01*
X106640475Y-64566723D02*
X106688094Y-64376247D01*
X106688094Y-64376247D02*
X106688094Y-64233390D01*
X106688094Y-64233390D02*
X106640475Y-64042914D01*
X106640475Y-64042914D02*
X106592856Y-63947676D01*
X106592856Y-63947676D02*
X106497618Y-63852438D01*
X106497618Y-63852438D02*
X106354761Y-63804819D01*
X106354761Y-63804819D02*
X106259523Y-63804819D01*
X106259523Y-63804819D02*
X106116666Y-63852438D01*
X106116666Y-63852438D02*
X106069047Y-63900057D01*
X105116666Y-64804819D02*
X105688094Y-64804819D01*
X105402380Y-64804819D02*
X105402380Y-63804819D01*
X105402380Y-63804819D02*
X105497618Y-63947676D01*
X105497618Y-63947676D02*
X105592856Y-64042914D01*
X105592856Y-64042914D02*
X105688094Y-64090533D01*
X104497618Y-63804819D02*
X104402380Y-63804819D01*
X104402380Y-63804819D02*
X104307142Y-63852438D01*
X104307142Y-63852438D02*
X104259523Y-63900057D01*
X104259523Y-63900057D02*
X104211904Y-63995295D01*
X104211904Y-63995295D02*
X104164285Y-64185771D01*
X104164285Y-64185771D02*
X104164285Y-64423866D01*
X104164285Y-64423866D02*
X104211904Y-64614342D01*
X104211904Y-64614342D02*
X104259523Y-64709580D01*
X104259523Y-64709580D02*
X104307142Y-64757200D01*
X104307142Y-64757200D02*
X104402380Y-64804819D01*
X104402380Y-64804819D02*
X104497618Y-64804819D01*
X104497618Y-64804819D02*
X104592856Y-64757200D01*
X104592856Y-64757200D02*
X104640475Y-64709580D01*
X104640475Y-64709580D02*
X104688094Y-64614342D01*
X104688094Y-64614342D02*
X104735713Y-64423866D01*
X104735713Y-64423866D02*
X104735713Y-64185771D01*
X104735713Y-64185771D02*
X104688094Y-63995295D01*
X104688094Y-63995295D02*
X104640475Y-63900057D01*
X104640475Y-63900057D02*
X104592856Y-63852438D01*
X104592856Y-63852438D02*
X104497618Y-63804819D01*
X103259523Y-63804819D02*
X103735713Y-63804819D01*
X103735713Y-63804819D02*
X103783332Y-64281009D01*
X103783332Y-64281009D02*
X103735713Y-64233390D01*
X103735713Y-64233390D02*
X103640475Y-64185771D01*
X103640475Y-64185771D02*
X103402380Y-64185771D01*
X103402380Y-64185771D02*
X103307142Y-64233390D01*
X103307142Y-64233390D02*
X103259523Y-64281009D01*
X103259523Y-64281009D02*
X103211904Y-64376247D01*
X103211904Y-64376247D02*
X103211904Y-64614342D01*
X103211904Y-64614342D02*
X103259523Y-64709580D01*
X103259523Y-64709580D02*
X103307142Y-64757200D01*
X103307142Y-64757200D02*
X103402380Y-64804819D01*
X103402380Y-64804819D02*
X103640475Y-64804819D01*
X103640475Y-64804819D02*
X103735713Y-64757200D01*
X103735713Y-64757200D02*
X103783332Y-64709580D01*
X177933333Y-73917319D02*
X177933333Y-74631604D01*
X177933333Y-74631604D02*
X177980952Y-74774461D01*
X177980952Y-74774461D02*
X178076190Y-74869700D01*
X178076190Y-74869700D02*
X178219047Y-74917319D01*
X178219047Y-74917319D02*
X178314285Y-74917319D01*
X176980952Y-73917319D02*
X177457142Y-73917319D01*
X177457142Y-73917319D02*
X177504761Y-74393509D01*
X177504761Y-74393509D02*
X177457142Y-74345890D01*
X177457142Y-74345890D02*
X177361904Y-74298271D01*
X177361904Y-74298271D02*
X177123809Y-74298271D01*
X177123809Y-74298271D02*
X177028571Y-74345890D01*
X177028571Y-74345890D02*
X176980952Y-74393509D01*
X176980952Y-74393509D02*
X176933333Y-74488747D01*
X176933333Y-74488747D02*
X176933333Y-74726842D01*
X176933333Y-74726842D02*
X176980952Y-74822080D01*
X176980952Y-74822080D02*
X177028571Y-74869700D01*
X177028571Y-74869700D02*
X177123809Y-74917319D01*
X177123809Y-74917319D02*
X177361904Y-74917319D01*
X177361904Y-74917319D02*
X177457142Y-74869700D01*
X177457142Y-74869700D02*
X177504761Y-74822080D01*
X132733333Y-79819819D02*
X132733333Y-80534104D01*
X132733333Y-80534104D02*
X132780952Y-80676961D01*
X132780952Y-80676961D02*
X132876190Y-80772200D01*
X132876190Y-80772200D02*
X133019047Y-80819819D01*
X133019047Y-80819819D02*
X133114285Y-80819819D01*
X132352380Y-79819819D02*
X131685714Y-79819819D01*
X131685714Y-79819819D02*
X132114285Y-80819819D01*
D11*
%TO.C,J6*%
X109100000Y-44250000D02*
X109100000Y-76350000D01*
X109100000Y-76350000D02*
X169900000Y-76350000D01*
X169900000Y-44250000D02*
X109100000Y-44250000D01*
X169900000Y-76350000D02*
X169900000Y-44250000D01*
D12*
%TO.C,BT1*%
X145800000Y-84250000D02*
X145800000Y-85800000D01*
X145800000Y-91950000D02*
X145800000Y-90400000D01*
X147350000Y-83100000D02*
X147350000Y-81100000D01*
X148350000Y-82100000D02*
X146350000Y-82100000D01*
X149000000Y-81550000D02*
X149000000Y-84250000D01*
X149000000Y-84250000D02*
X145800000Y-84250000D01*
X149000000Y-91950000D02*
X145800000Y-91950000D01*
X149000000Y-96450000D02*
X149000000Y-91950000D01*
X149000000Y-96450000D02*
X171700000Y-96450000D01*
X150800000Y-79750000D02*
X149000000Y-81550000D01*
X171700000Y-79750000D02*
X150800000Y-79750000D01*
X171700000Y-79750000D02*
X171700000Y-84250000D01*
X171700000Y-84250000D02*
X174900000Y-84250000D01*
X171700000Y-91950000D02*
X174900000Y-91950000D01*
X171700000Y-96450000D02*
X171700000Y-91950000D01*
X174900000Y-84250000D02*
X174900000Y-85800000D01*
X174900000Y-91950000D02*
X174900000Y-90400000D01*
%TO.C,SW2*%
X126750000Y-88600000D02*
X126750000Y-88800000D01*
X126750000Y-88600000D02*
X133450000Y-88600000D01*
X126750000Y-90500000D02*
X126750000Y-92900000D01*
X126750000Y-94800000D02*
X126750000Y-94600000D01*
X133450000Y-88600000D02*
X133450000Y-88800000D01*
X133450000Y-90500000D02*
X133450000Y-92900000D01*
X133450000Y-94800000D02*
X126750000Y-94800000D01*
X133450000Y-94800000D02*
X133450000Y-94600000D01*
%TO.C,C55*%
X104860000Y-45839000D02*
X102881000Y-45839000D01*
X104860000Y-45879000D02*
X102845000Y-45879000D01*
X104860000Y-45919000D02*
X102810000Y-45919000D01*
X104860000Y-45959000D02*
X102776000Y-45959000D01*
X104860000Y-45999000D02*
X102744000Y-45999000D01*
X104860000Y-46039000D02*
X102711000Y-46039000D01*
X104860000Y-46079000D02*
X102680000Y-46079000D01*
X104860000Y-46119000D02*
X102650000Y-46119000D01*
X104860000Y-46159000D02*
X102620000Y-46159000D01*
X104860000Y-46199000D02*
X102591000Y-46199000D01*
X104860000Y-46239000D02*
X102562000Y-46239000D01*
X104860000Y-46279000D02*
X102535000Y-46279000D01*
X104860000Y-46319000D02*
X102508000Y-46319000D01*
X104860000Y-46359000D02*
X102482000Y-46359000D01*
X104860000Y-46399000D02*
X102456000Y-46399000D01*
X104860000Y-46439000D02*
X102431000Y-46439000D01*
X104860000Y-46479000D02*
X102407000Y-46479000D01*
X104860000Y-46519000D02*
X102383000Y-46519000D01*
X104860000Y-46559000D02*
X102360000Y-46559000D01*
X104860000Y-46599000D02*
X102338000Y-46599000D01*
X104860000Y-46639000D02*
X102316000Y-46639000D01*
X104860000Y-46679000D02*
X102294000Y-46679000D01*
X104860000Y-46719000D02*
X102273000Y-46719000D01*
X104860000Y-46759000D02*
X102253000Y-46759000D01*
X104860000Y-46799000D02*
X102234000Y-46799000D01*
X104860000Y-46839000D02*
X102214000Y-46839000D01*
X104860000Y-46879000D02*
X102196000Y-46879000D01*
X104860000Y-46919000D02*
X102178000Y-46919000D01*
X104860000Y-46959000D02*
X102160000Y-46959000D01*
X104860000Y-46999000D02*
X102143000Y-46999000D01*
X104860000Y-47039000D02*
X102126000Y-47039000D01*
X104860000Y-47079000D02*
X102110000Y-47079000D01*
X104860000Y-47119000D02*
X102095000Y-47119000D01*
X104860000Y-47159000D02*
X102079000Y-47159000D01*
X104860000Y-47199000D02*
X102065000Y-47199000D01*
X104860000Y-47239000D02*
X102050000Y-47239000D01*
X104860000Y-47279000D02*
X102037000Y-47279000D01*
X104860000Y-47319000D02*
X102023000Y-47319000D01*
X104860000Y-47359000D02*
X102011000Y-47359000D01*
X104860000Y-47399000D02*
X101998000Y-47399000D01*
X104860000Y-47439000D02*
X101986000Y-47439000D01*
X104860000Y-47479000D02*
X101975000Y-47479000D01*
X104860000Y-47519000D02*
X101964000Y-47519000D01*
X104860000Y-47559000D02*
X101953000Y-47559000D01*
X104860000Y-47599000D02*
X101943000Y-47599000D01*
X104860000Y-47639000D02*
X101933000Y-47639000D01*
X104860000Y-47679000D02*
X101924000Y-47679000D01*
X104860000Y-47719000D02*
X101915000Y-47719000D01*
X104860000Y-47759000D02*
X101906000Y-47759000D01*
X104860000Y-47799000D02*
X101898000Y-47799000D01*
X104860000Y-47839000D02*
X101890000Y-47839000D01*
X104860000Y-47879000D02*
X101883000Y-47879000D01*
X106433000Y-44519000D02*
X105367000Y-44519000D01*
X106668000Y-44559000D02*
X105132000Y-44559000D01*
X106848000Y-44599000D02*
X104952000Y-44599000D01*
X106998000Y-44639000D02*
X104802000Y-44639000D01*
X107129000Y-44679000D02*
X104671000Y-44679000D01*
X107246000Y-44719000D02*
X104554000Y-44719000D01*
X107353000Y-44759000D02*
X104447000Y-44759000D01*
X107452000Y-44799000D02*
X104348000Y-44799000D01*
X107545000Y-44839000D02*
X104255000Y-44839000D01*
X107631000Y-44879000D02*
X104169000Y-44879000D01*
X107713000Y-44919000D02*
X104087000Y-44919000D01*
X107790000Y-44959000D02*
X104010000Y-44959000D01*
X107864000Y-44999000D02*
X103936000Y-44999000D01*
X107934000Y-45039000D02*
X103866000Y-45039000D01*
X108002000Y-45079000D02*
X103798000Y-45079000D01*
X108066000Y-45119000D02*
X103734000Y-45119000D01*
X108128000Y-45159000D02*
X103672000Y-45159000D01*
X108187000Y-45199000D02*
X103613000Y-45199000D01*
X108215000Y-53009698D02*
X108215000Y-52209698D01*
X108245000Y-45239000D02*
X103555000Y-45239000D01*
X108300000Y-45279000D02*
X103500000Y-45279000D01*
X108354000Y-45319000D02*
X103446000Y-45319000D01*
X108405000Y-45359000D02*
X103395000Y-45359000D01*
X108456000Y-45399000D02*
X103344000Y-45399000D01*
X108504000Y-45439000D02*
X103296000Y-45439000D01*
X108551000Y-45479000D02*
X103249000Y-45479000D01*
X108597000Y-45519000D02*
X103203000Y-45519000D01*
X108615000Y-52609698D02*
X107815000Y-52609698D01*
X108641000Y-45559000D02*
X103159000Y-45559000D01*
X108684000Y-45599000D02*
X103116000Y-45599000D01*
X108726000Y-45639000D02*
X103074000Y-45639000D01*
X108767000Y-45679000D02*
X103033000Y-45679000D01*
X108807000Y-45719000D02*
X102993000Y-45719000D01*
X108845000Y-45759000D02*
X102955000Y-45759000D01*
X108883000Y-45799000D02*
X102917000Y-45799000D01*
X108919000Y-45839000D02*
X106940000Y-45839000D01*
X108955000Y-45879000D02*
X106940000Y-45879000D01*
X108990000Y-45919000D02*
X106940000Y-45919000D01*
X109024000Y-45959000D02*
X106940000Y-45959000D01*
X109056000Y-45999000D02*
X106940000Y-45999000D01*
X109089000Y-46039000D02*
X106940000Y-46039000D01*
X109120000Y-46079000D02*
X106940000Y-46079000D01*
X109150000Y-46119000D02*
X106940000Y-46119000D01*
X109180000Y-46159000D02*
X106940000Y-46159000D01*
X109209000Y-46199000D02*
X106940000Y-46199000D01*
X109238000Y-46239000D02*
X106940000Y-46239000D01*
X109265000Y-46279000D02*
X106940000Y-46279000D01*
X109292000Y-46319000D02*
X106940000Y-46319000D01*
X109318000Y-46359000D02*
X106940000Y-46359000D01*
X109344000Y-46399000D02*
X106940000Y-46399000D01*
X109369000Y-46439000D02*
X106940000Y-46439000D01*
X109393000Y-46479000D02*
X106940000Y-46479000D01*
X109417000Y-46519000D02*
X106940000Y-46519000D01*
X109440000Y-46559000D02*
X106940000Y-46559000D01*
X109462000Y-46599000D02*
X106940000Y-46599000D01*
X109484000Y-46639000D02*
X106940000Y-46639000D01*
X109506000Y-46679000D02*
X106940000Y-46679000D01*
X109527000Y-46719000D02*
X106940000Y-46719000D01*
X109547000Y-46759000D02*
X106940000Y-46759000D01*
X109566000Y-46799000D02*
X106940000Y-46799000D01*
X109586000Y-46839000D02*
X106940000Y-46839000D01*
X109604000Y-46879000D02*
X106940000Y-46879000D01*
X109622000Y-46919000D02*
X106940000Y-46919000D01*
X109640000Y-46959000D02*
X106940000Y-46959000D01*
X109657000Y-46999000D02*
X106940000Y-46999000D01*
X109674000Y-47039000D02*
X106940000Y-47039000D01*
X109690000Y-47079000D02*
X106940000Y-47079000D01*
X109705000Y-47119000D02*
X106940000Y-47119000D01*
X109721000Y-47159000D02*
X106940000Y-47159000D01*
X109735000Y-47199000D02*
X106940000Y-47199000D01*
X109750000Y-47239000D02*
X106940000Y-47239000D01*
X109763000Y-47279000D02*
X106940000Y-47279000D01*
X109777000Y-47319000D02*
X106940000Y-47319000D01*
X109789000Y-47359000D02*
X106940000Y-47359000D01*
X109802000Y-47399000D02*
X106940000Y-47399000D01*
X109814000Y-47439000D02*
X106940000Y-47439000D01*
X109825000Y-47479000D02*
X106940000Y-47479000D01*
X109836000Y-47519000D02*
X106940000Y-47519000D01*
X109847000Y-47559000D02*
X106940000Y-47559000D01*
X109857000Y-47599000D02*
X106940000Y-47599000D01*
X109867000Y-47639000D02*
X106940000Y-47639000D01*
X109876000Y-47679000D02*
X106940000Y-47679000D01*
X109885000Y-47719000D02*
X106940000Y-47719000D01*
X109894000Y-47759000D02*
X106940000Y-47759000D01*
X109902000Y-47799000D02*
X106940000Y-47799000D01*
X109910000Y-47839000D02*
X106940000Y-47839000D01*
X109917000Y-47879000D02*
X106940000Y-47879000D01*
X109924000Y-47920000D02*
X101876000Y-47920000D01*
X109930000Y-47960000D02*
X101870000Y-47960000D01*
X109937000Y-48000000D02*
X101863000Y-48000000D01*
X109942000Y-48040000D02*
X101858000Y-48040000D01*
X109948000Y-48080000D02*
X101852000Y-48080000D01*
X109952000Y-48120000D02*
X101848000Y-48120000D01*
X109957000Y-48160000D02*
X101843000Y-48160000D01*
X109961000Y-48200000D02*
X101839000Y-48200000D01*
X109965000Y-48240000D02*
X101835000Y-48240000D01*
X109968000Y-48280000D02*
X101832000Y-48280000D01*
X109971000Y-48320000D02*
X101829000Y-48320000D01*
X109974000Y-48360000D02*
X101826000Y-48360000D01*
X109976000Y-48400000D02*
X101824000Y-48400000D01*
X109977000Y-48440000D02*
X101823000Y-48440000D01*
X109979000Y-48480000D02*
X101821000Y-48480000D01*
X109980000Y-48520000D02*
X101820000Y-48520000D01*
X109980000Y-48560000D02*
X101820000Y-48560000D01*
X109980000Y-48600000D02*
X101820000Y-48600000D01*
X110020000Y-48600000D02*
G75*
G02*
X101780000Y-48600000I-4120000J0D01*
G01*
X101780000Y-48600000D02*
G75*
G02*
X110020000Y-48600000I4120000J0D01*
G01*
D11*
%TO.C,J4*%
X68950000Y-47550000D02*
X68950000Y-124450000D01*
X68950000Y-47550000D02*
X101050000Y-47550000D01*
X68950000Y-124450000D02*
X101050000Y-124450000D01*
X101050000Y-47550000D02*
X101050000Y-124450000D01*
D12*
%TO.C,C105*%
X100869000Y-69067000D02*
X100869000Y-70133000D01*
X100909000Y-68832000D02*
X100909000Y-70368000D01*
X100949000Y-68652000D02*
X100949000Y-70548000D01*
X100989000Y-68502000D02*
X100989000Y-70698000D01*
X101029000Y-68371000D02*
X101029000Y-70829000D01*
X101069000Y-68254000D02*
X101069000Y-70946000D01*
X101109000Y-68147000D02*
X101109000Y-71053000D01*
X101149000Y-68048000D02*
X101149000Y-71152000D01*
X101189000Y-67955000D02*
X101189000Y-71245000D01*
X101229000Y-67869000D02*
X101229000Y-71331000D01*
X101269000Y-67787000D02*
X101269000Y-71413000D01*
X101309000Y-67710000D02*
X101309000Y-71490000D01*
X101349000Y-67636000D02*
X101349000Y-71564000D01*
X101389000Y-67566000D02*
X101389000Y-71634000D01*
X101429000Y-67498000D02*
X101429000Y-71702000D01*
X101469000Y-67434000D02*
X101469000Y-71766000D01*
X101509000Y-67372000D02*
X101509000Y-71828000D01*
X101549000Y-67313000D02*
X101549000Y-71887000D01*
X101589000Y-67255000D02*
X101589000Y-71945000D01*
X101629000Y-67200000D02*
X101629000Y-72000000D01*
X101669000Y-67146000D02*
X101669000Y-72054000D01*
X101709000Y-67095000D02*
X101709000Y-72105000D01*
X101749000Y-67044000D02*
X101749000Y-72156000D01*
X101789000Y-66996000D02*
X101789000Y-72204000D01*
X101829000Y-66949000D02*
X101829000Y-72251000D01*
X101869000Y-66903000D02*
X101869000Y-72297000D01*
X101909000Y-66859000D02*
X101909000Y-72341000D01*
X101949000Y-66816000D02*
X101949000Y-72384000D01*
X101989000Y-66774000D02*
X101989000Y-72426000D01*
X102029000Y-66733000D02*
X102029000Y-72467000D01*
X102069000Y-66693000D02*
X102069000Y-72507000D01*
X102109000Y-66655000D02*
X102109000Y-72545000D01*
X102149000Y-66617000D02*
X102149000Y-72583000D01*
X102189000Y-66581000D02*
X102189000Y-68560000D01*
X102189000Y-70640000D02*
X102189000Y-72619000D01*
X102229000Y-66545000D02*
X102229000Y-68560000D01*
X102229000Y-70640000D02*
X102229000Y-72655000D01*
X102269000Y-66510000D02*
X102269000Y-68560000D01*
X102269000Y-70640000D02*
X102269000Y-72690000D01*
X102309000Y-66476000D02*
X102309000Y-68560000D01*
X102309000Y-70640000D02*
X102309000Y-72724000D01*
X102349000Y-66444000D02*
X102349000Y-68560000D01*
X102349000Y-70640000D02*
X102349000Y-72756000D01*
X102389000Y-66411000D02*
X102389000Y-68560000D01*
X102389000Y-70640000D02*
X102389000Y-72789000D01*
X102429000Y-66380000D02*
X102429000Y-68560000D01*
X102429000Y-70640000D02*
X102429000Y-72820000D01*
X102469000Y-66350000D02*
X102469000Y-68560000D01*
X102469000Y-70640000D02*
X102469000Y-72850000D01*
X102509000Y-66320000D02*
X102509000Y-68560000D01*
X102509000Y-70640000D02*
X102509000Y-72880000D01*
X102549000Y-66291000D02*
X102549000Y-68560000D01*
X102549000Y-70640000D02*
X102549000Y-72909000D01*
X102589000Y-66262000D02*
X102589000Y-68560000D01*
X102589000Y-70640000D02*
X102589000Y-72938000D01*
X102629000Y-66235000D02*
X102629000Y-68560000D01*
X102629000Y-70640000D02*
X102629000Y-72965000D01*
X102669000Y-66208000D02*
X102669000Y-68560000D01*
X102669000Y-70640000D02*
X102669000Y-72992000D01*
X102709000Y-66182000D02*
X102709000Y-68560000D01*
X102709000Y-70640000D02*
X102709000Y-73018000D01*
X102749000Y-66156000D02*
X102749000Y-68560000D01*
X102749000Y-70640000D02*
X102749000Y-73044000D01*
X102789000Y-66131000D02*
X102789000Y-68560000D01*
X102789000Y-70640000D02*
X102789000Y-73069000D01*
X102829000Y-66107000D02*
X102829000Y-68560000D01*
X102829000Y-70640000D02*
X102829000Y-73093000D01*
X102869000Y-66083000D02*
X102869000Y-68560000D01*
X102869000Y-70640000D02*
X102869000Y-73117000D01*
X102909000Y-66060000D02*
X102909000Y-68560000D01*
X102909000Y-70640000D02*
X102909000Y-73140000D01*
X102949000Y-66038000D02*
X102949000Y-68560000D01*
X102949000Y-70640000D02*
X102949000Y-73162000D01*
X102989000Y-66016000D02*
X102989000Y-68560000D01*
X102989000Y-70640000D02*
X102989000Y-73184000D01*
X103029000Y-65994000D02*
X103029000Y-68560000D01*
X103029000Y-70640000D02*
X103029000Y-73206000D01*
X103069000Y-65973000D02*
X103069000Y-68560000D01*
X103069000Y-70640000D02*
X103069000Y-73227000D01*
X103109000Y-65953000D02*
X103109000Y-68560000D01*
X103109000Y-70640000D02*
X103109000Y-73247000D01*
X103149000Y-65934000D02*
X103149000Y-68560000D01*
X103149000Y-70640000D02*
X103149000Y-73266000D01*
X103189000Y-65914000D02*
X103189000Y-68560000D01*
X103189000Y-70640000D02*
X103189000Y-73286000D01*
X103229000Y-65896000D02*
X103229000Y-68560000D01*
X103229000Y-70640000D02*
X103229000Y-73304000D01*
X103269000Y-65878000D02*
X103269000Y-68560000D01*
X103269000Y-70640000D02*
X103269000Y-73322000D01*
X103309000Y-65860000D02*
X103309000Y-68560000D01*
X103309000Y-70640000D02*
X103309000Y-73340000D01*
X103349000Y-65843000D02*
X103349000Y-68560000D01*
X103349000Y-70640000D02*
X103349000Y-73357000D01*
X103389000Y-65826000D02*
X103389000Y-68560000D01*
X103389000Y-70640000D02*
X103389000Y-73374000D01*
X103429000Y-65810000D02*
X103429000Y-68560000D01*
X103429000Y-70640000D02*
X103429000Y-73390000D01*
X103469000Y-65795000D02*
X103469000Y-68560000D01*
X103469000Y-70640000D02*
X103469000Y-73405000D01*
X103509000Y-65779000D02*
X103509000Y-68560000D01*
X103509000Y-70640000D02*
X103509000Y-73421000D01*
X103549000Y-65765000D02*
X103549000Y-68560000D01*
X103549000Y-70640000D02*
X103549000Y-73435000D01*
X103589000Y-65750000D02*
X103589000Y-68560000D01*
X103589000Y-70640000D02*
X103589000Y-73450000D01*
X103629000Y-65737000D02*
X103629000Y-68560000D01*
X103629000Y-70640000D02*
X103629000Y-73463000D01*
X103669000Y-65723000D02*
X103669000Y-68560000D01*
X103669000Y-70640000D02*
X103669000Y-73477000D01*
X103709000Y-65711000D02*
X103709000Y-68560000D01*
X103709000Y-70640000D02*
X103709000Y-73489000D01*
X103749000Y-65698000D02*
X103749000Y-68560000D01*
X103749000Y-70640000D02*
X103749000Y-73502000D01*
X103789000Y-65686000D02*
X103789000Y-68560000D01*
X103789000Y-70640000D02*
X103789000Y-73514000D01*
X103829000Y-65675000D02*
X103829000Y-68560000D01*
X103829000Y-70640000D02*
X103829000Y-73525000D01*
X103869000Y-65664000D02*
X103869000Y-68560000D01*
X103869000Y-70640000D02*
X103869000Y-73536000D01*
X103909000Y-65653000D02*
X103909000Y-68560000D01*
X103909000Y-70640000D02*
X103909000Y-73547000D01*
X103949000Y-65643000D02*
X103949000Y-68560000D01*
X103949000Y-70640000D02*
X103949000Y-73557000D01*
X103989000Y-65633000D02*
X103989000Y-68560000D01*
X103989000Y-70640000D02*
X103989000Y-73567000D01*
X104029000Y-65624000D02*
X104029000Y-68560000D01*
X104029000Y-70640000D02*
X104029000Y-73576000D01*
X104069000Y-65615000D02*
X104069000Y-68560000D01*
X104069000Y-70640000D02*
X104069000Y-73585000D01*
X104109000Y-65606000D02*
X104109000Y-68560000D01*
X104109000Y-70640000D02*
X104109000Y-73594000D01*
X104149000Y-65598000D02*
X104149000Y-68560000D01*
X104149000Y-70640000D02*
X104149000Y-73602000D01*
X104189000Y-65590000D02*
X104189000Y-68560000D01*
X104189000Y-70640000D02*
X104189000Y-73610000D01*
X104229000Y-65583000D02*
X104229000Y-68560000D01*
X104229000Y-70640000D02*
X104229000Y-73617000D01*
X104270000Y-65576000D02*
X104270000Y-73624000D01*
X104310000Y-65570000D02*
X104310000Y-73630000D01*
X104350000Y-65563000D02*
X104350000Y-73637000D01*
X104390000Y-65558000D02*
X104390000Y-73642000D01*
X104430000Y-65552000D02*
X104430000Y-73648000D01*
X104470000Y-65548000D02*
X104470000Y-73652000D01*
X104510000Y-65543000D02*
X104510000Y-73657000D01*
X104550000Y-65539000D02*
X104550000Y-73661000D01*
X104590000Y-65535000D02*
X104590000Y-73665000D01*
X104630000Y-65532000D02*
X104630000Y-73668000D01*
X104670000Y-65529000D02*
X104670000Y-73671000D01*
X104710000Y-65526000D02*
X104710000Y-73674000D01*
X104750000Y-65524000D02*
X104750000Y-73676000D01*
X104790000Y-65523000D02*
X104790000Y-73677000D01*
X104830000Y-65521000D02*
X104830000Y-73679000D01*
X104870000Y-65520000D02*
X104870000Y-73680000D01*
X104910000Y-65520000D02*
X104910000Y-73680000D01*
X104950000Y-65520000D02*
X104950000Y-73680000D01*
X108959698Y-66885000D02*
X108959698Y-67685000D01*
X109359698Y-67285000D02*
X108559698Y-67285000D01*
X109070000Y-69600000D02*
G75*
G02*
X100830000Y-69600000I-4120000J0D01*
G01*
X100830000Y-69600000D02*
G75*
G02*
X109070000Y-69600000I4120000J0D01*
G01*
D11*
%TO.C,J5*%
X177950000Y-124450000D02*
X177950000Y-47550000D01*
X210050000Y-47550000D02*
X177950000Y-47550000D01*
X210050000Y-124450000D02*
X177950000Y-124450000D01*
X210050000Y-124450000D02*
X210050000Y-47550000D01*
D12*
%TO.C,J7*%
X130635000Y-81365000D02*
X130635000Y-81430000D01*
X130635000Y-87770000D02*
X130635000Y-87835000D01*
X134165000Y-81365000D02*
X130635000Y-81365000D01*
X134165000Y-81365000D02*
X134165000Y-81430000D01*
X134165000Y-87770000D02*
X134165000Y-87835000D01*
X134165000Y-87835000D02*
X130635000Y-87835000D01*
X135490000Y-81430000D02*
X134165000Y-81430000D01*
%TD*%
M02*
