%TF.GenerationSoftware,KiCad,Pcbnew,8.0.5*%
%TF.CreationDate,2024-10-18T05:49:16+03:00*%
%TF.ProjectId,ECUGDI,45435547-4449-42e6-9b69-6361645f7063,rev?*%
%TF.SameCoordinates,Original*%
%TF.FileFunction,Legend,Top*%
%TF.FilePolarity,Positive*%
%FSLAX46Y46*%
G04 Gerber Fmt 4.6, Leading zero omitted, Abs format (unit mm)*
G04 Created by KiCad (PCBNEW 8.0.5) date 2024-10-18 05:49:16*
%MOMM*%
%LPD*%
G01*
G04 APERTURE LIST*
%ADD10C,0.150000*%
%ADD11C,0.200000*%
%ADD12C,0.120000*%
%ADD13C,0.203200*%
%ADD14C,0.250000*%
G04 APERTURE END LIST*
D10*
X192500000Y-83750000D02*
X191150000Y-82150000D01*
X188250000Y-74450000D02*
X188700000Y-74450000D01*
X191150000Y-82150000D02*
X188250000Y-82150000D01*
X193100000Y-75800000D02*
X195000000Y-75800000D01*
X195175000Y-83750000D02*
X197225000Y-81800000D01*
X196700000Y-74500000D02*
X200050000Y-74500000D01*
X188700000Y-74450000D02*
X191300000Y-74450000D01*
X195175000Y-83750000D02*
X192475000Y-83750000D01*
X200075000Y-81800000D02*
X197225000Y-81800000D01*
X191300000Y-74450000D02*
X193100000Y-75800000D01*
X195000000Y-75800000D02*
X196700000Y-74500000D01*
X200050000Y-79750000D02*
X200100000Y-81800000D01*
X200050000Y-74500000D02*
X200050000Y-79750000D01*
X188250000Y-82150000D02*
X188250000Y-74450000D01*
X100304819Y-95988094D02*
X101114342Y-95988094D01*
X101114342Y-95988094D02*
X101209580Y-95940475D01*
X101209580Y-95940475D02*
X101257200Y-95892856D01*
X101257200Y-95892856D02*
X101304819Y-95797618D01*
X101304819Y-95797618D02*
X101304819Y-95607142D01*
X101304819Y-95607142D02*
X101257200Y-95511904D01*
X101257200Y-95511904D02*
X101209580Y-95464285D01*
X101209580Y-95464285D02*
X101114342Y-95416666D01*
X101114342Y-95416666D02*
X100304819Y-95416666D01*
X100304819Y-94464285D02*
X100304819Y-94940475D01*
X100304819Y-94940475D02*
X100781009Y-94988094D01*
X100781009Y-94988094D02*
X100733390Y-94940475D01*
X100733390Y-94940475D02*
X100685771Y-94845237D01*
X100685771Y-94845237D02*
X100685771Y-94607142D01*
X100685771Y-94607142D02*
X100733390Y-94511904D01*
X100733390Y-94511904D02*
X100781009Y-94464285D01*
X100781009Y-94464285D02*
X100876247Y-94416666D01*
X100876247Y-94416666D02*
X101114342Y-94416666D01*
X101114342Y-94416666D02*
X101209580Y-94464285D01*
X101209580Y-94464285D02*
X101257200Y-94511904D01*
X101257200Y-94511904D02*
X101304819Y-94607142D01*
X101304819Y-94607142D02*
X101304819Y-94845237D01*
X101304819Y-94845237D02*
X101257200Y-94940475D01*
X101257200Y-94940475D02*
X101209580Y-94988094D01*
X101304819Y-93464285D02*
X101304819Y-94035713D01*
X101304819Y-93749999D02*
X100304819Y-93749999D01*
X100304819Y-93749999D02*
X100447676Y-93845237D01*
X100447676Y-93845237D02*
X100542914Y-93940475D01*
X100542914Y-93940475D02*
X100590533Y-94035713D01*
X72366666Y-118654819D02*
X72366666Y-119369104D01*
X72366666Y-119369104D02*
X72319047Y-119511961D01*
X72319047Y-119511961D02*
X72223809Y-119607200D01*
X72223809Y-119607200D02*
X72080952Y-119654819D01*
X72080952Y-119654819D02*
X71985714Y-119654819D01*
X72747619Y-118654819D02*
X73366666Y-118654819D01*
X73366666Y-118654819D02*
X73033333Y-119035771D01*
X73033333Y-119035771D02*
X73176190Y-119035771D01*
X73176190Y-119035771D02*
X73271428Y-119083390D01*
X73271428Y-119083390D02*
X73319047Y-119131009D01*
X73319047Y-119131009D02*
X73366666Y-119226247D01*
X73366666Y-119226247D02*
X73366666Y-119464342D01*
X73366666Y-119464342D02*
X73319047Y-119559580D01*
X73319047Y-119559580D02*
X73271428Y-119607200D01*
X73271428Y-119607200D02*
X73176190Y-119654819D01*
X73176190Y-119654819D02*
X72890476Y-119654819D01*
X72890476Y-119654819D02*
X72795238Y-119607200D01*
X72795238Y-119607200D02*
X72747619Y-119559580D01*
X143361905Y-52404819D02*
X143361905Y-53214342D01*
X143361905Y-53214342D02*
X143409524Y-53309580D01*
X143409524Y-53309580D02*
X143457143Y-53357200D01*
X143457143Y-53357200D02*
X143552381Y-53404819D01*
X143552381Y-53404819D02*
X143742857Y-53404819D01*
X143742857Y-53404819D02*
X143838095Y-53357200D01*
X143838095Y-53357200D02*
X143885714Y-53309580D01*
X143885714Y-53309580D02*
X143933333Y-53214342D01*
X143933333Y-53214342D02*
X143933333Y-52404819D01*
X144933333Y-53404819D02*
X144361905Y-53404819D01*
X144647619Y-53404819D02*
X144647619Y-52404819D01*
X144647619Y-52404819D02*
X144552381Y-52547676D01*
X144552381Y-52547676D02*
X144457143Y-52642914D01*
X144457143Y-52642914D02*
X144361905Y-52690533D01*
X145266667Y-52404819D02*
X145933333Y-52404819D01*
X145933333Y-52404819D02*
X145504762Y-53404819D01*
X77754819Y-62338094D02*
X78564342Y-62338094D01*
X78564342Y-62338094D02*
X78659580Y-62290475D01*
X78659580Y-62290475D02*
X78707200Y-62242856D01*
X78707200Y-62242856D02*
X78754819Y-62147618D01*
X78754819Y-62147618D02*
X78754819Y-61957142D01*
X78754819Y-61957142D02*
X78707200Y-61861904D01*
X78707200Y-61861904D02*
X78659580Y-61814285D01*
X78659580Y-61814285D02*
X78564342Y-61766666D01*
X78564342Y-61766666D02*
X77754819Y-61766666D01*
X77754819Y-61385713D02*
X77754819Y-60766666D01*
X77754819Y-60766666D02*
X78135771Y-61099999D01*
X78135771Y-61099999D02*
X78135771Y-60957142D01*
X78135771Y-60957142D02*
X78183390Y-60861904D01*
X78183390Y-60861904D02*
X78231009Y-60814285D01*
X78231009Y-60814285D02*
X78326247Y-60766666D01*
X78326247Y-60766666D02*
X78564342Y-60766666D01*
X78564342Y-60766666D02*
X78659580Y-60814285D01*
X78659580Y-60814285D02*
X78707200Y-60861904D01*
X78707200Y-60861904D02*
X78754819Y-60957142D01*
X78754819Y-60957142D02*
X78754819Y-61242856D01*
X78754819Y-61242856D02*
X78707200Y-61338094D01*
X78707200Y-61338094D02*
X78659580Y-61385713D01*
X77850057Y-60385713D02*
X77802438Y-60338094D01*
X77802438Y-60338094D02*
X77754819Y-60242856D01*
X77754819Y-60242856D02*
X77754819Y-60004761D01*
X77754819Y-60004761D02*
X77802438Y-59909523D01*
X77802438Y-59909523D02*
X77850057Y-59861904D01*
X77850057Y-59861904D02*
X77945295Y-59814285D01*
X77945295Y-59814285D02*
X78040533Y-59814285D01*
X78040533Y-59814285D02*
X78183390Y-59861904D01*
X78183390Y-59861904D02*
X78754819Y-60433332D01*
X78754819Y-60433332D02*
X78754819Y-59814285D01*
X175861905Y-59404819D02*
X175861905Y-60214342D01*
X175861905Y-60214342D02*
X175909524Y-60309580D01*
X175909524Y-60309580D02*
X175957143Y-60357200D01*
X175957143Y-60357200D02*
X176052381Y-60404819D01*
X176052381Y-60404819D02*
X176242857Y-60404819D01*
X176242857Y-60404819D02*
X176338095Y-60357200D01*
X176338095Y-60357200D02*
X176385714Y-60309580D01*
X176385714Y-60309580D02*
X176433333Y-60214342D01*
X176433333Y-60214342D02*
X176433333Y-59404819D01*
X177433333Y-60404819D02*
X176861905Y-60404819D01*
X177147619Y-60404819D02*
X177147619Y-59404819D01*
X177147619Y-59404819D02*
X177052381Y-59547676D01*
X177052381Y-59547676D02*
X176957143Y-59642914D01*
X176957143Y-59642914D02*
X176861905Y-59690533D01*
X177814286Y-59500057D02*
X177861905Y-59452438D01*
X177861905Y-59452438D02*
X177957143Y-59404819D01*
X177957143Y-59404819D02*
X178195238Y-59404819D01*
X178195238Y-59404819D02*
X178290476Y-59452438D01*
X178290476Y-59452438D02*
X178338095Y-59500057D01*
X178338095Y-59500057D02*
X178385714Y-59595295D01*
X178385714Y-59595295D02*
X178385714Y-59690533D01*
X178385714Y-59690533D02*
X178338095Y-59833390D01*
X178338095Y-59833390D02*
X177766667Y-60404819D01*
X177766667Y-60404819D02*
X178385714Y-60404819D01*
X131711905Y-45554819D02*
X131711905Y-46364342D01*
X131711905Y-46364342D02*
X131759524Y-46459580D01*
X131759524Y-46459580D02*
X131807143Y-46507200D01*
X131807143Y-46507200D02*
X131902381Y-46554819D01*
X131902381Y-46554819D02*
X132092857Y-46554819D01*
X132092857Y-46554819D02*
X132188095Y-46507200D01*
X132188095Y-46507200D02*
X132235714Y-46459580D01*
X132235714Y-46459580D02*
X132283333Y-46364342D01*
X132283333Y-46364342D02*
X132283333Y-45554819D01*
X133283333Y-46554819D02*
X132711905Y-46554819D01*
X132997619Y-46554819D02*
X132997619Y-45554819D01*
X132997619Y-45554819D02*
X132902381Y-45697676D01*
X132902381Y-45697676D02*
X132807143Y-45792914D01*
X132807143Y-45792914D02*
X132711905Y-45840533D01*
X133854762Y-45983390D02*
X133759524Y-45935771D01*
X133759524Y-45935771D02*
X133711905Y-45888152D01*
X133711905Y-45888152D02*
X133664286Y-45792914D01*
X133664286Y-45792914D02*
X133664286Y-45745295D01*
X133664286Y-45745295D02*
X133711905Y-45650057D01*
X133711905Y-45650057D02*
X133759524Y-45602438D01*
X133759524Y-45602438D02*
X133854762Y-45554819D01*
X133854762Y-45554819D02*
X134045238Y-45554819D01*
X134045238Y-45554819D02*
X134140476Y-45602438D01*
X134140476Y-45602438D02*
X134188095Y-45650057D01*
X134188095Y-45650057D02*
X134235714Y-45745295D01*
X134235714Y-45745295D02*
X134235714Y-45792914D01*
X134235714Y-45792914D02*
X134188095Y-45888152D01*
X134188095Y-45888152D02*
X134140476Y-45935771D01*
X134140476Y-45935771D02*
X134045238Y-45983390D01*
X134045238Y-45983390D02*
X133854762Y-45983390D01*
X133854762Y-45983390D02*
X133759524Y-46031009D01*
X133759524Y-46031009D02*
X133711905Y-46078628D01*
X133711905Y-46078628D02*
X133664286Y-46173866D01*
X133664286Y-46173866D02*
X133664286Y-46364342D01*
X133664286Y-46364342D02*
X133711905Y-46459580D01*
X133711905Y-46459580D02*
X133759524Y-46507200D01*
X133759524Y-46507200D02*
X133854762Y-46554819D01*
X133854762Y-46554819D02*
X134045238Y-46554819D01*
X134045238Y-46554819D02*
X134140476Y-46507200D01*
X134140476Y-46507200D02*
X134188095Y-46459580D01*
X134188095Y-46459580D02*
X134235714Y-46364342D01*
X134235714Y-46364342D02*
X134235714Y-46173866D01*
X134235714Y-46173866D02*
X134188095Y-46078628D01*
X134188095Y-46078628D02*
X134140476Y-46031009D01*
X134140476Y-46031009D02*
X134045238Y-45983390D01*
X89654819Y-61938094D02*
X90464342Y-61938094D01*
X90464342Y-61938094D02*
X90559580Y-61890475D01*
X90559580Y-61890475D02*
X90607200Y-61842856D01*
X90607200Y-61842856D02*
X90654819Y-61747618D01*
X90654819Y-61747618D02*
X90654819Y-61557142D01*
X90654819Y-61557142D02*
X90607200Y-61461904D01*
X90607200Y-61461904D02*
X90559580Y-61414285D01*
X90559580Y-61414285D02*
X90464342Y-61366666D01*
X90464342Y-61366666D02*
X89654819Y-61366666D01*
X89654819Y-60985713D02*
X89654819Y-60366666D01*
X89654819Y-60366666D02*
X90035771Y-60699999D01*
X90035771Y-60699999D02*
X90035771Y-60557142D01*
X90035771Y-60557142D02*
X90083390Y-60461904D01*
X90083390Y-60461904D02*
X90131009Y-60414285D01*
X90131009Y-60414285D02*
X90226247Y-60366666D01*
X90226247Y-60366666D02*
X90464342Y-60366666D01*
X90464342Y-60366666D02*
X90559580Y-60414285D01*
X90559580Y-60414285D02*
X90607200Y-60461904D01*
X90607200Y-60461904D02*
X90654819Y-60557142D01*
X90654819Y-60557142D02*
X90654819Y-60842856D01*
X90654819Y-60842856D02*
X90607200Y-60938094D01*
X90607200Y-60938094D02*
X90559580Y-60985713D01*
X90654819Y-59414285D02*
X90654819Y-59985713D01*
X90654819Y-59699999D02*
X89654819Y-59699999D01*
X89654819Y-59699999D02*
X89797676Y-59795237D01*
X89797676Y-59795237D02*
X89892914Y-59890475D01*
X89892914Y-59890475D02*
X89940533Y-59985713D01*
X173611905Y-105304819D02*
X173611905Y-106114342D01*
X173611905Y-106114342D02*
X173659524Y-106209580D01*
X173659524Y-106209580D02*
X173707143Y-106257200D01*
X173707143Y-106257200D02*
X173802381Y-106304819D01*
X173802381Y-106304819D02*
X173992857Y-106304819D01*
X173992857Y-106304819D02*
X174088095Y-106257200D01*
X174088095Y-106257200D02*
X174135714Y-106209580D01*
X174135714Y-106209580D02*
X174183333Y-106114342D01*
X174183333Y-106114342D02*
X174183333Y-105304819D01*
X174611905Y-105400057D02*
X174659524Y-105352438D01*
X174659524Y-105352438D02*
X174754762Y-105304819D01*
X174754762Y-105304819D02*
X174992857Y-105304819D01*
X174992857Y-105304819D02*
X175088095Y-105352438D01*
X175088095Y-105352438D02*
X175135714Y-105400057D01*
X175135714Y-105400057D02*
X175183333Y-105495295D01*
X175183333Y-105495295D02*
X175183333Y-105590533D01*
X175183333Y-105590533D02*
X175135714Y-105733390D01*
X175135714Y-105733390D02*
X174564286Y-106304819D01*
X174564286Y-106304819D02*
X175183333Y-106304819D01*
X176088095Y-105304819D02*
X175611905Y-105304819D01*
X175611905Y-105304819D02*
X175564286Y-105781009D01*
X175564286Y-105781009D02*
X175611905Y-105733390D01*
X175611905Y-105733390D02*
X175707143Y-105685771D01*
X175707143Y-105685771D02*
X175945238Y-105685771D01*
X175945238Y-105685771D02*
X176040476Y-105733390D01*
X176040476Y-105733390D02*
X176088095Y-105781009D01*
X176088095Y-105781009D02*
X176135714Y-105876247D01*
X176135714Y-105876247D02*
X176135714Y-106114342D01*
X176135714Y-106114342D02*
X176088095Y-106209580D01*
X176088095Y-106209580D02*
X176040476Y-106257200D01*
X176040476Y-106257200D02*
X175945238Y-106304819D01*
X175945238Y-106304819D02*
X175707143Y-106304819D01*
X175707143Y-106304819D02*
X175611905Y-106257200D01*
X175611905Y-106257200D02*
X175564286Y-106209580D01*
X187954819Y-120438094D02*
X188764342Y-120438094D01*
X188764342Y-120438094D02*
X188859580Y-120390475D01*
X188859580Y-120390475D02*
X188907200Y-120342856D01*
X188907200Y-120342856D02*
X188954819Y-120247618D01*
X188954819Y-120247618D02*
X188954819Y-120057142D01*
X188954819Y-120057142D02*
X188907200Y-119961904D01*
X188907200Y-119961904D02*
X188859580Y-119914285D01*
X188859580Y-119914285D02*
X188764342Y-119866666D01*
X188764342Y-119866666D02*
X187954819Y-119866666D01*
X188050057Y-119438094D02*
X188002438Y-119390475D01*
X188002438Y-119390475D02*
X187954819Y-119295237D01*
X187954819Y-119295237D02*
X187954819Y-119057142D01*
X187954819Y-119057142D02*
X188002438Y-118961904D01*
X188002438Y-118961904D02*
X188050057Y-118914285D01*
X188050057Y-118914285D02*
X188145295Y-118866666D01*
X188145295Y-118866666D02*
X188240533Y-118866666D01*
X188240533Y-118866666D02*
X188383390Y-118914285D01*
X188383390Y-118914285D02*
X188954819Y-119485713D01*
X188954819Y-119485713D02*
X188954819Y-118866666D01*
X188954819Y-117914285D02*
X188954819Y-118485713D01*
X188954819Y-118199999D02*
X187954819Y-118199999D01*
X187954819Y-118199999D02*
X188097676Y-118295237D01*
X188097676Y-118295237D02*
X188192914Y-118390475D01*
X188192914Y-118390475D02*
X188240533Y-118485713D01*
X72666666Y-122904819D02*
X72666666Y-123619104D01*
X72666666Y-123619104D02*
X72619047Y-123761961D01*
X72619047Y-123761961D02*
X72523809Y-123857200D01*
X72523809Y-123857200D02*
X72380952Y-123904819D01*
X72380952Y-123904819D02*
X72285714Y-123904819D01*
X73666666Y-123904819D02*
X73095238Y-123904819D01*
X73380952Y-123904819D02*
X73380952Y-122904819D01*
X73380952Y-122904819D02*
X73285714Y-123047676D01*
X73285714Y-123047676D02*
X73190476Y-123142914D01*
X73190476Y-123142914D02*
X73095238Y-123190533D01*
X173216666Y-107654819D02*
X173216666Y-108369104D01*
X173216666Y-108369104D02*
X173169047Y-108511961D01*
X173169047Y-108511961D02*
X173073809Y-108607200D01*
X173073809Y-108607200D02*
X172930952Y-108654819D01*
X172930952Y-108654819D02*
X172835714Y-108654819D01*
X173692857Y-108654819D02*
X173692857Y-107654819D01*
X173692857Y-107654819D02*
X174073809Y-107654819D01*
X174073809Y-107654819D02*
X174169047Y-107702438D01*
X174169047Y-107702438D02*
X174216666Y-107750057D01*
X174216666Y-107750057D02*
X174264285Y-107845295D01*
X174264285Y-107845295D02*
X174264285Y-107988152D01*
X174264285Y-107988152D02*
X174216666Y-108083390D01*
X174216666Y-108083390D02*
X174169047Y-108131009D01*
X174169047Y-108131009D02*
X174073809Y-108178628D01*
X174073809Y-108178628D02*
X173692857Y-108178628D01*
X175216666Y-108654819D02*
X174645238Y-108654819D01*
X174930952Y-108654819D02*
X174930952Y-107654819D01*
X174930952Y-107654819D02*
X174835714Y-107797676D01*
X174835714Y-107797676D02*
X174740476Y-107892914D01*
X174740476Y-107892914D02*
X174645238Y-107940533D01*
X200811905Y-110604819D02*
X200811905Y-111414342D01*
X200811905Y-111414342D02*
X200859524Y-111509580D01*
X200859524Y-111509580D02*
X200907143Y-111557200D01*
X200907143Y-111557200D02*
X201002381Y-111604819D01*
X201002381Y-111604819D02*
X201192857Y-111604819D01*
X201192857Y-111604819D02*
X201288095Y-111557200D01*
X201288095Y-111557200D02*
X201335714Y-111509580D01*
X201335714Y-111509580D02*
X201383333Y-111414342D01*
X201383333Y-111414342D02*
X201383333Y-110604819D01*
X202383333Y-111604819D02*
X201811905Y-111604819D01*
X202097619Y-111604819D02*
X202097619Y-110604819D01*
X202097619Y-110604819D02*
X202002381Y-110747676D01*
X202002381Y-110747676D02*
X201907143Y-110842914D01*
X201907143Y-110842914D02*
X201811905Y-110890533D01*
X203002381Y-110604819D02*
X203097619Y-110604819D01*
X203097619Y-110604819D02*
X203192857Y-110652438D01*
X203192857Y-110652438D02*
X203240476Y-110700057D01*
X203240476Y-110700057D02*
X203288095Y-110795295D01*
X203288095Y-110795295D02*
X203335714Y-110985771D01*
X203335714Y-110985771D02*
X203335714Y-111223866D01*
X203335714Y-111223866D02*
X203288095Y-111414342D01*
X203288095Y-111414342D02*
X203240476Y-111509580D01*
X203240476Y-111509580D02*
X203192857Y-111557200D01*
X203192857Y-111557200D02*
X203097619Y-111604819D01*
X203097619Y-111604819D02*
X203002381Y-111604819D01*
X203002381Y-111604819D02*
X202907143Y-111557200D01*
X202907143Y-111557200D02*
X202859524Y-111509580D01*
X202859524Y-111509580D02*
X202811905Y-111414342D01*
X202811905Y-111414342D02*
X202764286Y-111223866D01*
X202764286Y-111223866D02*
X202764286Y-110985771D01*
X202764286Y-110985771D02*
X202811905Y-110795295D01*
X202811905Y-110795295D02*
X202859524Y-110700057D01*
X202859524Y-110700057D02*
X202907143Y-110652438D01*
X202907143Y-110652438D02*
X203002381Y-110604819D01*
X74744819Y-117963094D02*
X75554342Y-117963094D01*
X75554342Y-117963094D02*
X75649580Y-117915475D01*
X75649580Y-117915475D02*
X75697200Y-117867856D01*
X75697200Y-117867856D02*
X75744819Y-117772618D01*
X75744819Y-117772618D02*
X75744819Y-117582142D01*
X75744819Y-117582142D02*
X75697200Y-117486904D01*
X75697200Y-117486904D02*
X75649580Y-117439285D01*
X75649580Y-117439285D02*
X75554342Y-117391666D01*
X75554342Y-117391666D02*
X74744819Y-117391666D01*
X74744819Y-117010713D02*
X74744819Y-116391666D01*
X74744819Y-116391666D02*
X75125771Y-116724999D01*
X75125771Y-116724999D02*
X75125771Y-116582142D01*
X75125771Y-116582142D02*
X75173390Y-116486904D01*
X75173390Y-116486904D02*
X75221009Y-116439285D01*
X75221009Y-116439285D02*
X75316247Y-116391666D01*
X75316247Y-116391666D02*
X75554342Y-116391666D01*
X75554342Y-116391666D02*
X75649580Y-116439285D01*
X75649580Y-116439285D02*
X75697200Y-116486904D01*
X75697200Y-116486904D02*
X75744819Y-116582142D01*
X75744819Y-116582142D02*
X75744819Y-116867856D01*
X75744819Y-116867856D02*
X75697200Y-116963094D01*
X75697200Y-116963094D02*
X75649580Y-117010713D01*
X75173390Y-115820237D02*
X75125771Y-115915475D01*
X75125771Y-115915475D02*
X75078152Y-115963094D01*
X75078152Y-115963094D02*
X74982914Y-116010713D01*
X74982914Y-116010713D02*
X74935295Y-116010713D01*
X74935295Y-116010713D02*
X74840057Y-115963094D01*
X74840057Y-115963094D02*
X74792438Y-115915475D01*
X74792438Y-115915475D02*
X74744819Y-115820237D01*
X74744819Y-115820237D02*
X74744819Y-115629761D01*
X74744819Y-115629761D02*
X74792438Y-115534523D01*
X74792438Y-115534523D02*
X74840057Y-115486904D01*
X74840057Y-115486904D02*
X74935295Y-115439285D01*
X74935295Y-115439285D02*
X74982914Y-115439285D01*
X74982914Y-115439285D02*
X75078152Y-115486904D01*
X75078152Y-115486904D02*
X75125771Y-115534523D01*
X75125771Y-115534523D02*
X75173390Y-115629761D01*
X75173390Y-115629761D02*
X75173390Y-115820237D01*
X75173390Y-115820237D02*
X75221009Y-115915475D01*
X75221009Y-115915475D02*
X75268628Y-115963094D01*
X75268628Y-115963094D02*
X75363866Y-116010713D01*
X75363866Y-116010713D02*
X75554342Y-116010713D01*
X75554342Y-116010713D02*
X75649580Y-115963094D01*
X75649580Y-115963094D02*
X75697200Y-115915475D01*
X75697200Y-115915475D02*
X75744819Y-115820237D01*
X75744819Y-115820237D02*
X75744819Y-115629761D01*
X75744819Y-115629761D02*
X75697200Y-115534523D01*
X75697200Y-115534523D02*
X75649580Y-115486904D01*
X75649580Y-115486904D02*
X75554342Y-115439285D01*
X75554342Y-115439285D02*
X75363866Y-115439285D01*
X75363866Y-115439285D02*
X75268628Y-115486904D01*
X75268628Y-115486904D02*
X75221009Y-115534523D01*
X75221009Y-115534523D02*
X75173390Y-115629761D01*
X94770476Y-67574819D02*
X94770476Y-68289104D01*
X94770476Y-68289104D02*
X94722857Y-68431961D01*
X94722857Y-68431961D02*
X94627619Y-68527200D01*
X94627619Y-68527200D02*
X94484762Y-68574819D01*
X94484762Y-68574819D02*
X94389524Y-68574819D01*
X95770476Y-68574819D02*
X95199048Y-68574819D01*
X95484762Y-68574819D02*
X95484762Y-67574819D01*
X95484762Y-67574819D02*
X95389524Y-67717676D01*
X95389524Y-67717676D02*
X95294286Y-67812914D01*
X95294286Y-67812914D02*
X95199048Y-67860533D01*
X96103810Y-67574819D02*
X96722857Y-67574819D01*
X96722857Y-67574819D02*
X96389524Y-67955771D01*
X96389524Y-67955771D02*
X96532381Y-67955771D01*
X96532381Y-67955771D02*
X96627619Y-68003390D01*
X96627619Y-68003390D02*
X96675238Y-68051009D01*
X96675238Y-68051009D02*
X96722857Y-68146247D01*
X96722857Y-68146247D02*
X96722857Y-68384342D01*
X96722857Y-68384342D02*
X96675238Y-68479580D01*
X96675238Y-68479580D02*
X96627619Y-68527200D01*
X96627619Y-68527200D02*
X96532381Y-68574819D01*
X96532381Y-68574819D02*
X96246667Y-68574819D01*
X96246667Y-68574819D02*
X96151429Y-68527200D01*
X96151429Y-68527200D02*
X96103810Y-68479580D01*
X112804819Y-96888094D02*
X113614342Y-96888094D01*
X113614342Y-96888094D02*
X113709580Y-96840475D01*
X113709580Y-96840475D02*
X113757200Y-96792856D01*
X113757200Y-96792856D02*
X113804819Y-96697618D01*
X113804819Y-96697618D02*
X113804819Y-96507142D01*
X113804819Y-96507142D02*
X113757200Y-96411904D01*
X113757200Y-96411904D02*
X113709580Y-96364285D01*
X113709580Y-96364285D02*
X113614342Y-96316666D01*
X113614342Y-96316666D02*
X112804819Y-96316666D01*
X112804819Y-95935713D02*
X112804819Y-95316666D01*
X112804819Y-95316666D02*
X113185771Y-95649999D01*
X113185771Y-95649999D02*
X113185771Y-95507142D01*
X113185771Y-95507142D02*
X113233390Y-95411904D01*
X113233390Y-95411904D02*
X113281009Y-95364285D01*
X113281009Y-95364285D02*
X113376247Y-95316666D01*
X113376247Y-95316666D02*
X113614342Y-95316666D01*
X113614342Y-95316666D02*
X113709580Y-95364285D01*
X113709580Y-95364285D02*
X113757200Y-95411904D01*
X113757200Y-95411904D02*
X113804819Y-95507142D01*
X113804819Y-95507142D02*
X113804819Y-95792856D01*
X113804819Y-95792856D02*
X113757200Y-95888094D01*
X113757200Y-95888094D02*
X113709580Y-95935713D01*
X112804819Y-94697618D02*
X112804819Y-94602380D01*
X112804819Y-94602380D02*
X112852438Y-94507142D01*
X112852438Y-94507142D02*
X112900057Y-94459523D01*
X112900057Y-94459523D02*
X112995295Y-94411904D01*
X112995295Y-94411904D02*
X113185771Y-94364285D01*
X113185771Y-94364285D02*
X113423866Y-94364285D01*
X113423866Y-94364285D02*
X113614342Y-94411904D01*
X113614342Y-94411904D02*
X113709580Y-94459523D01*
X113709580Y-94459523D02*
X113757200Y-94507142D01*
X113757200Y-94507142D02*
X113804819Y-94602380D01*
X113804819Y-94602380D02*
X113804819Y-94697618D01*
X113804819Y-94697618D02*
X113757200Y-94792856D01*
X113757200Y-94792856D02*
X113709580Y-94840475D01*
X113709580Y-94840475D02*
X113614342Y-94888094D01*
X113614342Y-94888094D02*
X113423866Y-94935713D01*
X113423866Y-94935713D02*
X113185771Y-94935713D01*
X113185771Y-94935713D02*
X112995295Y-94888094D01*
X112995295Y-94888094D02*
X112900057Y-94840475D01*
X112900057Y-94840475D02*
X112852438Y-94792856D01*
X112852438Y-94792856D02*
X112804819Y-94697618D01*
X125704819Y-67883333D02*
X126419104Y-67883333D01*
X126419104Y-67883333D02*
X126561961Y-67930952D01*
X126561961Y-67930952D02*
X126657200Y-68026190D01*
X126657200Y-68026190D02*
X126704819Y-68169047D01*
X126704819Y-68169047D02*
X126704819Y-68264285D01*
X126133390Y-67264285D02*
X126085771Y-67359523D01*
X126085771Y-67359523D02*
X126038152Y-67407142D01*
X126038152Y-67407142D02*
X125942914Y-67454761D01*
X125942914Y-67454761D02*
X125895295Y-67454761D01*
X125895295Y-67454761D02*
X125800057Y-67407142D01*
X125800057Y-67407142D02*
X125752438Y-67359523D01*
X125752438Y-67359523D02*
X125704819Y-67264285D01*
X125704819Y-67264285D02*
X125704819Y-67073809D01*
X125704819Y-67073809D02*
X125752438Y-66978571D01*
X125752438Y-66978571D02*
X125800057Y-66930952D01*
X125800057Y-66930952D02*
X125895295Y-66883333D01*
X125895295Y-66883333D02*
X125942914Y-66883333D01*
X125942914Y-66883333D02*
X126038152Y-66930952D01*
X126038152Y-66930952D02*
X126085771Y-66978571D01*
X126085771Y-66978571D02*
X126133390Y-67073809D01*
X126133390Y-67073809D02*
X126133390Y-67264285D01*
X126133390Y-67264285D02*
X126181009Y-67359523D01*
X126181009Y-67359523D02*
X126228628Y-67407142D01*
X126228628Y-67407142D02*
X126323866Y-67454761D01*
X126323866Y-67454761D02*
X126514342Y-67454761D01*
X126514342Y-67454761D02*
X126609580Y-67407142D01*
X126609580Y-67407142D02*
X126657200Y-67359523D01*
X126657200Y-67359523D02*
X126704819Y-67264285D01*
X126704819Y-67264285D02*
X126704819Y-67073809D01*
X126704819Y-67073809D02*
X126657200Y-66978571D01*
X126657200Y-66978571D02*
X126609580Y-66930952D01*
X126609580Y-66930952D02*
X126514342Y-66883333D01*
X126514342Y-66883333D02*
X126323866Y-66883333D01*
X126323866Y-66883333D02*
X126228628Y-66930952D01*
X126228628Y-66930952D02*
X126181009Y-66978571D01*
X126181009Y-66978571D02*
X126133390Y-67073809D01*
X177154819Y-115988094D02*
X177964342Y-115988094D01*
X177964342Y-115988094D02*
X178059580Y-115940475D01*
X178059580Y-115940475D02*
X178107200Y-115892856D01*
X178107200Y-115892856D02*
X178154819Y-115797618D01*
X178154819Y-115797618D02*
X178154819Y-115607142D01*
X178154819Y-115607142D02*
X178107200Y-115511904D01*
X178107200Y-115511904D02*
X178059580Y-115464285D01*
X178059580Y-115464285D02*
X177964342Y-115416666D01*
X177964342Y-115416666D02*
X177154819Y-115416666D01*
X177250057Y-114988094D02*
X177202438Y-114940475D01*
X177202438Y-114940475D02*
X177154819Y-114845237D01*
X177154819Y-114845237D02*
X177154819Y-114607142D01*
X177154819Y-114607142D02*
X177202438Y-114511904D01*
X177202438Y-114511904D02*
X177250057Y-114464285D01*
X177250057Y-114464285D02*
X177345295Y-114416666D01*
X177345295Y-114416666D02*
X177440533Y-114416666D01*
X177440533Y-114416666D02*
X177583390Y-114464285D01*
X177583390Y-114464285D02*
X178154819Y-115035713D01*
X178154819Y-115035713D02*
X178154819Y-114416666D01*
X177250057Y-114035713D02*
X177202438Y-113988094D01*
X177202438Y-113988094D02*
X177154819Y-113892856D01*
X177154819Y-113892856D02*
X177154819Y-113654761D01*
X177154819Y-113654761D02*
X177202438Y-113559523D01*
X177202438Y-113559523D02*
X177250057Y-113511904D01*
X177250057Y-113511904D02*
X177345295Y-113464285D01*
X177345295Y-113464285D02*
X177440533Y-113464285D01*
X177440533Y-113464285D02*
X177583390Y-113511904D01*
X177583390Y-113511904D02*
X178154819Y-114083332D01*
X178154819Y-114083332D02*
X178154819Y-113464285D01*
X72716666Y-113004819D02*
X72716666Y-113719104D01*
X72716666Y-113719104D02*
X72669047Y-113861961D01*
X72669047Y-113861961D02*
X72573809Y-113957200D01*
X72573809Y-113957200D02*
X72430952Y-114004819D01*
X72430952Y-114004819D02*
X72335714Y-114004819D01*
X73145238Y-113100057D02*
X73192857Y-113052438D01*
X73192857Y-113052438D02*
X73288095Y-113004819D01*
X73288095Y-113004819D02*
X73526190Y-113004819D01*
X73526190Y-113004819D02*
X73621428Y-113052438D01*
X73621428Y-113052438D02*
X73669047Y-113100057D01*
X73669047Y-113100057D02*
X73716666Y-113195295D01*
X73716666Y-113195295D02*
X73716666Y-113290533D01*
X73716666Y-113290533D02*
X73669047Y-113433390D01*
X73669047Y-113433390D02*
X73097619Y-114004819D01*
X73097619Y-114004819D02*
X73716666Y-114004819D01*
X193836905Y-61669819D02*
X193836905Y-62479342D01*
X193836905Y-62479342D02*
X193884524Y-62574580D01*
X193884524Y-62574580D02*
X193932143Y-62622200D01*
X193932143Y-62622200D02*
X194027381Y-62669819D01*
X194027381Y-62669819D02*
X194217857Y-62669819D01*
X194217857Y-62669819D02*
X194313095Y-62622200D01*
X194313095Y-62622200D02*
X194360714Y-62574580D01*
X194360714Y-62574580D02*
X194408333Y-62479342D01*
X194408333Y-62479342D02*
X194408333Y-61669819D01*
X194836905Y-61765057D02*
X194884524Y-61717438D01*
X194884524Y-61717438D02*
X194979762Y-61669819D01*
X194979762Y-61669819D02*
X195217857Y-61669819D01*
X195217857Y-61669819D02*
X195313095Y-61717438D01*
X195313095Y-61717438D02*
X195360714Y-61765057D01*
X195360714Y-61765057D02*
X195408333Y-61860295D01*
X195408333Y-61860295D02*
X195408333Y-61955533D01*
X195408333Y-61955533D02*
X195360714Y-62098390D01*
X195360714Y-62098390D02*
X194789286Y-62669819D01*
X194789286Y-62669819D02*
X195408333Y-62669819D01*
X195979762Y-62098390D02*
X195884524Y-62050771D01*
X195884524Y-62050771D02*
X195836905Y-62003152D01*
X195836905Y-62003152D02*
X195789286Y-61907914D01*
X195789286Y-61907914D02*
X195789286Y-61860295D01*
X195789286Y-61860295D02*
X195836905Y-61765057D01*
X195836905Y-61765057D02*
X195884524Y-61717438D01*
X195884524Y-61717438D02*
X195979762Y-61669819D01*
X195979762Y-61669819D02*
X196170238Y-61669819D01*
X196170238Y-61669819D02*
X196265476Y-61717438D01*
X196265476Y-61717438D02*
X196313095Y-61765057D01*
X196313095Y-61765057D02*
X196360714Y-61860295D01*
X196360714Y-61860295D02*
X196360714Y-61907914D01*
X196360714Y-61907914D02*
X196313095Y-62003152D01*
X196313095Y-62003152D02*
X196265476Y-62050771D01*
X196265476Y-62050771D02*
X196170238Y-62098390D01*
X196170238Y-62098390D02*
X195979762Y-62098390D01*
X195979762Y-62098390D02*
X195884524Y-62146009D01*
X195884524Y-62146009D02*
X195836905Y-62193628D01*
X195836905Y-62193628D02*
X195789286Y-62288866D01*
X195789286Y-62288866D02*
X195789286Y-62479342D01*
X195789286Y-62479342D02*
X195836905Y-62574580D01*
X195836905Y-62574580D02*
X195884524Y-62622200D01*
X195884524Y-62622200D02*
X195979762Y-62669819D01*
X195979762Y-62669819D02*
X196170238Y-62669819D01*
X196170238Y-62669819D02*
X196265476Y-62622200D01*
X196265476Y-62622200D02*
X196313095Y-62574580D01*
X196313095Y-62574580D02*
X196360714Y-62479342D01*
X196360714Y-62479342D02*
X196360714Y-62288866D01*
X196360714Y-62288866D02*
X196313095Y-62193628D01*
X196313095Y-62193628D02*
X196265476Y-62146009D01*
X196265476Y-62146009D02*
X196170238Y-62098390D01*
X183561905Y-89904819D02*
X183561905Y-90714342D01*
X183561905Y-90714342D02*
X183609524Y-90809580D01*
X183609524Y-90809580D02*
X183657143Y-90857200D01*
X183657143Y-90857200D02*
X183752381Y-90904819D01*
X183752381Y-90904819D02*
X183942857Y-90904819D01*
X183942857Y-90904819D02*
X184038095Y-90857200D01*
X184038095Y-90857200D02*
X184085714Y-90809580D01*
X184085714Y-90809580D02*
X184133333Y-90714342D01*
X184133333Y-90714342D02*
X184133333Y-89904819D01*
X184514286Y-89904819D02*
X185133333Y-89904819D01*
X185133333Y-89904819D02*
X184800000Y-90285771D01*
X184800000Y-90285771D02*
X184942857Y-90285771D01*
X184942857Y-90285771D02*
X185038095Y-90333390D01*
X185038095Y-90333390D02*
X185085714Y-90381009D01*
X185085714Y-90381009D02*
X185133333Y-90476247D01*
X185133333Y-90476247D02*
X185133333Y-90714342D01*
X185133333Y-90714342D02*
X185085714Y-90809580D01*
X185085714Y-90809580D02*
X185038095Y-90857200D01*
X185038095Y-90857200D02*
X184942857Y-90904819D01*
X184942857Y-90904819D02*
X184657143Y-90904819D01*
X184657143Y-90904819D02*
X184561905Y-90857200D01*
X184561905Y-90857200D02*
X184514286Y-90809580D01*
X185466667Y-89904819D02*
X186085714Y-89904819D01*
X186085714Y-89904819D02*
X185752381Y-90285771D01*
X185752381Y-90285771D02*
X185895238Y-90285771D01*
X185895238Y-90285771D02*
X185990476Y-90333390D01*
X185990476Y-90333390D02*
X186038095Y-90381009D01*
X186038095Y-90381009D02*
X186085714Y-90476247D01*
X186085714Y-90476247D02*
X186085714Y-90714342D01*
X186085714Y-90714342D02*
X186038095Y-90809580D01*
X186038095Y-90809580D02*
X185990476Y-90857200D01*
X185990476Y-90857200D02*
X185895238Y-90904819D01*
X185895238Y-90904819D02*
X185609524Y-90904819D01*
X185609524Y-90904819D02*
X185514286Y-90857200D01*
X185514286Y-90857200D02*
X185466667Y-90809580D01*
X202511905Y-119804819D02*
X202511905Y-120614342D01*
X202511905Y-120614342D02*
X202559524Y-120709580D01*
X202559524Y-120709580D02*
X202607143Y-120757200D01*
X202607143Y-120757200D02*
X202702381Y-120804819D01*
X202702381Y-120804819D02*
X202892857Y-120804819D01*
X202892857Y-120804819D02*
X202988095Y-120757200D01*
X202988095Y-120757200D02*
X203035714Y-120709580D01*
X203035714Y-120709580D02*
X203083333Y-120614342D01*
X203083333Y-120614342D02*
X203083333Y-119804819D01*
X203511905Y-119900057D02*
X203559524Y-119852438D01*
X203559524Y-119852438D02*
X203654762Y-119804819D01*
X203654762Y-119804819D02*
X203892857Y-119804819D01*
X203892857Y-119804819D02*
X203988095Y-119852438D01*
X203988095Y-119852438D02*
X204035714Y-119900057D01*
X204035714Y-119900057D02*
X204083333Y-119995295D01*
X204083333Y-119995295D02*
X204083333Y-120090533D01*
X204083333Y-120090533D02*
X204035714Y-120233390D01*
X204035714Y-120233390D02*
X203464286Y-120804819D01*
X203464286Y-120804819D02*
X204083333Y-120804819D01*
X204702381Y-119804819D02*
X204797619Y-119804819D01*
X204797619Y-119804819D02*
X204892857Y-119852438D01*
X204892857Y-119852438D02*
X204940476Y-119900057D01*
X204940476Y-119900057D02*
X204988095Y-119995295D01*
X204988095Y-119995295D02*
X205035714Y-120185771D01*
X205035714Y-120185771D02*
X205035714Y-120423866D01*
X205035714Y-120423866D02*
X204988095Y-120614342D01*
X204988095Y-120614342D02*
X204940476Y-120709580D01*
X204940476Y-120709580D02*
X204892857Y-120757200D01*
X204892857Y-120757200D02*
X204797619Y-120804819D01*
X204797619Y-120804819D02*
X204702381Y-120804819D01*
X204702381Y-120804819D02*
X204607143Y-120757200D01*
X204607143Y-120757200D02*
X204559524Y-120709580D01*
X204559524Y-120709580D02*
X204511905Y-120614342D01*
X204511905Y-120614342D02*
X204464286Y-120423866D01*
X204464286Y-120423866D02*
X204464286Y-120185771D01*
X204464286Y-120185771D02*
X204511905Y-119995295D01*
X204511905Y-119995295D02*
X204559524Y-119900057D01*
X204559524Y-119900057D02*
X204607143Y-119852438D01*
X204607143Y-119852438D02*
X204702381Y-119804819D01*
X169340476Y-99590319D02*
X169340476Y-100304604D01*
X169340476Y-100304604D02*
X169292857Y-100447461D01*
X169292857Y-100447461D02*
X169197619Y-100542700D01*
X169197619Y-100542700D02*
X169054762Y-100590319D01*
X169054762Y-100590319D02*
X168959524Y-100590319D01*
X170340476Y-100590319D02*
X169769048Y-100590319D01*
X170054762Y-100590319D02*
X170054762Y-99590319D01*
X170054762Y-99590319D02*
X169959524Y-99733176D01*
X169959524Y-99733176D02*
X169864286Y-99828414D01*
X169864286Y-99828414D02*
X169769048Y-99876033D01*
X171197619Y-99923652D02*
X171197619Y-100590319D01*
X170959524Y-99542700D02*
X170721429Y-100256985D01*
X170721429Y-100256985D02*
X171340476Y-100256985D01*
X178454819Y-121838094D02*
X179264342Y-121838094D01*
X179264342Y-121838094D02*
X179359580Y-121790475D01*
X179359580Y-121790475D02*
X179407200Y-121742856D01*
X179407200Y-121742856D02*
X179454819Y-121647618D01*
X179454819Y-121647618D02*
X179454819Y-121457142D01*
X179454819Y-121457142D02*
X179407200Y-121361904D01*
X179407200Y-121361904D02*
X179359580Y-121314285D01*
X179359580Y-121314285D02*
X179264342Y-121266666D01*
X179264342Y-121266666D02*
X178454819Y-121266666D01*
X178550057Y-120838094D02*
X178502438Y-120790475D01*
X178502438Y-120790475D02*
X178454819Y-120695237D01*
X178454819Y-120695237D02*
X178454819Y-120457142D01*
X178454819Y-120457142D02*
X178502438Y-120361904D01*
X178502438Y-120361904D02*
X178550057Y-120314285D01*
X178550057Y-120314285D02*
X178645295Y-120266666D01*
X178645295Y-120266666D02*
X178740533Y-120266666D01*
X178740533Y-120266666D02*
X178883390Y-120314285D01*
X178883390Y-120314285D02*
X179454819Y-120885713D01*
X179454819Y-120885713D02*
X179454819Y-120266666D01*
X178454819Y-119933332D02*
X178454819Y-119314285D01*
X178454819Y-119314285D02*
X178835771Y-119647618D01*
X178835771Y-119647618D02*
X178835771Y-119504761D01*
X178835771Y-119504761D02*
X178883390Y-119409523D01*
X178883390Y-119409523D02*
X178931009Y-119361904D01*
X178931009Y-119361904D02*
X179026247Y-119314285D01*
X179026247Y-119314285D02*
X179264342Y-119314285D01*
X179264342Y-119314285D02*
X179359580Y-119361904D01*
X179359580Y-119361904D02*
X179407200Y-119409523D01*
X179407200Y-119409523D02*
X179454819Y-119504761D01*
X179454819Y-119504761D02*
X179454819Y-119790475D01*
X179454819Y-119790475D02*
X179407200Y-119885713D01*
X179407200Y-119885713D02*
X179359580Y-119933332D01*
X186861905Y-49004819D02*
X186861905Y-49814342D01*
X186861905Y-49814342D02*
X186909524Y-49909580D01*
X186909524Y-49909580D02*
X186957143Y-49957200D01*
X186957143Y-49957200D02*
X187052381Y-50004819D01*
X187052381Y-50004819D02*
X187242857Y-50004819D01*
X187242857Y-50004819D02*
X187338095Y-49957200D01*
X187338095Y-49957200D02*
X187385714Y-49909580D01*
X187385714Y-49909580D02*
X187433333Y-49814342D01*
X187433333Y-49814342D02*
X187433333Y-49004819D01*
X188433333Y-50004819D02*
X187861905Y-50004819D01*
X188147619Y-50004819D02*
X188147619Y-49004819D01*
X188147619Y-49004819D02*
X188052381Y-49147676D01*
X188052381Y-49147676D02*
X187957143Y-49242914D01*
X187957143Y-49242914D02*
X187861905Y-49290533D01*
X189338095Y-49004819D02*
X188861905Y-49004819D01*
X188861905Y-49004819D02*
X188814286Y-49481009D01*
X188814286Y-49481009D02*
X188861905Y-49433390D01*
X188861905Y-49433390D02*
X188957143Y-49385771D01*
X188957143Y-49385771D02*
X189195238Y-49385771D01*
X189195238Y-49385771D02*
X189290476Y-49433390D01*
X189290476Y-49433390D02*
X189338095Y-49481009D01*
X189338095Y-49481009D02*
X189385714Y-49576247D01*
X189385714Y-49576247D02*
X189385714Y-49814342D01*
X189385714Y-49814342D02*
X189338095Y-49909580D01*
X189338095Y-49909580D02*
X189290476Y-49957200D01*
X189290476Y-49957200D02*
X189195238Y-50004819D01*
X189195238Y-50004819D02*
X188957143Y-50004819D01*
X188957143Y-50004819D02*
X188861905Y-49957200D01*
X188861905Y-49957200D02*
X188814286Y-49909580D01*
X207011905Y-48754819D02*
X207011905Y-49564342D01*
X207011905Y-49564342D02*
X207059524Y-49659580D01*
X207059524Y-49659580D02*
X207107143Y-49707200D01*
X207107143Y-49707200D02*
X207202381Y-49754819D01*
X207202381Y-49754819D02*
X207392857Y-49754819D01*
X207392857Y-49754819D02*
X207488095Y-49707200D01*
X207488095Y-49707200D02*
X207535714Y-49659580D01*
X207535714Y-49659580D02*
X207583333Y-49564342D01*
X207583333Y-49564342D02*
X207583333Y-48754819D01*
X208583333Y-49754819D02*
X208011905Y-49754819D01*
X208297619Y-49754819D02*
X208297619Y-48754819D01*
X208297619Y-48754819D02*
X208202381Y-48897676D01*
X208202381Y-48897676D02*
X208107143Y-48992914D01*
X208107143Y-48992914D02*
X208011905Y-49040533D01*
X209440476Y-49088152D02*
X209440476Y-49754819D01*
X209202381Y-48707200D02*
X208964286Y-49421485D01*
X208964286Y-49421485D02*
X209583333Y-49421485D01*
X109311905Y-61054819D02*
X109311905Y-61864342D01*
X109311905Y-61864342D02*
X109359524Y-61959580D01*
X109359524Y-61959580D02*
X109407143Y-62007200D01*
X109407143Y-62007200D02*
X109502381Y-62054819D01*
X109502381Y-62054819D02*
X109692857Y-62054819D01*
X109692857Y-62054819D02*
X109788095Y-62007200D01*
X109788095Y-62007200D02*
X109835714Y-61959580D01*
X109835714Y-61959580D02*
X109883333Y-61864342D01*
X109883333Y-61864342D02*
X109883333Y-61054819D01*
X110883333Y-62054819D02*
X110311905Y-62054819D01*
X110597619Y-62054819D02*
X110597619Y-61054819D01*
X110597619Y-61054819D02*
X110502381Y-61197676D01*
X110502381Y-61197676D02*
X110407143Y-61292914D01*
X110407143Y-61292914D02*
X110311905Y-61340533D01*
X111740476Y-61054819D02*
X111550000Y-61054819D01*
X111550000Y-61054819D02*
X111454762Y-61102438D01*
X111454762Y-61102438D02*
X111407143Y-61150057D01*
X111407143Y-61150057D02*
X111311905Y-61292914D01*
X111311905Y-61292914D02*
X111264286Y-61483390D01*
X111264286Y-61483390D02*
X111264286Y-61864342D01*
X111264286Y-61864342D02*
X111311905Y-61959580D01*
X111311905Y-61959580D02*
X111359524Y-62007200D01*
X111359524Y-62007200D02*
X111454762Y-62054819D01*
X111454762Y-62054819D02*
X111645238Y-62054819D01*
X111645238Y-62054819D02*
X111740476Y-62007200D01*
X111740476Y-62007200D02*
X111788095Y-61959580D01*
X111788095Y-61959580D02*
X111835714Y-61864342D01*
X111835714Y-61864342D02*
X111835714Y-61626247D01*
X111835714Y-61626247D02*
X111788095Y-61531009D01*
X111788095Y-61531009D02*
X111740476Y-61483390D01*
X111740476Y-61483390D02*
X111645238Y-61435771D01*
X111645238Y-61435771D02*
X111454762Y-61435771D01*
X111454762Y-61435771D02*
X111359524Y-61483390D01*
X111359524Y-61483390D02*
X111311905Y-61531009D01*
X111311905Y-61531009D02*
X111264286Y-61626247D01*
X92454819Y-118113094D02*
X93264342Y-118113094D01*
X93264342Y-118113094D02*
X93359580Y-118065475D01*
X93359580Y-118065475D02*
X93407200Y-118017856D01*
X93407200Y-118017856D02*
X93454819Y-117922618D01*
X93454819Y-117922618D02*
X93454819Y-117732142D01*
X93454819Y-117732142D02*
X93407200Y-117636904D01*
X93407200Y-117636904D02*
X93359580Y-117589285D01*
X93359580Y-117589285D02*
X93264342Y-117541666D01*
X93264342Y-117541666D02*
X92454819Y-117541666D01*
X92454819Y-117160713D02*
X92454819Y-116541666D01*
X92454819Y-116541666D02*
X92835771Y-116874999D01*
X92835771Y-116874999D02*
X92835771Y-116732142D01*
X92835771Y-116732142D02*
X92883390Y-116636904D01*
X92883390Y-116636904D02*
X92931009Y-116589285D01*
X92931009Y-116589285D02*
X93026247Y-116541666D01*
X93026247Y-116541666D02*
X93264342Y-116541666D01*
X93264342Y-116541666D02*
X93359580Y-116589285D01*
X93359580Y-116589285D02*
X93407200Y-116636904D01*
X93407200Y-116636904D02*
X93454819Y-116732142D01*
X93454819Y-116732142D02*
X93454819Y-117017856D01*
X93454819Y-117017856D02*
X93407200Y-117113094D01*
X93407200Y-117113094D02*
X93359580Y-117160713D01*
X92454819Y-116208332D02*
X92454819Y-115541666D01*
X92454819Y-115541666D02*
X93454819Y-115970237D01*
X108261905Y-67754819D02*
X108261905Y-68564342D01*
X108261905Y-68564342D02*
X108309524Y-68659580D01*
X108309524Y-68659580D02*
X108357143Y-68707200D01*
X108357143Y-68707200D02*
X108452381Y-68754819D01*
X108452381Y-68754819D02*
X108642857Y-68754819D01*
X108642857Y-68754819D02*
X108738095Y-68707200D01*
X108738095Y-68707200D02*
X108785714Y-68659580D01*
X108785714Y-68659580D02*
X108833333Y-68564342D01*
X108833333Y-68564342D02*
X108833333Y-67754819D01*
X109833333Y-68754819D02*
X109261905Y-68754819D01*
X109547619Y-68754819D02*
X109547619Y-67754819D01*
X109547619Y-67754819D02*
X109452381Y-67897676D01*
X109452381Y-67897676D02*
X109357143Y-67992914D01*
X109357143Y-67992914D02*
X109261905Y-68040533D01*
X110309524Y-68754819D02*
X110500000Y-68754819D01*
X110500000Y-68754819D02*
X110595238Y-68707200D01*
X110595238Y-68707200D02*
X110642857Y-68659580D01*
X110642857Y-68659580D02*
X110738095Y-68516723D01*
X110738095Y-68516723D02*
X110785714Y-68326247D01*
X110785714Y-68326247D02*
X110785714Y-67945295D01*
X110785714Y-67945295D02*
X110738095Y-67850057D01*
X110738095Y-67850057D02*
X110690476Y-67802438D01*
X110690476Y-67802438D02*
X110595238Y-67754819D01*
X110595238Y-67754819D02*
X110404762Y-67754819D01*
X110404762Y-67754819D02*
X110309524Y-67802438D01*
X110309524Y-67802438D02*
X110261905Y-67850057D01*
X110261905Y-67850057D02*
X110214286Y-67945295D01*
X110214286Y-67945295D02*
X110214286Y-68183390D01*
X110214286Y-68183390D02*
X110261905Y-68278628D01*
X110261905Y-68278628D02*
X110309524Y-68326247D01*
X110309524Y-68326247D02*
X110404762Y-68373866D01*
X110404762Y-68373866D02*
X110595238Y-68373866D01*
X110595238Y-68373866D02*
X110690476Y-68326247D01*
X110690476Y-68326247D02*
X110738095Y-68278628D01*
X110738095Y-68278628D02*
X110785714Y-68183390D01*
X144588095Y-77154819D02*
X144588095Y-77964342D01*
X144588095Y-77964342D02*
X144635714Y-78059580D01*
X144635714Y-78059580D02*
X144683333Y-78107200D01*
X144683333Y-78107200D02*
X144778571Y-78154819D01*
X144778571Y-78154819D02*
X144969047Y-78154819D01*
X144969047Y-78154819D02*
X145064285Y-78107200D01*
X145064285Y-78107200D02*
X145111904Y-78059580D01*
X145111904Y-78059580D02*
X145159523Y-77964342D01*
X145159523Y-77964342D02*
X145159523Y-77154819D01*
X145540476Y-77154819D02*
X146159523Y-77154819D01*
X146159523Y-77154819D02*
X145826190Y-77535771D01*
X145826190Y-77535771D02*
X145969047Y-77535771D01*
X145969047Y-77535771D02*
X146064285Y-77583390D01*
X146064285Y-77583390D02*
X146111904Y-77631009D01*
X146111904Y-77631009D02*
X146159523Y-77726247D01*
X146159523Y-77726247D02*
X146159523Y-77964342D01*
X146159523Y-77964342D02*
X146111904Y-78059580D01*
X146111904Y-78059580D02*
X146064285Y-78107200D01*
X146064285Y-78107200D02*
X145969047Y-78154819D01*
X145969047Y-78154819D02*
X145683333Y-78154819D01*
X145683333Y-78154819D02*
X145588095Y-78107200D01*
X145588095Y-78107200D02*
X145540476Y-78059580D01*
X194754819Y-113938094D02*
X195564342Y-113938094D01*
X195564342Y-113938094D02*
X195659580Y-113890475D01*
X195659580Y-113890475D02*
X195707200Y-113842856D01*
X195707200Y-113842856D02*
X195754819Y-113747618D01*
X195754819Y-113747618D02*
X195754819Y-113557142D01*
X195754819Y-113557142D02*
X195707200Y-113461904D01*
X195707200Y-113461904D02*
X195659580Y-113414285D01*
X195659580Y-113414285D02*
X195564342Y-113366666D01*
X195564342Y-113366666D02*
X194754819Y-113366666D01*
X194850057Y-112938094D02*
X194802438Y-112890475D01*
X194802438Y-112890475D02*
X194754819Y-112795237D01*
X194754819Y-112795237D02*
X194754819Y-112557142D01*
X194754819Y-112557142D02*
X194802438Y-112461904D01*
X194802438Y-112461904D02*
X194850057Y-112414285D01*
X194850057Y-112414285D02*
X194945295Y-112366666D01*
X194945295Y-112366666D02*
X195040533Y-112366666D01*
X195040533Y-112366666D02*
X195183390Y-112414285D01*
X195183390Y-112414285D02*
X195754819Y-112985713D01*
X195754819Y-112985713D02*
X195754819Y-112366666D01*
X195088152Y-111509523D02*
X195754819Y-111509523D01*
X194707200Y-111747618D02*
X195421485Y-111985713D01*
X195421485Y-111985713D02*
X195421485Y-111366666D01*
X159354819Y-91288094D02*
X160164342Y-91288094D01*
X160164342Y-91288094D02*
X160259580Y-91240475D01*
X160259580Y-91240475D02*
X160307200Y-91192856D01*
X160307200Y-91192856D02*
X160354819Y-91097618D01*
X160354819Y-91097618D02*
X160354819Y-90907142D01*
X160354819Y-90907142D02*
X160307200Y-90811904D01*
X160307200Y-90811904D02*
X160259580Y-90764285D01*
X160259580Y-90764285D02*
X160164342Y-90716666D01*
X160164342Y-90716666D02*
X159354819Y-90716666D01*
X159354819Y-90335713D02*
X159354819Y-89716666D01*
X159354819Y-89716666D02*
X159735771Y-90049999D01*
X159735771Y-90049999D02*
X159735771Y-89907142D01*
X159735771Y-89907142D02*
X159783390Y-89811904D01*
X159783390Y-89811904D02*
X159831009Y-89764285D01*
X159831009Y-89764285D02*
X159926247Y-89716666D01*
X159926247Y-89716666D02*
X160164342Y-89716666D01*
X160164342Y-89716666D02*
X160259580Y-89764285D01*
X160259580Y-89764285D02*
X160307200Y-89811904D01*
X160307200Y-89811904D02*
X160354819Y-89907142D01*
X160354819Y-89907142D02*
X160354819Y-90192856D01*
X160354819Y-90192856D02*
X160307200Y-90288094D01*
X160307200Y-90288094D02*
X160259580Y-90335713D01*
X159688152Y-88859523D02*
X160354819Y-88859523D01*
X159307200Y-89097618D02*
X160021485Y-89335713D01*
X160021485Y-89335713D02*
X160021485Y-88716666D01*
X183866666Y-49204819D02*
X183866666Y-49919104D01*
X183866666Y-49919104D02*
X183819047Y-50061961D01*
X183819047Y-50061961D02*
X183723809Y-50157200D01*
X183723809Y-50157200D02*
X183580952Y-50204819D01*
X183580952Y-50204819D02*
X183485714Y-50204819D01*
X184390476Y-50204819D02*
X184580952Y-50204819D01*
X184580952Y-50204819D02*
X184676190Y-50157200D01*
X184676190Y-50157200D02*
X184723809Y-50109580D01*
X184723809Y-50109580D02*
X184819047Y-49966723D01*
X184819047Y-49966723D02*
X184866666Y-49776247D01*
X184866666Y-49776247D02*
X184866666Y-49395295D01*
X184866666Y-49395295D02*
X184819047Y-49300057D01*
X184819047Y-49300057D02*
X184771428Y-49252438D01*
X184771428Y-49252438D02*
X184676190Y-49204819D01*
X184676190Y-49204819D02*
X184485714Y-49204819D01*
X184485714Y-49204819D02*
X184390476Y-49252438D01*
X184390476Y-49252438D02*
X184342857Y-49300057D01*
X184342857Y-49300057D02*
X184295238Y-49395295D01*
X184295238Y-49395295D02*
X184295238Y-49633390D01*
X184295238Y-49633390D02*
X184342857Y-49728628D01*
X184342857Y-49728628D02*
X184390476Y-49776247D01*
X184390476Y-49776247D02*
X184485714Y-49823866D01*
X184485714Y-49823866D02*
X184676190Y-49823866D01*
X184676190Y-49823866D02*
X184771428Y-49776247D01*
X184771428Y-49776247D02*
X184819047Y-49728628D01*
X184819047Y-49728628D02*
X184866666Y-49633390D01*
X169769648Y-66788094D02*
X170579171Y-66788094D01*
X170579171Y-66788094D02*
X170674409Y-66740475D01*
X170674409Y-66740475D02*
X170722029Y-66692856D01*
X170722029Y-66692856D02*
X170769648Y-66597618D01*
X170769648Y-66597618D02*
X170769648Y-66407142D01*
X170769648Y-66407142D02*
X170722029Y-66311904D01*
X170722029Y-66311904D02*
X170674409Y-66264285D01*
X170674409Y-66264285D02*
X170579171Y-66216666D01*
X170579171Y-66216666D02*
X169769648Y-66216666D01*
X170769648Y-65216666D02*
X170769648Y-65788094D01*
X170769648Y-65502380D02*
X169769648Y-65502380D01*
X169769648Y-65502380D02*
X169912505Y-65597618D01*
X169912505Y-65597618D02*
X170007743Y-65692856D01*
X170007743Y-65692856D02*
X170055362Y-65788094D01*
X169769648Y-64883332D02*
X169769648Y-64264285D01*
X169769648Y-64264285D02*
X170150600Y-64597618D01*
X170150600Y-64597618D02*
X170150600Y-64454761D01*
X170150600Y-64454761D02*
X170198219Y-64359523D01*
X170198219Y-64359523D02*
X170245838Y-64311904D01*
X170245838Y-64311904D02*
X170341076Y-64264285D01*
X170341076Y-64264285D02*
X170579171Y-64264285D01*
X170579171Y-64264285D02*
X170674409Y-64311904D01*
X170674409Y-64311904D02*
X170722029Y-64359523D01*
X170722029Y-64359523D02*
X170769648Y-64454761D01*
X170769648Y-64454761D02*
X170769648Y-64740475D01*
X170769648Y-64740475D02*
X170722029Y-64835713D01*
X170722029Y-64835713D02*
X170674409Y-64883332D01*
X204424405Y-110914134D02*
X204424405Y-111723657D01*
X204424405Y-111723657D02*
X204472024Y-111818895D01*
X204472024Y-111818895D02*
X204519643Y-111866515D01*
X204519643Y-111866515D02*
X204614881Y-111914134D01*
X204614881Y-111914134D02*
X204805357Y-111914134D01*
X204805357Y-111914134D02*
X204900595Y-111866515D01*
X204900595Y-111866515D02*
X204948214Y-111818895D01*
X204948214Y-111818895D02*
X204995833Y-111723657D01*
X204995833Y-111723657D02*
X204995833Y-110914134D01*
X205995833Y-111914134D02*
X205424405Y-111914134D01*
X205710119Y-111914134D02*
X205710119Y-110914134D01*
X205710119Y-110914134D02*
X205614881Y-111056991D01*
X205614881Y-111056991D02*
X205519643Y-111152229D01*
X205519643Y-111152229D02*
X205424405Y-111199848D01*
X206948214Y-111914134D02*
X206376786Y-111914134D01*
X206662500Y-111914134D02*
X206662500Y-110914134D01*
X206662500Y-110914134D02*
X206567262Y-111056991D01*
X206567262Y-111056991D02*
X206472024Y-111152229D01*
X206472024Y-111152229D02*
X206376786Y-111199848D01*
X205038095Y-83454819D02*
X205038095Y-84264342D01*
X205038095Y-84264342D02*
X205085714Y-84359580D01*
X205085714Y-84359580D02*
X205133333Y-84407200D01*
X205133333Y-84407200D02*
X205228571Y-84454819D01*
X205228571Y-84454819D02*
X205419047Y-84454819D01*
X205419047Y-84454819D02*
X205514285Y-84407200D01*
X205514285Y-84407200D02*
X205561904Y-84359580D01*
X205561904Y-84359580D02*
X205609523Y-84264342D01*
X205609523Y-84264342D02*
X205609523Y-83454819D01*
X206133333Y-84454819D02*
X206323809Y-84454819D01*
X206323809Y-84454819D02*
X206419047Y-84407200D01*
X206419047Y-84407200D02*
X206466666Y-84359580D01*
X206466666Y-84359580D02*
X206561904Y-84216723D01*
X206561904Y-84216723D02*
X206609523Y-84026247D01*
X206609523Y-84026247D02*
X206609523Y-83645295D01*
X206609523Y-83645295D02*
X206561904Y-83550057D01*
X206561904Y-83550057D02*
X206514285Y-83502438D01*
X206514285Y-83502438D02*
X206419047Y-83454819D01*
X206419047Y-83454819D02*
X206228571Y-83454819D01*
X206228571Y-83454819D02*
X206133333Y-83502438D01*
X206133333Y-83502438D02*
X206085714Y-83550057D01*
X206085714Y-83550057D02*
X206038095Y-83645295D01*
X206038095Y-83645295D02*
X206038095Y-83883390D01*
X206038095Y-83883390D02*
X206085714Y-83978628D01*
X206085714Y-83978628D02*
X206133333Y-84026247D01*
X206133333Y-84026247D02*
X206228571Y-84073866D01*
X206228571Y-84073866D02*
X206419047Y-84073866D01*
X206419047Y-84073866D02*
X206514285Y-84026247D01*
X206514285Y-84026247D02*
X206561904Y-83978628D01*
X206561904Y-83978628D02*
X206609523Y-83883390D01*
X149354819Y-83488094D02*
X150164342Y-83488094D01*
X150164342Y-83488094D02*
X150259580Y-83440475D01*
X150259580Y-83440475D02*
X150307200Y-83392856D01*
X150307200Y-83392856D02*
X150354819Y-83297618D01*
X150354819Y-83297618D02*
X150354819Y-83107142D01*
X150354819Y-83107142D02*
X150307200Y-83011904D01*
X150307200Y-83011904D02*
X150259580Y-82964285D01*
X150259580Y-82964285D02*
X150164342Y-82916666D01*
X150164342Y-82916666D02*
X149354819Y-82916666D01*
X149354819Y-81964285D02*
X149354819Y-82440475D01*
X149354819Y-82440475D02*
X149831009Y-82488094D01*
X149831009Y-82488094D02*
X149783390Y-82440475D01*
X149783390Y-82440475D02*
X149735771Y-82345237D01*
X149735771Y-82345237D02*
X149735771Y-82107142D01*
X149735771Y-82107142D02*
X149783390Y-82011904D01*
X149783390Y-82011904D02*
X149831009Y-81964285D01*
X149831009Y-81964285D02*
X149926247Y-81916666D01*
X149926247Y-81916666D02*
X150164342Y-81916666D01*
X150164342Y-81916666D02*
X150259580Y-81964285D01*
X150259580Y-81964285D02*
X150307200Y-82011904D01*
X150307200Y-82011904D02*
X150354819Y-82107142D01*
X150354819Y-82107142D02*
X150354819Y-82345237D01*
X150354819Y-82345237D02*
X150307200Y-82440475D01*
X150307200Y-82440475D02*
X150259580Y-82488094D01*
X149354819Y-81297618D02*
X149354819Y-81202380D01*
X149354819Y-81202380D02*
X149402438Y-81107142D01*
X149402438Y-81107142D02*
X149450057Y-81059523D01*
X149450057Y-81059523D02*
X149545295Y-81011904D01*
X149545295Y-81011904D02*
X149735771Y-80964285D01*
X149735771Y-80964285D02*
X149973866Y-80964285D01*
X149973866Y-80964285D02*
X150164342Y-81011904D01*
X150164342Y-81011904D02*
X150259580Y-81059523D01*
X150259580Y-81059523D02*
X150307200Y-81107142D01*
X150307200Y-81107142D02*
X150354819Y-81202380D01*
X150354819Y-81202380D02*
X150354819Y-81297618D01*
X150354819Y-81297618D02*
X150307200Y-81392856D01*
X150307200Y-81392856D02*
X150259580Y-81440475D01*
X150259580Y-81440475D02*
X150164342Y-81488094D01*
X150164342Y-81488094D02*
X149973866Y-81535713D01*
X149973866Y-81535713D02*
X149735771Y-81535713D01*
X149735771Y-81535713D02*
X149545295Y-81488094D01*
X149545295Y-81488094D02*
X149450057Y-81440475D01*
X149450057Y-81440475D02*
X149402438Y-81392856D01*
X149402438Y-81392856D02*
X149354819Y-81297618D01*
X107754819Y-104579523D02*
X108469104Y-104579523D01*
X108469104Y-104579523D02*
X108611961Y-104627142D01*
X108611961Y-104627142D02*
X108707200Y-104722380D01*
X108707200Y-104722380D02*
X108754819Y-104865237D01*
X108754819Y-104865237D02*
X108754819Y-104960475D01*
X108754819Y-103579523D02*
X108754819Y-104150951D01*
X108754819Y-103865237D02*
X107754819Y-103865237D01*
X107754819Y-103865237D02*
X107897676Y-103960475D01*
X107897676Y-103960475D02*
X107992914Y-104055713D01*
X107992914Y-104055713D02*
X108040533Y-104150951D01*
X107754819Y-102722380D02*
X107754819Y-102912856D01*
X107754819Y-102912856D02*
X107802438Y-103008094D01*
X107802438Y-103008094D02*
X107850057Y-103055713D01*
X107850057Y-103055713D02*
X107992914Y-103150951D01*
X107992914Y-103150951D02*
X108183390Y-103198570D01*
X108183390Y-103198570D02*
X108564342Y-103198570D01*
X108564342Y-103198570D02*
X108659580Y-103150951D01*
X108659580Y-103150951D02*
X108707200Y-103103332D01*
X108707200Y-103103332D02*
X108754819Y-103008094D01*
X108754819Y-103008094D02*
X108754819Y-102817618D01*
X108754819Y-102817618D02*
X108707200Y-102722380D01*
X108707200Y-102722380D02*
X108659580Y-102674761D01*
X108659580Y-102674761D02*
X108564342Y-102627142D01*
X108564342Y-102627142D02*
X108326247Y-102627142D01*
X108326247Y-102627142D02*
X108231009Y-102674761D01*
X108231009Y-102674761D02*
X108183390Y-102722380D01*
X108183390Y-102722380D02*
X108135771Y-102817618D01*
X108135771Y-102817618D02*
X108135771Y-103008094D01*
X108135771Y-103008094D02*
X108183390Y-103103332D01*
X108183390Y-103103332D02*
X108231009Y-103150951D01*
X108231009Y-103150951D02*
X108326247Y-103198570D01*
X163361905Y-73154819D02*
X163361905Y-73964342D01*
X163361905Y-73964342D02*
X163409524Y-74059580D01*
X163409524Y-74059580D02*
X163457143Y-74107200D01*
X163457143Y-74107200D02*
X163552381Y-74154819D01*
X163552381Y-74154819D02*
X163742857Y-74154819D01*
X163742857Y-74154819D02*
X163838095Y-74107200D01*
X163838095Y-74107200D02*
X163885714Y-74059580D01*
X163885714Y-74059580D02*
X163933333Y-73964342D01*
X163933333Y-73964342D02*
X163933333Y-73154819D01*
X164314286Y-73154819D02*
X164933333Y-73154819D01*
X164933333Y-73154819D02*
X164600000Y-73535771D01*
X164600000Y-73535771D02*
X164742857Y-73535771D01*
X164742857Y-73535771D02*
X164838095Y-73583390D01*
X164838095Y-73583390D02*
X164885714Y-73631009D01*
X164885714Y-73631009D02*
X164933333Y-73726247D01*
X164933333Y-73726247D02*
X164933333Y-73964342D01*
X164933333Y-73964342D02*
X164885714Y-74059580D01*
X164885714Y-74059580D02*
X164838095Y-74107200D01*
X164838095Y-74107200D02*
X164742857Y-74154819D01*
X164742857Y-74154819D02*
X164457143Y-74154819D01*
X164457143Y-74154819D02*
X164361905Y-74107200D01*
X164361905Y-74107200D02*
X164314286Y-74059580D01*
X165790476Y-73154819D02*
X165600000Y-73154819D01*
X165600000Y-73154819D02*
X165504762Y-73202438D01*
X165504762Y-73202438D02*
X165457143Y-73250057D01*
X165457143Y-73250057D02*
X165361905Y-73392914D01*
X165361905Y-73392914D02*
X165314286Y-73583390D01*
X165314286Y-73583390D02*
X165314286Y-73964342D01*
X165314286Y-73964342D02*
X165361905Y-74059580D01*
X165361905Y-74059580D02*
X165409524Y-74107200D01*
X165409524Y-74107200D02*
X165504762Y-74154819D01*
X165504762Y-74154819D02*
X165695238Y-74154819D01*
X165695238Y-74154819D02*
X165790476Y-74107200D01*
X165790476Y-74107200D02*
X165838095Y-74059580D01*
X165838095Y-74059580D02*
X165885714Y-73964342D01*
X165885714Y-73964342D02*
X165885714Y-73726247D01*
X165885714Y-73726247D02*
X165838095Y-73631009D01*
X165838095Y-73631009D02*
X165790476Y-73583390D01*
X165790476Y-73583390D02*
X165695238Y-73535771D01*
X165695238Y-73535771D02*
X165504762Y-73535771D01*
X165504762Y-73535771D02*
X165409524Y-73583390D01*
X165409524Y-73583390D02*
X165361905Y-73631009D01*
X165361905Y-73631009D02*
X165314286Y-73726247D01*
X184390476Y-58340319D02*
X184390476Y-59054604D01*
X184390476Y-59054604D02*
X184342857Y-59197461D01*
X184342857Y-59197461D02*
X184247619Y-59292700D01*
X184247619Y-59292700D02*
X184104762Y-59340319D01*
X184104762Y-59340319D02*
X184009524Y-59340319D01*
X185390476Y-59340319D02*
X184819048Y-59340319D01*
X185104762Y-59340319D02*
X185104762Y-58340319D01*
X185104762Y-58340319D02*
X185009524Y-58483176D01*
X185009524Y-58483176D02*
X184914286Y-58578414D01*
X184914286Y-58578414D02*
X184819048Y-58626033D01*
X186342857Y-59340319D02*
X185771429Y-59340319D01*
X186057143Y-59340319D02*
X186057143Y-58340319D01*
X186057143Y-58340319D02*
X185961905Y-58483176D01*
X185961905Y-58483176D02*
X185866667Y-58578414D01*
X185866667Y-58578414D02*
X185771429Y-58626033D01*
X154964405Y-72529819D02*
X154964405Y-73339342D01*
X154964405Y-73339342D02*
X155012024Y-73434580D01*
X155012024Y-73434580D02*
X155059643Y-73482200D01*
X155059643Y-73482200D02*
X155154881Y-73529819D01*
X155154881Y-73529819D02*
X155345357Y-73529819D01*
X155345357Y-73529819D02*
X155440595Y-73482200D01*
X155440595Y-73482200D02*
X155488214Y-73434580D01*
X155488214Y-73434580D02*
X155535833Y-73339342D01*
X155535833Y-73339342D02*
X155535833Y-72529819D01*
X156440595Y-72863152D02*
X156440595Y-73529819D01*
X156202500Y-72482200D02*
X155964405Y-73196485D01*
X155964405Y-73196485D02*
X156583452Y-73196485D01*
X157012024Y-73529819D02*
X157202500Y-73529819D01*
X157202500Y-73529819D02*
X157297738Y-73482200D01*
X157297738Y-73482200D02*
X157345357Y-73434580D01*
X157345357Y-73434580D02*
X157440595Y-73291723D01*
X157440595Y-73291723D02*
X157488214Y-73101247D01*
X157488214Y-73101247D02*
X157488214Y-72720295D01*
X157488214Y-72720295D02*
X157440595Y-72625057D01*
X157440595Y-72625057D02*
X157392976Y-72577438D01*
X157392976Y-72577438D02*
X157297738Y-72529819D01*
X157297738Y-72529819D02*
X157107262Y-72529819D01*
X157107262Y-72529819D02*
X157012024Y-72577438D01*
X157012024Y-72577438D02*
X156964405Y-72625057D01*
X156964405Y-72625057D02*
X156916786Y-72720295D01*
X156916786Y-72720295D02*
X156916786Y-72958390D01*
X156916786Y-72958390D02*
X156964405Y-73053628D01*
X156964405Y-73053628D02*
X157012024Y-73101247D01*
X157012024Y-73101247D02*
X157107262Y-73148866D01*
X157107262Y-73148866D02*
X157297738Y-73148866D01*
X157297738Y-73148866D02*
X157392976Y-73101247D01*
X157392976Y-73101247D02*
X157440595Y-73053628D01*
X157440595Y-73053628D02*
X157488214Y-72958390D01*
X99640476Y-68740319D02*
X99640476Y-69454604D01*
X99640476Y-69454604D02*
X99592857Y-69597461D01*
X99592857Y-69597461D02*
X99497619Y-69692700D01*
X99497619Y-69692700D02*
X99354762Y-69740319D01*
X99354762Y-69740319D02*
X99259524Y-69740319D01*
X100640476Y-69740319D02*
X100069048Y-69740319D01*
X100354762Y-69740319D02*
X100354762Y-68740319D01*
X100354762Y-68740319D02*
X100259524Y-68883176D01*
X100259524Y-68883176D02*
X100164286Y-68978414D01*
X100164286Y-68978414D02*
X100069048Y-69026033D01*
X101259524Y-68740319D02*
X101354762Y-68740319D01*
X101354762Y-68740319D02*
X101450000Y-68787938D01*
X101450000Y-68787938D02*
X101497619Y-68835557D01*
X101497619Y-68835557D02*
X101545238Y-68930795D01*
X101545238Y-68930795D02*
X101592857Y-69121271D01*
X101592857Y-69121271D02*
X101592857Y-69359366D01*
X101592857Y-69359366D02*
X101545238Y-69549842D01*
X101545238Y-69549842D02*
X101497619Y-69645080D01*
X101497619Y-69645080D02*
X101450000Y-69692700D01*
X101450000Y-69692700D02*
X101354762Y-69740319D01*
X101354762Y-69740319D02*
X101259524Y-69740319D01*
X101259524Y-69740319D02*
X101164286Y-69692700D01*
X101164286Y-69692700D02*
X101116667Y-69645080D01*
X101116667Y-69645080D02*
X101069048Y-69549842D01*
X101069048Y-69549842D02*
X101021429Y-69359366D01*
X101021429Y-69359366D02*
X101021429Y-69121271D01*
X101021429Y-69121271D02*
X101069048Y-68930795D01*
X101069048Y-68930795D02*
X101116667Y-68835557D01*
X101116667Y-68835557D02*
X101164286Y-68787938D01*
X101164286Y-68787938D02*
X101259524Y-68740319D01*
X107938095Y-85304819D02*
X107938095Y-86114342D01*
X107938095Y-86114342D02*
X107985714Y-86209580D01*
X107985714Y-86209580D02*
X108033333Y-86257200D01*
X108033333Y-86257200D02*
X108128571Y-86304819D01*
X108128571Y-86304819D02*
X108319047Y-86304819D01*
X108319047Y-86304819D02*
X108414285Y-86257200D01*
X108414285Y-86257200D02*
X108461904Y-86209580D01*
X108461904Y-86209580D02*
X108509523Y-86114342D01*
X108509523Y-86114342D02*
X108509523Y-85304819D01*
X109461904Y-85304819D02*
X108985714Y-85304819D01*
X108985714Y-85304819D02*
X108938095Y-85781009D01*
X108938095Y-85781009D02*
X108985714Y-85733390D01*
X108985714Y-85733390D02*
X109080952Y-85685771D01*
X109080952Y-85685771D02*
X109319047Y-85685771D01*
X109319047Y-85685771D02*
X109414285Y-85733390D01*
X109414285Y-85733390D02*
X109461904Y-85781009D01*
X109461904Y-85781009D02*
X109509523Y-85876247D01*
X109509523Y-85876247D02*
X109509523Y-86114342D01*
X109509523Y-86114342D02*
X109461904Y-86209580D01*
X109461904Y-86209580D02*
X109414285Y-86257200D01*
X109414285Y-86257200D02*
X109319047Y-86304819D01*
X109319047Y-86304819D02*
X109080952Y-86304819D01*
X109080952Y-86304819D02*
X108985714Y-86257200D01*
X108985714Y-86257200D02*
X108938095Y-86209580D01*
X132938095Y-105704819D02*
X132938095Y-106514342D01*
X132938095Y-106514342D02*
X132985714Y-106609580D01*
X132985714Y-106609580D02*
X133033333Y-106657200D01*
X133033333Y-106657200D02*
X133128571Y-106704819D01*
X133128571Y-106704819D02*
X133319047Y-106704819D01*
X133319047Y-106704819D02*
X133414285Y-106657200D01*
X133414285Y-106657200D02*
X133461904Y-106609580D01*
X133461904Y-106609580D02*
X133509523Y-106514342D01*
X133509523Y-106514342D02*
X133509523Y-105704819D01*
X133938095Y-105800057D02*
X133985714Y-105752438D01*
X133985714Y-105752438D02*
X134080952Y-105704819D01*
X134080952Y-105704819D02*
X134319047Y-105704819D01*
X134319047Y-105704819D02*
X134414285Y-105752438D01*
X134414285Y-105752438D02*
X134461904Y-105800057D01*
X134461904Y-105800057D02*
X134509523Y-105895295D01*
X134509523Y-105895295D02*
X134509523Y-105990533D01*
X134509523Y-105990533D02*
X134461904Y-106133390D01*
X134461904Y-106133390D02*
X133890476Y-106704819D01*
X133890476Y-106704819D02*
X134509523Y-106704819D01*
X146654819Y-105359523D02*
X147369104Y-105359523D01*
X147369104Y-105359523D02*
X147511961Y-105407142D01*
X147511961Y-105407142D02*
X147607200Y-105502380D01*
X147607200Y-105502380D02*
X147654819Y-105645237D01*
X147654819Y-105645237D02*
X147654819Y-105740475D01*
X147654819Y-104359523D02*
X147654819Y-104930951D01*
X147654819Y-104645237D02*
X146654819Y-104645237D01*
X146654819Y-104645237D02*
X146797676Y-104740475D01*
X146797676Y-104740475D02*
X146892914Y-104835713D01*
X146892914Y-104835713D02*
X146940533Y-104930951D01*
X146654819Y-104026189D02*
X146654819Y-103359523D01*
X146654819Y-103359523D02*
X147654819Y-103788094D01*
X115504819Y-48738094D02*
X116314342Y-48738094D01*
X116314342Y-48738094D02*
X116409580Y-48690475D01*
X116409580Y-48690475D02*
X116457200Y-48642856D01*
X116457200Y-48642856D02*
X116504819Y-48547618D01*
X116504819Y-48547618D02*
X116504819Y-48357142D01*
X116504819Y-48357142D02*
X116457200Y-48261904D01*
X116457200Y-48261904D02*
X116409580Y-48214285D01*
X116409580Y-48214285D02*
X116314342Y-48166666D01*
X116314342Y-48166666D02*
X115504819Y-48166666D01*
X115838152Y-47261904D02*
X116504819Y-47261904D01*
X115457200Y-47499999D02*
X116171485Y-47738094D01*
X116171485Y-47738094D02*
X116171485Y-47119047D01*
X116504819Y-46214285D02*
X116504819Y-46785713D01*
X116504819Y-46499999D02*
X115504819Y-46499999D01*
X115504819Y-46499999D02*
X115647676Y-46595237D01*
X115647676Y-46595237D02*
X115742914Y-46690475D01*
X115742914Y-46690475D02*
X115790533Y-46785713D01*
X76211905Y-65304819D02*
X76211905Y-66114342D01*
X76211905Y-66114342D02*
X76259524Y-66209580D01*
X76259524Y-66209580D02*
X76307143Y-66257200D01*
X76307143Y-66257200D02*
X76402381Y-66304819D01*
X76402381Y-66304819D02*
X76592857Y-66304819D01*
X76592857Y-66304819D02*
X76688095Y-66257200D01*
X76688095Y-66257200D02*
X76735714Y-66209580D01*
X76735714Y-66209580D02*
X76783333Y-66114342D01*
X76783333Y-66114342D02*
X76783333Y-65304819D01*
X77164286Y-65304819D02*
X77783333Y-65304819D01*
X77783333Y-65304819D02*
X77450000Y-65685771D01*
X77450000Y-65685771D02*
X77592857Y-65685771D01*
X77592857Y-65685771D02*
X77688095Y-65733390D01*
X77688095Y-65733390D02*
X77735714Y-65781009D01*
X77735714Y-65781009D02*
X77783333Y-65876247D01*
X77783333Y-65876247D02*
X77783333Y-66114342D01*
X77783333Y-66114342D02*
X77735714Y-66209580D01*
X77735714Y-66209580D02*
X77688095Y-66257200D01*
X77688095Y-66257200D02*
X77592857Y-66304819D01*
X77592857Y-66304819D02*
X77307143Y-66304819D01*
X77307143Y-66304819D02*
X77211905Y-66257200D01*
X77211905Y-66257200D02*
X77164286Y-66209580D01*
X78259524Y-66304819D02*
X78450000Y-66304819D01*
X78450000Y-66304819D02*
X78545238Y-66257200D01*
X78545238Y-66257200D02*
X78592857Y-66209580D01*
X78592857Y-66209580D02*
X78688095Y-66066723D01*
X78688095Y-66066723D02*
X78735714Y-65876247D01*
X78735714Y-65876247D02*
X78735714Y-65495295D01*
X78735714Y-65495295D02*
X78688095Y-65400057D01*
X78688095Y-65400057D02*
X78640476Y-65352438D01*
X78640476Y-65352438D02*
X78545238Y-65304819D01*
X78545238Y-65304819D02*
X78354762Y-65304819D01*
X78354762Y-65304819D02*
X78259524Y-65352438D01*
X78259524Y-65352438D02*
X78211905Y-65400057D01*
X78211905Y-65400057D02*
X78164286Y-65495295D01*
X78164286Y-65495295D02*
X78164286Y-65733390D01*
X78164286Y-65733390D02*
X78211905Y-65828628D01*
X78211905Y-65828628D02*
X78259524Y-65876247D01*
X78259524Y-65876247D02*
X78354762Y-65923866D01*
X78354762Y-65923866D02*
X78545238Y-65923866D01*
X78545238Y-65923866D02*
X78640476Y-65876247D01*
X78640476Y-65876247D02*
X78688095Y-65828628D01*
X78688095Y-65828628D02*
X78735714Y-65733390D01*
X202038095Y-83154819D02*
X202038095Y-83964342D01*
X202038095Y-83964342D02*
X202085714Y-84059580D01*
X202085714Y-84059580D02*
X202133333Y-84107200D01*
X202133333Y-84107200D02*
X202228571Y-84154819D01*
X202228571Y-84154819D02*
X202419047Y-84154819D01*
X202419047Y-84154819D02*
X202514285Y-84107200D01*
X202514285Y-84107200D02*
X202561904Y-84059580D01*
X202561904Y-84059580D02*
X202609523Y-83964342D01*
X202609523Y-83964342D02*
X202609523Y-83154819D01*
X203228571Y-83583390D02*
X203133333Y-83535771D01*
X203133333Y-83535771D02*
X203085714Y-83488152D01*
X203085714Y-83488152D02*
X203038095Y-83392914D01*
X203038095Y-83392914D02*
X203038095Y-83345295D01*
X203038095Y-83345295D02*
X203085714Y-83250057D01*
X203085714Y-83250057D02*
X203133333Y-83202438D01*
X203133333Y-83202438D02*
X203228571Y-83154819D01*
X203228571Y-83154819D02*
X203419047Y-83154819D01*
X203419047Y-83154819D02*
X203514285Y-83202438D01*
X203514285Y-83202438D02*
X203561904Y-83250057D01*
X203561904Y-83250057D02*
X203609523Y-83345295D01*
X203609523Y-83345295D02*
X203609523Y-83392914D01*
X203609523Y-83392914D02*
X203561904Y-83488152D01*
X203561904Y-83488152D02*
X203514285Y-83535771D01*
X203514285Y-83535771D02*
X203419047Y-83583390D01*
X203419047Y-83583390D02*
X203228571Y-83583390D01*
X203228571Y-83583390D02*
X203133333Y-83631009D01*
X203133333Y-83631009D02*
X203085714Y-83678628D01*
X203085714Y-83678628D02*
X203038095Y-83773866D01*
X203038095Y-83773866D02*
X203038095Y-83964342D01*
X203038095Y-83964342D02*
X203085714Y-84059580D01*
X203085714Y-84059580D02*
X203133333Y-84107200D01*
X203133333Y-84107200D02*
X203228571Y-84154819D01*
X203228571Y-84154819D02*
X203419047Y-84154819D01*
X203419047Y-84154819D02*
X203514285Y-84107200D01*
X203514285Y-84107200D02*
X203561904Y-84059580D01*
X203561904Y-84059580D02*
X203609523Y-83964342D01*
X203609523Y-83964342D02*
X203609523Y-83773866D01*
X203609523Y-83773866D02*
X203561904Y-83678628D01*
X203561904Y-83678628D02*
X203514285Y-83631009D01*
X203514285Y-83631009D02*
X203419047Y-83583390D01*
X94340476Y-102240319D02*
X94340476Y-102954604D01*
X94340476Y-102954604D02*
X94292857Y-103097461D01*
X94292857Y-103097461D02*
X94197619Y-103192700D01*
X94197619Y-103192700D02*
X94054762Y-103240319D01*
X94054762Y-103240319D02*
X93959524Y-103240319D01*
X95340476Y-103240319D02*
X94769048Y-103240319D01*
X95054762Y-103240319D02*
X95054762Y-102240319D01*
X95054762Y-102240319D02*
X94959524Y-102383176D01*
X94959524Y-102383176D02*
X94864286Y-102478414D01*
X94864286Y-102478414D02*
X94769048Y-102526033D01*
X96245238Y-102240319D02*
X95769048Y-102240319D01*
X95769048Y-102240319D02*
X95721429Y-102716509D01*
X95721429Y-102716509D02*
X95769048Y-102668890D01*
X95769048Y-102668890D02*
X95864286Y-102621271D01*
X95864286Y-102621271D02*
X96102381Y-102621271D01*
X96102381Y-102621271D02*
X96197619Y-102668890D01*
X96197619Y-102668890D02*
X96245238Y-102716509D01*
X96245238Y-102716509D02*
X96292857Y-102811747D01*
X96292857Y-102811747D02*
X96292857Y-103049842D01*
X96292857Y-103049842D02*
X96245238Y-103145080D01*
X96245238Y-103145080D02*
X96197619Y-103192700D01*
X96197619Y-103192700D02*
X96102381Y-103240319D01*
X96102381Y-103240319D02*
X95864286Y-103240319D01*
X95864286Y-103240319D02*
X95769048Y-103192700D01*
X95769048Y-103192700D02*
X95721429Y-103145080D01*
D11*
%TO.C,C13*%
X179500000Y-98337486D02*
X179500000Y-97587501D01*
D12*
%TO.C,C130*%
X207290000Y-55284420D02*
X207290000Y-55565580D01*
X208310000Y-55284420D02*
X208310000Y-55565580D01*
%TO.C,U51*%
X101665000Y-94250000D02*
X101665000Y-92300000D01*
X101665000Y-94250000D02*
X101665000Y-96200000D01*
X106785000Y-94250000D02*
X106785000Y-90800000D01*
X106785000Y-94250000D02*
X106785000Y-96200000D01*
%TO.C,R122*%
X185615000Y-107027064D02*
X185615000Y-106572936D01*
X187085000Y-107027064D02*
X187085000Y-106572936D01*
%TO.C,R155*%
X114607538Y-60624758D02*
X114607538Y-60150242D01*
X115652538Y-60624758D02*
X115652538Y-60150242D01*
%TO.C,D1*%
X100650000Y-51500000D02*
X100650000Y-45990000D01*
X100650000Y-51500000D02*
X103950000Y-51500000D01*
X103950000Y-51500000D02*
X103950000Y-45990000D01*
%TO.C,C68*%
X136690000Y-101415580D02*
X136690000Y-101134420D01*
X137710000Y-101415580D02*
X137710000Y-101134420D01*
%TO.C,R165*%
X77602064Y-85345000D02*
X77147936Y-85345000D01*
X77602064Y-86815000D02*
X77147936Y-86815000D01*
%TO.C,C112*%
X101790000Y-75511252D02*
X101790000Y-74088748D01*
X103610000Y-75511252D02*
X103610000Y-74088748D01*
%TO.C,C133*%
X208840000Y-55284420D02*
X208840000Y-55565580D01*
X209860000Y-55284420D02*
X209860000Y-55565580D01*
%TO.C,R113*%
X199577500Y-113687258D02*
X199577500Y-113212742D01*
X200622500Y-113687258D02*
X200622500Y-113212742D01*
%TO.C,R99*%
X182318470Y-61870000D02*
X182011188Y-61870000D01*
X182318470Y-62630000D02*
X182011188Y-62630000D01*
%TO.C,R120*%
X183327500Y-112072742D02*
X183327500Y-112547258D01*
X184372500Y-112072742D02*
X184372500Y-112547258D01*
%TO.C,U40*%
X116020038Y-58287500D02*
X116020038Y-56337500D01*
X116020038Y-58287500D02*
X116020038Y-61737500D01*
X121140038Y-58287500D02*
X121140038Y-56337500D01*
X121140038Y-58287500D02*
X121140038Y-60237500D01*
%TO.C,R139*%
X207220000Y-59796359D02*
X207220000Y-60103641D01*
X207980000Y-59796359D02*
X207980000Y-60103641D01*
%TO.C,R114*%
X183327500Y-115687258D02*
X183327500Y-115212742D01*
X184372500Y-115687258D02*
X184372500Y-115212742D01*
%TO.C,R23*%
X161970000Y-75216141D02*
X161970000Y-74908859D01*
X162730000Y-75216141D02*
X162730000Y-74908859D01*
%TO.C,C117*%
X183890000Y-118640580D02*
X183890000Y-118359420D01*
X184910000Y-118640580D02*
X184910000Y-118359420D01*
%TO.C,R147*%
X202220000Y-54596359D02*
X202220000Y-54903641D01*
X202980000Y-54596359D02*
X202980000Y-54903641D01*
%TO.C,J3*%
X71850000Y-118250000D02*
G75*
G02*
X68350000Y-118250000I-1750000J0D01*
G01*
X68350000Y-118250000D02*
G75*
G02*
X71850000Y-118250000I1750000J0D01*
G01*
%TO.C,C83*%
X208992164Y-95740000D02*
X209207836Y-95740000D01*
X208992164Y-96460000D02*
X209207836Y-96460000D01*
%TO.C,C62*%
X116584420Y-89590000D02*
X116865580Y-89590000D01*
X116584420Y-90610000D02*
X116865580Y-90610000D01*
%TO.C,R75*%
X200970000Y-74453641D02*
X200970000Y-74146359D01*
X201730000Y-74453641D02*
X201730000Y-74146359D01*
%TO.C,U17*%
X144600000Y-46990000D02*
X142650000Y-46990000D01*
X144600000Y-46990000D02*
X146550000Y-46990000D01*
X144600000Y-52110000D02*
X142650000Y-52110000D01*
X144600000Y-52110000D02*
X148050000Y-52110000D01*
%TO.C,RN14*%
X68170000Y-92600000D02*
X68170000Y-93600000D01*
X71530000Y-92600000D02*
X71530000Y-93600000D01*
%TO.C,R102*%
X107403641Y-52870000D02*
X107096359Y-52870000D01*
X107403641Y-53630000D02*
X107096359Y-53630000D01*
%TO.C,R131*%
X181295000Y-100458859D02*
X181295000Y-100766141D01*
X182055000Y-100458859D02*
X182055000Y-100766141D01*
%TO.C,U4*%
X120390000Y-77527500D02*
X121340000Y-77527500D01*
X120390000Y-78477500D02*
X120390000Y-77527500D01*
X120390000Y-96797500D02*
X120390000Y-97747500D01*
X120390000Y-97747500D02*
X121340000Y-97747500D01*
X121340000Y-97747500D02*
X121340000Y-99037500D01*
X140610000Y-77527500D02*
X139660000Y-77527500D01*
X140610000Y-78477500D02*
X140610000Y-77527500D01*
X140610000Y-96797500D02*
X140610000Y-97747500D01*
X140610000Y-97747500D02*
X139660000Y-97747500D01*
%TO.C,R27*%
X163520000Y-87528641D02*
X163520000Y-87221359D01*
X164280000Y-87528641D02*
X164280000Y-87221359D01*
%TO.C,C20*%
X165840000Y-79970336D02*
X165840000Y-79754664D01*
X166560000Y-79970336D02*
X166560000Y-79754664D01*
%TO.C,R132*%
X182295000Y-100458859D02*
X182295000Y-100766141D01*
X183055000Y-100458859D02*
X183055000Y-100766141D01*
%TO.C,C76*%
X141640000Y-100009420D02*
X141640000Y-100290580D01*
X142660000Y-100009420D02*
X142660000Y-100290580D01*
%TO.C,RN4*%
X181385171Y-64020000D02*
X182385171Y-64020000D01*
X181385171Y-67380000D02*
X182385171Y-67380000D01*
%TO.C,R16*%
X162263641Y-84545000D02*
X161956359Y-84545000D01*
X162263641Y-85305000D02*
X161956359Y-85305000D01*
%TO.C,C28*%
X153340000Y-75507836D02*
X153340000Y-75292164D01*
X154060000Y-75507836D02*
X154060000Y-75292164D01*
%TO.C,U32*%
X76240000Y-55600000D02*
X76240000Y-53650000D01*
X76240000Y-55600000D02*
X76240000Y-57550000D01*
X81360000Y-55600000D02*
X81360000Y-52150000D01*
X81360000Y-55600000D02*
X81360000Y-57550000D01*
%TO.C,C79*%
X144540580Y-100440000D02*
X144259420Y-100440000D01*
X144540580Y-101460000D02*
X144259420Y-101460000D01*
%TO.C,R68*%
X203003641Y-71470000D02*
X202696359Y-71470000D01*
X203003641Y-72230000D02*
X202696359Y-72230000D01*
%TO.C,R11*%
X170070000Y-79508859D02*
X170070000Y-79816141D01*
X170830000Y-79508859D02*
X170830000Y-79816141D01*
%TO.C,R135*%
X179127064Y-99752500D02*
X178672936Y-99752500D01*
X179127064Y-101222500D02*
X178672936Y-101222500D01*
%TO.C,C78*%
X105171920Y-81040000D02*
X105453080Y-81040000D01*
X105171920Y-82060000D02*
X105453080Y-82060000D01*
%TO.C,R1*%
X151212742Y-49222500D02*
X151687258Y-49222500D01*
X151212742Y-50267500D02*
X151687258Y-50267500D01*
%TO.C,D17*%
X123290000Y-104050000D02*
X123290000Y-106050000D01*
X123290000Y-104050000D02*
X127300000Y-104050000D01*
X123290000Y-106050000D02*
X127300000Y-106050000D01*
%TO.C,L1*%
X185840000Y-95350279D02*
X185840000Y-95024721D01*
X186860000Y-95350279D02*
X186860000Y-95024721D01*
%TO.C,R172*%
X77577064Y-98615000D02*
X77122936Y-98615000D01*
X77577064Y-100085000D02*
X77122936Y-100085000D01*
%TO.C,C124*%
X201140000Y-116334420D02*
X201140000Y-116615580D01*
X202160000Y-116334420D02*
X202160000Y-116615580D01*
%TO.C,C72*%
X142740000Y-76890580D02*
X142740000Y-76609420D01*
X143760000Y-76890580D02*
X143760000Y-76609420D01*
%TO.C,D14*%
X68700000Y-50440000D02*
X68700000Y-55950000D01*
X72000000Y-50440000D02*
X68700000Y-50440000D01*
X72000000Y-50440000D02*
X72000000Y-55950000D01*
%TO.C,U47*%
X71900000Y-95040000D02*
X68450000Y-95040000D01*
X71900000Y-95040000D02*
X73850000Y-95040000D01*
X71900000Y-100160000D02*
X69950000Y-100160000D01*
X71900000Y-100160000D02*
X73850000Y-100160000D01*
%TO.C,C168*%
X77690580Y-107790000D02*
X77409420Y-107790000D01*
X77690580Y-108810000D02*
X77409420Y-108810000D01*
%TO.C,U12*%
X174725171Y-65850000D02*
X174725171Y-63650000D01*
X174725171Y-65850000D02*
X174725171Y-69450000D01*
X179945171Y-65850000D02*
X179945171Y-63650000D01*
X179945171Y-65850000D02*
X179945171Y-68050000D01*
%TO.C,U18*%
X133550000Y-46985000D02*
X131600000Y-46985000D01*
X133550000Y-46985000D02*
X135500000Y-46985000D01*
X133550000Y-52105000D02*
X131600000Y-52105000D01*
X133550000Y-52105000D02*
X137000000Y-52105000D01*
%TO.C,U31*%
X85490000Y-55600000D02*
X85490000Y-53650000D01*
X85490000Y-55600000D02*
X85490000Y-57550000D01*
X90610000Y-55600000D02*
X90610000Y-52150000D01*
X90610000Y-55600000D02*
X90610000Y-57550000D01*
%TO.C,C129*%
X177984420Y-105615000D02*
X178265580Y-105615000D01*
X177984420Y-106635000D02*
X178265580Y-106635000D01*
%TO.C,C66*%
X142990000Y-88909420D02*
X142990000Y-89190580D01*
X144010000Y-88909420D02*
X144010000Y-89190580D01*
%TO.C,R160*%
X74653641Y-67820000D02*
X74346359Y-67820000D01*
X74653641Y-68580000D02*
X74346359Y-68580000D01*
%TO.C,C71*%
X116490000Y-75209420D02*
X116490000Y-75490580D01*
X117510000Y-75209420D02*
X117510000Y-75490580D01*
%TO.C,R134*%
X172865000Y-102822936D02*
X172865000Y-103277064D01*
X174335000Y-102822936D02*
X174335000Y-103277064D01*
%TO.C,C104*%
X196103080Y-45015000D02*
X195821920Y-45015000D01*
X196103080Y-46035000D02*
X195821920Y-46035000D01*
%TO.C,C156*%
X77315580Y-90770000D02*
X77034420Y-90770000D01*
X77315580Y-91790000D02*
X77034420Y-91790000D01*
%TO.C,R33*%
X164570000Y-45946359D02*
X164570000Y-46253641D01*
X165330000Y-45946359D02*
X165330000Y-46253641D01*
%TO.C,R52*%
X104896359Y-82420000D02*
X105203641Y-82420000D01*
X104896359Y-83180000D02*
X105203641Y-83180000D01*
%TO.C,C110*%
X102742164Y-54440000D02*
X102957836Y-54440000D01*
X102742164Y-55160000D02*
X102957836Y-55160000D01*
%TO.C,C126*%
X181384420Y-105615000D02*
X181665580Y-105615000D01*
X181384420Y-106635000D02*
X181665580Y-106635000D01*
%TO.C,RN7*%
X97480698Y-53300000D02*
X97480698Y-54300000D01*
X100840698Y-53300000D02*
X100840698Y-54300000D01*
%TO.C,C59*%
X133890000Y-73809420D02*
X133890000Y-74090580D01*
X134910000Y-73809420D02*
X134910000Y-74090580D01*
%TO.C,R144*%
X207613641Y-64870000D02*
X207306359Y-64870000D01*
X207613641Y-65630000D02*
X207306359Y-65630000D01*
%TO.C,C99*%
X182056993Y-62890000D02*
X182272665Y-62890000D01*
X182056993Y-63610000D02*
X182272665Y-63610000D01*
%TO.C,C88*%
X209073414Y-81940000D02*
X209289086Y-81940000D01*
X209073414Y-82660000D02*
X209289086Y-82660000D01*
D10*
%TO.C,U25*%
X178150000Y-101800000D02*
X178150000Y-102100000D01*
X178150000Y-105150000D02*
X178150000Y-104850000D01*
X181500000Y-101800000D02*
X178150000Y-101800000D01*
X181500000Y-101800000D02*
X181500000Y-102100000D01*
X181500000Y-104925000D02*
X182725000Y-104925000D01*
X181500000Y-105150000D02*
X178150000Y-105150000D01*
X181500000Y-105150000D02*
X181500000Y-104925000D01*
D12*
%TO.C,C2*%
X151209420Y-46035000D02*
X151490580Y-46035000D01*
X151209420Y-47055000D02*
X151490580Y-47055000D01*
%TO.C,R95*%
X180255171Y-62596359D02*
X180255171Y-62903641D01*
X181015171Y-62596359D02*
X181015171Y-62903641D01*
%TO.C,R161*%
X74162742Y-74927500D02*
X74637258Y-74927500D01*
X74162742Y-75972500D02*
X74637258Y-75972500D01*
%TO.C,C25*%
X153357836Y-73640000D02*
X153142164Y-73640000D01*
X153357836Y-74360000D02*
X153142164Y-74360000D01*
%TO.C,C15*%
X159380000Y-93022836D02*
X159380000Y-92807164D01*
X160100000Y-93022836D02*
X160100000Y-92807164D01*
%TO.C,R88*%
X200820000Y-104265674D02*
X200820000Y-104572956D01*
X201580000Y-104265674D02*
X201580000Y-104572956D01*
%TO.C,U7*%
X205700000Y-93690000D02*
X204900000Y-93690000D01*
X205700000Y-93690000D02*
X206500000Y-93690000D01*
X205700000Y-96810000D02*
X204900000Y-96810000D01*
X205700000Y-96810000D02*
X207500000Y-96810000D01*
%TO.C,R112*%
X181587258Y-119377500D02*
X181112742Y-119377500D01*
X181587258Y-120422500D02*
X181112742Y-120422500D01*
%TO.C,D3*%
X176350000Y-87585000D02*
X178635000Y-87585000D01*
X178635000Y-86115000D02*
X176350000Y-86115000D01*
X178635000Y-87585000D02*
X178635000Y-86115000D01*
%TO.C,C81*%
X209590000Y-91892164D02*
X209590000Y-92107836D01*
X210310000Y-91892164D02*
X210310000Y-92107836D01*
%TO.C,R61*%
X209270000Y-94296359D02*
X209270000Y-94603641D01*
X210030000Y-94296359D02*
X210030000Y-94603641D01*
%TO.C,U21*%
X188340000Y-115600000D02*
X188340000Y-114800000D01*
X188340000Y-115600000D02*
X188340000Y-116400000D01*
X191460000Y-115600000D02*
X191460000Y-113800000D01*
X191460000Y-115600000D02*
X191460000Y-116400000D01*
%TO.C,L2*%
X185812779Y-97127500D02*
X185487221Y-97127500D01*
X185812779Y-98147500D02*
X185487221Y-98147500D01*
%TO.C,R71*%
X202696359Y-73470000D02*
X203003641Y-73470000D01*
X202696359Y-74230000D02*
X203003641Y-74230000D01*
%TO.C,C74*%
X135140000Y-101415580D02*
X135140000Y-101134420D01*
X136160000Y-101415580D02*
X136160000Y-101134420D01*
%TO.C,R91*%
X185352087Y-64277500D02*
X184877571Y-64277500D01*
X185352087Y-65322500D02*
X184877571Y-65322500D01*
%TO.C,Y2*%
X128550000Y-101650000D02*
X128550000Y-105250000D01*
X128550000Y-105250000D02*
X134300000Y-105250000D01*
X134300000Y-101650000D02*
X128550000Y-101650000D01*
%TO.C,D24*%
X111690000Y-80900000D02*
X111690000Y-82900000D01*
X111690000Y-80900000D02*
X115700000Y-80900000D01*
X111690000Y-82900000D02*
X115700000Y-82900000D01*
%TO.C,C19*%
X170040000Y-82492164D02*
X170040000Y-82707836D01*
X170760000Y-82492164D02*
X170760000Y-82707836D01*
%TO.C,D29*%
X138240000Y-51015000D02*
X138240000Y-53045000D01*
X138240000Y-51015000D02*
X138900000Y-51015000D01*
X139900000Y-51015000D02*
X140560000Y-51015000D01*
X140560000Y-52425000D02*
X140560000Y-51015000D01*
%TO.C,R173*%
X77552064Y-102330000D02*
X77097936Y-102330000D01*
X77552064Y-103800000D02*
X77097936Y-103800000D01*
%TO.C,R90*%
X185352087Y-65777500D02*
X184877571Y-65777500D01*
X185352087Y-66822500D02*
X184877571Y-66822500D01*
%TO.C,C3*%
X161211252Y-53915000D02*
X160688748Y-53915000D01*
X161211252Y-55385000D02*
X160688748Y-55385000D01*
%TO.C,C60*%
X141190000Y-76609420D02*
X141190000Y-76890580D01*
X142210000Y-76609420D02*
X142210000Y-76890580D01*
%TO.C,R45*%
X99403641Y-67320000D02*
X99096359Y-67320000D01*
X99403641Y-68080000D02*
X99096359Y-68080000D01*
%TO.C,R15*%
X162293641Y-80937500D02*
X161986359Y-80937500D01*
X162293641Y-81697500D02*
X161986359Y-81697500D01*
%TO.C,R6*%
X168770000Y-89571359D02*
X168770000Y-89878641D01*
X169530000Y-89571359D02*
X169530000Y-89878641D01*
%TO.C,C63*%
X118340000Y-98840580D02*
X118340000Y-98559420D01*
X119360000Y-98840580D02*
X119360000Y-98559420D01*
%TO.C,R106*%
X102903641Y-55420000D02*
X102596359Y-55420000D01*
X102903641Y-56180000D02*
X102596359Y-56180000D01*
%TO.C,R53*%
X208396359Y-84820000D02*
X208703641Y-84820000D01*
X208396359Y-85580000D02*
X208703641Y-85580000D01*
%TO.C,R148*%
X203670000Y-65546359D02*
X203670000Y-65853641D01*
X204430000Y-65546359D02*
X204430000Y-65853641D01*
%TO.C,R111*%
X193937258Y-119627500D02*
X193462742Y-119627500D01*
X193937258Y-120672500D02*
X193462742Y-120672500D01*
%TO.C,C90*%
X200940000Y-109149895D02*
X200940000Y-108868735D01*
X201960000Y-109149895D02*
X201960000Y-108868735D01*
%TO.C,R146*%
X207346359Y-65870000D02*
X207653641Y-65870000D01*
X207346359Y-66630000D02*
X207653641Y-66630000D01*
%TO.C,D27*%
X108300000Y-55810000D02*
X108300000Y-50300000D01*
X108300000Y-55810000D02*
X111600000Y-55810000D01*
X111600000Y-55810000D02*
X111600000Y-50300000D01*
%TO.C,R44*%
X117703641Y-93020000D02*
X117396359Y-93020000D01*
X117703641Y-93780000D02*
X117396359Y-93780000D01*
%TO.C,R98*%
X180753641Y-69920000D02*
X180446359Y-69920000D01*
X180753641Y-70680000D02*
X180446359Y-70680000D01*
%TO.C,RN3*%
X203920000Y-100659315D02*
X203920000Y-99659315D01*
X207280000Y-100659315D02*
X207280000Y-99659315D01*
%TO.C,C85*%
X200940000Y-81840580D02*
X200940000Y-81559420D01*
X201960000Y-81840580D02*
X201960000Y-81559420D01*
%TO.C,L3*%
X109440000Y-58197936D02*
X109440000Y-59402064D01*
X112160000Y-58197936D02*
X112160000Y-59402064D01*
%TO.C,R56*%
X202853641Y-84820000D02*
X202546359Y-84820000D01*
X202853641Y-85580000D02*
X202546359Y-85580000D01*
%TO.C,R125*%
X183290000Y-103502064D02*
X183290000Y-103047936D01*
X184760000Y-103502064D02*
X184760000Y-103047936D01*
%TO.C,C166*%
X77690580Y-100590000D02*
X77409420Y-100590000D01*
X77690580Y-101610000D02*
X77409420Y-101610000D01*
%TO.C,C114*%
X198040000Y-116359420D02*
X198040000Y-116640580D01*
X199060000Y-116359420D02*
X199060000Y-116640580D01*
%TO.C,C23*%
X161782164Y-77502500D02*
X161997836Y-77502500D01*
X161782164Y-78222500D02*
X161997836Y-78222500D01*
%TO.C,C165*%
X77690580Y-97040000D02*
X77409420Y-97040000D01*
X77690580Y-98060000D02*
X77409420Y-98060000D01*
%TO.C,J1*%
X71750000Y-122750000D02*
G75*
G02*
X68250000Y-122750000I-1750000J0D01*
G01*
X68250000Y-122750000D02*
G75*
G02*
X71750000Y-122750000I1750000J0D01*
G01*
%TO.C,JP1*%
X175600000Y-108450000D02*
X175600000Y-107850000D01*
X176150000Y-109650000D02*
X176750000Y-109650000D01*
X176250000Y-107150000D02*
X179050000Y-107150000D01*
X176450000Y-109350000D02*
X176150000Y-109650000D01*
X176450000Y-109350000D02*
X176750000Y-109650000D01*
X179050000Y-109150000D02*
X176250000Y-109150000D01*
X179700000Y-107850000D02*
X179700000Y-108450000D01*
X175600000Y-107850000D02*
G75*
G02*
X176300000Y-107150000I699999J1D01*
G01*
X176300000Y-109150000D02*
G75*
G02*
X175600000Y-108450000I-1J699999D01*
G01*
X179000000Y-107150000D02*
G75*
G02*
X179700000Y-107850000I0J-700000D01*
G01*
X179700000Y-108450000D02*
G75*
G02*
X179000000Y-109150000I-700000J0D01*
G01*
%TO.C,C150*%
X71090580Y-67640000D02*
X70809420Y-67640000D01*
X71090580Y-68660000D02*
X70809420Y-68660000D01*
%TO.C,R100*%
X177803641Y-61020000D02*
X177496359Y-61020000D01*
X177803641Y-61780000D02*
X177496359Y-61780000D01*
%TO.C,R164*%
X77627064Y-80980000D02*
X77172936Y-80980000D01*
X77627064Y-82450000D02*
X77172936Y-82450000D01*
%TO.C,R36*%
X156564564Y-45940000D02*
X155110436Y-45940000D01*
X156564564Y-47760000D02*
X155110436Y-47760000D01*
%TO.C,C120*%
X196390000Y-116359420D02*
X196390000Y-116640580D01*
X197410000Y-116359420D02*
X197410000Y-116640580D01*
%TO.C,R105*%
X104596359Y-55470000D02*
X104903641Y-55470000D01*
X104596359Y-56230000D02*
X104903641Y-56230000D01*
%TO.C,U10*%
X205650000Y-101949315D02*
X203450000Y-101949315D01*
X205650000Y-101949315D02*
X207850000Y-101949315D01*
X205650000Y-107169315D02*
X203450000Y-107169315D01*
X205650000Y-107169315D02*
X209250000Y-107169315D01*
D10*
%TO.C,U38*%
X77340000Y-112825000D02*
X77340000Y-114375000D01*
X77340000Y-122525000D02*
X77340000Y-119125000D01*
X77690000Y-112825000D02*
X77340000Y-112825000D01*
X83690000Y-112825000D02*
X84040000Y-112825000D01*
X83690000Y-120625000D02*
X84040000Y-120625000D01*
X84040000Y-112825000D02*
X84040000Y-114375000D01*
X84040000Y-120625000D02*
X84040000Y-119075000D01*
D12*
%TO.C,R82*%
X208653641Y-100879315D02*
X208346359Y-100879315D01*
X208653641Y-101639315D02*
X208346359Y-101639315D01*
%TO.C,C7*%
X164261252Y-58290000D02*
X162838748Y-58290000D01*
X164261252Y-60110000D02*
X162838748Y-60110000D01*
%TO.C,C138*%
X202640000Y-65757836D02*
X202640000Y-65542164D01*
X203360000Y-65757836D02*
X203360000Y-65542164D01*
%TO.C,R7*%
X167870000Y-79558859D02*
X167870000Y-79866141D01*
X168630000Y-79558859D02*
X168630000Y-79866141D01*
%TO.C,R83*%
X202546359Y-100829315D02*
X202853641Y-100829315D01*
X202546359Y-101589315D02*
X202853641Y-101589315D01*
D13*
%TO.C,R3*%
X87925005Y-46250000D02*
X87925015Y-45850000D01*
X88670840Y-46251056D02*
X88670851Y-45851057D01*
D12*
%TO.C,J13*%
X92980000Y-69120000D02*
X94310000Y-69120000D01*
X92980000Y-70450000D02*
X92980000Y-69120000D01*
X92980000Y-71720000D02*
X92980000Y-94640000D01*
X92980000Y-71720000D02*
X95580000Y-71720000D01*
X92980000Y-94640000D02*
X98180000Y-94640000D01*
X95580000Y-69120000D02*
X98180000Y-69120000D01*
X95580000Y-71720000D02*
X95580000Y-69120000D01*
X98180000Y-69120000D02*
X98180000Y-94640000D01*
D11*
%TO.C,C29*%
X181950000Y-91049986D02*
X181950000Y-90300001D01*
D12*
%TO.C,R115*%
X196377500Y-113737258D02*
X196377500Y-113262742D01*
X197422500Y-113737258D02*
X197422500Y-113262742D01*
%TO.C,R25*%
X162053641Y-76382500D02*
X161746359Y-76382500D01*
X162053641Y-77142500D02*
X161746359Y-77142500D01*
%TO.C,C92*%
X209690000Y-103757836D02*
X209690000Y-103542164D01*
X210410000Y-103757836D02*
X210410000Y-103542164D01*
%TO.C,R121*%
X185240000Y-103035436D02*
X185240000Y-103489564D01*
X186710000Y-103035436D02*
X186710000Y-103489564D01*
%TO.C,R104*%
X190808859Y-52145000D02*
X191116141Y-52145000D01*
X190808859Y-52905000D02*
X191116141Y-52905000D01*
%TO.C,C10*%
X184236252Y-74840000D02*
X182813748Y-74840000D01*
X184236252Y-76660000D02*
X182813748Y-76660000D01*
%TO.C,C139*%
X188088748Y-58690000D02*
X189511252Y-58690000D01*
X188088748Y-60510000D02*
X189511252Y-60510000D01*
%TO.C,L4*%
X102000000Y-62200000D02*
X103200000Y-62200000D01*
X102000000Y-67600000D02*
X102000000Y-62200000D01*
X102000000Y-67600000D02*
X103200000Y-67600000D01*
X107200000Y-62200000D02*
X106000000Y-62200000D01*
X107200000Y-62200000D02*
X107200000Y-67600000D01*
X107200000Y-67600000D02*
X106000000Y-67600000D01*
D13*
%TO.C,R4*%
X87929160Y-49598944D02*
X87929149Y-49998943D01*
X88674995Y-49600000D02*
X88674985Y-50000000D01*
D12*
%TO.C,C16*%
X152830000Y-90822836D02*
X152830000Y-90607164D01*
X153550000Y-90822836D02*
X153550000Y-90607164D01*
%TO.C,D19*%
X98565000Y-57350000D02*
X98565000Y-59635000D01*
X98565000Y-59635000D02*
X100035000Y-59635000D01*
X100035000Y-59635000D02*
X100035000Y-57350000D01*
%TO.C,R159*%
X124115000Y-49127064D02*
X124115000Y-48672936D01*
X125585000Y-49127064D02*
X125585000Y-48672936D01*
%TO.C,C61*%
X116809420Y-84540000D02*
X117090580Y-84540000D01*
X116809420Y-85560000D02*
X117090580Y-85560000D01*
%TO.C,R32*%
X161260000Y-79621359D02*
X161260000Y-79928641D01*
X162020000Y-79621359D02*
X162020000Y-79928641D01*
%TO.C,R67*%
X203003641Y-72470000D02*
X202696359Y-72470000D01*
X203003641Y-73230000D02*
X202696359Y-73230000D01*
%TO.C,R21*%
X174720000Y-86756359D02*
X174720000Y-87063641D01*
X175480000Y-86756359D02*
X175480000Y-87063641D01*
%TO.C,U6*%
X205600000Y-88090000D02*
X203400000Y-88090000D01*
X205600000Y-88090000D02*
X207800000Y-88090000D01*
X205600000Y-93310000D02*
X203400000Y-93310000D01*
X205600000Y-93310000D02*
X209200000Y-93310000D01*
%TO.C,C98*%
X181027335Y-67940000D02*
X181243007Y-67940000D01*
X181027335Y-68660000D02*
X181243007Y-68660000D01*
%TO.C,R2*%
X151687258Y-50772500D02*
X151212742Y-50772500D01*
X151687258Y-51817500D02*
X151212742Y-51817500D01*
%TO.C,C93*%
X208992164Y-109699315D02*
X209207836Y-109699315D01*
X208992164Y-110419315D02*
X209207836Y-110419315D01*
%TO.C,R24*%
X172620000Y-86756359D02*
X172620000Y-87063641D01*
X173380000Y-86756359D02*
X173380000Y-87063641D01*
%TO.C,U30*%
X107165000Y-94250000D02*
X107165000Y-92300000D01*
X107165000Y-94250000D02*
X107165000Y-96200000D01*
X112285000Y-94250000D02*
X112285000Y-90800000D01*
X112285000Y-94250000D02*
X112285000Y-96200000D01*
%TO.C,R69*%
X208351250Y-81003641D02*
X208351250Y-80696359D01*
X209111250Y-81003641D02*
X209111250Y-80696359D01*
%TO.C,J8*%
X127180000Y-66780000D02*
X152700000Y-66780000D01*
X127180000Y-69380000D02*
X127180000Y-66780000D01*
X127180000Y-71980000D02*
X127180000Y-70650000D01*
X128510000Y-71980000D02*
X127180000Y-71980000D01*
X129780000Y-69380000D02*
X127180000Y-69380000D01*
X129780000Y-71980000D02*
X129780000Y-69380000D01*
X129780000Y-71980000D02*
X152700000Y-71980000D01*
X152700000Y-71980000D02*
X152700000Y-66780000D01*
%TO.C,U22*%
X179790000Y-112500000D02*
X179790000Y-111700000D01*
X179790000Y-112500000D02*
X179790000Y-114300000D01*
X182910000Y-112500000D02*
X182910000Y-111700000D01*
X182910000Y-112500000D02*
X182910000Y-113300000D01*
%TO.C,R34*%
X166120000Y-45946359D02*
X166120000Y-46253641D01*
X166880000Y-45946359D02*
X166880000Y-46253641D01*
%TO.C,C22*%
X162247836Y-85607500D02*
X162032164Y-85607500D01*
X162247836Y-86327500D02*
X162032164Y-86327500D01*
%TO.C,R8*%
X170620000Y-77208859D02*
X170620000Y-77516141D01*
X171380000Y-77208859D02*
X171380000Y-77516141D01*
%TO.C,D7*%
X72600000Y-51460000D02*
X72600000Y-45950000D01*
X72600000Y-51460000D02*
X75900000Y-51460000D01*
X75900000Y-51460000D02*
X75900000Y-45950000D01*
%TO.C,R76*%
X200951250Y-76917609D02*
X200951250Y-77224891D01*
X201711250Y-76917609D02*
X201711250Y-77224891D01*
%TO.C,D2*%
X166200000Y-68910000D02*
X166200000Y-63400000D01*
X166200000Y-68910000D02*
X169500000Y-68910000D01*
X169500000Y-68910000D02*
X169500000Y-63400000D01*
%TO.C,C94*%
X202440000Y-108201479D02*
X202440000Y-108417151D01*
X203160000Y-108201479D02*
X203160000Y-108417151D01*
%TO.C,U27*%
X201640000Y-60850000D02*
X201640000Y-58650000D01*
X201640000Y-60850000D02*
X201640000Y-63050000D01*
X206860000Y-60850000D02*
X206860000Y-57250000D01*
X206860000Y-60850000D02*
X206860000Y-63050000D01*
%TO.C,R87*%
X200770000Y-101862956D02*
X200770000Y-101555674D01*
X201530000Y-101862956D02*
X201530000Y-101555674D01*
%TO.C,R94*%
X178853641Y-69920000D02*
X178546359Y-69920000D01*
X178853641Y-70680000D02*
X178546359Y-70680000D01*
%TO.C,R151*%
X74778641Y-58570000D02*
X74471359Y-58570000D01*
X74778641Y-59330000D02*
X74471359Y-59330000D01*
%TO.C,R103*%
X107303641Y-55470000D02*
X106996359Y-55470000D01*
X107303641Y-56230000D02*
X106996359Y-56230000D01*
%TO.C,R141*%
X207170000Y-57796359D02*
X207170000Y-58103641D01*
X207930000Y-57796359D02*
X207930000Y-58103641D01*
%TO.C,D15*%
X93850000Y-59790000D02*
X93850000Y-65300000D01*
X97150000Y-59790000D02*
X93850000Y-59790000D01*
X97150000Y-59790000D02*
X97150000Y-65300000D01*
%TO.C,R156*%
X121695038Y-58014564D02*
X121695038Y-57560436D01*
X123165038Y-58014564D02*
X123165038Y-57560436D01*
%TO.C,C27*%
X152390000Y-75507836D02*
X152390000Y-75292164D01*
X153110000Y-75507836D02*
X153110000Y-75292164D01*
%TO.C,J2*%
X71900000Y-113950000D02*
G75*
G02*
X68400000Y-113950000I-1750000J0D01*
G01*
X68400000Y-113950000D02*
G75*
G02*
X71900000Y-113950000I1750000J0D01*
G01*
%TO.C,U28*%
X195075000Y-56255000D02*
X193125000Y-56255000D01*
X195075000Y-56255000D02*
X197025000Y-56255000D01*
X195075000Y-61375000D02*
X193125000Y-61375000D01*
X195075000Y-61375000D02*
X198525000Y-61375000D01*
%TO.C,U48*%
X71875000Y-102255000D02*
X68425000Y-102255000D01*
X71875000Y-102255000D02*
X73825000Y-102255000D01*
X71875000Y-107375000D02*
X69925000Y-107375000D01*
X71875000Y-107375000D02*
X73825000Y-107375000D01*
%TO.C,C109*%
X108590000Y-63459420D02*
X108590000Y-63740580D01*
X109610000Y-63459420D02*
X109610000Y-63740580D01*
%TO.C,R97*%
X173381530Y-69870000D02*
X173688812Y-69870000D01*
X173381530Y-70630000D02*
X173688812Y-70630000D01*
%TO.C,R80*%
X202853641Y-98679315D02*
X202546359Y-98679315D01*
X202853641Y-99439315D02*
X202546359Y-99439315D01*
%TO.C,U33*%
X180350000Y-91590000D02*
X178400000Y-91590000D01*
X180350000Y-91590000D02*
X182300000Y-91590000D01*
X180350000Y-96710000D02*
X178400000Y-96710000D01*
X180350000Y-96710000D02*
X183800000Y-96710000D01*
%TO.C,C151*%
X74240580Y-82905000D02*
X73959420Y-82905000D01*
X74240580Y-83925000D02*
X73959420Y-83925000D01*
%TO.C,R93*%
X175381530Y-69920000D02*
X175688812Y-69920000D01*
X175381530Y-70680000D02*
X175688812Y-70680000D01*
%TO.C,R107*%
X139402500Y-48732258D02*
X139402500Y-48257742D01*
X140447500Y-48732258D02*
X140447500Y-48257742D01*
%TO.C,R74*%
X209920000Y-74453641D02*
X209920000Y-74146359D01*
X210680000Y-74453641D02*
X210680000Y-74146359D01*
%TO.C,U20*%
X200087500Y-118340000D02*
X198287500Y-118340000D01*
X200087500Y-118340000D02*
X200887500Y-118340000D01*
X200087500Y-121460000D02*
X199287500Y-121460000D01*
X200087500Y-121460000D02*
X200887500Y-121460000D01*
%TO.C,C87*%
X209940000Y-76407836D02*
X209940000Y-76192164D01*
X210660000Y-76407836D02*
X210660000Y-76192164D01*
%TO.C,R81*%
X208220000Y-108512956D02*
X208220000Y-108205674D01*
X208980000Y-108512956D02*
X208980000Y-108205674D01*
%TO.C,U42*%
X72600000Y-69190000D02*
X70650000Y-69190000D01*
X72600000Y-69190000D02*
X74550000Y-69190000D01*
X72600000Y-74310000D02*
X70650000Y-74310000D01*
X72600000Y-74310000D02*
X76050000Y-74310000D01*
%TO.C,C155*%
X77315580Y-87320000D02*
X77034420Y-87320000D01*
X77315580Y-88340000D02*
X77034420Y-88340000D01*
%TO.C,C67*%
X143890580Y-95140000D02*
X143609420Y-95140000D01*
X143890580Y-96160000D02*
X143609420Y-96160000D01*
%TO.C,R18*%
X169146359Y-74282500D02*
X169453641Y-74282500D01*
X169146359Y-75042500D02*
X169453641Y-75042500D01*
%TO.C,R20*%
X169520000Y-77258859D02*
X169520000Y-77566141D01*
X170280000Y-77258859D02*
X170280000Y-77566141D01*
%TO.C,R66*%
X208646359Y-72370000D02*
X208953641Y-72370000D01*
X208646359Y-73130000D02*
X208953641Y-73130000D01*
%TO.C,R150*%
X75410000Y-114171359D02*
X75410000Y-114478641D01*
X76170000Y-114171359D02*
X76170000Y-114478641D01*
%TO.C,C140*%
X188088748Y-56290000D02*
X189511252Y-56290000D01*
X188088748Y-58110000D02*
X189511252Y-58110000D01*
%TO.C,U23*%
X179790000Y-116787500D02*
X179790000Y-115987500D01*
X179790000Y-116787500D02*
X179790000Y-118587500D01*
X182910000Y-116787500D02*
X182910000Y-115987500D01*
X182910000Y-116787500D02*
X182910000Y-117587500D01*
%TO.C,R79*%
X202853641Y-99729315D02*
X202546359Y-99729315D01*
X202853641Y-100489315D02*
X202546359Y-100489315D01*
D10*
%TO.C,U15*%
X191757500Y-46560000D02*
X191757500Y-46610000D01*
X191757500Y-46560000D02*
X195907500Y-46560000D01*
X191757500Y-46610000D02*
X190357500Y-46610000D01*
X191757500Y-51710000D02*
X191757500Y-51565000D01*
X191757500Y-51710000D02*
X195907500Y-51710000D01*
X195907500Y-46560000D02*
X195907500Y-46705000D01*
X195907500Y-51710000D02*
X195907500Y-51565000D01*
D12*
%TO.C,R154*%
X121690038Y-60721141D02*
X121690038Y-60413859D01*
X122450038Y-60721141D02*
X122450038Y-60413859D01*
%TO.C,C147*%
X70515580Y-58290000D02*
X70234420Y-58290000D01*
X70515580Y-59310000D02*
X70234420Y-59310000D01*
%TO.C,R5*%
X169960000Y-89873641D02*
X169960000Y-89566359D01*
X170720000Y-89873641D02*
X170720000Y-89566359D01*
%TO.C,C69*%
X130707836Y-100190000D02*
X130492164Y-100190000D01*
X130707836Y-100910000D02*
X130492164Y-100910000D01*
%TO.C,R51*%
X143520000Y-102646359D02*
X143520000Y-102953641D01*
X144280000Y-102646359D02*
X144280000Y-102953641D01*
%TO.C,C148*%
X114570038Y-57046920D02*
X114570038Y-57328080D01*
X115590038Y-57046920D02*
X115590038Y-57328080D01*
%TO.C,R158*%
X117027500Y-51462258D02*
X117027500Y-50987742D01*
X118072500Y-51462258D02*
X118072500Y-50987742D01*
%TO.C,R19*%
X168370000Y-77208859D02*
X168370000Y-77516141D01*
X169130000Y-77208859D02*
X169130000Y-77516141D01*
D10*
%TO.C,U14*%
X200720000Y-46610000D02*
X200720000Y-46660000D01*
X200720000Y-46610000D02*
X204870000Y-46610000D01*
X200720000Y-46660000D02*
X199320000Y-46660000D01*
X200720000Y-51760000D02*
X200720000Y-51615000D01*
X200720000Y-51760000D02*
X204870000Y-51760000D01*
X204870000Y-46610000D02*
X204870000Y-46755000D01*
X204870000Y-51760000D02*
X204870000Y-51615000D01*
D12*
%TO.C,C21*%
X170990000Y-86092164D02*
X170990000Y-86307836D01*
X171710000Y-86092164D02*
X171710000Y-86307836D01*
%TO.C,R35*%
X151212742Y-52322500D02*
X151687258Y-52322500D01*
X151212742Y-53367500D02*
X151687258Y-53367500D01*
%TO.C,R129*%
X181927064Y-107240000D02*
X181472936Y-107240000D01*
X181927064Y-108710000D02*
X181472936Y-108710000D01*
%TO.C,R119*%
X201127500Y-113662258D02*
X201127500Y-113187742D01*
X202172500Y-113662258D02*
X202172500Y-113187742D01*
%TO.C,C75*%
X124409420Y-100140000D02*
X124690580Y-100140000D01*
X124409420Y-101160000D02*
X124690580Y-101160000D01*
%TO.C,C163*%
X73640580Y-100590000D02*
X73359420Y-100590000D01*
X73640580Y-101610000D02*
X73359420Y-101610000D01*
%TO.C,Q2*%
X92230000Y-44520000D02*
X92230000Y-44790000D01*
X92230000Y-44790000D02*
X89400000Y-44790000D01*
X92230000Y-51150000D02*
X91130000Y-51150000D01*
X92230000Y-51420000D02*
X92230000Y-51150000D01*
X98650000Y-44520000D02*
X92230000Y-44520000D01*
X98650000Y-51420000D02*
X92230000Y-51420000D01*
%TO.C,U16*%
X105420000Y-56490000D02*
X103470000Y-56490000D01*
X105420000Y-56490000D02*
X107370000Y-56490000D01*
X105420000Y-61610000D02*
X103470000Y-61610000D01*
X105420000Y-61610000D02*
X108870000Y-61610000D01*
%TO.C,C106*%
X106790580Y-54040000D02*
X106509420Y-54040000D01*
X106790580Y-55060000D02*
X106509420Y-55060000D01*
%TO.C,R59*%
X202596359Y-87070000D02*
X202903641Y-87070000D01*
X202596359Y-87830000D02*
X202903641Y-87830000D01*
%TO.C,R138*%
X206120000Y-56053641D02*
X206120000Y-55746359D01*
X206880000Y-56053641D02*
X206880000Y-55746359D01*
%TO.C,R142*%
X205713641Y-64870000D02*
X205406359Y-64870000D01*
X205713641Y-65630000D02*
X205406359Y-65630000D01*
%TO.C,R65*%
X208596359Y-71320000D02*
X208903641Y-71320000D01*
X208596359Y-72080000D02*
X208903641Y-72080000D01*
%TO.C,U35*%
X164540000Y-84662500D02*
X164540000Y-82462500D01*
X164540000Y-84662500D02*
X164540000Y-86862500D01*
X169760000Y-84662500D02*
X169760000Y-81062500D01*
X169760000Y-84662500D02*
X169760000Y-86862500D01*
%TO.C,C152*%
X74115580Y-90820000D02*
X73834420Y-90820000D01*
X74115580Y-91840000D02*
X73834420Y-91840000D01*
%TO.C,R31*%
X150736359Y-86185000D02*
X151043641Y-86185000D01*
X150736359Y-86945000D02*
X151043641Y-86945000D01*
%TO.C,R166*%
X77552064Y-88845000D02*
X77097936Y-88845000D01*
X77552064Y-90315000D02*
X77097936Y-90315000D01*
%TO.C,FB1*%
X143290000Y-97850378D02*
X143290000Y-98649622D01*
X144410000Y-97850378D02*
X144410000Y-98649622D01*
%TO.C,R126*%
X183640000Y-106572936D02*
X183640000Y-107027064D01*
X185110000Y-106572936D02*
X185110000Y-107027064D01*
%TO.C,R58*%
X208703641Y-86920000D02*
X208396359Y-86920000D01*
X208703641Y-87680000D02*
X208396359Y-87680000D01*
%TO.C,C77*%
X140040000Y-100009420D02*
X140040000Y-100290580D01*
X141060000Y-100009420D02*
X141060000Y-100290580D01*
%TO.C,R73*%
X209401250Y-80696359D02*
X209401250Y-81003641D01*
X210161250Y-80696359D02*
X210161250Y-81003641D01*
%TO.C,D30*%
X127320000Y-50745000D02*
X127320000Y-50085000D01*
X127320000Y-52405000D02*
X127320000Y-51745000D01*
X127320000Y-52405000D02*
X129350000Y-52405000D01*
X128730000Y-50085000D02*
X127320000Y-50085000D01*
%TO.C,R72*%
X200951250Y-78917609D02*
X200951250Y-79224891D01*
X201711250Y-78917609D02*
X201711250Y-79224891D01*
%TO.C,R140*%
X205406359Y-65870000D02*
X205713641Y-65870000D01*
X205406359Y-66630000D02*
X205713641Y-66630000D01*
%TO.C,R14*%
X166827500Y-76575242D02*
X166827500Y-77049758D01*
X167872500Y-76575242D02*
X167872500Y-77049758D01*
%TO.C,R143*%
X208270000Y-58103641D02*
X208270000Y-57796359D01*
X209030000Y-58103641D02*
X209030000Y-57796359D01*
D10*
%TO.C,U37*%
X95050000Y-112975000D02*
X95050000Y-114525000D01*
X95050000Y-122675000D02*
X95050000Y-119275000D01*
X95400000Y-112975000D02*
X95050000Y-112975000D01*
X101400000Y-112975000D02*
X101750000Y-112975000D01*
X101400000Y-120775000D02*
X101750000Y-120775000D01*
X101750000Y-112975000D02*
X101750000Y-114525000D01*
X101750000Y-120775000D02*
X101750000Y-119225000D01*
D12*
%TO.C,C144*%
X77738748Y-123090000D02*
X79161252Y-123090000D01*
X77738748Y-124910000D02*
X79161252Y-124910000D01*
%TO.C,R13*%
X161352742Y-86752500D02*
X161827258Y-86752500D01*
X161352742Y-87797500D02*
X161827258Y-87797500D01*
%TO.C,R17*%
X162263641Y-83485000D02*
X161956359Y-83485000D01*
X162263641Y-84245000D02*
X161956359Y-84245000D01*
%TO.C,C121*%
X189746920Y-110540000D02*
X190028080Y-110540000D01*
X189746920Y-111560000D02*
X190028080Y-111560000D01*
%TO.C,R41*%
X146503641Y-81870000D02*
X146196359Y-81870000D01*
X146503641Y-82630000D02*
X146196359Y-82630000D01*
%TO.C,R77*%
X208346359Y-98679315D02*
X208653641Y-98679315D01*
X208346359Y-99439315D02*
X208653641Y-99439315D01*
%TO.C,U19*%
X105550000Y-71140000D02*
X111560000Y-71140000D01*
X107800000Y-77960000D02*
X111560000Y-77960000D01*
X111560000Y-71140000D02*
X111560000Y-72400000D01*
X111560000Y-77960000D02*
X111560000Y-76700000D01*
%TO.C,D16*%
X81750000Y-52690000D02*
X81750000Y-58200000D01*
X85050000Y-52690000D02*
X81750000Y-52690000D01*
X85050000Y-52690000D02*
X85050000Y-58200000D01*
%TO.C,R108*%
X128427500Y-48632258D02*
X128427500Y-48157742D01*
X129472500Y-48632258D02*
X129472500Y-48157742D01*
%TO.C,C153*%
X77340580Y-79405000D02*
X77059420Y-79405000D01*
X77340580Y-80425000D02*
X77059420Y-80425000D01*
%TO.C,C135*%
X201190000Y-55742164D02*
X201190000Y-55957836D01*
X201910000Y-55742164D02*
X201910000Y-55957836D01*
%TO.C,R96*%
X175903641Y-61020000D02*
X175596359Y-61020000D01*
X175903641Y-61780000D02*
X175596359Y-61780000D01*
%TO.C,U3*%
X142990000Y-81385000D02*
X142990000Y-80785000D01*
X143290000Y-78665000D02*
X142990000Y-78665000D01*
X143290000Y-81385000D02*
X142990000Y-81385000D01*
X145410000Y-78665000D02*
X145710000Y-78665000D01*
X145410000Y-81385000D02*
X145710000Y-81385000D01*
X145710000Y-78665000D02*
X145710000Y-79265000D01*
X145710000Y-81385000D02*
X145710000Y-80785000D01*
%TO.C,C128*%
X184609420Y-100040000D02*
X184890580Y-100040000D01*
X184609420Y-101060000D02*
X184890580Y-101060000D01*
%TO.C,R10*%
X169146359Y-75382500D02*
X169453641Y-75382500D01*
X169146359Y-76142500D02*
X169453641Y-76142500D01*
%TO.C,U24*%
X193762500Y-114240000D02*
X192962500Y-114240000D01*
X193762500Y-114240000D02*
X194562500Y-114240000D01*
X193762500Y-117360000D02*
X192962500Y-117360000D01*
X193762500Y-117360000D02*
X195562500Y-117360000D01*
%TO.C,U34*%
X153880000Y-91565000D02*
X153880000Y-89615000D01*
X153880000Y-91565000D02*
X153880000Y-93515000D01*
X159000000Y-91565000D02*
X159000000Y-88115000D01*
X159000000Y-91565000D02*
X159000000Y-93515000D01*
%TO.C,D8*%
X161240000Y-51210000D02*
X161240000Y-46150000D01*
X161240000Y-51210000D02*
X163960000Y-51210000D01*
X163960000Y-51210000D02*
X163960000Y-46150000D01*
%TO.C,RN13*%
X124450000Y-69570000D02*
X125450000Y-69570000D01*
X124450000Y-72930000D02*
X125450000Y-72930000D01*
%TO.C,R157*%
X123970000Y-51496359D02*
X123970000Y-51803641D01*
X124730000Y-51496359D02*
X124730000Y-51803641D01*
%TO.C,C100*%
X173672665Y-62190000D02*
X173456993Y-62190000D01*
X173672665Y-62910000D02*
X173456993Y-62910000D01*
%TO.C,D5*%
X165815000Y-47165000D02*
X165815000Y-49450000D01*
X167285000Y-47165000D02*
X165815000Y-47165000D01*
X167285000Y-49450000D02*
X167285000Y-47165000D01*
%TO.C,R92*%
X185352087Y-62777500D02*
X184877571Y-62777500D01*
X185352087Y-63822500D02*
X184877571Y-63822500D01*
%TO.C,C84*%
X202390000Y-94642164D02*
X202390000Y-94857836D01*
X203110000Y-94642164D02*
X203110000Y-94857836D01*
%TO.C,C103*%
X103540580Y-52790000D02*
X103259420Y-52790000D01*
X103540580Y-53810000D02*
X103259420Y-53810000D01*
%TO.C,RN16*%
X68220000Y-109400000D02*
X68220000Y-110400000D01*
X71580000Y-109400000D02*
X71580000Y-110400000D01*
%TO.C,C154*%
X77340580Y-82955000D02*
X77059420Y-82955000D01*
X77340580Y-83975000D02*
X77059420Y-83975000D01*
%TO.C,R153*%
X71152064Y-65365000D02*
X70697936Y-65365000D01*
X71152064Y-66835000D02*
X70697936Y-66835000D01*
%TO.C,C142*%
X101640580Y-123240000D02*
X101359420Y-123240000D01*
X101640580Y-124260000D02*
X101359420Y-124260000D01*
%TO.C,C58*%
X146540000Y-79934420D02*
X146540000Y-80215580D01*
X147560000Y-79934420D02*
X147560000Y-80215580D01*
%TO.C,C56*%
X118040000Y-75184420D02*
X118040000Y-75465580D01*
X119060000Y-75184420D02*
X119060000Y-75465580D01*
%TO.C,C82*%
X209740000Y-89807836D02*
X209740000Y-89592164D01*
X210460000Y-89807836D02*
X210460000Y-89592164D01*
%TO.C,D18*%
X123290000Y-101650000D02*
X123290000Y-103650000D01*
X123290000Y-101650000D02*
X127300000Y-101650000D01*
X123290000Y-103650000D02*
X127300000Y-103650000D01*
%TO.C,RN6*%
X103975000Y-86270000D02*
X104975000Y-86270000D01*
X103975000Y-89630000D02*
X104975000Y-89630000D01*
%TO.C,R85*%
X209220000Y-108512956D02*
X209220000Y-108205674D01*
X209980000Y-108512956D02*
X209980000Y-108205674D01*
%TO.C,D28*%
X98000000Y-59790000D02*
X98000000Y-65300000D01*
X101300000Y-59790000D02*
X98000000Y-59790000D01*
X101300000Y-59790000D02*
X101300000Y-65300000D01*
%TO.C,J9*%
X168965000Y-44040000D02*
X168965000Y-44440000D01*
X168965000Y-44040000D02*
X182785000Y-44040000D01*
X168965000Y-46960000D02*
X168965000Y-52740000D01*
X168965000Y-55260000D02*
X168965000Y-57960000D01*
X170375000Y-43140000D02*
X171175000Y-43340000D01*
X170375000Y-44040000D02*
X170375000Y-43040000D01*
X170875000Y-42540000D02*
X180875000Y-42540000D01*
X171175000Y-43340000D02*
X172875000Y-43640000D01*
X172875000Y-43640000D02*
X173675000Y-43740000D01*
X173675000Y-43740000D02*
X174975000Y-43840000D01*
X174975000Y-43840000D02*
X176775000Y-43840000D01*
X176775000Y-43840000D02*
X178075000Y-43740000D01*
X178075000Y-43740000D02*
X179575000Y-43540000D01*
X179575000Y-43540000D02*
X180875000Y-43240000D01*
X180875000Y-43240000D02*
X181375000Y-43140000D01*
X181375000Y-44040000D02*
X181375000Y-43040000D01*
X182785000Y-44040000D02*
X182785000Y-44440000D01*
X182785000Y-46960000D02*
X182785000Y-52740000D01*
X182785000Y-55260000D02*
X182785000Y-57960000D01*
X182785000Y-57960000D02*
X168965000Y-57960000D01*
X170375000Y-43040000D02*
G75*
G02*
X170875000Y-42540000I500001J-1D01*
G01*
X180875000Y-42540000D02*
G75*
G02*
X181375000Y-43040000I0J-500000D01*
G01*
%TO.C,U13*%
X171154829Y-65550000D02*
X171154829Y-64750000D01*
X171154829Y-65550000D02*
X171154829Y-67350000D01*
X174274829Y-65550000D02*
X174274829Y-64750000D01*
X174274829Y-65550000D02*
X174274829Y-66350000D01*
%TO.C,C86*%
X209890000Y-78642164D02*
X209890000Y-78857836D01*
X210610000Y-78642164D02*
X210610000Y-78857836D01*
%TO.C,C125*%
X184840000Y-112159420D02*
X184840000Y-112440580D01*
X185860000Y-112159420D02*
X185860000Y-112440580D01*
%TO.C,R133*%
X174815000Y-103277064D02*
X174815000Y-102822936D01*
X176285000Y-103277064D02*
X176285000Y-102822936D01*
%TO.C,C91*%
X209790000Y-105907836D02*
X209790000Y-105692164D01*
X210510000Y-105907836D02*
X210510000Y-105692164D01*
%TO.C,C65*%
X138590000Y-104890580D02*
X138590000Y-104609420D01*
X139610000Y-104890580D02*
X139610000Y-104609420D01*
%TO.C,U11*%
X205662500Y-107499315D02*
X204862500Y-107499315D01*
X205662500Y-107499315D02*
X206462500Y-107499315D01*
X205662500Y-110619315D02*
X204862500Y-110619315D01*
X205662500Y-110619315D02*
X207462500Y-110619315D01*
%TO.C,U9*%
X205727500Y-80140000D02*
X204927500Y-80140000D01*
X205727500Y-80140000D02*
X206527500Y-80140000D01*
X205727500Y-83260000D02*
X204927500Y-83260000D01*
X205727500Y-83260000D02*
X207527500Y-83260000D01*
%TO.C,C141*%
X96088748Y-123240000D02*
X97511252Y-123240000D01*
X96088748Y-125060000D02*
X97511252Y-125060000D01*
%TO.C,C108*%
X191521920Y-45015000D02*
X191803080Y-45015000D01*
X191521920Y-46035000D02*
X191803080Y-46035000D01*
%TO.C,C122*%
X190840580Y-118140000D02*
X190559420Y-118140000D01*
X190840580Y-119160000D02*
X190559420Y-119160000D01*
%TO.C,C132*%
X203761252Y-67065000D02*
X203238748Y-67065000D01*
X203761252Y-68535000D02*
X203238748Y-68535000D01*
%TO.C,C26*%
X158340000Y-74292164D02*
X158340000Y-74507836D01*
X159060000Y-74292164D02*
X159060000Y-74507836D01*
%TO.C,D6*%
X174450000Y-96040000D02*
X173800000Y-96040000D01*
X174450000Y-96040000D02*
X175100000Y-96040000D01*
X174450000Y-99160000D02*
X173800000Y-99160000D01*
X174450000Y-99160000D02*
X176125000Y-99160000D01*
%TO.C,R50*%
X145027500Y-98412742D02*
X145027500Y-98887258D01*
X146072500Y-98412742D02*
X146072500Y-98887258D01*
%TO.C,C145*%
X85290000Y-119109420D02*
X85290000Y-119390580D01*
X86310000Y-119109420D02*
X86310000Y-119390580D01*
%TO.C,C57*%
X127990000Y-73959420D02*
X127990000Y-74240580D01*
X129010000Y-73959420D02*
X129010000Y-74240580D01*
%TO.C,C137*%
X202992164Y-55977500D02*
X203207836Y-55977500D01*
X202992164Y-56697500D02*
X203207836Y-56697500D01*
%TO.C,C136*%
X200590000Y-63907836D02*
X200590000Y-63692164D01*
X201310000Y-63907836D02*
X201310000Y-63692164D01*
%TO.C,R12*%
X170020000Y-87121359D02*
X170020000Y-87428641D01*
X170780000Y-87121359D02*
X170780000Y-87428641D01*
%TO.C,C97*%
X173654829Y-68692164D02*
X173654829Y-68907836D01*
X174374829Y-68692164D02*
X174374829Y-68907836D01*
%TO.C,R43*%
X133970000Y-100246359D02*
X133970000Y-100553641D01*
X134730000Y-100246359D02*
X134730000Y-100553641D01*
D11*
%TO.C,C32*%
X178500000Y-90350014D02*
X178500000Y-91099999D01*
D12*
%TO.C,R64*%
X200720000Y-90456359D02*
X200720000Y-90763641D01*
X201480000Y-90456359D02*
X201480000Y-90763641D01*
%TO.C,R29*%
X164670000Y-79648859D02*
X164670000Y-79956141D01*
X165430000Y-79648859D02*
X165430000Y-79956141D01*
%TO.C,U50*%
X152240000Y-78902500D02*
X152540000Y-78902500D01*
X152240000Y-79202500D02*
X152240000Y-78902500D01*
X152240000Y-85822500D02*
X152240000Y-86122500D01*
X152240000Y-86122500D02*
X152540000Y-86122500D01*
X159160000Y-78902500D02*
X159160000Y-77587500D01*
X159460000Y-78902500D02*
X159160000Y-78902500D01*
X159460000Y-79202500D02*
X159460000Y-78902500D01*
X159460000Y-85822500D02*
X159460000Y-86122500D01*
X159460000Y-86122500D02*
X159160000Y-86122500D01*
%TO.C,J16*%
X109300000Y-101170000D02*
X122120000Y-101170000D01*
X109300000Y-103770000D02*
X109300000Y-101170000D01*
X109300000Y-106370000D02*
X109300000Y-105040000D01*
X110630000Y-106370000D02*
X109300000Y-106370000D01*
X111900000Y-103770000D02*
X109300000Y-103770000D01*
X111900000Y-106370000D02*
X111900000Y-103770000D01*
X111900000Y-106370000D02*
X122120000Y-106370000D01*
X122120000Y-106370000D02*
X122120000Y-101170000D01*
%TO.C,D25*%
X140040000Y-103900000D02*
X140040000Y-103100000D01*
X140040000Y-103900000D02*
X140040000Y-104700000D01*
X143160000Y-103900000D02*
X143160000Y-102100000D01*
X143160000Y-103900000D02*
X143160000Y-104700000D01*
%TO.C,Q1*%
X172600000Y-76290000D02*
X172600000Y-82710000D01*
X172600000Y-82710000D02*
X172870000Y-82710000D01*
X172870000Y-82710000D02*
X172870000Y-85540000D01*
X179230000Y-82710000D02*
X179230000Y-83810000D01*
X179500000Y-76290000D02*
X179500000Y-82710000D01*
X179500000Y-82710000D02*
X179230000Y-82710000D01*
%TO.C,D4*%
X164205000Y-47165000D02*
X164205000Y-49450000D01*
X165675000Y-47165000D02*
X164205000Y-47165000D01*
X165675000Y-49450000D02*
X165675000Y-47165000D01*
%TO.C,RN1*%
X203970000Y-86800000D02*
X203970000Y-85800000D01*
X207330000Y-86800000D02*
X207330000Y-85800000D01*
%TO.C,R137*%
X205203641Y-55970000D02*
X204896359Y-55970000D01*
X205203641Y-56730000D02*
X204896359Y-56730000D01*
%TO.C,U43*%
X71900000Y-77355000D02*
X68450000Y-77355000D01*
X71900000Y-77355000D02*
X73850000Y-77355000D01*
X71900000Y-82475000D02*
X69950000Y-82475000D01*
X71900000Y-82475000D02*
X73850000Y-82475000D01*
%TO.C,JP3*%
X205450000Y-67050000D02*
X208250000Y-67050000D01*
X205450000Y-69050000D02*
X205450000Y-67050000D01*
X208250000Y-67050000D02*
X208250000Y-69050000D01*
X208250000Y-69050000D02*
X205450000Y-69050000D01*
%TO.C,U36*%
X163090000Y-76262500D02*
X163090000Y-75462500D01*
X163090000Y-76262500D02*
X163090000Y-78062500D01*
X166210000Y-76262500D02*
X166210000Y-75462500D01*
X166210000Y-76262500D02*
X166210000Y-77062500D01*
%TO.C,C17*%
X167677500Y-89657164D02*
X167677500Y-89872836D01*
X168397500Y-89657164D02*
X168397500Y-89872836D01*
%TO.C,C73*%
X120990580Y-74090000D02*
X120709420Y-74090000D01*
X120990580Y-75110000D02*
X120709420Y-75110000D01*
%TO.C,C146*%
X85340000Y-112659420D02*
X85340000Y-112940580D01*
X86360000Y-112659420D02*
X86360000Y-112940580D01*
%TO.C,C116*%
X190840580Y-119640000D02*
X190559420Y-119640000D01*
X190840580Y-120660000D02*
X190559420Y-120660000D01*
%TO.C,R42*%
X147353641Y-83970000D02*
X147046359Y-83970000D01*
X147353641Y-84730000D02*
X147046359Y-84730000D01*
%TO.C,R57*%
X208220000Y-94603641D02*
X208220000Y-94296359D01*
X208980000Y-94603641D02*
X208980000Y-94296359D01*
%TO.C,D26*%
X113240000Y-62650000D02*
X121750000Y-62650000D01*
X113240000Y-69150000D02*
X113240000Y-62650000D01*
X113240000Y-69150000D02*
X121750000Y-69150000D01*
%TO.C,R30*%
X151043641Y-88385000D02*
X150736359Y-88385000D01*
X151043641Y-89145000D02*
X150736359Y-89145000D01*
%TO.C,R145*%
X208320000Y-60103641D02*
X208320000Y-59796359D01*
X209080000Y-60103641D02*
X209080000Y-59796359D01*
%TO.C,C102*%
X200441920Y-45075000D02*
X200723080Y-45075000D01*
X200441920Y-46095000D02*
X200723080Y-46095000D01*
%TO.C,R78*%
X208346359Y-99779315D02*
X208653641Y-99779315D01*
X208346359Y-100539315D02*
X208653641Y-100539315D01*
%TO.C,C89*%
X202490000Y-81092164D02*
X202490000Y-81307836D01*
X203210000Y-81092164D02*
X203210000Y-81307836D01*
%TO.C,R22*%
X173680000Y-86756359D02*
X173680000Y-87063641D01*
X174440000Y-86756359D02*
X174440000Y-87063641D01*
%TO.C,C18*%
X166790000Y-79970336D02*
X166790000Y-79754664D01*
X167510000Y-79970336D02*
X167510000Y-79754664D01*
%TO.C,C64*%
X127434420Y-100140000D02*
X127715580Y-100140000D01*
X127434420Y-101160000D02*
X127715580Y-101160000D01*
%TO.C,R109*%
X198027500Y-113212742D02*
X198027500Y-113687258D01*
X199072500Y-113212742D02*
X199072500Y-113687258D01*
%TO.C,R26*%
X170020000Y-85428641D02*
X170020000Y-85121359D01*
X170780000Y-85428641D02*
X170780000Y-85121359D01*
%TO.C,C11*%
X184315580Y-77290000D02*
X184034420Y-77290000D01*
X184315580Y-78310000D02*
X184034420Y-78310000D01*
%TO.C,C9*%
X164261252Y-63090000D02*
X162838748Y-63090000D01*
X164261252Y-64910000D02*
X162838748Y-64910000D01*
%TO.C,U49*%
X156202500Y-73915000D02*
X154527500Y-73915000D01*
X156202500Y-73915000D02*
X156852500Y-73915000D01*
X156202500Y-77035000D02*
X155552500Y-77035000D01*
X156202500Y-77035000D02*
X156852500Y-77035000D01*
%TO.C,C149*%
X117040000Y-48034420D02*
X117040000Y-48315580D01*
X118060000Y-48034420D02*
X118060000Y-48315580D01*
%TO.C,R86*%
X209670000Y-101912956D02*
X209670000Y-101605674D01*
X210430000Y-101912956D02*
X210430000Y-101605674D01*
%TO.C,R116*%
X189650242Y-112027500D02*
X190124758Y-112027500D01*
X189650242Y-113072500D02*
X190124758Y-113072500D01*
%TO.C,R152*%
X74662258Y-65377500D02*
X74187742Y-65377500D01*
X74662258Y-66422500D02*
X74187742Y-66422500D01*
%TO.C,C96*%
X185024249Y-68890000D02*
X185305409Y-68890000D01*
X185024249Y-69910000D02*
X185305409Y-69910000D01*
%TO.C,JP2*%
X209350000Y-61400000D02*
X211350000Y-61400000D01*
X209350000Y-64200000D02*
X209350000Y-61400000D01*
X211350000Y-61400000D02*
X211350000Y-64200000D01*
X211350000Y-64200000D02*
X209350000Y-64200000D01*
%TO.C,R163*%
X77627064Y-77430000D02*
X77172936Y-77430000D01*
X77627064Y-78900000D02*
X77172936Y-78900000D01*
D11*
%TO.C,U1*%
X155615000Y-48440000D02*
X158715000Y-48440000D01*
X155615000Y-53340000D02*
X158715000Y-53340000D01*
D14*
X153190000Y-48940000D02*
G75*
G02*
X152940000Y-48940000I-125000J0D01*
G01*
X152940000Y-48940000D02*
G75*
G02*
X153190000Y-48940000I125000J0D01*
G01*
D12*
%TO.C,C24*%
X150782164Y-87305000D02*
X150997836Y-87305000D01*
X150782164Y-88025000D02*
X150997836Y-88025000D01*
%TO.C,U44*%
X71900000Y-85255000D02*
X68450000Y-85255000D01*
X71900000Y-85255000D02*
X73850000Y-85255000D01*
X71900000Y-90375000D02*
X69950000Y-90375000D01*
X71900000Y-90375000D02*
X73850000Y-90375000D01*
%TO.C,C80*%
X200990000Y-95440580D02*
X200990000Y-95159420D01*
X202010000Y-95440580D02*
X202010000Y-95159420D01*
%TO.C,C164*%
X74690580Y-107790000D02*
X74409420Y-107790000D01*
X74690580Y-108810000D02*
X74409420Y-108810000D01*
%TO.C,C167*%
X77265580Y-104305000D02*
X76984420Y-104305000D01*
X77265580Y-105325000D02*
X76984420Y-105325000D01*
%TO.C,C131*%
X207315000Y-62588748D02*
X207315000Y-63111252D01*
X208785000Y-62588748D02*
X208785000Y-63111252D01*
%TO.C,RN8*%
X95000000Y-52120000D02*
X96000000Y-52120000D01*
X95000000Y-55480000D02*
X96000000Y-55480000D01*
%TO.C,R118*%
X178227500Y-117212742D02*
X178227500Y-117687258D01*
X179272500Y-117212742D02*
X179272500Y-117687258D01*
%TO.C,C107*%
X100290000Y-58009420D02*
X100290000Y-58290580D01*
X101310000Y-58009420D02*
X101310000Y-58290580D01*
%TO.C,RN5*%
X107245000Y-87800000D02*
X107245000Y-88800000D01*
X110605000Y-87800000D02*
X110605000Y-88800000D01*
%TO.C,R149*%
X93030000Y-112396359D02*
X93030000Y-112703641D01*
X93790000Y-112396359D02*
X93790000Y-112703641D01*
D11*
%TO.C,C12*%
X182450000Y-98287486D02*
X182450000Y-97537501D01*
D12*
%TO.C,C101*%
X205123080Y-45075000D02*
X204841920Y-45075000D01*
X205123080Y-46095000D02*
X204841920Y-46095000D01*
%TO.C,C70*%
X132542164Y-100190000D02*
X132757836Y-100190000D01*
X132542164Y-100910000D02*
X132757836Y-100910000D01*
%TO.C,R162*%
X71177064Y-74765000D02*
X70722936Y-74765000D01*
X71177064Y-76235000D02*
X70722936Y-76235000D01*
%TO.C,D13*%
X97910000Y-55900000D02*
X92400000Y-55900000D01*
X97910000Y-59200000D02*
X92400000Y-59200000D01*
X97910000Y-59200000D02*
X97910000Y-55900000D01*
%TO.C,C115*%
X193065580Y-110540000D02*
X192784420Y-110540000D01*
X193065580Y-111560000D02*
X192784420Y-111560000D01*
%TO.C,C134*%
X208840000Y-66340580D02*
X208840000Y-66059420D01*
X209860000Y-66340580D02*
X209860000Y-66059420D01*
%TO.C,U5*%
X108862500Y-80890000D02*
X107062500Y-80890000D01*
X108862500Y-80890000D02*
X109662500Y-80890000D01*
X108862500Y-84010000D02*
X108062500Y-84010000D01*
X108862500Y-84010000D02*
X109662500Y-84010000D01*
D11*
%TO.C,C14*%
X185199986Y-92750000D02*
X184450001Y-92750000D01*
D12*
%TO.C,C118*%
X199590000Y-116334420D02*
X199590000Y-116615580D01*
X200610000Y-116334420D02*
X200610000Y-116615580D01*
%TO.C,C1*%
X151259420Y-47635000D02*
X151540580Y-47635000D01*
X151259420Y-48655000D02*
X151540580Y-48655000D01*
%TO.C,C30*%
X152830000Y-88657164D02*
X152830000Y-88872836D01*
X153550000Y-88657164D02*
X153550000Y-88872836D01*
%TO.C,U2*%
X134940000Y-104737500D02*
X134940000Y-104087500D01*
X134940000Y-104737500D02*
X134940000Y-106412500D01*
X138060000Y-104737500D02*
X138060000Y-104087500D01*
X138060000Y-104737500D02*
X138060000Y-105387500D01*
%TO.C,J17*%
X148230000Y-101220000D02*
X161050000Y-101220000D01*
X148230000Y-103820000D02*
X148230000Y-101220000D01*
X148230000Y-106420000D02*
X148230000Y-105090000D01*
X149560000Y-106420000D02*
X148230000Y-106420000D01*
X150830000Y-103820000D02*
X148230000Y-103820000D01*
X150830000Y-106420000D02*
X150830000Y-103820000D01*
X150830000Y-106420000D02*
X161050000Y-106420000D01*
X161050000Y-106420000D02*
X161050000Y-101220000D01*
%TO.C,C8*%
X162838748Y-60690000D02*
X164261252Y-60690000D01*
X162838748Y-62510000D02*
X164261252Y-62510000D01*
%TO.C,R110*%
X193149758Y-112027500D02*
X192675242Y-112027500D01*
X193149758Y-113072500D02*
X192675242Y-113072500D01*
%TO.C,R55*%
X202903641Y-86070000D02*
X202596359Y-86070000D01*
X202903641Y-86830000D02*
X202596359Y-86830000D01*
%TO.C,Q3*%
X77950000Y-44500000D02*
X84370000Y-44500000D01*
X77950000Y-51400000D02*
X84370000Y-51400000D01*
X84370000Y-44500000D02*
X84370000Y-44770000D01*
X84370000Y-44770000D02*
X85470000Y-44770000D01*
X84370000Y-51130000D02*
X87200000Y-51130000D01*
X84370000Y-51400000D02*
X84370000Y-51130000D01*
%TO.C,C113*%
X111190580Y-69240000D02*
X110909420Y-69240000D01*
X111190580Y-70260000D02*
X110909420Y-70260000D01*
%TO.C,C95*%
X178059420Y-71090000D02*
X178340580Y-71090000D01*
X178059420Y-72110000D02*
X178340580Y-72110000D01*
%TO.C,R54*%
X208396359Y-85870000D02*
X208703641Y-85870000D01*
X208396359Y-86630000D02*
X208703641Y-86630000D01*
%TO.C,U41*%
X118540000Y-48950000D02*
X118540000Y-47000000D01*
X118540000Y-48950000D02*
X118540000Y-52400000D01*
X123660000Y-48950000D02*
X123660000Y-47000000D01*
X123660000Y-48950000D02*
X123660000Y-50900000D01*
%TO.C,R70*%
X208953641Y-73420000D02*
X208646359Y-73420000D01*
X208953641Y-74180000D02*
X208646359Y-74180000D01*
%TO.C,R89*%
X185352087Y-67327500D02*
X184877571Y-67327500D01*
X185352087Y-68372500D02*
X184877571Y-68372500D01*
%TO.C,R62*%
X209720000Y-87953641D02*
X209720000Y-87646359D01*
X210480000Y-87953641D02*
X210480000Y-87646359D01*
%TO.C,RN2*%
X204170000Y-73300000D02*
X204170000Y-72300000D01*
X207530000Y-73300000D02*
X207530000Y-72300000D01*
%TO.C,R174*%
X77552064Y-105830000D02*
X77097936Y-105830000D01*
X77552064Y-107300000D02*
X77097936Y-107300000D01*
%TO.C,C31*%
X158330000Y-76432836D02*
X158330000Y-76217164D01*
X159050000Y-76432836D02*
X159050000Y-76217164D01*
%TO.C,C119*%
X184840000Y-115309420D02*
X184840000Y-115590580D01*
X185860000Y-115309420D02*
X185860000Y-115590580D01*
%TO.C,C143*%
X103050000Y-112259420D02*
X103050000Y-112540580D01*
X104070000Y-112259420D02*
X104070000Y-112540580D01*
%TO.C,U39*%
X72625000Y-59740000D02*
X70675000Y-59740000D01*
X72625000Y-59740000D02*
X74575000Y-59740000D01*
X72625000Y-64860000D02*
X70675000Y-64860000D01*
X72625000Y-64860000D02*
X76075000Y-64860000D01*
%TO.C,R171*%
X77577064Y-95115000D02*
X77122936Y-95115000D01*
X77577064Y-96585000D02*
X77122936Y-96585000D01*
%TO.C,R9*%
X168970000Y-79866141D02*
X168970000Y-79558859D01*
X169730000Y-79866141D02*
X169730000Y-79558859D01*
%TO.C,R60*%
X200720000Y-92456359D02*
X200720000Y-92763641D01*
X201480000Y-92456359D02*
X201480000Y-92763641D01*
%TO.C,U8*%
X205800000Y-74540000D02*
X203600000Y-74540000D01*
X205800000Y-74540000D02*
X208000000Y-74540000D01*
X205800000Y-79760000D02*
X203600000Y-79760000D01*
X205800000Y-79760000D02*
X209400000Y-79760000D01*
%TO.C,R117*%
X193462742Y-118127500D02*
X193937258Y-118127500D01*
X193462742Y-119172500D02*
X193937258Y-119172500D01*
%TO.C,R84*%
X200820000Y-106215674D02*
X200820000Y-106522956D01*
X201580000Y-106215674D02*
X201580000Y-106522956D01*
%TO.C,R63*%
X200720000Y-88453641D02*
X200720000Y-88146359D01*
X201480000Y-88453641D02*
X201480000Y-88146359D01*
%TO.C,R28*%
X163520000Y-85578641D02*
X163520000Y-85271359D01*
X164280000Y-85578641D02*
X164280000Y-85271359D01*
%TO.C,C111*%
X99340000Y-75511252D02*
X99340000Y-74088748D01*
X101160000Y-75511252D02*
X101160000Y-74088748D01*
%TO.C,C123*%
X178240000Y-111990580D02*
X178240000Y-111709420D01*
X179260000Y-111990580D02*
X179260000Y-111709420D01*
%TO.C,R101*%
X199878859Y-52155000D02*
X200186141Y-52155000D01*
X199878859Y-52915000D02*
X200186141Y-52915000D01*
%TD*%
M02*
