M48
; DRILL file {KiCad 8.0.5} date 2024-10-18T05:49:19+0300
; FORMAT={-:-/ absolute / inch / decimal}
; #@! TF.CreationDate,2024-10-18T05:49:19+03:00
; #@! TF.GenerationSoftware,Kicad,Pcbnew,8.0.5
; #@! TF.FileFunction,Plated,1,4,PTH
FMAT,2
INCH
; #@! TA.AperFunction,Plated,PTH,ViaDrill
T1C0.0157
; #@! TA.AperFunction,Plated,PTH,ComponentDrill
T2C0.0315
; #@! TA.AperFunction,Plated,PTH,ComponentDrill
T3C0.0394
; #@! TA.AperFunction,Plated,PTH,ComponentDrill
T4C0.0433
; #@! TA.AperFunction,Plated,PTH,ComponentDrill
T5C0.0689
%
G90
G05
T1
X2.6831Y-4.4232
X2.7146Y-3.3469
X2.7146Y-4.2461
X2.7343Y-4.1516
X2.7421Y-1.8996
X2.7441Y-3.5807
X2.752Y-2.75
X2.752Y-3.9705
X2.7539Y-2.0689
X2.7539Y-2.7992
X2.7559Y-2.0197
X2.7559Y-2.8484
X2.7559Y-3.4843
X2.7579Y-2.8996
X2.7618Y-2.378
X2.7618Y-2.4272
X2.7618Y-2.4783
X2.7618Y-2.5276
X2.7913Y-2.0157
X2.7913Y-2.0728
X2.7933Y-4.2087
X2.7982Y-3.4557
X2.7982Y-4.1388
X2.8012Y-3.7598
X2.8031Y-3.8012
X2.8169Y-1.8976
X2.8583Y-3.0571
X2.8586Y-3.1708
X2.8602Y-2.063
X2.8603Y-3.0164
X2.8839Y-2.2835
X2.8898Y-2.5
X2.8901Y-2.646
X2.9094Y-4.7283
X2.9252Y-1.9272
X2.9252Y-1.9626
X2.9252Y-1.998
X2.9291Y-3.0217
X2.9291Y-4.5295
X2.935Y-2.25
X2.9606Y-4.7283
X2.9646Y-2.063
X2.9921Y-3.6496
X3.0177Y-2.9961
X3.0276Y-4.7539
X3.0728Y-1.9469
X3.0758Y-1.8278
X3.1043Y-4.5906
X3.1043Y-4.6516
X3.1161Y-4.4833
X3.1201Y-4.7441
X3.128Y-2.3465
X3.1358Y-1.9508
X3.1378Y-1.8898
X3.1398Y-1.8287
X3.1476Y-4.8799
X3.1476Y-4.9154
X3.2008Y-4.6142
X3.2028Y-4.5531
X3.2067Y-1.9488
X3.2077Y-1.8278
X3.2077Y-1.8278
X3.2697Y-2.1083
X3.2697Y-2.1575
X3.3012Y-2.1319
X3.3031Y-4.5512
X3.3031Y-4.6024
X3.3031Y-4.6476
X3.3287Y-1.9094
X3.3445Y-2.3524
X3.3445Y-4.7756
X3.3484Y-4.8248
X3.3996Y-1.8996
X3.4744Y-2.0236
X3.4862Y-2.3484
X3.5571Y-1.9075
X3.563Y-1.75
X3.622Y-1.9055
X3.624Y-4.7736
X3.628Y-2.4449
X3.6299Y-4.0866
X3.6496Y-4.8189
X3.6516Y-4.5276
X3.6713Y-4.7736
X3.6831Y-3.9429
X3.7042Y-2.2205
X3.7283Y-2.0264
X3.7343Y-4.7756
X3.7362Y-1.9665
X3.7382Y-1.8228
X3.7402Y-4.6594
X3.7421Y-4.5374
X3.7421Y-4.5965
X3.7461Y-3.9429
X3.7913Y-2.0264
X3.8031Y-4.4783
X3.815Y-1.9646
X3.8209Y-1.8228
X3.8248Y-4.5965
X3.8268Y-2.25
X3.8268Y-2.2854
X3.8268Y-4.5354
X3.8268Y-4.6555
X3.8386Y-4.3445
X3.8465Y-2.0354
X3.8484Y-2.6791
X3.872Y-4.8858
X3.8839Y-1.8819
X3.8937Y-1.9606
X3.8937Y-4.8445
X3.8976Y-4.0
X3.9705Y-2.1437
X4.002Y-4.6063
X4.0039Y-4.5551
X4.0039Y-4.6575
X4.0217Y-2.5807
X4.0217Y-2.6181
X4.0217Y-2.6575
X4.0276Y-1.9252
X4.0276Y-1.9626
X4.0295Y-1.998
X4.0374Y-3.8819
X4.0807Y-3.7205
X4.0807Y-3.7559
X4.122Y-2.8031
X4.122Y-2.8425
X4.122Y-2.8917
X4.122Y-2.9331
X4.126Y-2.2854
X4.126Y-2.3248
X4.126Y-2.3622
X4.128Y-3.7343
X4.128Y-3.8071
X4.1713Y-2.2854
X4.1713Y-2.3248
X4.1732Y-2.3622
X4.1791Y-3.7205
X4.1791Y-3.7559
X4.189Y-3.502
X4.2202Y-3.7321
X4.2205Y-3.6929
X4.2638Y-3.7008
X4.2933Y-3.7008
X4.2992Y-3.0157
X4.3543Y-3.7008
X4.3957Y-3.7008
X4.4173Y-2.5512
X4.4252Y-2.998
X4.4252Y-3.2244
X4.4409Y-3.2953
X4.4547Y-3.5443
X4.4705Y-2.7146
X4.4744Y-3.6772
X4.4843Y-2.6398
X4.4882Y-2.565
X4.498Y-3.5443
X4.503Y-2.997
X4.5137Y-3.6767
X4.5138Y-2.7146
X4.5167Y-3.6375
X4.5453Y-2.6378
X4.5492Y-2.565
X4.5561Y-3.6374
X4.565Y-2.7126
X4.5925Y-2.1969
X4.5965Y-3.6378
X4.6063Y-3.6811
X4.6083Y-2.313
X4.626Y-3.5472
X4.6368Y-3.6368
X4.6457Y-2.1969
X4.6476Y-2.313
X4.6547Y-3.2891
X4.6658Y-3.2514
X4.6909Y-1.811
X4.6949Y-2.1969
X4.7421Y-1.811
X4.7461Y-2.1988
X4.7618Y-2.6339
X4.7706Y-3.3214
X4.7795Y-3.1333
X4.7796Y-3.3916
X4.7814Y-2.7293
X4.7927Y-1.813
X4.7928Y-3.2637
X4.7955Y-3.1929
X4.8012Y-3.4355
X4.809Y-2.8049
X4.8091Y-2.6319
X4.815Y-3.1575
X4.8287Y-2.2402
X4.829Y-2.9537
X4.8307Y-3.2972
X4.8427Y-1.813
X4.8661Y-2.6063
X4.8661Y-2.6476
X4.8839Y-2.7146
X4.8876Y-2.9073
X4.9033Y-3.1189
X4.9134Y-2.6496
X4.9228Y-2.925
X4.9252Y-1.8031
X4.935Y-3.4902
X4.937Y-3.6693
X4.939Y-3.7323
X4.939Y-4.0453
X4.939Y-4.1024
X4.9403Y-3.1057
X4.9547Y-2.7165
X4.9593Y-2.0821
X4.9744Y-3.3976
X4.9921Y-1.8071
X5.0118Y-2.0846
X5.0118Y-4.1339
X5.014Y-2.8937
X5.0472Y-3.6713
X5.0492Y-3.3209
X5.0551Y-3.5965
X5.1043Y-2.4094
X5.1083Y-3.7913
X5.124Y-3.9921
X5.128Y-3.563
X5.1282Y-2.9257
X5.1299Y-2.876
X5.1358Y-3.2307
X5.1358Y-3.2807
X5.1437Y-2.0945
X5.1437Y-3.7677
X5.1596Y-2.9019
X5.1772Y-3.7933
X5.1988Y-2.8996
X5.206Y-3.7665
X5.2067Y-2.0945
X5.2126Y-3.2992
X5.2126Y-3.439
X5.2421Y-3.9862
X5.2424Y-3.1122
X5.2657Y-3.748
X5.2657Y-3.7894
X5.2717Y-1.9882
X5.2953Y-3.4311
X5.2953Y-3.689
X5.3031Y-2.8327
X5.3043Y-3.7401
X5.3228Y-1.8012
X5.3248Y-3.0925
X5.3401Y-3.719
X5.3642Y-3.0925
X5.3713Y-2.9695
X5.372Y-4.0177
X5.3789Y-3.4022
X5.3819Y-3.3248
X5.3873Y-3.3638
X5.3898Y-3.5433
X5.4035Y-2.0886
X5.4106Y-2.9717
X5.4154Y-3.7087
X5.4272Y-3.4291
X5.4311Y-3.2971
X5.435Y-3.0945
X5.4351Y-2.9409
X5.4528Y-4.0217
X5.4733Y-3.9655
X5.4791Y-3.1752
X5.4823Y-3.9272
X5.4882Y-3.374
X5.4902Y-3.494
X5.4921Y-3.7042
X5.5453Y-3.8386
X5.5748Y-4.0413
X5.5984Y-3.8425
X5.6245Y-3.4508
X5.6247Y-3.379
X5.6319Y-3.6098
X5.6654Y-3.6334
X5.7028Y-2.9646
X5.7047Y-3.6334
X5.7087Y-3.0709
X5.7264Y-1.7362
X5.7264Y-3.8661
X5.75Y-2.9646
X5.7539Y-3.1831
X5.7756Y-3.0728
X5.7756Y-3.2815
X5.7874Y-1.9252
X5.7972Y-1.8445
X5.811Y-1.9764
X5.815Y-3.8406
X5.8425Y-3.8406
X5.8465Y-2.0157
X5.8681Y-3.0748
X5.874Y-1.9606
X5.9272Y-1.8642
X5.9626Y-2.9528
X5.9862Y-3.5512
X6.0276Y-3.2894
X6.0551Y-3.1752
X6.0669Y-3.2909
X6.0906Y-2.9409
X6.0965Y-3.5704
X6.1142Y-2.9744
X6.1161Y-3.1811
X6.128Y-3.1371
X6.1319Y-3.3524
X6.1339Y-2.685
X6.1339Y-3.5236
X6.1358Y-3.8031
X6.1496Y-2.4094
X6.1531Y-3.2736
X6.1634Y-1.9508
X6.1654Y-1.998
X6.1654Y-2.0492
X6.187Y-3.5335
X6.2165Y-1.9508
X6.2205Y-1.998
X6.2205Y-2.0492
X6.2264Y-3.5846
X6.2441Y-3.2599
X6.2471Y-3.1732
X6.252Y-2.315
X6.2579Y-1.872
X6.2835Y-2.3543
X6.2835Y-2.4094
X6.2874Y-1.8386
X6.2913Y-2.9547
X6.3051Y-3.0197
X6.315Y-2.315
X6.3287Y-3.5551
X6.3583Y-3.25
X6.3701Y-1.935
X6.3701Y-2.0197
X6.372Y-1.9783
X6.372Y-2.063
X6.4291Y-3.1024
X6.4331Y-3.7717
X6.435Y-3.5827
X6.4351Y-3.1457
X6.4488Y-2.7008
X6.4803Y-4.2047
X6.483Y-2.9599
X6.4882Y-3.2717
X6.4921Y-2.0
X6.5079Y-3.5216
X6.5206Y-4.0207
X6.5295Y-3.3701
X6.5374Y-3.2736
X6.5512Y-2.1594
X6.5571Y-2.002
X6.561Y-3.1201
X6.5689Y-2.065
X6.5728Y-2.1142
X6.5748Y-4.2047
X6.5886Y-2.4941
X6.6161Y-3.065
X6.6181Y-3.2835
X6.6201Y-2.4665
X6.622Y-2.5197
X6.6299Y-2.8425
X6.6378Y-3.5827
X6.6457Y-1.9311
X6.6457Y-1.9685
X6.661Y-3.3897
X6.6692Y-3.3471
X6.7047Y-3.7697
X6.7362Y-2.9862
X6.7402Y-2.3701
X6.7504Y-3.1252
X6.751Y-3.5207
X6.7638Y-3.2303
X6.7717Y-3.0394
X6.7736Y-3.4626
X6.7795Y-2.4626
X6.7815Y-4.0177
X6.7992Y-2.6161
X6.7998Y-2.5359
X6.8031Y-3.7736
X6.813Y-3.5295
X6.8524Y-2.3937
X6.8602Y-1.998
X6.8661Y-2.7953
X6.8839Y-1.9528
X6.8919Y-3.2861
X6.9094Y-3.7579
X6.9134Y-3.7028
X6.9272Y-3.3465
X6.939Y-1.9941
X6.9429Y-3.2898
X6.9687Y-4.3699
X6.9712Y-4.4113
X6.9715Y-1.8504
X6.9852Y-2.8189
X6.9921Y-2.6516
X7.0Y-2.1024
X7.0512Y-2.6024
X7.061Y-1.8474
X7.0641Y-2.3779
X7.065Y-4.5256
X7.0787Y-4.0768
X7.1083Y-2.8031
X7.124Y-3.9075
X7.1339Y-3.4488
X7.1398Y-4.5768
X7.1398Y-4.6398
X7.1673Y-2.9843
X7.1713Y-2.7323
X7.1713Y-4.0157
X7.1732Y-2.8189
X7.1824Y-2.4149
X7.189Y-4.9213
X7.2146Y-3.874
X7.2205Y-3.3071
X7.2215Y-4.3317
X7.228Y-2.4429
X7.2894Y-2.813
X7.2913Y-3.4724
X7.2953Y-4.6063
X7.3287Y-4.315
X7.3681Y-2.5945
X7.376Y-3.9114
X7.378Y-3.9547
X7.3937Y-4.5984
X7.4038Y-4.53
X7.4055Y-2.5945
X7.439Y-1.8543
X7.4567Y-4.6969
X7.4567Y-4.9213
X7.4744Y-4.5965
X7.4764Y-1.8543
X7.4981Y-2.0985
X7.5787Y-2.0689
X7.5846Y-4.3169
X7.5846Y-4.561
X7.6102Y-1.9587
X7.6122Y-1.9094
X7.6496Y-2.2406
X7.6555Y-1.9094
X7.6555Y-1.9567
X7.7087Y-4.937
X7.7106Y-2.2402
X7.7106Y-4.3524
X7.7323Y-4.7323
X7.7432Y-2.0094
X7.7539Y-4.6516
X7.8257Y-2.1328
X7.8661Y-3.687
X7.872Y-3.2343
X7.872Y-3.565
X7.874Y-2.2067
X7.874Y-3.1791
X7.878Y-3.0728
X7.8819Y-2.9173
X7.8839Y-2.9803
X7.8917Y-3.9016
X7.9114Y-4.5965
X7.9135Y-4.3893
X7.9173Y-3.4291
X7.9173Y-4.7205
X7.9232Y-4.0571
X7.9331Y-3.7815
X7.9429Y-2.0394
X7.9528Y-2.565
X7.9626Y-1.9035
X7.9646Y-1.9606
X7.9764Y-2.2165
X8.0079Y-1.9035
X8.0079Y-1.9606
X8.0079Y-2.4488
X8.0236Y-4.937
X8.0571Y-4.4409
X8.0961Y-2.0114
X8.1024Y-4.5276
X8.1339Y-2.0886
X8.1437Y-3.2165
X8.1446Y-3.5562
X8.1457Y-4.2933
X8.1457Y-4.3665
X8.1496Y-3.75
X8.1585Y-4.1132
X8.1594Y-3.0256
X8.187Y-3.8425
X8.2067Y-3.3012
X8.2205Y-2.1004
X8.2224Y-4.376
X8.2224Y-4.4468
X8.2362Y-2.685
X8.2382Y-2.7657
X8.2431Y-3.8305
X8.2564Y-3.2861
X8.2697Y-4.0453
X8.2776Y-3.378
X8.2815Y-2.8524
X8.2953Y-3.5796
X8.2992Y-3.8957
T2
X4.063Y-2.7402
X4.1693Y-1.8445
X4.1693Y-1.9823
X4.2008Y-2.7402
T3
X3.713Y-2.7736
X3.713Y-2.8736
X3.713Y-2.9736
X3.713Y-3.0736
X3.713Y-3.1736
X3.713Y-3.2736
X3.713Y-3.3736
X3.713Y-3.4736
X3.713Y-3.5736
X3.713Y-3.6736
X3.813Y-2.7736
X3.813Y-2.8736
X3.813Y-2.9736
X3.813Y-3.0736
X3.813Y-3.1736
X3.813Y-3.2736
X3.813Y-3.3736
X3.813Y-3.4736
X3.813Y-3.5736
X3.813Y-3.6736
X4.3555Y-4.0354
X4.3555Y-4.1354
X4.4555Y-4.0354
X4.4555Y-4.1354
X4.5555Y-4.0354
X4.5555Y-4.1354
X4.6555Y-4.0354
X4.6555Y-4.1354
X4.7555Y-4.0354
X4.7555Y-4.1354
X5.0594Y-2.6815
X5.0594Y-2.7815
X5.1594Y-2.6815
X5.1594Y-2.7815
X5.2594Y-2.6815
X5.2594Y-2.7815
X5.3594Y-2.6815
X5.3594Y-2.7815
X5.4594Y-2.6815
X5.4594Y-2.7815
X5.5594Y-2.6815
X5.5594Y-2.7815
X5.6594Y-2.6815
X5.6594Y-2.7815
X5.7594Y-2.6815
X5.7594Y-2.7815
X5.8594Y-2.6815
X5.8594Y-2.7815
X5.8882Y-4.0374
X5.8882Y-4.1374
X5.9594Y-2.6815
X5.9594Y-2.7815
X5.9882Y-4.0374
X5.9882Y-4.1374
X6.0882Y-4.0374
X6.0882Y-4.1374
X6.1882Y-4.0374
X6.1882Y-4.1374
X6.2882Y-4.0374
X6.2882Y-4.1374
T4
X4.1161Y-3.128
X4.2146Y-3.128
X4.313Y-3.128
X4.4114Y-3.128
X4.5098Y-3.128
T5
X3.189Y-2.5197
X3.189Y-2.6772
X3.189Y-2.8346
X3.189Y-2.9921
X3.189Y-3.1496
X3.189Y-3.3071
X3.189Y-3.4646
X3.189Y-3.622
X3.189Y-3.7795
X3.189Y-3.937
X3.189Y-4.0945
X3.189Y-4.252
X3.3465Y-2.5984
X3.3465Y-2.7559
X3.3465Y-2.9134
X3.3465Y-3.0709
X3.3465Y-3.2283
X3.3465Y-3.3858
X3.3465Y-3.5433
X3.3465Y-3.7008
X3.3465Y-3.8583
X3.3465Y-4.0157
X3.3465Y-4.1732
X3.5039Y-2.5197
X3.5039Y-2.6772
X3.5039Y-2.8346
X3.5039Y-2.9921
X3.5039Y-3.1496
X3.5039Y-3.3071
X3.5039Y-3.4646
X3.5039Y-3.622
X3.5039Y-3.7795
X3.5039Y-3.937
X3.5039Y-4.0945
X3.5039Y-4.252
X4.9409Y-2.2165
X4.9409Y-2.5315
X5.0197Y-2.374
X5.0984Y-2.2165
X5.0984Y-2.5315
X5.1772Y-2.374
X5.2559Y-2.2165
X5.2559Y-2.5315
X5.3346Y-2.374
X5.4134Y-2.2165
X5.4134Y-2.5315
X5.4921Y-2.374
X5.5709Y-2.2165
X5.5709Y-2.5315
X5.6496Y-2.374
X5.7283Y-2.2165
X5.7283Y-2.5315
X5.8071Y-2.374
X5.8858Y-2.2165
X5.8858Y-2.5315
X5.9646Y-2.374
X6.0433Y-2.2165
X6.0433Y-2.5315
X7.4803Y-2.5197
X7.4803Y-2.6772
X7.4803Y-2.8346
X7.4803Y-2.9921
X7.4803Y-3.1496
X7.4803Y-3.3071
X7.4803Y-3.4646
X7.4803Y-3.622
X7.4803Y-3.7795
X7.4803Y-3.937
X7.4803Y-4.0945
X7.4803Y-4.252
X7.6378Y-2.5984
X7.6378Y-2.7559
X7.6378Y-2.9134
X7.6378Y-3.0709
X7.6378Y-3.2283
X7.6378Y-3.3858
X7.6378Y-3.5433
X7.6378Y-3.7008
X7.6378Y-3.8583
X7.6378Y-4.0157
X7.6378Y-4.1732
X7.7953Y-2.5197
X7.7953Y-2.6772
X7.7953Y-2.8346
X7.7953Y-2.9921
X7.7953Y-3.1496
X7.7953Y-3.3071
X7.7953Y-3.4646
X7.7953Y-3.622
X7.7953Y-3.7795
X7.7953Y-3.937
X7.7953Y-4.0945
X7.7953Y-4.252
M30
